<svg id="로고" xmlns="http://www.w3.org/2000/svg" xmlns:xlink="http://www.w3.org/1999/xlink" width="106.561" height="39.783" viewBox="0 0 106.561 39.783">
  <defs>
    <clipPath id="clip-path">
      <rect id="사각형_92" data-name="사각형 92" width="106.561" height="39.783" transform="translate(0 0)" fill="none"/>
    </clipPath>
  </defs>
  <g id="그룹_38" data-name="그룹 38">
    <g id="그룹_37" data-name="그룹 37" clip-path="url(#clip-path)">
      <path id="패스_146" data-name="패스 146" d="M79.674,17.679c0,1.678,1.753,3.04,3.914,3.04s3.916-1.362,3.916-3.04a2.737,2.737,0,0,0-1.164-2.162h1.491v-1.19H84.789V12.955h-2.4v1.371H79.353v1.19h1.486a2.753,2.753,0,0,0-1.164,2.162m3.914-1.918a1.8,1.8,0,0,1,1.663,1.918,1.68,1.68,0,1,1-3.327,0,1.806,1.806,0,0,1,1.663-1.918M80.127,32.477h.7V30.021l1.464,2.456h.7V28.969h-.7V31.4l-1.469-2.436h-.691ZM68.7,31.789h1.262l.265.689h.754l-1.3-3.508h-.7l-1.294,3.508h.754Zm.636-1.913.5,1.52h-1Zm-3.624-7.968a1.774,1.774,0,0,0,1.2.381H70.1a3.95,3.95,0,0,0,1.108-.136c.3-.09.573-.179.952-.327V26.5h2.251V18.126h1.057V26.5h2.251V13.315H75.465V16.9H74.408V13.315H72.157v7.407a6.577,6.577,0,0,1-.919.25,5.322,5.322,0,0,1-1.053.09H67.61V15.033H71V13.809H65.272v7.08a1.286,1.286,0,0,0,.439,1.019m25.837-4.146h1.928V16.535H91.548V13.293H89.17v7.817h2.378ZM42.841,28.969v2.569a.835.835,0,0,0,.351.746,2.73,2.73,0,0,0,2.213,0,.83.83,0,0,0,.347-.746V28.969h-.736v2.607a.42.42,0,0,1-.175.373,1.294,1.294,0,0,1-1.086,0,.418.418,0,0,1-.18-.373V28.969Zm33.348,0v2.569a.832.832,0,0,0,.349.746,2.727,2.727,0,0,0,2.212,0,.832.832,0,0,0,.35-.746V28.969h-.736v2.607a.422.422,0,0,1-.175.373.972.972,0,0,1-.541.119.991.991,0,0,1-.546-.119.418.418,0,0,1-.179-.373V28.969Zm29.155,0-.464.981a2.45,2.45,0,0,0-.108.268c-.033.093-.059.187-.087.29a3.257,3.257,0,0,0-.1-.32,1.8,1.8,0,0,0-.1-.241l-.465-.978h-.773l1.046,2.014v1.494h.768V30.983l1.052-2.014Zm-33.717,0v3.508H73.97v-.441h-1.6V28.969Zm34.935-4.232h-4.723V19.27H99.551v5.467H98.374V19.27H96.085v5.467H93.7v1.211h12.863Zm-3.473-5.658c0,.987-.03,1.8-.1,2.436a3.553,3.553,0,0,1-.555,1.64h2.1a4.944,4.944,0,0,0,.656-1.606,10.156,10.156,0,0,0,.237-2.311V13.883h-10.5v1.226h8.164Zm-9.925,9.89h-.892v3.508h.742V30.763h.018L94.3,32.477h.8l-1.32-1.729a1.394,1.394,0,0,0,.784-.258.75.75,0,0,0,.261-.608.742.742,0,0,0-.381-.7,2.84,2.84,0,0,0-1.284-.21m.722,1.388a1.152,1.152,0,0,1-.645.135h-.227V29.385h.205a1.457,1.457,0,0,1,.676.108.416.416,0,0,1,.18.39.542.542,0,0,1-.19.474m8.122,2.12V29.409h1.027v-.44h-2.808v.44h1.028v3.069Zm-4.96-.542a1.006,1.006,0,0,1-.542.126,1.924,1.924,0,0,1-.42-.05,3.4,3.4,0,0,1-.486-.15v.481a3.225,3.225,0,0,0,.49.132,2.747,2.747,0,0,0,.468.044,1.89,1.89,0,0,0,1.04-.26.777.777,0,0,0,.4-.664.755.755,0,0,0-.2-.512,2.237,2.237,0,0,0-.669-.465c-.026-.012-.065-.033-.116-.059-.544-.275-.814-.513-.814-.716a.4.4,0,0,1,.21-.349,1.055,1.055,0,0,1,.563-.133,1.781,1.781,0,0,1,.407.049,2.148,2.148,0,0,1,.42.143v-.474a3.005,3.005,0,0,0-.47-.121,3.445,3.445,0,0,0-.5-.037,1.705,1.705,0,0,0-.981.266.775.775,0,0,0-.4.661.711.711,0,0,0,.2.494,2.489,2.489,0,0,0,.689.478c.028.017.074.039.135.071q.768.4.768.709a.381.381,0,0,1-.2.336m1.764.542h.743V28.969h-.743Zm-42.039,0V29.409H57.8v-.44H54.993v.44h1.025v3.069Zm34.616-3.085v-.423H89.18v3.508h2.208v-.441H89.924V30.85h1.341v-.416H89.924V29.392Zm-6.581-.423h-.742v3.508h.742Zm1.428,0h-.754L86.7,32.477h.63l1.215-3.508h-.748l-.778,2.381Zm5.312-7.279H80.685V22.9H89.17v3.575h2.378ZM36.522,20.027a3.547,3.547,0,0,1-2.189,1.642l1.091.828a3.819,3.819,0,0,0,1.988-.942,3.087,3.087,0,0,0,1.146-1.639,3.206,3.206,0,0,0,1.152,1.639,3.785,3.785,0,0,0,1.961.942l1.058-.8v4.8h2.233V13.315H42.728v3.6H40.776v1.226h1.952v3.381a3.407,3.407,0,0,1-2.149-1.512,5.694,5.694,0,0,1-.862-3.171V14.954h1.92V13.745H35.112v1.208h2.267v1.889a5.72,5.72,0,0,1-.858,3.185m11.845,8.942v3.508h.706V30.021l1.463,2.456h.7V28.969h-.705V31.4l-1.47-2.436ZM35.16,32.526a1.357,1.357,0,0,0,.871-.234.886.886,0,0,0,.282-.721v-2.6h-.745v2.615a.487.487,0,0,1-.132.375.607.607,0,0,1-.413.119,1.147,1.147,0,0,1-.314-.047,1.7,1.7,0,0,1-.339-.146v.485a1.88,1.88,0,0,0,.383.117,2.066,2.066,0,0,0,.407.039m12.97-19.212H45.9V26.5h2.233ZM39.555,29.392v-.423H37.349v3.508h2.206v-.441H38.09V30.85h1.34v-.416H38.09V29.392ZM53.9,17.479a6.441,6.441,0,0,1-3.511,1.1l.932.928a9.228,9.228,0,0,0,3.338-.671,3.928,3.928,0,0,0,2.119-1.624,4.111,4.111,0,0,0,2.138,1.617,9.09,9.09,0,0,0,3.319.678l.932-.928a6.465,6.465,0,0,1-3.5-1.1,3.075,3.075,0,0,1-1.687-2.539v-.081h4.309V13.633H51.27v1.226H55.58v.081A3.074,3.074,0,0,1,53.9,17.479M62.9,32.1a2.072,2.072,0,0,0,.367-1.38,2.091,2.091,0,0,0-.367-1.386,1.938,1.938,0,0,0-2.4,0,2.09,2.09,0,0,0-.369,1.383A2.071,2.071,0,0,0,60.5,32.1a1.939,1.939,0,0,0,2.4,0m-1.829-.339a2.118,2.118,0,0,1-.191-1.05,2.122,2.122,0,0,1,.187-1.052.815.815,0,0,1,1.262,0,2.15,2.15,0,0,1,.184,1.054,2.164,2.164,0,0,1-.182,1.066.675.675,0,0,1-.624.291.7.7,0,0,1-.638-.306m5.277.715h.7V28.969h-.706V31.4l-1.47-2.436h-.688v3.508h.7V30.021Zm-14.483,0h.755l.256-.689h1.261l.267.689h.754l-1.3-3.508h-.7ZM54.014,31.4h-1l.5-1.52Zm4.443,1.081H59.2V28.969h-.744ZM55.6,26.5h2.379V21.928h5.613v-1.21H49.966v1.21H55.6ZM41.538,32.292a.879.879,0,0,0,.283-.721v-2.6h-.743v2.615a.485.485,0,0,1-.133.375.6.6,0,0,1-.413.119,1.154,1.154,0,0,1-.314-.047,1.691,1.691,0,0,1-.34-.146v.485a1.953,1.953,0,0,0,.385.117,2.025,2.025,0,0,0,.406.039,1.34,1.34,0,0,0,.868-.234" fill="#95a0a6"/>
      <path id="패스_147" data-name="패스 147" d="M79.674,17.679c0,1.678,1.753,3.04,3.914,3.04s3.916-1.362,3.916-3.04a2.737,2.737,0,0,0-1.164-2.162h1.491v-1.19H84.789V12.955h-2.4v1.371H79.353v1.19h1.486a2.753,2.753,0,0,0-1.164,2.162m3.914-1.918a1.8,1.8,0,0,1,1.663,1.918,1.68,1.68,0,1,1-3.327,0,1.806,1.806,0,0,1,1.663-1.918M80.127,32.477h.7V30.021l1.464,2.456h.7V28.969h-.7V31.4l-1.469-2.436h-.691ZM68.7,31.789h1.262l.265.689h.754l-1.3-3.508h-.7l-1.294,3.508h.754Zm.636-1.913.5,1.52h-1Zm-3.624-7.968a1.774,1.774,0,0,0,1.2.381H70.1a3.95,3.95,0,0,0,1.108-.136c.3-.09.573-.179.952-.327V26.5h2.251V18.126h1.057V26.5h2.251V13.315H75.465V16.9H74.408V13.315H72.157v7.407a6.577,6.577,0,0,1-.919.25,5.322,5.322,0,0,1-1.053.09H67.61V15.033H71V13.809H65.272v7.08a1.286,1.286,0,0,0,.439,1.019m25.837-4.146h1.928V16.535H91.548V13.293H89.17v7.817h2.378ZM42.841,28.969v2.569a.835.835,0,0,0,.351.746,2.73,2.73,0,0,0,2.213,0,.83.83,0,0,0,.347-.746V28.969h-.736v2.607a.42.42,0,0,1-.175.373,1.294,1.294,0,0,1-1.086,0,.418.418,0,0,1-.18-.373V28.969Zm33.348,0v2.569a.832.832,0,0,0,.349.746,2.727,2.727,0,0,0,2.212,0,.832.832,0,0,0,.35-.746V28.969h-.736v2.607a.422.422,0,0,1-.175.373.972.972,0,0,1-.541.119.991.991,0,0,1-.546-.119.418.418,0,0,1-.179-.373V28.969Zm29.155,0-.464.981a2.45,2.45,0,0,0-.108.268c-.033.093-.059.187-.087.29a3.257,3.257,0,0,0-.1-.32,1.8,1.8,0,0,0-.1-.241l-.465-.978h-.773l1.046,2.014v1.494h.768V30.983l1.052-2.014Zm-33.717,0v3.508H73.97v-.441h-1.6V28.969Zm34.935-4.232h-4.723V19.27H99.551v5.467H98.374V19.27H96.085v5.467H93.7v1.211h12.863Zm-3.473-5.658c0,.987-.03,1.8-.1,2.436a3.553,3.553,0,0,1-.555,1.64h2.1a4.944,4.944,0,0,0,.656-1.606,10.156,10.156,0,0,0,.237-2.311V13.883h-10.5v1.226h8.164Zm-9.925,9.89h-.892v3.508h.742V30.763h.018L94.3,32.477h.8l-1.32-1.729a1.394,1.394,0,0,0,.784-.258.75.75,0,0,0,.261-.608.742.742,0,0,0-.381-.7,2.84,2.84,0,0,0-1.284-.21m.722,1.388a1.152,1.152,0,0,1-.645.135h-.227V29.385h.205a1.457,1.457,0,0,1,.676.108.416.416,0,0,1,.18.39.542.542,0,0,1-.19.474m8.122,2.12V29.409h1.027v-.44h-2.808v.44h1.028v3.069Zm-4.96-.542a1.006,1.006,0,0,1-.542.126,1.924,1.924,0,0,1-.42-.05,3.4,3.4,0,0,1-.486-.15v.481a3.225,3.225,0,0,0,.49.132,2.747,2.747,0,0,0,.468.044,1.89,1.89,0,0,0,1.04-.26.777.777,0,0,0,.4-.664.755.755,0,0,0-.2-.512,2.237,2.237,0,0,0-.669-.465c-.026-.012-.065-.033-.116-.059-.544-.275-.814-.513-.814-.716a.4.4,0,0,1,.21-.349,1.055,1.055,0,0,1,.563-.133,1.781,1.781,0,0,1,.407.049,2.148,2.148,0,0,1,.42.143v-.474a3.005,3.005,0,0,0-.47-.121,3.445,3.445,0,0,0-.5-.037,1.705,1.705,0,0,0-.981.266.775.775,0,0,0-.4.661.711.711,0,0,0,.2.494,2.489,2.489,0,0,0,.689.478c.028.017.074.039.135.071q.768.4.768.709a.381.381,0,0,1-.2.336m1.764.542h.743V28.969h-.743Zm-42.039,0V29.409H57.8v-.44H54.993v.44h1.025v3.069Zm34.616-3.085v-.423H89.18v3.508h2.208v-.441H89.924V30.85h1.341v-.416H89.924V29.392Zm-6.581-.423h-.742v3.508h.742Zm1.428,0h-.754L86.7,32.477h.63l1.215-3.508h-.748l-.778,2.381Zm5.312-7.279H80.685V22.9H89.17v3.575h2.378ZM36.522,20.027a3.547,3.547,0,0,1-2.189,1.642l1.091.828a3.819,3.819,0,0,0,1.988-.942,3.087,3.087,0,0,0,1.146-1.639,3.206,3.206,0,0,0,1.152,1.639,3.785,3.785,0,0,0,1.961.942l1.058-.8v4.8h2.233V13.315H42.728v3.6H40.776v1.226h1.952v3.381a3.407,3.407,0,0,1-2.149-1.512,5.694,5.694,0,0,1-.862-3.171V14.954h1.92V13.745H35.112v1.208h2.267v1.889a5.72,5.72,0,0,1-.858,3.185m11.845,8.942v3.508h.706V30.021l1.463,2.456h.7V28.969h-.705V31.4l-1.47-2.436ZM35.16,32.526a1.357,1.357,0,0,0,.871-.234.886.886,0,0,0,.282-.721v-2.6h-.745v2.615a.487.487,0,0,1-.132.375.607.607,0,0,1-.413.119,1.147,1.147,0,0,1-.314-.047,1.7,1.7,0,0,1-.339-.146v.485a1.88,1.88,0,0,0,.383.117,2.066,2.066,0,0,0,.407.039m12.97-19.212H45.9V26.5h2.233ZM39.555,29.392v-.423H37.349v3.508h2.206v-.441H38.09V30.85h1.34v-.416H38.09V29.392ZM53.9,17.479a6.441,6.441,0,0,1-3.511,1.1l.932.928a9.228,9.228,0,0,0,3.338-.671,3.928,3.928,0,0,0,2.119-1.624,4.111,4.111,0,0,0,2.138,1.617,9.09,9.09,0,0,0,3.319.678l.932-.928a6.465,6.465,0,0,1-3.5-1.1,3.075,3.075,0,0,1-1.687-2.539v-.081h4.309V13.633H51.27v1.226H55.58v.081A3.074,3.074,0,0,1,53.9,17.479M62.9,32.1a2.072,2.072,0,0,0,.367-1.38,2.091,2.091,0,0,0-.367-1.386,1.938,1.938,0,0,0-2.4,0,2.09,2.09,0,0,0-.369,1.383A2.071,2.071,0,0,0,60.5,32.1a1.939,1.939,0,0,0,2.4,0m-1.829-.339a2.118,2.118,0,0,1-.191-1.05,2.122,2.122,0,0,1,.187-1.052.815.815,0,0,1,1.262,0,2.15,2.15,0,0,1,.184,1.054,2.164,2.164,0,0,1-.182,1.066.675.675,0,0,1-.624.291.7.7,0,0,1-.638-.306m5.277.715h.7V28.969h-.706V31.4l-1.47-2.436h-.688v3.508h.7V30.021Zm-14.483,0h.755l.256-.689h1.261l.267.689h.754l-1.3-3.508h-.7ZM54.014,31.4h-1l.5-1.52Zm4.443,1.081H59.2V28.969h-.744ZM55.6,26.5h2.379V21.928h5.613v-1.21H49.966v1.21H55.6ZM41.538,32.292a.879.879,0,0,0,.283-.721v-2.6h-.743v2.615a.485.485,0,0,1-.133.375.6.6,0,0,1-.413.119,1.154,1.154,0,0,1-.314-.047,1.691,1.691,0,0,1-.34-.146v.485a1.953,1.953,0,0,0,.385.117,2.025,2.025,0,0,0,.406.039,1.34,1.34,0,0,0,.868-.234" fill="#5f5e5e"/>
      <path id="패스_148" data-name="패스 148" d="M8.889,12.8A30.794,30.794,0,0,1,5.517,17.89a16.191,16.191,0,0,0-3.465,6.8C.879,32.661,5.877,36.769,8.942,37.926A10.79,10.79,0,0,1,3.3,26.438c.5-2.445,1.816-4.957,4.813-8.152,0,0,3.535-3.653,4.012-6.828A11.127,11.127,0,0,0,7.189,0a12.134,12.134,0,0,1,1.7,12.8" fill="#64a91c"/>
      <path id="패스_149" data-name="패스 149" d="M13.234,14.014a17.617,17.617,0,0,1-3.787,4.97c-4.327,4.138-4.884,6.593-4.884,6.593A10.385,10.385,0,0,0,5.62,34.3,9.281,9.281,0,0,0,11.3,38.379a7.444,7.444,0,0,1-5.055-6.533c-.184-2.465,1.21-5.587,5.239-8.729a22.227,22.227,0,0,0,3.608-3.624,11.959,11.959,0,0,0,2.278-5.406,12.772,12.772,0,0,0-.743-6.309,13.7,13.7,0,0,0-3.59-5.358,13.629,13.629,0,0,1,.2,11.593" fill="#b0bcc2"/>
      <path id="패스_150" data-name="패스 150" d="M28.22,27V13.33H22.756V28.57c-.017,1.058-.11,2.24-.11,2.24a7.17,7.17,0,0,1-.566,2.476,8.486,8.486,0,0,1-3.221,3.887,11.489,11.489,0,0,1-11.4.659c7.127,4.19,14.063.33,14.063.33,4.881-2.8,6.213-6.618,6.572-8.671A19.206,19.206,0,0,0,28.22,27" fill="#003288"/>
      <path id="패스_151" data-name="패스 151" d="M6.347,36.966A12.28,12.28,0,0,1,1.757,30.7a14.413,14.413,0,0,1-.465-6.6,17.015,17.015,0,0,1,1.647-4.672A26.082,26.082,0,0,1,4.844,16.58a25.962,25.962,0,0,0,1.609-2.5,8.034,8.034,0,0,0-.655-9,9.1,9.1,0,0,1-.435,7.044s-.873,1.484-1.822,2.891a23.81,23.81,0,0,0-2.7,5.022,14.77,14.77,0,0,0-.472,8.289s.987,5.908,5.974,8.632" fill="#0099e7"/>
      <path id="패스_152" data-name="패스 152" d="M12.034,36.682v-1.7H11.7V34.75h.679v1.932Z" fill="#003288"/>
      <path id="패스_153" data-name="패스 153" d="M13.8,35.34a.5.5,0,0,0-.068-.294.25.25,0,0,0-.216-.093.233.233,0,0,0-.2.092.548.548,0,0,0-.063.3.535.535,0,0,0,.062.3.247.247,0,0,0,.212.085.243.243,0,0,0,.212-.092.521.521,0,0,0,.064-.3m-.062.507a.48.48,0,0,1-.146.073.515.515,0,0,1-.164.024.5.5,0,0,1-.393-.136.879.879,0,0,1,.028-.934.624.624,0,0,1,.465-.155.6.6,0,0,1,.456.164.713.713,0,0,1,.15.494,1.322,1.322,0,0,1-.124.542,4.422,4.422,0,0,1-.49.762h-.4q.261-.323.393-.5c.087-.119.163-.229.225-.33" fill="#003288"/>
      <path id="패스_154" data-name="패스 154" d="M14.443,36.386a.83.83,0,0,0,.177.066.764.764,0,0,0,.185.023.5.5,0,0,0,.365-.119A.465.465,0,0,0,15.292,36a.307.307,0,0,0-.125-.267.647.647,0,0,0-.372-.088c-.067,0-.123,0-.171.006a1.386,1.386,0,0,0-.142.02l.18-.925h.954v.237h-.666l-.106.471.1-.011.077,0a.643.643,0,0,1,.449.155.533.533,0,0,1,.17.412.646.646,0,0,1-.207.512.838.838,0,0,1-.577.184,1.44,1.44,0,0,1-.259-.023,1.317,1.317,0,0,1-.245-.069Z" fill="#003288"/>
      <path id="패스_155" data-name="패스 155" d="M15.929,36.682l.727-1.025a1.531,1.531,0,0,0,.144-.25.522.522,0,0,0,.047-.205.268.268,0,0,0-.06-.191.258.258,0,0,0-.191-.063.238.238,0,0,0-.2.082.491.491,0,0,0-.06.279v.067h-.342a.148.148,0,0,1,0-.037v-.06a.523.523,0,0,1,.157-.416.689.689,0,0,1,.471-.14.71.71,0,0,1,.446.127.423.423,0,0,1,.162.351.654.654,0,0,1-.063.27,1.693,1.693,0,0,1-.212.332l-.493.632h.712v.245Z" fill="#003288"/>
      <path id="패스_156" data-name="패스 156" d="M16.784,30.348v2.326a.753.753,0,0,0,.317.675,1.844,1.844,0,0,0,1,.212,1.867,1.867,0,0,0,1-.212.753.753,0,0,0,.316-.675V30.348h-.668v2.36a.376.376,0,0,1-.158.337,1.177,1.177,0,0,1-.983,0,.374.374,0,0,1-.162-.337v-2.36Z" fill="#003288"/>
      <path id="패스_157" data-name="패스 157" d="M9.964,33.568a1.224,1.224,0,0,0,.787-.211.8.8,0,0,0,.256-.654V30.348h-.675v2.367a.438.438,0,0,1-.119.339.543.543,0,0,1-.373.109,1.04,1.04,0,0,1-.285-.044,1.545,1.545,0,0,1-.307-.132v.44a1.686,1.686,0,0,0,.348.106,1.9,1.9,0,0,0,.366.035" fill="#003288"/>
      <path id="패스_158" data-name="패스 158" d="M13.77,30.733v-.385h-2v3.176h2v-.4H12.444V32.052h1.213v-.378H12.444v-.942Z" fill="#003288"/>
      <path id="패스_159" data-name="패스 159" d="M15.771,33.357a.8.8,0,0,0,.255-.653V30.348h-.671v2.367a.44.44,0,0,1-.12.339.544.544,0,0,1-.374.109,1.063,1.063,0,0,1-.285-.044,1.441,1.441,0,0,1-.307-.132v.44a1.75,1.75,0,0,0,.349.106,1.831,1.831,0,0,0,.368.035,1.215,1.215,0,0,0,.786-.211" fill="#003288"/>
      <path id="패스_160" data-name="패스 160" d="M14.711,29.327a1.262,1.262,0,0,0,.582-.193l3.39.234V25.033l-.353-.02.157.245v3.927l-3.26-.208a.959.959,0,0,1-1.136,0l-3.259.208V25.258l.156-.245-.354.02v4.335l3.391-.234a1.253,1.253,0,0,0,.581.193.938.938,0,0,0,.106,0" fill="#b0bcc2"/>
      <path id="패스_161" data-name="패스 161" d="M11.353,24.766c-.075.117-.335.523-.343.534v3.521l.343-.566Z" fill="#b0bcc2"/>
      <path id="패스_162" data-name="패스 162" d="M14.129,28.792l.01.009a.757.757,0,0,0,.386.178.739.739,0,0,0-.38-.556,2.37,2.37,0,0,0-1.072-.184c-.224,0-.464.013-.737.04s-.542.065-.826.116c-.012.019-.314.517-.36.592l2.979-.2" fill="#b0bcc2"/>
      <path id="패스_163" data-name="패스 163" d="M18.306,25.3l-.342-.534v3.489l.342.566Z" fill="#b0bcc2"/>
      <path id="패스_164" data-name="패스 164" d="M15.172,28.423a.745.745,0,0,0-.381.556.754.754,0,0,0,.387-.178l.009-.009,2.979.2-.358-.592c-.284-.051-.562-.09-.827-.116s-.513-.039-.736-.039a2.375,2.375,0,0,0-1.073.184" fill="#b0bcc2"/>
      <path id="패스_165" data-name="패스 165" d="M16.978,24.394a7,7,0,0,0-.76-.043l-.34.015-.259.039a1.363,1.363,0,0,0-.472.181l-.037.028-.016.012a1.155,1.155,0,0,0-.33.346v3.535a.824.824,0,0,1,.18-.174,2.113,2.113,0,0,1,.858-.266l.015,0,.017,0a5.036,5.036,0,0,1,.633-.021l.47.032c.238.023.514.058.822.1V24.519c-.267-.055-.53-.1-.78-.124m.342.783a1.693,1.693,0,0,1-.994.952s.13.031.432.387a1.245,1.245,0,0,0,.395.325s-.427.834-.469.933a1.859,1.859,0,0,1-.527-.824.15.15,0,0,0-.149-.077s-.339.037-.478.049a.125.125,0,0,1-.137,0l-.05-.052s-.012,0-.033-.015a.113.113,0,0,1-.047-.081.089.089,0,0,1,.028-.071,5.023,5.023,0,0,0,.671-.526s-.006.02.026-.059A1.1,1.1,0,0,1,15.717,26s-.119-.081-.116-.186l.028,0s0,.126.245.2a.539.539,0,0,1-.08-.178.12.12,0,0,1,.034-.008s.069.206.187.211c0,0,.231-.141.249-.3,0,0-.1-.059-.135-.3l.032-.018s.038.227.152.22c0,0,.1,0,.167-.191a.926.926,0,0,0,.05-.316,1.11,1.11,0,0,0-.024-.154l.024-.038a.681.681,0,0,1,.031.116.482.482,0,0,1,.091-.232l.021.011a.414.414,0,0,0-.055.255,1.149,1.149,0,0,1-.076.409,1.7,1.7,0,0,1-.384.568,3.443,3.443,0,0,0,.47-.227s.14-.087.157-.383h.037a.625.625,0,0,1,0,.242,1.019,1.019,0,0,0,.429-.519.319.319,0,0,0-.01-.211l.015-.02a.379.379,0,0,1,.052.147.268.268,0,0,1,.16-.145l.008.022a.392.392,0,0,0-.154.2" fill="#b0bcc2"/>
      <path id="패스_166" data-name="패스 166" d="M14.221,24.625l-.014-.011-.038-.027a1.349,1.349,0,0,0-.471-.182l-.261-.039-.338-.015a6.815,6.815,0,0,0-.76.043c-.252.027-.515.069-.781.124v3.659c.308-.046.584-.081.821-.1l.471-.033a5.085,5.085,0,0,1,.63.021H13.5l.018,0a2.09,2.09,0,0,1,.854.268.792.792,0,0,1,.18.172V24.972a1.158,1.158,0,0,0-.332-.347m-.472,2.952h-1.32a2.939,2.939,0,0,0-.2-1.568c.277-.308.628-.764.783-.968v1.225a.208.208,0,1,0,.154,0V25.03c.15.2.509.665.791.978a2.936,2.936,0,0,0-.2,1.568" fill="#b0bcc2"/>
    </g>
  </g>
</svg>
