<svg xmlns="http://www.w3.org/2000/svg" width="74.995" height="68" viewBox="0 0 74.995 68"><path d="M58.2,29.913V4.78A4.767,4.767,0,0,0,53.461,0H16.389a2.08,2.08,0,0,0-.739.148c-.031.012-.061.027-.092.041a2.145,2.145,0,0,0-.258.14c-.029.018-.059.036-.088.056a2.215,2.215,0,0,0-.3.243L.623,15.034a2.162,2.162,0,0,0-.24.3c-.021.03-.039.062-.058.092a2.176,2.176,0,0,0-.131.248c-.015.034-.03.066-.044.1a2.172,2.172,0,0,0-.106.353v.007A2.111,2.111,0,0,0,0,16.506V63.221A4.766,4.766,0,0,0,4.742,68H53.461A4.766,4.766,0,0,0,58.2,63.221V57.749a13.636,13.636,0,0,1-4.254-1.023l0,6.495a.5.5,0,0,1-.489.493H4.742a.5.5,0,0,1-.488-.493V18.692h10.3a4.018,4.018,0,0,0,4-4.028V4.286H53.461a.5.5,0,0,1,.489.494V30.936a13.674,13.674,0,0,1,4.25-1.023M14.3,14.406H7.263L14.3,7.316Z" transform="translate(0)" fill="#6b6b6b"/><path d="M74.372,56.232l0,0-4.018-4.049a13.979,13.979,0,0,0-11.1-22.317c-.356,0-.707.018-1.057.045h0a13.676,13.676,0,0,0-4.252,1.021h0a14,14,0,0,0,0,25.791,13.631,13.631,0,0,0,4.25,1.022v0c.349.026.7.045,1.057.045a13.7,13.7,0,0,0,8.06-2.616c.01.011.017.023.027.034l4.021,4.052a2.112,2.112,0,0,0,2.989.018l.018-.018a2.155,2.155,0,0,0,0-3.03m-14.994-2.72a9.656,9.656,0,0,1-1.178-.065v0a9.493,9.493,0,0,1-4.25-1.557v0a9.7,9.7,0,0,1,0-16.111h0a9.564,9.564,0,0,1,1.775-.932l0,0a9.493,9.493,0,0,1,3.531-.687,9.677,9.677,0,1,1,.12,19.354" transform="translate(0)" fill="#e07141"/><path d="M0,0H25.924V3.709H0Z" transform="translate(12.728 31.169)" fill="#6b6b6b"/><path d="M0,0H25.924V3.709H0Z" transform="translate(12.728 40.213)" fill="#6b6b6b"/><path d="M0,0H19.111V3.709H0Z" transform="translate(12.728 22.123)" fill="#6b6b6b"/><path d="M0,0H30.254V3.709H0Z" transform="translate(12.728 49.259)" fill="#6b6b6b"/></svg>