<svg xmlns="http://www.w3.org/2000/svg" width="26.413" height="28.768" viewBox="0 0 26.413 28.768"><path d="M4.227,15.467l-.166-.141a.866.866,0,0,0,.166.141" transform="translate(0 0)" fill="#5686c5"/><path d="M26.408,11.372h0v0c0-.017,0-.033,0-.05l-.005-.047a.374.374,0,0,0-.018-.087.761.761,0,0,0-.028-.089c-.009-.025-.02-.049-.031-.074l-.024-.046c-.008-.015-.015-.03-.024-.045a.949.949,0,0,0-.058-.083c-.01-.013-.017-.028-.028-.041s-.018-.016-.026-.025-.041-.04-.062-.06-.01-.015-.017-.021L22.6,7.731v.055L13.82.226a.945.945,0,0,0-1.226,0L3.812,7.757V7.728L.332,10.7s-.006.01-.01.013h0q-.038.033-.072.069c-.008.009-.018.016-.026.025s-.019.028-.029.042-.039.054-.057.082a.867.867,0,0,0-.043.079l0,.007-.006.014c-.01.021-.02.042-.028.064s-.02.06-.028.09-.013.057-.018.086-.008.067-.01.1v16.45a.946.946,0,0,0,.944.946H25.468a.945.945,0,0,0,.945-.945h0v-16.4a.17.17,0,0,0,0-.05m-13.2-9.183,10.026,8.636a.929.929,0,0,0,.264.156l.515.439-1.408,1.2-1.89,1.615-7.507,6.415L5.7,14.239,3.812,12.625,2.4,11.42l.927-.792a.953.953,0,0,0,.121-.067ZM1.89,13.471l2.171,1.855.165.141,3.557,3.039L1.89,23.4ZM24.523,26.879H1.89V25.851l7.352-6.1,3.351,2.863a.944.944,0,0,0,1.227,0l3.351-2.863,7.352,6.1Zm0-3.484L18.63,18.506l5.893-5.035Z" transform="translate(0 0)" fill="#999"/><path d="M21.659,5.176H4.756a.945.945,0,0,0-.944.946v6.5L5.7,14.239V7.067H20.714v7.171l1.89-1.615v-6.5h0a.945.945,0,0,0-.945-.945" transform="translate(0 0)" fill="#5686c5"/></svg>