<svg xmlns="http://www.w3.org/2000/svg" width="31.877" height="32.07" viewBox="0 0 31.877 32.07"><path d="M30.14,11.428H20.164V1.834A1.79,1.79,0,0,0,18.426,0H1.738A1.79,1.79,0,0,0,0,1.834v13.2a1.79,1.79,0,0,0,1.738,1.834H4.386L5.8,20.014a1.062,1.062,0,0,0,.842.62,1.035,1.035,0,0,0,.128.008,1.064,1.064,0,0,0,.838-.409l2.63-3.368h1.475v9.594a1.79,1.79,0,0,0,1.738,1.834h7.367l1.416,3.149a1.063,1.063,0,0,0,.842.62,1.089,1.089,0,0,0,.128.008,1.062,1.062,0,0,0,.838-.409l2.63-3.368H30.14a1.79,1.79,0,0,0,1.737-1.834v-13.2a1.79,1.79,0,0,0-1.737-1.834M11.714,13.262v1.476H9.72a1.063,1.063,0,0,0-.838.409L7.018,17.534l-.975-2.168a1.063,1.063,0,0,0-.97-.627H2.127V2.127h15.91v9.3H13.452a1.79,1.79,0,0,0-1.738,1.834m18.037,12.9h-3.6a1.063,1.063,0,0,0-.838.409l-1.864,2.387-.975-2.169a1.064,1.064,0,0,0-.97-.627H13.841V13.555h15.91Z" fill="#999"/><path d="M31.263,22.609H32.4l-2.421-6.448h-.772l-2.421,6.448h1.14l.425-1.224h2.485Zm-2.557-2.24.89-2.563.89,2.563Z" transform="translate(-19.666 -11.865)" fill="#5686c5"/><path d="M73.315,66.835a4.475,4.475,0,0,1-1.281-.917A9.959,9.959,0,0,0,72.9,64.51a8.3,8.3,0,0,0,.654-1.69h1.235V61.776H71.7a9.193,9.193,0,0,1,.081-1.3H70.454c.036.39.091.863.091,1.3H67.539V62.82H68.8a7.8,7.8,0,0,0,.663,1.544A8.964,8.964,0,0,0,70.472,65.9a5.082,5.082,0,0,1-1.39.89,5.958,5.958,0,0,1-1.726.509,6.125,6.125,0,0,0,.327.609,5,5,0,0,1,.327.627A8.433,8.433,0,0,0,71.262,66.7a7.144,7.144,0,0,0,1.408,1.1,7.921,7.921,0,0,0,1.69.79l.327-.6c.109-.191.227-.391.363-.6a5.472,5.472,0,0,1-1.735-.554m-2.062-1.753a9.713,9.713,0,0,1-.754-1.126,4.447,4.447,0,0,1-.481-1.135H72.3a5.312,5.312,0,0,1-.4,1.126,8.257,8.257,0,0,1-.645,1.135" transform="translate(-49.45 -44.399)" fill="#5686c5"/></svg>