<svg xmlns="http://www.w3.org/2000/svg" width="29" height="26" viewBox="0 0 29 26"><path d="M28.054,10.547H.946a.963.963,0,0,1,0-1.925H28.054a.963.963,0,0,1,0,1.925" fill="#5686c5"/><path d="M7.655,15.875H5.882a.72.72,0,0,1-.714-.727v-1.8a.72.72,0,0,1,.714-.727H7.655a.72.72,0,0,1,.714.727v1.8a.72.72,0,0,1-.714.727" fill="#999"/><path d="M15.386,15.875H13.614a.72.72,0,0,1-.714-.727v-1.8a.72.72,0,0,1,.714-.727h1.773a.72.72,0,0,1,.714.727v1.8a.72.72,0,0,1-.714.727" fill="#999"/><path d="M23.118,15.875H21.345a.72.72,0,0,1-.714-.727v-1.8a.72.72,0,0,1,.714-.727h1.773a.72.72,0,0,1,.714.727v1.8a.72.72,0,0,1-.714.727" fill="#999"/><path d="M7.655,21H5.882a.72.72,0,0,1-.714-.727v-1.8a.72.72,0,0,1,.714-.727H7.655a.72.72,0,0,1,.714.727v1.8A.72.72,0,0,1,7.655,21" fill="#999"/><path d="M15.386,21H13.614a.72.72,0,0,1-.714-.727v-1.8a.72.72,0,0,1,.714-.727h1.773a.72.72,0,0,1,.714.727v1.8a.72.72,0,0,1-.714.727" fill="#999"/><path d="M23.118,21H21.345a.72.72,0,0,1-.714-.727v-1.8a.72.72,0,0,1,.714-.727h1.773a.72.72,0,0,1,.714.727v1.8a.72.72,0,0,1-.714.727" fill="#999"/><path d="M26.412,3.306H23.691V.962a.946.946,0,1,0-1.892,0V3.306H7.2V.962a.946.946,0,1,0-1.892,0V3.306H2.588A2.614,2.614,0,0,0,0,5.94V23.367A2.614,2.614,0,0,0,2.588,26H26.412A2.614,2.614,0,0,0,29,23.367V5.94a2.614,2.614,0,0,0-2.588-2.633m.7,20.06a.7.7,0,0,1-.7.709H2.588a.7.7,0,0,1-.7-.709V5.94a.7.7,0,0,1,.7-.708H5.309V6.855a.946.946,0,1,0,1.892,0V5.231H21.8V6.855a.946.946,0,1,0,1.892,0V5.231h2.721a.7.7,0,0,1,.7.708Z" fill="#999"/></svg>