<svg xmlns="http://www.w3.org/2000/svg" width="30" height="30" viewBox="0 0 30 30"><path d="M30,12.648A12.648,12.648,0,0,0,17.352,0V12.648Z" transform="translate(0)" fill="#5686c5"/><path d="M0,15.46A14.556,14.556,0,0,1,14.54.921a1.04,1.04,0,0,1,1.04,1.04v13.5a1.04,1.04,0,0,1-.54.912L3.2,22.862a1.04,1.04,0,0,1-1.412-.411A14.556,14.556,0,0,1,0,15.46M13.5,3.045A12.463,12.463,0,0,0,3.151,20.516L13.5,14.844Z" transform="translate(0)" fill="#999"/><path d="M1.661,21.949a1.041,1.041,0,0,1,.54-.912L14.04,14.548a1.041,1.041,0,0,1,.5-.128h13.5a1.04,1.04,0,0,1,1.04,1.04,14.54,14.54,0,0,1-27.29,6.99,1.041,1.041,0,0,1-.128-.5M14.806,16.5,4.152,22.34a12.459,12.459,0,0,0,22.8-5.84Z" transform="translate(0)" fill="#999"/></svg>