<svg xmlns="http://www.w3.org/2000/svg" width="25.917" height="24" viewBox="0 0 25.917 24"><path d="M38.755,43.34a5.179,5.179,0,0,1,1.9-.578L37.592,37.45a5.253,5.253,0,0,1-1.453,1.36Z" transform="translate(-28.153 -29.174)" fill="#5686c5"/><path d="M51.466,24.851a5.183,5.183,0,0,1-.32-1.783c0-.053.006-.1.008-.156H46.1c0,.052.008.1.008.156a5.183,5.183,0,0,1-.32,1.783Z" transform="translate(-35.667 -17.849)" fill="#5686c5"/><path d="M63.894,44.223l2.574-4.459A5.252,5.252,0,0,1,64.961,38.5l-2.946,5.1a5.174,5.174,0,0,1,1.879.622" transform="translate(-48.311 -29.99)" fill="#5686c5"/><path d="M40.576,71.807a5.217,5.217,0,1,0-5.219-5.219,5.225,5.225,0,0,0,5.219,5.219m-1.46-8.152a3.278,3.278,0,1,1-1.82,2.933,3.254,3.254,0,0,1,1.82-2.933" transform="translate(-27.544 -47.807)" fill="#999"/><path d="M5.219,10.438a5.181,5.181,0,0,0,2.767-.8A5.249,5.249,0,0,0,9.44,8.276a5.252,5.252,0,0,0,1-3.057c0-.053-.007-.1-.008-.156a5.216,5.216,0,1,0-5.211,5.375m0-8.5A3.281,3.281,0,0,1,8.491,5.063c0,.052.008.1.008.156a3.28,3.28,0,1,1-3.28-3.28" fill="#999"/><path d="M70.366,7a5.217,5.217,0,1,0-.312-1.939c0,.052-.008.1-.008.156A5.183,5.183,0,0,0,70.366,7m4.9-5.063a3.28,3.28,0,1,1-3.28,3.28c0-.053.005-.1.008-.156a3.281,3.281,0,0,1,3.272-3.125" transform="translate(-54.567)" fill="#999"/></svg>