<svg xmlns="http://www.w3.org/2000/svg" width="30" height="28" viewBox="0 0 30 28"><path d="M27.112,28H3.188C1.311,28,0,26.526,0,24.415s1.311-3.585,3.188-3.585H27.112a1.1,1.1,0,0,1,0,2.206.8.8,0,0,0-.183.017,5.07,5.07,0,0,0-.111,1.362,5.08,5.08,0,0,0,.11,1.362.779.779,0,0,0,.183.017,1.1,1.1,0,0,1,0,2.206M3.188,23.036c-.9,0-1,.964-1,1.379s.1,1.379,1,1.379H24.7a9.2,9.2,0,0,1-.075-1.379,9.2,9.2,0,0,1,.075-1.379Z" transform="translate(0 0)" fill="#999"/><path d="M27.144,1.12a1.1,1.1,0,0,0-1-1.031c-4.565-.4-7.97.565-10.082,2.849a7.786,7.786,0,0,0-1.125,1.574,8.083,8.083,0,0,0-1.171-1.575C11.587.653,8.144-.313,3.581.089a1.1,1.1,0,0,0-1,1.066A8.761,8.761,0,0,0,4.959,7.033c1.889,1.959,4.7,2.952,8.341,2.952h0c.2,0,.4-.007.6-.013v6.493a1.1,1.1,0,1,0,2.191,0V9.973c.2.006.406.013.6.013,3.636,0,6.409-.994,8.239-2.954A8.564,8.564,0,0,0,27.144,1.12M13.3,7.78h0c-3.015,0-5.285-.761-6.747-2.26a6.461,6.461,0,0,1-1.673-3.3c3.316-.116,5.754.636,7.287,2.226a6.4,6.4,0,0,1,1.643,3.329q-.258.007-.508.007M23.342,5.521c-1.483,1.588-3.89,2.35-7.189,2.251a6.172,6.172,0,0,1,1.515-3.331c1.474-1.594,3.889-2.344,7.218-2.222a6.217,6.217,0,0,1-1.544,3.3" transform="translate(0 0)" fill="#5686c5"/><path d="M26.812,22.817H2.889a1.1,1.1,0,0,1,0-2.206.8.8,0,0,0,.183-.017,5.1,5.1,0,0,0,.11-1.362,5.082,5.082,0,0,0-.11-1.362.783.783,0,0,0-.183-.017,1.1,1.1,0,0,1,0-2.206H26.812c1.877,0,3.188,1.474,3.188,3.585s-1.311,3.584-3.188,3.584M5.3,20.611H26.812c.9,0,1-.964,1-1.379s-.1-1.379-1-1.379H5.3a9.236,9.236,0,0,1,.074,1.379A9.234,9.234,0,0,1,5.3,20.611" transform="translate(0 0)" fill="#999"/></svg>