<svg xmlns="http://www.w3.org/2000/svg" width="30" height="34" viewBox="0 0 30 34"><path d="M18.185,11.5a1.1,1.1,0,0,1-.542-.143,1.091,1.091,0,0,1-.413-1.491L22.547.554a1.1,1.1,0,0,1,1.5-.411,1.091,1.091,0,0,1,.413,1.491l-5.317,9.313a1.1,1.1,0,0,1-.957.554" transform="translate(0 0)" fill="#5686c5"/><path d="M20.846,13.911A1.093,1.093,0,0,1,20.115,12l8.055-7.107a1.1,1.1,0,0,1,1.552.092,1.089,1.089,0,0,1-.093,1.544l-8.056,7.107a1.1,1.1,0,0,1-.729.276" transform="translate(0 0)" fill="#5686c5"/><path d="M21.314,34h-11.3a1.1,1.1,0,0,1-.894-.457,1.089,1.089,0,0,1-.147-.989l.815-2.38A14.552,14.552,0,0,1,.009,17.882a1.089,1.089,0,0,1,.265-.862,1.1,1.1,0,0,1,.826-.372H28.324a1.1,1.1,0,0,1,1.1,1.044c0,.095.319,9.178-7.667,12.446l.626,2.5a1.09,1.09,0,0,1-.2.938,1.1,1.1,0,0,1-.866.42m-9.762-2.187h8.356l-.525-2.1a1.092,1.092,0,0,1,.727-1.3c5.857-1.9,6.907-7.28,7.084-9.576H2.4a12.131,12.131,0,0,0,9.013,9.543,1.1,1.1,0,0,1,.738.527,1.089,1.089,0,0,1,.089.9Z" transform="translate(0 0)" fill="#999"/><path d="M4.176,18.864,2.23,17.845c.259-.489,2.617-4.806,5.7-5.737a3.909,3.909,0,0,1,2.111-.063A7.3,7.3,0,0,1,14.91,9.362c1.948-.113,3.84.8,5.628,2.718a4.538,4.538,0,0,1,2.612.14c1.7.607,3.076,2.175,4.092,4.661l-2.037.824c-.751-1.838-1.706-3.018-2.761-3.413a2.3,2.3,0,0,0-1.735.032l-.791.425-.562-.695c-1.46-1.741-2.906-2.583-4.307-2.511-2.164.118-3.7,2.389-3.719,2.412l-.556.833-.886-.474A1.623,1.623,0,0,0,8.573,14.2c-1.875.565-3.809,3.559-4.4,4.664" transform="translate(0 0)" fill="#999"/></svg>