<svg xmlns="http://www.w3.org/2000/svg" width="26" height="31" viewBox="0 0 26 31"><path d="M10.213,31c-3.253,0-6.692-.946-8.6-2.645a.924.924,0,0,1-.067-1.318.955.955,0,0,1,1.336-.066c2.479,2.214,8.649,2.885,11.79,1.282.264-.135.714-.4.768-.7.1-.558-.846-1.593-1.474-2.278l-.244-.267a5.3,5.3,0,0,1-1.156-1.7,2.46,2.46,0,0,1,.777-2.8c2.776-2.481,7.639-1.852,10.856-1.436.346.045.669.087.959.12a.936.936,0,0,1,.83,1.035.945.945,0,0,1-1.049.819c-.3-.035-.63-.077-.986-.123-2.7-.349-7.213-.933-9.341.969-.466.417-.5.769.512,1.872l.244.266c.98,1.069,2.2,2.4,1.932,3.862a2.95,2.95,0,0,1-1.76,2.025A12.016,12.016,0,0,1,10.213,31" transform="translate(0 0)" fill="#5686c5"/><path d="M2.253,28.6a.96.96,0,0,1-.4-.087.935.935,0,0,1-.537-.721L.009,18.215a.924.924,0,0,1,.155-.649l5.989-8.7a.953.953,0,0,1,1.182-.321l6.505,2.994a.929.929,0,0,1,.51,1.1L11.437,22.756a.934.934,0,0,1-.4.534L2.758,28.452a.954.954,0,0,1-.505.145M1.931,18.319,2.993,26.1,9.717,21.9,12.31,12.89,7.264,10.567Z" transform="translate(0 0)" fill="#999"/><path d="M14.015,13.578a.955.955,0,0,1-.4-.088L5.959,9.966A.928.928,0,0,1,5.5,8.726L9.372.539A.943.943,0,0,1,9.906.056a.957.957,0,0,1,.723.031l7.658,3.525a.939.939,0,0,1,.489.527.921.921,0,0,1-.032.713l-3.871,8.187a.948.948,0,0,1-.858.539m-6.4-4.909L13.558,11.4l3.072-6.5L10.686,2.173Z" transform="translate(0 0)" fill="#999"/><path d="M2.252,28.6a.953.953,0,0,1-.4-.088.928.928,0,0,1-.457-1.24l3.781-8a.951.951,0,0,1,1.257-.451.928.928,0,0,1,.457,1.24l-3.781,8a.947.947,0,0,1-.857.539" transform="translate(0 0)" fill="#999"/><path d="M6.613,20.727a2.325,2.325,0,0,1-.979-.215,2.278,2.278,0,0,1-1.121-3.04,2.335,2.335,0,0,1,3.082-1.107,2.285,2.285,0,0,1,1.2,1.291,2.244,2.244,0,0,1-.078,1.749,2.33,2.33,0,0,1-2.1,1.321m0-2.71a.432.432,0,0,0-.39.245.42.42,0,0,0,.208.56.438.438,0,0,0,.568-.2.416.416,0,0,0,.015-.323.429.429,0,0,0-.4-.278" transform="translate(0 0)" fill="#999"/></svg>