<svg xmlns="http://www.w3.org/2000/svg" xmlns:xlink="http://www.w3.org/1999/xlink" width="22" height="28" viewBox="0 0 22 28"><defs><clipPath id="a"><rect width="22" height="28" transform="translate(0 0)" fill="none"/></clipPath></defs><g transform="translate(0 0)" clip-path="url(#a)"><path d="M8.292,14a1.468,1.468,0,1,1-1.468-1.464A1.466,1.466,0,0,1,8.292,14" fill="#5686c5"/><path d="M12.468,14A1.468,1.468,0,1,1,11,12.537,1.466,1.466,0,0,1,12.468,14" fill="#5686c5"/><path d="M16.644,14a1.468,1.468,0,1,1-1.468-1.464A1.466,1.466,0,0,1,16.644,14" fill="#5686c5"/><path d="M19.054,0H2.946A2.945,2.945,0,0,0,0,2.938V25.062A2.945,2.945,0,0,0,2.946,28H19.054A2.945,2.945,0,0,0,22,25.062V2.938A2.945,2.945,0,0,0,19.054,0M1.873,5.286H20.127V21.313H1.873ZM2.946,1.868H19.054a1.072,1.072,0,0,1,1.072,1.07v.481H1.873V2.938a1.072,1.072,0,0,1,1.072-1.07M19.054,26.132H2.946a1.072,1.072,0,0,1-1.072-1.07V23.181H20.127v1.882a1.072,1.072,0,0,1-1.072,1.07" fill="#999"/><path d="M11,23.79a.832.832,0,1,0,.834.832A.833.833,0,0,0,11,23.79" fill="#999"/></g></svg>