<svg xmlns="http://www.w3.org/2000/svg" width="29" height="29" viewBox="0 0 29 29"><path d="M23.454,25.716H5.468A2.018,2.018,0,0,1,3.457,23.69V3.613A3.6,3.6,0,0,1,7.043,0H21.879a3.6,3.6,0,0,1,3.586,3.613V23.69a2.018,2.018,0,0,1-2.011,2.026" fill="#999"/><path d="M2.616,11.61H1.1A1.108,1.108,0,0,1,0,10.5V6.751A1.108,1.108,0,0,1,1.1,5.639H2.616Z" fill="#999"/><path d="M26.384,11.59H27.9A1.108,1.108,0,0,0,29,10.478V6.731a1.108,1.108,0,0,0-1.1-1.112H26.384Z" fill="#999"/><path d="M21.622,14.971H7.071a1.4,1.4,0,0,1-1.39-1.4V4.486a2.2,2.2,0,0,1,2.187-2.2H20.825a2.195,2.195,0,0,1,2.187,2.2v9.084a1.4,1.4,0,0,1-1.39,1.4" fill="#fff"/><path d="M8.731,22.749H5.9a.517.517,0,0,1-.515-.519v-1.6a.517.517,0,0,1,.515-.519H8.731a.517.517,0,0,1,.515.519v1.6a.517.517,0,0,1-.515.519" fill="#fff"/><path d="M23.219,22.749H20.39a.517.517,0,0,1-.515-.519v-1.6a.517.517,0,0,1,.515-.519h2.829a.517.517,0,0,1,.515.519v1.6a.517.517,0,0,1-.515.519" fill="#fff"/><path d="M5.171,27.495A1.5,1.5,0,0,0,6.665,29H8.533a1.5,1.5,0,0,0,1.494-1.505v-.941H5.171Z" fill="#5686c5"/><path d="M19.377,26.554v.941A1.5,1.5,0,0,0,20.871,29h1.868a1.5,1.5,0,0,0,1.494-1.505v-.941Z" fill="#5686c5"/><rect width="8.195" height="0.865" transform="translate(10.463 21.693)" fill="#fff"/></svg>