<svg xmlns="http://www.w3.org/2000/svg" width="35" height="26" viewBox="0 0 35 26"><path d="M17.5,26a1.078,1.078,0,0,1-.613-.191c-2.841-1.956-7.321-2.367-10.579-2.367a39.18,39.18,0,0,0-5.049.317A1.08,1.08,0,0,1,.38,23.49,1.158,1.158,0,0,1,0,22.629V2.152A1.13,1.13,0,0,1,.955,1.021a39.578,39.578,0,0,1,5.491-.4C14.07.622,17.932,3.1,18.092,3.2a1.151,1.151,0,0,1,.513.963V24.859a1.147,1.147,0,0,1-.583,1.006A1.075,1.075,0,0,1,17.5,26M6.309,21.159A25.268,25.268,0,0,1,16.4,22.942V4.852A22.7,22.7,0,0,0,6.446,2.9a36.58,36.58,0,0,0-4.237.255V21.354c.965-.093,2.415-.195,4.1-.195" fill="#999"/><path d="M17.5,26a1.076,1.076,0,0,1-.521-.135,1.147,1.147,0,0,1-.583-1.006V4.166a1.151,1.151,0,0,1,.512-.963C17.068,3.1,20.93.622,28.554.622a39.535,39.535,0,0,1,5.49.4A1.13,1.13,0,0,1,35,2.152V22.629a1.158,1.158,0,0,1-.381.862,1.079,1.079,0,0,1-.879.268,39.1,39.1,0,0,0-5.05-.318c-3.258,0-7.738.411-10.578,2.367A1.08,1.08,0,0,1,17.5,26M18.6,4.852V22.942a25.266,25.266,0,0,1,10.086-1.783c1.685,0,3.134.1,4.1.195V3.159A36.644,36.644,0,0,0,28.554,2.9,22.7,22.7,0,0,0,18.6,4.852" fill="#999"/><path d="M7.544,10.917a1.123,1.123,0,0,1-1.1-1.141V1.141a1.105,1.105,0,1,1,2.209,0V9.776a1.123,1.123,0,0,1-1.1,1.141" fill="#5686c5"/></svg>