<svg xmlns="http://www.w3.org/2000/svg" width="30.159" height="26" viewBox="0 0 30.159 26"><path d="M29.1,4.369H21.185V1.062A1.062,1.062,0,0,0,20.123,0H10.036A1.062,1.062,0,0,0,8.974,1.062V4.369H1.062A1.062,1.062,0,0,0,0,5.431V24.938A1.062,1.062,0,0,0,1.062,26H29.1a1.062,1.062,0,0,0,1.062-1.062V5.431A1.062,1.062,0,0,0,29.1,4.369m-18-2.244h7.962V4.369H11.1ZM2.124,23.876V13.565l.7,2.83a.929.929,0,0,0,.9.705h9.023a.929.929,0,1,0,0-1.859h-8.3L2.284,6.493H27.875L25.7,15.241h-8.3a.929.929,0,1,0,0,1.859H26.43a.929.929,0,0,0,.9-.705l.7-2.83V23.876Z" fill="#999"/><path d="M53.69,73.235a1.173,1.173,0,0,0,1.119-.834H52.571a1.173,1.173,0,0,0,1.119.834" transform="translate(-38.611 -53.175)" fill="#5686c5"/><path d="M50.162,51.236a.341.341,0,0,1-.315-.34V49.04a3.136,3.136,0,0,0-6.273,0V50.9a.341.341,0,0,1-.315.34.207.207,0,0,0-.191.206v.609a.207.207,0,0,0,.207.207h6.871a.207.207,0,0,0,.207-.207v-.609a.207.207,0,0,0-.191-.206" transform="translate(-31.63 -33.714)" fill="#5686c5"/></svg>