<svg xmlns="http://www.w3.org/2000/svg" width="27.829" height="26" viewBox="0 0 27.829 26"><path d="M60.817,41.292l.318-1.025a5.382,5.382,0,0,1-2.6,0l.318,1.025h.1l-1.027,6.654,1.905,2.189,1.9-2.189-1.026-6.654Z" transform="translate(-41.055 -28.537)" fill="#5686c5"/><path d="M23.145,11.411A6.532,6.532,0,1,0,13.915,2.2a6.532,6.532,0,1,0-9.23,9.214A9.091,9.091,0,0,0,0,19.324v5.511a1.165,1.165,0,1,0,2.33,0V19.324a6.735,6.735,0,0,1,5.282-6.551,1.165,1.165,0,0,0,.116-2.247,4.2,4.2,0,1,1,4.9-6.154,6.545,6.545,0,0,0,1.815,7.038q-.272.151-.532.32a9.124,9.124,0,0,0-4.153,7.594v5.511a1.165,1.165,0,1,0,2.33,0V19.324a6.761,6.761,0,0,1,3.689-5.983,6.572,6.572,0,0,1,1.594-.567,1.165,1.165,0,0,0,.116-2.247,4.2,4.2,0,1,1,2.61,0,1.165,1.165,0,0,0,.116,2.247A6.734,6.734,0,0,1,25.5,19.324v5.511a1.165,1.165,0,1,0,2.33,0V19.324a9.091,9.091,0,0,0-4.684-7.913" fill="#999"/></svg>