<svg xmlns="http://www.w3.org/2000/svg" width="22" height="34" viewBox="0 0 22 34"><path d="M11,3.716a1.007,1.007,0,0,1-1.012-1V1a1.012,1.012,0,0,1,2.023,0V2.713a1.007,1.007,0,0,1-1.012,1" fill="#999"/><path d="M15.219,4.495a1.015,1.015,0,0,1-.359-.066,1,1,0,0,1-.586-1.293l.613-1.6a1.015,1.015,0,0,1,1.3-.581,1,1,0,0,1,.586,1.293l-.613,1.6a1.012,1.012,0,0,1-.946.647" fill="#999"/><path d="M6.781,4.495a1.012,1.012,0,0,1-.946-.647l-.613-1.6A1,1,0,0,1,5.808.956a1.014,1.014,0,0,1,1.3.581l.613,1.6A1,1,0,0,1,7.14,4.429a1.016,1.016,0,0,1-.359.066" fill="#999"/><path d="M15.426,30.683H6.574a1.017,1.017,0,0,1-.721-.3,1,1,0,0,1-.291-.7c-.051-.42-.885-2.346-3.7-6.956-.172-.254-.338-.523-.493-.8l0,0-.02-.034A10.844,10.844,0,0,1,0,16.652a11,11,0,0,1,22,0,10.841,10.841,0,0,1-1.342,5.22l-.01.02c-.16.289-.334.572-.517.842-2.448,4.014-3.628,6.412-3.693,6.952a1,1,0,0,1-.291.7,1.018,1.018,0,0,1-.721.3m-8.06-2.005h7.267a45.714,45.714,0,0,1,3.779-7c.009-.015.018-.029.028-.043.151-.221.294-.453.426-.69l.01-.018a8.845,8.845,0,0,0,1.1-4.273,8.977,8.977,0,0,0-17.953,0,8.844,8.844,0,0,0,1.091,4.254l.018.031c.134.241.277.474.425.691l.028.043a45.807,45.807,0,0,1,3.781,7.007" fill="#999"/><path d="M14.538,34H7.462a2.661,2.661,0,1,1,0-5.323h7.076a2.661,2.661,0,1,1,0,5.323M7.462,30.683a.656.656,0,1,0,0,1.312h7.076a.656.656,0,1,0,0-1.312Z" fill="#999"/><path d="M11.268,13.077a.265.265,0,0,0-.086.012l-6.027,2.78,6.016,2.615a.3.3,0,0,0,.1.013.3.3,0,0,0,.1-.013L15.709,16.6h0l1.672-.727-6.027-2.78a.27.27,0,0,0-.085-.011" fill="#5686c5"/><path d="M11.268,19.314a1.094,1.094,0,0,1-.427-.081L7.075,17.6V20.61c.194.3,1.834,1.005,4.193,1.005s4-.7,4.193-1.005V17.6L11.7,19.233a1.1,1.1,0,0,1-.427.081" fill="#5686c5"/></svg>