<svg xmlns="http://www.w3.org/2000/svg" width="23.897" height="30.409" viewBox="0 0 23.897 30.409"><path d="M21.725,1.638h-3V1.579A1.581,1.581,0,0,0,17.145,0H7.357a1.581,1.581,0,0,0-1.58,1.579v.058H2.162A2.178,2.178,0,0,0,0,3.81V28.236a2.175,2.175,0,0,0,2.173,2.173H21.735A2.177,2.177,0,0,0,23.9,28.237V3.811a2.175,2.175,0,0,0-2.173-2.173M7.806,2.028H16.7v.622h0V3.678H7.806ZM21.869,28.237a.144.144,0,0,1-.139.144H2.173a.145.145,0,0,1-.144-.144V3.81a.144.144,0,0,1,.139-.144h3.61v.461a1.582,1.582,0,0,0,1.58,1.58h9.788a1.581,1.581,0,0,0,1.58-1.58V3.666h3a.145.145,0,0,1,.145.145Z" fill="#999"/><rect width="2.136" height="2.136" transform="translate(5.953 18.125)" fill="#999"/><rect width="2.136" height="2.136" transform="translate(5.953 22.433)" fill="#999"/><rect width="7.7" height="2.028" transform="translate(10.107 18.179)" fill="#999"/><rect width="7.7" height="2.028" transform="translate(10.107 22.488)" fill="#999"/><path d="M33.167,34.538a.214.214,0,0,0-.066-.009.212.212,0,0,0-.067.009l-4.7,2.186,4.689,2.057a.287.287,0,0,0,.149,0L36.562,37.3h0l1.3-.572Z" transform="translate(-21.152 -25.774)" fill="#5686c5"/><path d="M37.5,49.895a.847.847,0,0,1-.333-.064l-2.935-1.288v2.371A5.388,5.388,0,0,0,37.5,51.7a5.387,5.387,0,0,0,3.268-.791V48.543l-2.935,1.288a.844.844,0,0,1-.333.064" transform="translate(-25.556 -36.235)" fill="#5686c5"/></svg>