<svg id="벡터_고급_개체" data-name="벡터 고급 개체" xmlns="http://www.w3.org/2000/svg" width="24" height="29" viewBox="0 0 24 29">
  <defs>
    <clipPath id="clip-path">
      <rect id="사각형_10" data-name="사각형 10" width="24" height="29" fill="none"/>
    </clipPath>
  </defs>
  <g id="그룹_18" data-name="그룹 18">
    <g id="그룹_17" data-name="그룹 17" clip-path="url(#clip-path)">
      <path id="패스_41" data-name="패스 41" d="M6.407,11.169a1.022,1.022,0,0,1-.817-.407L4.068,8.728a.993.993,0,0,1,.214-1.4,1.024,1.024,0,0,1,1.42.211L6.574,8.7l3.01-2.553a1.024,1.024,0,0,1,1.431.107.993.993,0,0,1-.108,1.413L7.069,10.927a1.024,1.024,0,0,1-.662.242" fill="#5686c5"/>
      <path id="패스_42" data-name="패스 42" d="M6.407,20.327a1.022,1.022,0,0,1-.817-.407L4.068,17.886a.993.993,0,0,1,.214-1.4A1.024,1.024,0,0,1,5.7,16.7l.873,1.167,3.01-2.553a1.024,1.024,0,0,1,1.431.107.993.993,0,0,1-.108,1.413L7.069,20.085a1.024,1.024,0,0,1-.662.242" fill="#5686c5"/>
      <path id="패스_43" data-name="패스 43" d="M24,1a1.009,1.009,0,0,0-1.015-1H1.015A1.009,1.009,0,0,0,0,1V28a1.009,1.009,0,0,0,1.015,1h12.77l.016,0a1.04,1.04,0,0,0,.181-.018c.028-.006.054-.016.081-.024a1.039,1.039,0,0,0,.109-.033c.029-.012.056-.029.084-.044s.062-.029.091-.048a1,1,0,0,0,.156-.126l9.2-9.077a.975.975,0,0,0,.115-.138c.01-.014.018-.028.027-.042a.986.986,0,0,0,.063-.117c.007-.016.014-.031.021-.046a.977.977,0,0,0,.051-.166v0A1,1,0,0,0,24,18.941c0-.007,0-.013,0-.02ZM2.03,2H21.97V17.919H13.785a1.009,1.009,0,0,0-1.015,1V27H2.03ZM17.667,22.751,14.8,25.58V19.922h5.733Z" fill="#999"/>
    </g>
  </g>
</svg>