<svg xmlns="http://www.w3.org/2000/svg" width="24" height="29" viewBox="0 0 24 29"><path d="M17.321,1.944a.966.966,0,0,1,.964.968v.939h2.862a.92.92,0,0,1,.916.919V26.137a.921.921,0,0,1-.916.919H2.853a.92.92,0,0,1-.916-.919V4.771a.92.92,0,0,1,.916-.919H5.714V2.913a.965.965,0,1,1,1.929,0v.939h3.392V2.913a.965.965,0,1,1,1.929,0v.939h3.391V2.913a.967.967,0,0,1,.965-.968m0-1.944a2.906,2.906,0,0,0-2.66,1.75,2.9,2.9,0,0,0-5.321,0,2.9,2.9,0,0,0-5.385.157h-1.1A2.861,2.861,0,0,0,0,4.771V26.137A2.861,2.861,0,0,0,2.853,29H21.147A2.861,2.861,0,0,0,24,26.137V4.771a2.861,2.861,0,0,0-2.853-2.863h-1.1A2.907,2.907,0,0,0,17.321,0" fill="#999"/><path d="M12.815,17.95l.265-.855a4.458,4.458,0,0,1-2.159,0l.265.855h.085l-.854,5.55L12,25.326,13.583,23.5l-.853-5.55Z" fill="#5686c5"/><path d="M18.54,28.99a.97.97,0,0,1-.969-.972v-4.6a5.614,5.614,0,0,0-4.39-5.465.973.973,0,0,1-.1-1.874,3.493,3.493,0,1,0-2.17,0,.973.973,0,0,1-.1,1.874,5.614,5.614,0,0,0-4.391,5.465v4.6a.969.969,0,1,1-1.937,0v-4.6a7.589,7.589,0,0,1,3.894-6.6,5.429,5.429,0,1,1,7.231,0,7.589,7.589,0,0,1,3.893,6.6v4.6a.97.97,0,0,1-.969.972" fill="#999"/></svg>