<svg xmlns="http://www.w3.org/2000/svg" width="31" height="28" viewBox="0 0 31 28"><path d="M14.226,23.726a3.374,3.374,0,0,1,2.548,0V20.277H14.226Z" fill="#999"/><path d="M15.5,28a2.587,2.587,0,0,1-2.6-2.562,2.531,2.531,0,0,1,.723-1.767,2.6,2.6,0,0,1,1.882-.794,2.63,2.63,0,0,1,1.882.8,2.517,2.517,0,0,1,.722,1.765A2.586,2.586,0,0,1,15.5,28m0-3.08a.529.529,0,0,0-.379.162.509.509,0,0,0-.148.356.527.527,0,0,0,1.055,0,.5.5,0,0,0-.146-.353.525.525,0,0,0-.381-.165" fill="#999"/><path d="M27.014,21.3H3.985a2.054,2.054,0,0,1-2.068-2.035V4.391A1.03,1.03,0,0,1,2.955,3.37H28.045a1.03,1.03,0,0,1,1.039,1.022V19.264A2.055,2.055,0,0,1,27.014,21.3M3.994,5.413V19.264l12.78-.008H27.007V5.413Z" fill="#999"/><path d="M28.931,5.413H2.068A2.054,2.054,0,0,1,0,3.378V2.035A2.054,2.054,0,0,1,2.068,0H28.931A2.055,2.055,0,0,1,31,2.035V3.378a2.055,2.055,0,0,1-2.069,2.035m-.008-3.378L2.068,2.043l.009,1.335.878-.008H28.924Z" fill="#999"/><path d="M12.666,15.758a1.247,1.247,0,0,1-2.494,0V14.7a1.247,1.247,0,0,1,2.494,0Z" fill="#5686c5"/><path d="M16.747,15.758a1.247,1.247,0,0,1-2.493,0V12.3a1.247,1.247,0,0,1,2.493,0Z" fill="#5686c5"/><path d="M20.828,15.758a1.247,1.247,0,0,1-2.494,0v-6.6a1.247,1.247,0,0,1,2.494,0Z" fill="#5686c5"/></svg>