<svg xmlns="http://www.w3.org/2000/svg" width="27.174" height="27.991" viewBox="0 0 27.174 27.991"><g transform="translate(1.113 0.948)"><path d="M18.662,15a2.562,2.562,0,0,0-2.549-2.575h-.191a2.876,2.876,0,1,0-2.864,0h-.191A2.562,2.562,0,0,0,10.317,15v2.409a2.594,2.594,0,0,0,.019.3,8.067,8.067,0,0,0,8.307,0,2.594,2.594,0,0,0,.019-.3Z" transform="translate(-0.944 -0.953)" fill="#5686c5"/><path d="M26.056,12.582A11.514,11.514,0,1,1,14.543.953,11.572,11.572,0,0,1,26.056,12.582Z" transform="translate(-0.944 -0.953)" fill="none" stroke="#999" stroke-miterlimit="10" stroke-width="1.897"/><path d="M1.58,26.518,1.467,26.4a1.819,1.819,0,0,1,0-2.554l2.5-2.522a1.775,1.775,0,0,1,2.528,0l.113.114a1.819,1.819,0,0,1,0,2.554l-2.5,2.522A1.775,1.775,0,0,1,1.58,26.518Z" transform="translate(-0.944 -0.953)" fill="none" stroke="#999" stroke-miterlimit="10" stroke-width="1.897"/></g></svg>