<svg xmlns="http://www.w3.org/2000/svg" xmlns:xlink="http://www.w3.org/1999/xlink" width="96.624" height="115.428" viewBox="0 0 96.624 115.428"><defs><clipPath id="a"><rect width="96.624" height="115.428" fill="none"/></clipPath></defs><g clip-path="url(#a)"><path d="M37.776,26.076c-1.628,3.874-6.8,10.354-6.8,10.354-2.687,3.538-5.869,7.977-6.991,13.843-2.37,16.237,7.717,24.6,13.9,26.958A22.017,22.017,0,0,1,26.5,53.839c1-4.98,3.665-10.1,9.712-16.6,0,0,7.133-7.439,8.1-13.9,0,0,3.392-14.452-9.966-23.333,6.713,8.357,6.842,18.015,3.431,26.076" fill="#fff"/><path d="M46.544,28.539C44.434,33.594,38.9,38.661,38.9,38.661c-8.732,8.426-9.854,13.424-9.854,13.424a21.314,21.314,0,0,0,2.131,17.767,18.733,18.733,0,0,0,11.467,8.3,15.124,15.124,0,0,1-10.2-13.3c-.371-5.021,2.443-11.377,10.572-17.776A45.011,45.011,0,0,0,50.3,39.7a24.49,24.49,0,0,0,4.6-11.008,26.226,26.226,0,0,0-1.5-12.848A27.9,27.9,0,0,0,46.15,4.93c6.188,11.944.394,23.608.394,23.608" fill="#fff"/><path d="M76.784,54.977V27.144H65.758V58.179c-.032,2.156-.221,4.563-.221,4.563A14.711,14.711,0,0,1,64.4,67.783,17.226,17.226,0,0,1,57.9,75.7C46.39,83.462,34.885,77.04,34.885,77.04c14.383,8.531,28.378.671,28.378.671C73.114,72,75.8,64.232,76.525,60.054a39.36,39.36,0,0,0,.26-5.077" fill="#fff"/><path d="M32.646,75.277a24.964,24.964,0,0,1-9.262-12.755,29.6,29.6,0,0,1-.937-13.437,34.828,34.828,0,0,1,3.323-9.512,53,53,0,0,1,3.844-5.81,52.844,52.844,0,0,0,3.248-5.084,16.483,16.483,0,0,0-1.323-18.317s2.871,7.426-.878,14.344c0,0-1.762,3.022-3.677,5.888,0,0-4.208,6.092-5.439,10.227A30.333,30.333,0,0,0,20.592,57.7s1.991,12.031,12.054,17.577" fill="#fff"/><path d="M44.121,74.7V71.238h-.68v-.472h1.371V74.7Z" fill="#fff"/><path d="M47.681,71.968a1.023,1.023,0,0,0-.137-.6.5.5,0,0,0-.436-.19.47.47,0,0,0-.412.187,1.118,1.118,0,0,0-.127.608,1.084,1.084,0,0,0,.126.61.6.6,0,0,0,.857-.014,1.078,1.078,0,0,0,.129-.6M47.557,73a.983.983,0,0,1-.3.151,1.086,1.086,0,0,1-.331.047,1,1,0,0,1-.792-.277,1.8,1.8,0,0,1,.058-1.9,1.248,1.248,0,0,1,.937-.315,1.189,1.189,0,0,1,.92.334,1.457,1.457,0,0,1,.3,1,2.718,2.718,0,0,1-.251,1.1,9.063,9.063,0,0,1-.989,1.554h-.8c.35-.44.615-.782.791-1.027s.329-.466.455-.674" fill="#fff"/><path d="M48.983,74.1a1.759,1.759,0,0,0,.357.136,1.572,1.572,0,0,0,.373.045,1.007,1.007,0,0,0,.735-.242.957.957,0,0,0,.247-.719.624.624,0,0,0-.253-.541,1.285,1.285,0,0,0-.75-.181c-.135,0-.248,0-.344.012s-.195.023-.285.04l.363-1.882h1.925v.482H50.008l-.215.96c.072-.01.137-.017.2-.022s.112-.005.156-.005a1.285,1.285,0,0,1,.906.317,1.085,1.085,0,0,1,.342.839,1.318,1.318,0,0,1-.418,1.042,1.682,1.682,0,0,1-1.165.374,2.786,2.786,0,0,1-.521-.047,2.64,2.64,0,0,1-.494-.14Z" fill="#fff"/><path d="M51.982,74.7l1.467-2.087a3.033,3.033,0,0,0,.292-.508,1.085,1.085,0,0,0,.1-.419.547.547,0,0,0-.122-.388.513.513,0,0,0-.385-.127.478.478,0,0,0-.408.166,1.007,1.007,0,0,0-.122.569v.137h-.69a.341.341,0,0,1-.007-.076v-.122A1.072,1.072,0,0,1,52.42,71a1.384,1.384,0,0,1,.95-.284,1.42,1.42,0,0,1,.9.258.867.867,0,0,1,.327.714,1.353,1.353,0,0,1-.127.55,3.476,3.476,0,0,1-.43.678L53.047,74.2h1.437v.5Z" fill="#fff"/><path d="M53.706,61.8v4.736a1.537,1.537,0,0,0,.64,1.376,3.685,3.685,0,0,0,2.017.43,3.732,3.732,0,0,0,2.022-.43,1.539,1.539,0,0,0,.637-1.376V61.8H57.674v4.807a.771.771,0,0,1-.319.687,2.359,2.359,0,0,1-1.983,0,.768.768,0,0,1-.326-.687V61.8Z" fill="#fff"/><path d="M39.943,68.358a2.451,2.451,0,0,0,1.589-.431,1.634,1.634,0,0,0,.516-1.329V61.8H40.688v4.821a.9.9,0,0,1-.239.69,1.1,1.1,0,0,1-.754.221,2.075,2.075,0,0,1-.574-.089,3.033,3.033,0,0,1-.62-.269v.9a3.287,3.287,0,0,0,.7.216,3.719,3.719,0,0,0,.739.071" fill="#fff"/><path d="M47.625,62.585V61.8H43.591v6.466h4.033v-.811H44.948V65.271H47.4V64.5H44.948V62.585Z" fill="#fff"/><path d="M51.662,67.927a1.631,1.631,0,0,0,.515-1.329V61.8H50.821v4.821a.9.9,0,0,1-.241.689,1.1,1.1,0,0,1-.754.221,2.131,2.131,0,0,1-.576-.089,2.937,2.937,0,0,1-.62-.269v.9a3.491,3.491,0,0,0,.7.216,3.655,3.655,0,0,0,.741.071,2.434,2.434,0,0,0,1.586-.431" fill="#fff"/><path d="M49.523,59.721a2.523,2.523,0,0,0,1.175-.392l6.841.476V50.978l-.713-.043.317.5v8l-6.579-.422a1.926,1.926,0,0,1-2.292,0l-6.575.422v-8l.314-.5-.714.043v8.827l6.841-.476a2.5,2.5,0,0,0,1.172.392,1.669,1.669,0,0,0,.214,0" fill="#fff"/><path d="M42.747,50.433c-.152.24-.676,1.065-.692,1.088v7.17c.153-.253.678-1.13.692-1.151Z" fill="#fff"/><path d="M48.349,58.633l.019.018a1.527,1.527,0,0,0,.779.363,1.514,1.514,0,0,0-.766-1.133,4.759,4.759,0,0,0-2.165-.374c-.452,0-.936.027-1.486.08-.533.054-1.095.133-1.667.236-.024.039-.632,1.054-.725,1.207l6.012-.4" fill="#fff"/><path d="M56.779,51.521l-.691-1.088V57.54c.014.021.538.9.691,1.151Z" fill="#fff"/><path d="M50.454,57.881a1.516,1.516,0,0,0-.767,1.133,1.524,1.524,0,0,0,.78-.363l.019-.018,6.012.4c-.093-.153-.7-1.168-.723-1.207-.573-.1-1.135-.182-1.669-.235s-1.034-.08-1.486-.08a4.76,4.76,0,0,0-2.165.374" fill="#fff"/><path d="M54.1,49.677a13.913,13.913,0,0,0-1.534-.087l-.685.029-.523.078a2.77,2.77,0,0,0-.952.37l-.074.058-.032.022a2.37,2.37,0,0,0-.666.7v7.2a1.666,1.666,0,0,1,.364-.354,4.21,4.21,0,0,1,1.73-.542l.03,0,.034,0a10.2,10.2,0,0,1,1.278-.044l.948.067c.479.047,1.037.118,1.658.211V49.93c-.539-.113-1.069-.2-1.574-.253m.691,1.6a3.436,3.436,0,0,1-2.005,1.939s.261.063.872.787a2.519,2.519,0,0,0,.8.661s-.862,1.7-.947,1.9a3.765,3.765,0,0,1-1.063-1.678.3.3,0,0,0-.3-.158s-.684.077-.963.1a.251.251,0,0,1-.278,0l-.1-.107s-.024.006-.066-.032a.227.227,0,0,1-.093-.163.177.177,0,0,1,.056-.145A10.088,10.088,0,0,0,52.049,53.3s-.012.04.051-.121a2.163,2.163,0,0,1-.547-.227s-.241-.164-.235-.378l.057,0s0,.257.5.409a1.086,1.086,0,0,1-.162-.363.237.237,0,0,1,.069-.015s.139.42.378.429c0,0,.467-.287.5-.612,0,0-.194-.119-.273-.608l.064-.037s.077.462.307.45c0,0,.209-.005.337-.391a1.912,1.912,0,0,0,.1-.643,2.352,2.352,0,0,0-.048-.313L53.2,50.8a1.435,1.435,0,0,1,.063.237.993.993,0,0,1,.183-.473l.043.024a.844.844,0,0,0-.112.52,2.367,2.367,0,0,1-.153.832,3.478,3.478,0,0,1-.776,1.159,6.866,6.866,0,0,0,.948-.464s.283-.174.317-.78h.074a1.277,1.277,0,0,1-.009.492,2.073,2.073,0,0,0,.866-1.057.653.653,0,0,0-.019-.43l.032-.04a.754.754,0,0,1,.1.3.544.544,0,0,1,.323-.3l.018.044a.8.8,0,0,0-.312.406" fill="#fff"/><path d="M48.536,50.147l-.029-.023-.075-.057a2.747,2.747,0,0,0-.95-.37l-.526-.078-.681-.029a13.853,13.853,0,0,0-1.534.087c-.508.055-1.038.14-1.576.253v7.45c.621-.093,1.179-.164,1.656-.211l.951-.067a10.063,10.063,0,0,1,1.271.044l.039,0,.035,0a4.191,4.191,0,0,1,1.725.544,1.6,1.6,0,0,1,.363.352v-7.2a2.362,2.362,0,0,0-.669-.7m-.954,6.01H44.918c.406-1.136-.412-3.193-.412-3.193.558-.629,1.267-1.555,1.58-1.972v2.495a.42.42,0,1,0,.311,0V50.971c.3.4,1.028,1.353,1.6,1.993,0,0-.818,2.057-.411,3.193" fill="#fff"/><path d="M60.424,95.461c0,2.256,2.335,4.089,5.215,4.089s5.22-1.833,5.22-4.089a3.7,3.7,0,0,0-1.553-2.909h1.987v-1.6h-4.05V89.107h-3.2v1.845h-4.05v1.6h1.979a3.714,3.714,0,0,0-1.548,2.909m5.215-2.578a2.611,2.611,0,1,1-2.213,2.578,2.419,2.419,0,0,1,2.213-2.578m-4.612,22.481h.936v-3.3l1.955,3.3h.925v-4.722h-.935v3.282l-1.964-3.282h-.917ZM45.8,114.435h1.677l.354.928h1.005l-1.725-4.722h-.936l-1.725,4.722h1Zm.845-2.568.662,2.044H45.977Zm-4.829-10.721a2.345,2.345,0,0,0,1.6.51h4.248a5.02,5.02,0,0,0,1.478-.181c.4-.122.765-.239,1.27-.437v6.285h3V96.063h1.411v11.26h3V89.59h-3v4.821H53.4V89.59h-3v9.961a8.512,8.512,0,0,1-1.227.338,6.967,6.967,0,0,1-1.407.122H44.344V91.9h4.518V90.253H41.231v9.524a1.727,1.727,0,0,0,.584,1.369m34.428-5.575h2.571V93.924H76.243V89.559H73.08v10.514h3.163Zm-64.9,15.07V114.1a1.124,1.124,0,0,0,.465,1,2.694,2.694,0,0,0,1.475.315,2.708,2.708,0,0,0,1.476-.315,1.128,1.128,0,0,0,.462-1v-3.457h-.982v3.512a.553.553,0,0,1-.231.5,1.264,1.264,0,0,1-.725.162,1.283,1.283,0,0,1-.724-.162.553.553,0,0,1-.236-.5v-3.512Zm44.439,0V114.1a1.124,1.124,0,0,0,.465,1,3.6,3.6,0,0,0,2.948,0,1.122,1.122,0,0,0,.468-1v-3.457h-.98v3.512a.566.566,0,0,1-.234.5,1.275,1.275,0,0,1-.723.162,1.294,1.294,0,0,1-.728-.162.551.551,0,0,1-.235-.5v-3.512Zm38.854,0-.623,1.324c-.052.117-.1.238-.14.356a4.069,4.069,0,0,0-.114.4c-.041-.16-.085-.3-.132-.435a2.546,2.546,0,0,0-.127-.324l-.616-1.318H91.851l1.387,2.712v2.009h1.023v-2.009l1.4-2.712Zm-44.932,0v4.722h3.124v-.592H50.689v-4.129Zm46.923-5.872H89.962V97.6H86.913v7.171H85.342V97.6h-3.05v7.171H79.315V106.4H96.624Zm-5-7.426q0,1.994-.126,3.277a4.891,4.891,0,0,1-.739,2.208h2.792a6.67,6.67,0,0,0,.877-2.166,13.84,13.84,0,0,0,.316-3.1v-7.2h-14V92H91.627ZM78.4,110.642H77.209v4.722H78.2v-2.307h.027l1.69,2.307h1.065l-1.76-2.325a1.864,1.864,0,0,0,1.046-.345,1.017,1.017,0,0,0,.347-.817,1,1,0,0,0-.508-.95,3.736,3.736,0,0,0-1.708-.285m.964,1.868a1.557,1.557,0,0,1-.864.183h-.3V111.2h.268a1.946,1.946,0,0,1,.9.145.569.569,0,0,1,.239.527.726.726,0,0,1-.247.633m10.82,2.854v-4.127h1.369v-.594H87.815v.594h1.367v4.127Zm-6.607-.728a1.342,1.342,0,0,1-.723.169,2.637,2.637,0,0,1-.556-.067,4.155,4.155,0,0,1-.654-.2v.647a4.132,4.132,0,0,0,.654.178,3.574,3.574,0,0,0,.629.058,2.491,2.491,0,0,0,1.378-.351,1.042,1.042,0,0,0,.541-.894,1,1,0,0,0-.263-.683,3.055,3.055,0,0,0-.9-.629c-.03-.018-.083-.043-.151-.077-.723-.369-1.086-.695-1.086-.967a.535.535,0,0,1,.283-.468,1.419,1.419,0,0,1,.751-.178,2.562,2.562,0,0,1,.541.063,3.477,3.477,0,0,1,.56.194v-.633a3.275,3.275,0,0,0-.629-.164,4.035,4.035,0,0,0-.657-.052,2.291,2.291,0,0,0-1.309.354,1.047,1.047,0,0,0-.53.892.982.982,0,0,0,.26.665,3.287,3.287,0,0,0,.918.642c.036.022.1.055.183.1.678.36,1.017.674,1.017.951a.522.522,0,0,1-.262.456m2.346.728h.992v-4.722h-.992Zm-56.023,0v-4.127h1.367v-.594H27.528v.594H28.9v4.127Zm46.134-4.151v-.571H73.092v4.722h2.942v-.592h-1.95v-1.593h1.784v-.56H74.084v-1.405Zm-8.767-.571h-.989v4.722h.989Zm1.9,0H68.161l1.62,4.722h.839l1.619-4.722h-1l-1.032,3.2Zm7.072-9.787H61.771v1.628H73.08v4.806h3.163ZM2.919,98.616A4.744,4.744,0,0,1,0,100.826l1.454,1.116A5.116,5.116,0,0,0,4.1,100.676a4.16,4.16,0,0,0,1.525-2.2,4.345,4.345,0,0,0,1.539,2.2,5.047,5.047,0,0,0,2.613,1.267l1.407-1.075v6.456h2.976V89.59H11.186v4.848h-2.6v1.651h2.6v4.544A4.543,4.543,0,0,1,8.324,98.6a7.694,7.694,0,0,1-1.153-4.265V91.8h2.56V90.17H1.292V91.8H4.06v2.539a7.779,7.779,0,0,1-1.141,4.281M18.7,110.642v4.722h.941v-3.3l1.948,3.3h.93v-4.722h-.939v3.282l-1.962-3.282ZM1.1,115.428a1.768,1.768,0,0,0,1.156-.312,1.192,1.192,0,0,0,.38-.971v-3.5H1.643v3.517a.669.669,0,0,1-.171.5.808.808,0,0,1-.552.163,1.555,1.555,0,0,1-.424-.061,2.442,2.442,0,0,1-.447-.2v.653a2.623,2.623,0,0,0,.51.159,2.856,2.856,0,0,0,.543.05M18.388,89.59H15.4v17.734h2.983ZM6.958,111.213v-.571H4.017v4.722H6.958v-.592H5.008v-1.593H6.791v-.56H5.008v-1.405ZM26.075,95.191A8.544,8.544,0,0,1,21.4,96.678l1.239,1.245a12.205,12.205,0,0,0,4.447-.9,5.257,5.257,0,0,0,2.829-2.189,5.448,5.448,0,0,0,2.847,2.178,11.989,11.989,0,0,0,4.42.91l1.241-1.245a8.561,8.561,0,0,1-4.664-1.487A4.127,4.127,0,0,1,31.5,91.778v-.11h5.584V90.017H22.734v1.651h5.578v.11a4.132,4.132,0,0,1-2.237,3.413m12,19.668a3.787,3.787,0,0,0,0-3.719,2.013,2.013,0,0,0-1.6-.562,2.044,2.044,0,0,0-1.6.562,2.826,2.826,0,0,0-.49,1.862,2.8,2.8,0,0,0,.49,1.857,2.035,2.035,0,0,0,1.6.559,2.017,2.017,0,0,0,1.6-.559m-2.435-.457a2.788,2.788,0,0,1-.259-1.413,2.831,2.831,0,0,1,.252-1.411,1.072,1.072,0,0,1,1.679,0,2.882,2.882,0,0,1,.246,1.415,2.964,2.964,0,0,1-.241,1.434.887.887,0,0,1-.829.39.909.909,0,0,1-.848-.411m7.031.962H43.6v-4.722h-.941v3.282L40.7,110.642h-.917v4.722h.938v-3.3Zm-19.3,0h1.007l.341-.928H26.4l.349.928h1l-1.725-4.722h-.936Zm2.86-1.453H24.9l.666-2.044Zm5.919,1.453h.993v-4.722h-.993Zm-3.81-8.04H31.5v-6.148h7.483V99.55H20.835v1.626h7.5ZM9.6,115.115a1.2,1.2,0,0,0,.373-.971v-3.5H8.987v3.517a.645.645,0,0,1-.175.5.8.8,0,0,1-.554.163,1.521,1.521,0,0,1-.416-.061,2.376,2.376,0,0,1-.451-.2v.653a2.609,2.609,0,0,0,.511.159,2.824,2.824,0,0,0,.54.05,1.793,1.793,0,0,0,1.159-.312" fill="#fff"/></g></svg>