<svg xmlns="http://www.w3.org/2000/svg" width="106.661" height="39.2" viewBox="0 0 106.661 39.2"><path d="M79.749,17.42c0,1.653,1.755,3,3.918,3s3.92-1.343,3.92-3a2.685,2.685,0,0,0-1.165-2.13h1.493V14.117H84.869V12.766h-2.4v1.351H79.427v1.173h1.487a2.7,2.7,0,0,0-1.165,2.13m3.918-1.89a1.788,1.788,0,0,1,1.665,1.89,1.679,1.679,0,1,1-3.33,0,1.79,1.79,0,0,1,1.665-1.89M80.2,32h.7V29.581L82.371,32h.7V28.545h-.7v2.4l-1.47-2.4H80.2Zm-11.438-.678h1.263l.265.678h.755l-1.3-3.457h-.7L67.751,32h.755Zm.636-1.885.5,1.5h-1Zm-3.627-7.852a1.794,1.794,0,0,0,1.2.375h3.192a4.012,4.012,0,0,0,1.109-.134c.3-.088.574-.176.953-.322v4.606h2.253V17.861h1.058v8.251h2.253V13.12H75.536v3.529H74.478V13.12H72.225v7.3a6.665,6.665,0,0,1-.92.246,5.409,5.409,0,0,1-1.054.088H67.674V14.813h3.39V13.606h-5.73v6.976a1.258,1.258,0,0,0,.439,1M91.634,17.5h1.93V16.293h-1.93V13.1h-2.38v7.7h2.38ZM42.881,28.545v2.531a.818.818,0,0,0,.351.735,2.772,2.772,0,0,0,2.215,0,.814.814,0,0,0,.348-.735V28.545h-.736v2.569a.412.412,0,0,1-.175.367,1.314,1.314,0,0,1-1.087,0,.41.41,0,0,1-.18-.367V28.545Zm33.379,0v2.531a.816.816,0,0,0,.349.735,2.769,2.769,0,0,0,2.214,0,.815.815,0,0,0,.35-.735V28.545h-.736v2.569a.414.414,0,0,1-.176.367.986.986,0,0,1-.542.118,1,1,0,0,1-.546-.118.41.41,0,0,1-.179-.367V28.545Zm29.182,0-.465.967a2.393,2.393,0,0,0-.108.264c-.033.091-.059.184-.087.286a3.171,3.171,0,0,0-.1-.315,1.757,1.757,0,0,0-.1-.238l-.465-.963h-.773L104.4,30.53V32h.768V30.53l1.053-1.985Zm-33.749,0V32H74.04v-.434h-1.6V28.545Zm34.968-4.17h-4.727V18.988H99.645v5.387H98.466V18.988H96.175v5.387H93.786v1.193h12.875ZM103.185,18.8c0,.973-.03,1.774-.1,2.4a3.465,3.465,0,0,1-.555,1.616h2.1a4.831,4.831,0,0,0,.657-1.583,9.857,9.857,0,0,0,.237-2.277V13.68H95.014v1.208h8.171Zm-9.934,9.745h-.893V32H93.1V30.313h.018L94.392,32h.8l-1.321-1.7a1.41,1.41,0,0,0,.785-.254.819.819,0,0,0-.119-1.292,2.882,2.882,0,0,0-1.285-.207m.722,1.367a1.168,1.168,0,0,1-.645.133H93.1v-1.09h.205a1.479,1.479,0,0,1,.676.106.408.408,0,0,1,.181.385.53.53,0,0,1-.19.467M102.1,32V28.978h1.027v-.433H100.32v.433h1.029V32Zm-4.965-.534a1.02,1.02,0,0,1-.542.124,1.955,1.955,0,0,1-.421-.049,3.442,3.442,0,0,1-.486-.148v.474a3.268,3.268,0,0,0,.491.13,2.792,2.792,0,0,0,.468.043,1.915,1.915,0,0,0,1.041-.256.764.764,0,0,0,.4-.654.738.738,0,0,0-.2-.5,2.239,2.239,0,0,0-.669-.458c-.026-.012-.065-.032-.116-.059-.544-.271-.815-.505-.815-.706a.393.393,0,0,1,.211-.344,1.069,1.069,0,0,1,.564-.131,1.81,1.81,0,0,1,.408.048,2.173,2.173,0,0,1,.421.141v-.467a3.047,3.047,0,0,0-.47-.12,3.5,3.5,0,0,0-.5-.036,1.727,1.727,0,0,0-.982.262.762.762,0,0,0-.4.651.7.7,0,0,0,.2.487,2.492,2.492,0,0,0,.69.471c.028.017.074.039.135.07q.769.393.768.7a.375.375,0,0,1-.2.331M98.9,32h.743V28.545H98.9ZM56.826,32V28.978h1.027v-.433H55.045v.433h1.026V32Zm34.648-3.04v-.417h-2.21V32h2.21v-.434H90.009V30.4h1.343v-.41H90.009V28.962Zm-6.587-.417h-.742V32h.742Zm1.43,0h-.754L86.777,32h.631l1.216-3.457h-.749L87.1,30.891Zm5.317-7.173H80.761v1.192h8.494v3.522h2.38ZM36.556,19.734a3.546,3.546,0,0,1-2.192,1.618l1.092.816a3.85,3.85,0,0,0,1.99-.928,3.041,3.041,0,0,0,1.147-1.615,3.159,3.159,0,0,0,1.153,1.615,3.814,3.814,0,0,0,1.963.928l1.059-.788v4.732H45V13.12H42.769v3.551H40.815v1.208h1.954V21.21a3.41,3.41,0,0,1-2.151-1.49,5.546,5.546,0,0,1-.863-3.124V14.735h1.922V13.544H35.145v1.191h2.269V16.6a5.57,5.57,0,0,1-.858,3.138m11.856,8.811V32h.707V29.581L50.583,32h.7V28.545h-.706v2.4l-1.472-2.4ZM35.193,32.05a1.374,1.374,0,0,0,.872-.231.866.866,0,0,0,.283-.711V28.545H35.6v2.577a.476.476,0,0,1-.132.369.614.614,0,0,1-.414.118,1.165,1.165,0,0,1-.315-.047,1.714,1.714,0,0,1-.339-.144V31.9a1.9,1.9,0,0,0,.383.116,2.1,2.1,0,0,0,.407.039M48.175,13.12H45.939V26.111h2.236ZM39.592,28.962v-.417H37.384V32h2.208v-.434H38.126V30.4h1.341v-.41H38.126V28.962ZM53.949,17.223a6.518,6.518,0,0,1-3.514,1.087l.932.914a9.364,9.364,0,0,0,3.341-.661,3.922,3.922,0,0,0,2.121-1.6,4.106,4.106,0,0,0,2.14,1.593,9.223,9.223,0,0,0,3.322.668l.933-.914a6.543,6.543,0,0,1-3.506-1.087,3.027,3.027,0,0,1-1.689-2.5v-.08h4.313V13.433H51.319v1.208h4.313v.08a3.026,3.026,0,0,1-1.683,2.5m9.015,14.408a2.018,2.018,0,0,0,.367-1.359,2.037,2.037,0,0,0-.367-1.366,1.964,1.964,0,0,0-2.4,0,2.037,2.037,0,0,0-.37,1.363,2.018,2.018,0,0,0,.37,1.359,1.965,1.965,0,0,0,2.4,0M61.133,31.3a2.06,2.06,0,0,1-.191-1.034,2.063,2.063,0,0,1,.188-1.037.824.824,0,0,1,1.264,0,2.09,2.09,0,0,1,.184,1.038,2.1,2.1,0,0,1-.182,1.05.679.679,0,0,1-.624.286.7.7,0,0,1-.639-.3m5.282.7h.7V28.545h-.707v2.4l-1.472-2.4h-.689V32h.7V29.581Zm-14.5,0h.756l.256-.678h1.262l.267.678h.755l-1.3-3.457h-.7Zm2.146-1.066h-1l.5-1.5ZM58.512,32h.745V28.545h-.745Zm-2.863-5.89H58.03v-4.5h5.618V20.416H50.013v1.192h5.635ZM41.577,31.819a.859.859,0,0,0,.283-.711V28.545h-.743v2.577a.474.474,0,0,1-.133.369.609.609,0,0,1-.413.118,1.172,1.172,0,0,1-.315-.047,1.707,1.707,0,0,1-.34-.144V31.9a1.977,1.977,0,0,0,.385.116,2.058,2.058,0,0,0,.406.039,1.357,1.357,0,0,0,.869-.231" transform="translate(0)" fill="#95a0a6"/><path d="M79.749,17.42c0,1.653,1.755,3,3.918,3s3.92-1.343,3.92-3a2.685,2.685,0,0,0-1.165-2.13h1.493V14.117H84.869V12.766h-2.4v1.351H79.427v1.173h1.487a2.7,2.7,0,0,0-1.165,2.13m3.918-1.89a1.788,1.788,0,0,1,1.665,1.89,1.679,1.679,0,1,1-3.33,0,1.79,1.79,0,0,1,1.665-1.89M80.2,32h.7V29.581L82.371,32h.7V28.545h-.7v2.4l-1.47-2.4H80.2Zm-11.438-.678h1.263l.265.678h.755l-1.3-3.457h-.7L67.751,32h.755Zm.636-1.885.5,1.5h-1Zm-3.627-7.852a1.794,1.794,0,0,0,1.2.375h3.192a4.012,4.012,0,0,0,1.109-.134c.3-.088.574-.176.953-.322v4.606h2.253V17.861h1.058v8.251h2.253V13.12H75.536v3.529H74.478V13.12H72.225v7.3a6.665,6.665,0,0,1-.92.246,5.409,5.409,0,0,1-1.054.088H67.674V14.813h3.39V13.606h-5.73v6.976a1.258,1.258,0,0,0,.439,1M91.634,17.5h1.93V16.293h-1.93V13.1h-2.38v7.7h2.38ZM42.881,28.545v2.531a.818.818,0,0,0,.351.735,2.772,2.772,0,0,0,2.215,0,.814.814,0,0,0,.348-.735V28.545h-.736v2.569a.412.412,0,0,1-.175.367,1.314,1.314,0,0,1-1.087,0,.41.41,0,0,1-.18-.367V28.545Zm33.379,0v2.531a.816.816,0,0,0,.349.735,2.769,2.769,0,0,0,2.214,0,.815.815,0,0,0,.35-.735V28.545h-.736v2.569a.414.414,0,0,1-.176.367.986.986,0,0,1-.542.118,1,1,0,0,1-.546-.118.41.41,0,0,1-.179-.367V28.545Zm29.182,0-.465.967a2.393,2.393,0,0,0-.108.264c-.033.091-.059.184-.087.286a3.171,3.171,0,0,0-.1-.315,1.757,1.757,0,0,0-.1-.238l-.465-.963h-.773L104.4,30.53V32h.768V30.53l1.053-1.985Zm-33.749,0V32H74.04v-.434h-1.6V28.545Zm34.968-4.17h-4.727V18.988H99.645v5.387H98.466V18.988H96.175v5.387H93.786v1.193h12.875ZM103.185,18.8c0,.973-.03,1.774-.1,2.4a3.465,3.465,0,0,1-.555,1.616h2.1a4.831,4.831,0,0,0,.657-1.583,9.857,9.857,0,0,0,.237-2.277V13.68H95.014v1.208h8.171Zm-9.934,9.745h-.893V32H93.1V30.313h.018L94.392,32h.8l-1.321-1.7a1.41,1.41,0,0,0,.785-.254.819.819,0,0,0-.119-1.292,2.882,2.882,0,0,0-1.285-.207m.722,1.367a1.168,1.168,0,0,1-.645.133H93.1v-1.09h.205a1.479,1.479,0,0,1,.676.106.408.408,0,0,1,.181.385.53.53,0,0,1-.19.467M102.1,32V28.978h1.027v-.433H100.32v.433h1.029V32Zm-4.965-.534a1.02,1.02,0,0,1-.542.124,1.955,1.955,0,0,1-.421-.049,3.442,3.442,0,0,1-.486-.148v.474a3.268,3.268,0,0,0,.491.13,2.792,2.792,0,0,0,.468.043,1.915,1.915,0,0,0,1.041-.256.764.764,0,0,0,.4-.654.738.738,0,0,0-.2-.5,2.239,2.239,0,0,0-.669-.458c-.026-.012-.065-.032-.116-.059-.544-.271-.815-.505-.815-.706a.393.393,0,0,1,.211-.344,1.069,1.069,0,0,1,.564-.131,1.81,1.81,0,0,1,.408.048,2.173,2.173,0,0,1,.421.141v-.467a3.047,3.047,0,0,0-.47-.12,3.5,3.5,0,0,0-.5-.036,1.727,1.727,0,0,0-.982.262.762.762,0,0,0-.4.651.7.7,0,0,0,.2.487,2.492,2.492,0,0,0,.69.471c.028.017.074.039.135.07q.769.393.768.7a.375.375,0,0,1-.2.331M98.9,32h.743V28.545H98.9ZM56.826,32V28.978h1.027v-.433H55.045v.433h1.026V32Zm34.648-3.04v-.417h-2.21V32h2.21v-.434H90.009V30.4h1.343v-.41H90.009V28.962Zm-6.587-.417h-.742V32h.742Zm1.43,0h-.754L86.777,32h.631l1.216-3.457h-.749L87.1,30.891Zm5.317-7.173H80.761v1.192h8.494v3.522h2.38ZM36.556,19.734a3.546,3.546,0,0,1-2.192,1.618l1.092.816a3.85,3.85,0,0,0,1.99-.928,3.041,3.041,0,0,0,1.147-1.615,3.159,3.159,0,0,0,1.153,1.615,3.814,3.814,0,0,0,1.963.928l1.059-.788v4.732H45V13.12H42.769v3.551H40.815v1.208h1.954V21.21a3.41,3.41,0,0,1-2.151-1.49,5.546,5.546,0,0,1-.863-3.124V14.735h1.922V13.544H35.145v1.191h2.269V16.6a5.57,5.57,0,0,1-.858,3.138m11.856,8.811V32h.707V29.581L50.583,32h.7V28.545h-.706v2.4l-1.472-2.4ZM35.193,32.05a1.374,1.374,0,0,0,.872-.231.866.866,0,0,0,.283-.711V28.545H35.6v2.577a.476.476,0,0,1-.132.369.614.614,0,0,1-.414.118,1.165,1.165,0,0,1-.315-.047,1.714,1.714,0,0,1-.339-.144V31.9a1.9,1.9,0,0,0,.383.116,2.1,2.1,0,0,0,.407.039M48.175,13.12H45.939V26.111h2.236ZM39.592,28.962v-.417H37.384V32h2.208v-.434H38.126V30.4h1.341v-.41H38.126V28.962ZM53.949,17.223a6.518,6.518,0,0,1-3.514,1.087l.932.914a9.364,9.364,0,0,0,3.341-.661,3.922,3.922,0,0,0,2.121-1.6,4.106,4.106,0,0,0,2.14,1.593,9.223,9.223,0,0,0,3.322.668l.933-.914a6.543,6.543,0,0,1-3.506-1.087,3.027,3.027,0,0,1-1.689-2.5v-.08h4.313V13.433H51.319v1.208h4.313v.08a3.026,3.026,0,0,1-1.683,2.5m9.015,14.408a2.018,2.018,0,0,0,.367-1.359,2.037,2.037,0,0,0-.367-1.366,1.964,1.964,0,0,0-2.4,0,2.037,2.037,0,0,0-.37,1.363,2.018,2.018,0,0,0,.37,1.359,1.965,1.965,0,0,0,2.4,0M61.133,31.3a2.06,2.06,0,0,1-.191-1.034,2.063,2.063,0,0,1,.188-1.037.824.824,0,0,1,1.264,0,2.09,2.09,0,0,1,.184,1.038,2.1,2.1,0,0,1-.182,1.05.679.679,0,0,1-.624.286.7.7,0,0,1-.639-.3m5.282.7h.7V28.545h-.707v2.4l-1.472-2.4h-.689V32h.7V29.581Zm-14.5,0h.756l.256-.678h1.262l.267.678h.755l-1.3-3.457h-.7Zm2.146-1.066h-1l.5-1.5ZM58.512,32h.745V28.545h-.745Zm-2.863-5.89H58.03v-4.5h5.618V20.416H50.013v1.192h5.635ZM41.577,31.819a.859.859,0,0,0,.283-.711V28.545h-.743v2.577a.474.474,0,0,1-.133.369.609.609,0,0,1-.413.118,1.172,1.172,0,0,1-.315-.047,1.707,1.707,0,0,1-.34-.144V31.9a1.977,1.977,0,0,0,.385.116,2.058,2.058,0,0,0,.406.039,1.357,1.357,0,0,0,.869-.231" transform="translate(0)" fill="#5f5e5e"/><path d="M8.9,12.617a30.32,30.32,0,0,1-3.375,5.01,15.868,15.868,0,0,0-3.468,6.7c-1.175,7.857,3.828,11.9,6.9,13.044a10.6,10.6,0,0,1-5.645-11.32c.5-2.409,1.818-4.885,4.818-8.033,0,0,3.538-3.6,4.016-6.728A10.874,10.874,0,0,0,7.2,0,11.807,11.807,0,0,1,8.9,12.617" transform="translate(0)" fill="#64a91c"/><path d="M13.247,13.809a17.405,17.405,0,0,1-3.791,4.9c-4.331,4.077-4.889,6.5-4.889,6.5a10.1,10.1,0,0,0,1.057,8.6,9.287,9.287,0,0,0,5.688,4.018,7.365,7.365,0,0,1-5.06-6.437c-.184-2.429,1.211-5.505,5.244-8.6a22.092,22.092,0,0,0,3.611-3.571,11.689,11.689,0,0,0,2.28-5.327,12.4,12.4,0,0,0-.744-6.217,13.484,13.484,0,0,0-3.594-5.279,13.242,13.242,0,0,1,.2,11.424" transform="translate(0)" fill="#b0bcc2"/><path d="M28.247,26.6V13.135H22.778V28.151c-.017,1.043-.11,2.207-.11,2.207A6.978,6.978,0,0,1,22.1,32.8a8.409,8.409,0,0,1-3.224,3.83,11.657,11.657,0,0,1-11.414.649C14.6,41.406,21.54,37.6,21.54,37.6c4.886-2.763,6.218-6.522,6.578-8.544a18.635,18.635,0,0,0,.128-2.457" transform="translate(0)" fill="#003288"/><path d="M6.353,36.424a12.137,12.137,0,0,1-4.594-6.171,13.993,13.993,0,0,1-.465-6.5,16.586,16.586,0,0,1,1.648-4.6,25.665,25.665,0,0,1,1.907-2.811,25.545,25.545,0,0,0,1.611-2.46A7.816,7.816,0,0,0,5.8,5.013a8.838,8.838,0,0,1-.435,6.941S4.494,13.417,3.544,14.8a23.356,23.356,0,0,0-2.7,4.949,14.343,14.343,0,0,0-.472,8.167s.988,5.821,5.979,8.505" transform="translate(0)" fill="#0099e7"/><path d="M12.045,36.145V34.471h-.337v-.23h.68v1.9Z" transform="translate(0)" fill="#003288"/><path d="M13.811,34.823a.487.487,0,0,0-.068-.29.252.252,0,0,0-.216-.092.235.235,0,0,0-.2.091.533.533,0,0,0-.063.294.52.52,0,0,0,.063.3.249.249,0,0,0,.213.083.245.245,0,0,0,.213-.091.507.507,0,0,0,.064-.291m-.062.5a.484.484,0,0,1-.146.072.523.523,0,0,1-.165.024.507.507,0,0,1-.393-.134.855.855,0,0,1,.028-.92.631.631,0,0,1,.465-.152.6.6,0,0,1,.456.161.7.7,0,0,1,.15.487,1.285,1.285,0,0,1-.124.534,4.348,4.348,0,0,1-.491.751h-.4q.261-.318.393-.5c.087-.118.163-.225.225-.326" transform="translate(0)" fill="#003288"/><path d="M14.457,35.853a.839.839,0,0,0,.177.065.776.776,0,0,0,.185.022.5.5,0,0,0,.365-.118.454.454,0,0,0,.123-.347.3.3,0,0,0-.125-.263.656.656,0,0,0-.372-.087c-.067,0-.123,0-.171.006a1.408,1.408,0,0,0-.142.02l.181-.911h.955v.233h-.666l-.107.464.1-.011.077,0a.649.649,0,0,1,.449.152.521.521,0,0,1,.17.406.632.632,0,0,1-.207.5.847.847,0,0,1-.578.181,1.463,1.463,0,0,1-.259-.022,1.334,1.334,0,0,1-.245-.068Z" transform="translate(0)" fill="#003288"/><path d="M15.944,36.145l.728-1.01a1.5,1.5,0,0,0,.144-.246.508.508,0,0,0,.047-.2.218.218,0,0,0-.251-.25.24.24,0,0,0-.2.081.478.478,0,0,0-.06.275v.066h-.342a.144.144,0,0,1,0-.037v-.059a.511.511,0,0,1,.158-.41.7.7,0,0,1,.471-.138.718.718,0,0,1,.447.125.414.414,0,0,1,.162.345.636.636,0,0,1-.063.266,1.665,1.665,0,0,1-.213.327l-.493.623h.713v.241Z" transform="translate(0)" fill="#003288"/><path d="M16.8,29.9V32.2a.738.738,0,0,0,.317.665,1.869,1.869,0,0,0,1,.209,1.893,1.893,0,0,0,1-.209.738.738,0,0,0,.316-.665V29.9h-.668V32.23a.368.368,0,0,1-.158.332,1.2,1.2,0,0,1-.983,0,.367.367,0,0,1-.162-.332V29.9Z" transform="translate(0)" fill="#003288"/><path d="M9.973,33.077a1.24,1.24,0,0,0,.788-.208.782.782,0,0,0,.257-.644V29.9h-.675v2.332a.427.427,0,0,1-.119.334.549.549,0,0,1-.373.107,1.057,1.057,0,0,1-.285-.043,1.56,1.56,0,0,1-.307-.13v.433a1.707,1.707,0,0,0,.348.1,1.927,1.927,0,0,0,.366.034" transform="translate(0)" fill="#003288"/><path d="M13.783,30.283V29.9h-2v3.129h2v-.393H12.456V31.583H13.67v-.372H12.456v-.928Z" transform="translate(0)" fill="#003288"/><path d="M15.786,32.869a.78.78,0,0,0,.255-.644V29.9h-.672v2.333a.43.43,0,0,1-.12.334.55.55,0,0,1-.374.107,1.079,1.079,0,0,1-.285-.043,1.454,1.454,0,0,1-.308-.13v.433a1.772,1.772,0,0,0,.349.1,1.861,1.861,0,0,0,.368.034,1.23,1.23,0,0,0,.786-.208" transform="translate(0)" fill="#003288"/><path d="M14.725,28.9a1.276,1.276,0,0,0,.583-.19l3.393.23V24.667l-.354-.02.157.241v3.869l-3.263-.2a.972.972,0,0,1-1.137,0l-3.262.2V24.888L11,24.647l-.354.02v4.272l3.394-.23a1.266,1.266,0,0,0,.581.19.953.953,0,0,0,.106,0" transform="translate(0)" fill="#b0bcc2"/><path d="M11.364,24.4c-.075.116-.335.515-.343.526V28.4l.343-.558Z" transform="translate(0)" fill="#b0bcc2"/><path d="M14.142,28.37l.01.009a.763.763,0,0,0,.386.176.729.729,0,0,0-.38-.548,2.4,2.4,0,0,0-1.073-.181c-.225,0-.465.013-.738.039s-.542.064-.826.114l-.36.584,2.982-.192" transform="translate(0)" fill="#b0bcc2"/><path d="M18.324,24.93l-.343-.526v3.438l.343.558Z" transform="translate(0)" fill="#b0bcc2"/><path d="M15.186,28.007a.734.734,0,0,0-.381.548.76.76,0,0,0,.387-.176l.009-.009,2.982.192-.359-.584c-.285-.05-.563-.088-.828-.115s-.513-.039-.737-.039a2.41,2.41,0,0,0-1.074.181" transform="translate(0)" fill="#b0bcc2"/><path d="M16.994,24.037a7.112,7.112,0,0,0-.761-.042l-.34.014-.259.038a1.377,1.377,0,0,0-.472.179l-.037.027-.016.012a1.146,1.146,0,0,0-.331.34v3.484a.819.819,0,0,1,.18-.172,2.139,2.139,0,0,1,.858-.262l.015,0,.017,0a5.12,5.12,0,0,1,.634-.021l.47.032c.238.022.514.057.823.1v-3.6c-.267-.054-.531-.1-.781-.123m.343.772a1.679,1.679,0,0,1-.995.938s.13.03.433.381a1.24,1.24,0,0,0,.4.32s-.428.822-.47.919a1.832,1.832,0,0,1-.527-.812.151.151,0,0,0-.149-.076s-.34.037-.478.048a.126.126,0,0,1-.137,0l-.05-.052s-.012,0-.033-.015a.111.111,0,0,1-.047-.08.087.087,0,0,1,.028-.07,5.018,5.018,0,0,0,.671-.518s-.006.019.026-.058a1.11,1.11,0,0,1-.271-.11s-.119-.08-.116-.183l.028,0s0,.124.246.2a.528.528,0,0,1-.08-.176.122.122,0,0,1,.034-.007s.07.2.188.208c0,0,.232-.139.25-.3,0,0-.1-.058-.135-.294l.032-.017s.038.223.153.217c0,0,.1,0,.167-.189a.9.9,0,0,0,.05-.311,1.078,1.078,0,0,0-.024-.152l.024-.037a.663.663,0,0,1,.031.115.47.47,0,0,1,.091-.228l.021.011a.4.4,0,0,0-.056.251,1.116,1.116,0,0,1-.076.4,1.676,1.676,0,0,1-.384.56,3.47,3.47,0,0,0,.47-.224.458.458,0,0,0,.157-.378h.037a.607.607,0,0,1,0,.238,1.01,1.01,0,0,0,.43-.512.31.31,0,0,0-.01-.208l.015-.02a.37.37,0,0,1,.052.144.266.266,0,0,1,.16-.143l.008.022a.388.388,0,0,0-.154.2" transform="translate(0)" fill="#b0bcc2"/><path d="M14.235,24.264l-.014-.011-.038-.027a1.363,1.363,0,0,0-.471-.179l-.261-.038L13.113,24a6.928,6.928,0,0,0-.761.042c-.252.027-.515.068-.782.122v3.606c.308-.045.585-.08.822-.1l.472-.032a5.17,5.17,0,0,1,.631.021h.019l.018,0a2.116,2.116,0,0,1,.855.264.787.787,0,0,1,.181.17V24.606a1.149,1.149,0,0,0-.332-.342m-.473,2.909H12.441a2.856,2.856,0,0,0-.2-1.545c.277-.3.629-.752.784-.954V25.88a.208.208,0,1,0,.154,0V24.663c.15.2.51.655.791.964a2.853,2.853,0,0,0-.2,1.545" transform="translate(0)" fill="#b0bcc2"/></svg>