<svg xmlns="http://www.w3.org/2000/svg" width="105.371" height="38.973" viewBox="0 0 105.371 38.973"><path d="M8.582,12.544a30.183,30.183,0,0,1-3.256,4.982,15.925,15.925,0,0,0-3.344,6.659C.848,32,5.674,36.02,8.633,37.154A10.606,10.606,0,0,1,3.188,25.9c.48-2.4,1.754-4.857,4.647-7.987,0,0,3.413-3.579,3.874-6.689A10.986,10.986,0,0,0,6.94,0,12.029,12.029,0,0,1,8.582,12.544" transform="translate(0)" fill="#fff"/><path d="M12.777,13.729A17.226,17.226,0,0,1,9.121,18.6c-4.178,4.053-4.715,6.458-4.715,6.458A10.3,10.3,0,0,0,5.426,33.6,8.96,8.96,0,0,0,10.912,37.6a7.264,7.264,0,0,1-4.88-6.4c-.178-2.416,1.168-5.474,5.058-8.552a21.608,21.608,0,0,0,3.483-3.55,11.821,11.821,0,0,0,2.2-5.3,12.676,12.676,0,0,0-.718-6.18,13.424,13.424,0,0,0-3.467-5.248,13.528,13.528,0,0,1,.189,11.357" transform="translate(0)" fill="#fff"/><path d="M27.245,26.448V13.058H21.969v14.93c-.015,1.036-.105,2.195-.105,2.195a7.1,7.1,0,0,1-.546,2.425,8.268,8.268,0,0,1-3.109,3.808,10.955,10.955,0,0,1-11.01.646c6.882,4.1,13.578.323,13.578.323,4.713-2.747,6-6.484,6.345-8.494a19.093,19.093,0,0,0,.124-2.443" transform="translate(0)" fill="#fff"/><path d="M6.127,36.213A12,12,0,0,1,1.7,30.077a14.312,14.312,0,0,1-.448-6.464,16.823,16.823,0,0,1,1.589-4.577,25.519,25.519,0,0,1,1.839-2.795A25.49,25.49,0,0,0,6.23,13.8,7.966,7.966,0,0,0,5.6,4.985a9.035,9.035,0,0,1-.42,6.9s-.843,1.454-1.759,2.833a23.4,23.4,0,0,0-2.6,4.92,14.662,14.662,0,0,0-.456,8.12s.952,5.788,5.767,8.456" transform="translate(0)" fill="#fff"/><path d="M11.617,35.935V34.27h-.325v-.227h.655v1.892Z" transform="translate(0)" fill="#fff"/><path d="M13.321,34.621a.492.492,0,0,0-.066-.289.241.241,0,0,0-.208-.091.224.224,0,0,0-.2.09.539.539,0,0,0-.061.293.524.524,0,0,0,.06.293.285.285,0,0,0,.41-.006.519.519,0,0,0,.062-.29m-.059.5a.47.47,0,0,1-.141.072.514.514,0,0,1-.159.023.478.478,0,0,1-.379-.133.872.872,0,0,1,.028-.915.6.6,0,0,1,.449-.151.567.567,0,0,1,.439.161.7.7,0,0,1,.145.484,1.32,1.32,0,0,1-.12.531,4.352,4.352,0,0,1-.473.748h-.385c.167-.211.295-.376.378-.494s.158-.224.218-.324" transform="translate(0)" fill="#fff"/><path d="M13.943,35.645a.9.9,0,0,0,.171.066.766.766,0,0,0,.179.021.481.481,0,0,0,.351-.116.46.46,0,0,0,.118-.346.3.3,0,0,0-.121-.26.614.614,0,0,0-.359-.087c-.065,0-.119,0-.165.006s-.093.012-.136.019l.174-.905h.921v.232h-.642l-.1.461.094-.01c.028,0,.053,0,.074,0a.613.613,0,0,1,.433.152.525.525,0,0,1,.164.4.635.635,0,0,1-.2.5.8.8,0,0,1-.557.18,1.356,1.356,0,0,1-.249-.022,1.185,1.185,0,0,1-.235-.067Z" transform="translate(0)" fill="#fff"/><path d="M15.379,35.935l.7-1a1.505,1.505,0,0,0,.139-.244.534.534,0,0,0,.045-.2.262.262,0,0,0-.058-.186.244.244,0,0,0-.184-.061.229.229,0,0,0-.2.08.484.484,0,0,0-.058.274v.066h-.33a.2.2,0,0,1,0-.037v-.059a.517.517,0,0,1,.152-.407.656.656,0,0,1,.455-.137.678.678,0,0,1,.431.125.418.418,0,0,1,.156.343.659.659,0,0,1-.061.265,1.647,1.647,0,0,1-.206.325l-.475.619h.687v.241Z" transform="translate(0)" fill="#fff"/><path d="M16.2,29.731v2.278a.741.741,0,0,0,.306.662,1.753,1.753,0,0,0,.965.207,1.778,1.778,0,0,0,.967-.207.743.743,0,0,0,.3-.662V29.731H18.1v2.312a.372.372,0,0,1-.152.331,1.125,1.125,0,0,1-.948,0,.371.371,0,0,1-.156-.331V29.731Z" transform="translate(0)" fill="#fff"/><path d="M9.619,32.885a1.16,1.16,0,0,0,.76-.208.784.784,0,0,0,.247-.639V29.731H9.975v2.319a.435.435,0,0,1-.114.332.521.521,0,0,1-.36.106.984.984,0,0,1-.275-.043,1.433,1.433,0,0,1-.3-.13v.432a1.538,1.538,0,0,0,.336.1,1.746,1.746,0,0,0,.354.034" transform="translate(0)" fill="#fff"/><path d="M13.294,30.108v-.377H11.365v3.111h1.929v-.39h-1.28V31.4h1.172v-.371H12.014v-.922Z" transform="translate(0)" fill="#fff"/><path d="M15.226,32.677a.784.784,0,0,0,.246-.639V29.731h-.648V32.05a.436.436,0,0,1-.116.332.52.52,0,0,1-.36.106,1.01,1.01,0,0,1-.276-.043,1.4,1.4,0,0,1-.3-.13v.432a1.647,1.647,0,0,0,.337.1,1.756,1.756,0,0,0,.355.034,1.152,1.152,0,0,0,.759-.208" transform="translate(0)" fill="#fff"/><path d="M14.2,28.73a1.209,1.209,0,0,0,.563-.189l3.273.229V24.524L17.7,24.5l.152.241v3.847l-3.148-.2a.917.917,0,0,1-1.1,0l-3.146.2V24.744l.15-.241-.342.021V28.77l3.273-.229a1.2,1.2,0,0,0,.561.189.857.857,0,0,0,.1,0" transform="translate(0)" fill="#fff"/><path d="M10.96,24.262c-.072.115-.323.512-.331.523v3.449l.331-.553Z" transform="translate(0)" fill="#fff"/><path d="M13.64,28.206l.01.009a.728.728,0,0,0,.373.175.727.727,0,0,0-.367-.545,2.261,2.261,0,0,0-1.036-.18c-.217,0-.448.013-.711.039s-.524.064-.8.113l-.346.581,2.875-.191" transform="translate(0)" fill="#fff"/><path d="M17.674,24.785l-.331-.523v3.419c.007.01.258.432.331.553Z" transform="translate(0)" fill="#fff"/><path d="M14.648,27.845a.73.73,0,0,0-.367.545.73.73,0,0,0,.373-.175l.009-.009,2.876.191c-.045-.073-.335-.562-.346-.581-.274-.049-.543-.087-.8-.113s-.5-.039-.711-.039a2.26,2.26,0,0,0-1.036.18" transform="translate(0)" fill="#fff"/><path d="M16.39,23.9a6.7,6.7,0,0,0-.734-.042l-.327.014-.251.038a1.312,1.312,0,0,0-.455.178l-.036.028-.015.01a1.124,1.124,0,0,0-.318.339v3.463a.8.8,0,0,1,.174-.17,1.99,1.99,0,0,1,.827-.261h.031a4.864,4.864,0,0,1,.611-.022l.454.033c.23.022.5.056.793.1V24.02c-.258-.054-.511-.1-.753-.122m.331.768a1.648,1.648,0,0,1-.959.932s.124.031.416.379a1.216,1.216,0,0,0,.381.318s-.412.818-.453.914A1.817,1.817,0,0,1,15.6,26.4a.145.145,0,0,0-.143-.076s-.327.037-.46.049a.122.122,0,0,1-.134,0l-.048-.051s-.012,0-.032-.015a.112.112,0,0,1-.044-.079.085.085,0,0,1,.027-.07,4.882,4.882,0,0,0,.648-.514s-.005.019.025-.059a1.035,1.035,0,0,1-.262-.109.261.261,0,0,1-.112-.182l.027,0s0,.124.237.2a.529.529,0,0,1-.077-.175.1.1,0,0,1,.033-.007s.067.2.181.206c0,0,.223-.138.24-.294,0,0-.092-.057-.13-.293l.03-.018s.037.223.147.216c0,0,.1,0,.161-.188a.912.912,0,0,0,.049-.309,1.1,1.1,0,0,0-.023-.151l.023-.037a.646.646,0,0,1,.03.114.488.488,0,0,1,.088-.228l.021.013a.4.4,0,0,0-.054.249,1.149,1.149,0,0,1-.073.4,1.677,1.677,0,0,1-.371.557,3.325,3.325,0,0,0,.454-.224s.135-.084.152-.375h.035a.622.622,0,0,1,0,.237.994.994,0,0,0,.414-.509.315.315,0,0,0-.009-.207l.015-.019a.368.368,0,0,1,.049.143.259.259,0,0,1,.155-.142l.009.021a.378.378,0,0,0-.15.2" transform="translate(0)" fill="#fff"/><path d="M13.73,24.124l-.014-.01-.035-.028a1.308,1.308,0,0,0-.455-.178l-.252-.038-.326-.014a6.549,6.549,0,0,0-.733.042,7.483,7.483,0,0,0-.754.122V27.6c.3-.045.564-.079.792-.1l.456-.032a4.783,4.783,0,0,1,.607.022h.037a1.993,1.993,0,0,1,.825.261.779.779,0,0,1,.173.169V24.463a1.141,1.141,0,0,0-.32-.339m-.456,2.891H12a2.907,2.907,0,0,0-.2-1.536c.267-.3.607-.748.756-.948v1.2a.2.2,0,0,0-.127.188.2.2,0,1,0,.276-.188v-1.21c.145.2.492.652.763.959a2.913,2.913,0,0,0-.2,1.536" transform="translate(0)" fill="#fff"/><path d="M77.974,17.144c0,1.718,1.768,3.113,3.947,3.113s3.95-1.4,3.95-3.113A2.817,2.817,0,0,0,84.7,14.931h1.5V13.713H83.134v-1.4H80.713v1.4H77.648v1.218h1.5a2.829,2.829,0,0,0-1.172,2.213m3.947-1.961A1.836,1.836,0,0,1,83.6,17.144a1.7,1.7,0,1,1-3.354,0,1.835,1.835,0,0,1,1.676-1.961m-3.49,17.107h.708V29.776l1.479,2.513h.7V28.7h-.707v2.5l-1.486-2.5h-.694Zm-11.524-.706h1.269l.268.706H69.2L67.9,28.7H67.19l-1.305,3.593h.76Zm.639-1.955.5,1.556H67.04ZM63.89,21.47a1.769,1.769,0,0,0,1.208.39h3.214a3.773,3.773,0,0,0,1.118-.139c.306-.092.58-.182.962-.332v4.782h2.268V17.6h1.067v8.569H76V12.677H73.728v3.669H72.661V12.677H70.392v7.58a6.278,6.278,0,0,1-.928.258,5.287,5.287,0,0,1-1.064.092H65.8v-6.17h3.419V13.182H63.448v7.247a1.317,1.317,0,0,0,.442,1.041m26.055-4.243h1.947V15.974H89.945V12.653H87.552v8h2.393ZM40.825,28.7v2.63a.856.856,0,0,0,.352.764,2.716,2.716,0,0,0,2.233,0,.86.86,0,0,0,.35-.764V28.7h-.744v2.673a.42.42,0,0,1-.175.377.955.955,0,0,1-.549.124.968.968,0,0,1-.548-.124.419.419,0,0,1-.179-.377V28.7Zm33.633,0v2.63a.855.855,0,0,0,.352.764,2.711,2.711,0,0,0,2.231,0,.856.856,0,0,0,.354-.764V28.7h-.742v2.673a.431.431,0,0,1-.178.377.963.963,0,0,1-.547.124.976.976,0,0,1-.551-.124.418.418,0,0,1-.178-.377V28.7Zm29.405,0-.471,1.008c-.039.089-.074.18-.106.271a3.081,3.081,0,0,0-.086.3c-.032-.122-.064-.232-.1-.332a2.267,2.267,0,0,0-.1-.246l-.467-1h-.779l1.051,2.065v1.528h.775V30.761l1.062-2.065Zm-34.005,0v3.593h2.365v-.451H70.607V28.7Zm35.513-4.47h-5.042V18.771H98.021v5.456H96.833V18.771H94.524v5.456H92.271v1.238h13.1Zm-3.782-5.65q0,1.517-.1,2.492a3.735,3.735,0,0,1-.56,1.681h2.114a5.106,5.106,0,0,0,.663-1.648,10.612,10.612,0,0,0,.239-2.365V13.261h-10.6v1.254h8.236ZM91.579,28.7h-.9v3.593h.75V30.533h.02l1.279,1.756h.807L92.2,30.52a1.4,1.4,0,0,0,.791-.263.773.773,0,0,0,.262-.621.763.763,0,0,0-.385-.723,2.81,2.81,0,0,0-1.292-.217m.73,1.421a1.162,1.162,0,0,1-.655.139h-.226V29.125h.2a1.469,1.469,0,0,1,.684.11.435.435,0,0,1,.18.4.554.554,0,0,1-.186.482m8.188,2.172v-3.14h1.037V28.7H98.7v.453h1.035v3.14Zm-5-.554a1.007,1.007,0,0,1-.547.129,1.9,1.9,0,0,1-.422-.051,2.949,2.949,0,0,1-.5-.155v.493a3.06,3.06,0,0,0,.5.136,2.673,2.673,0,0,0,.476.044,1.873,1.873,0,0,0,1.044-.267.792.792,0,0,0,.408-.68.764.764,0,0,0-.2-.52,2.321,2.321,0,0,0-.677-.479c-.022-.013-.062-.033-.115-.059-.547-.28-.822-.528-.822-.735a.409.409,0,0,1,.215-.356,1.072,1.072,0,0,1,.568-.135,1.956,1.956,0,0,1,.409.048,2.648,2.648,0,0,1,.425.147v-.481a2.346,2.346,0,0,0-.476-.125,2.983,2.983,0,0,0-.5-.04,1.724,1.724,0,0,0-.991.269.8.8,0,0,0-.4.679.75.75,0,0,0,.2.506,2.511,2.511,0,0,0,.694.488c.027.017.076.042.138.075.512.273.77.512.77.723a.4.4,0,0,1-.2.348m1.776.554h.751V28.7h-.751Zm-42.4,0v-3.14h1.035V28.7h-2.83v.453h1.037v3.14ZM89.79,29.131V28.7H87.562v3.593H89.79v-.451H88.312V30.626h1.35V30.2h-1.35V29.131ZM83.154,28.7h-.748v3.593h.748Zm1.44,0h-.765l1.226,3.593h.636L86.916,28.7h-.758l-.782,2.438Zm5.351-7.448H78.994v1.24h8.558v3.657h2.393Zm-55.492-1.7a3.6,3.6,0,0,1-2.21,1.682l1.1.85a3.86,3.86,0,0,0,2-.965A3.167,3.167,0,0,0,36.5,19.435a3.3,3.3,0,0,0,1.165,1.677,3.807,3.807,0,0,0,1.978.965l1.065-.819v4.912h2.252V12.677H40.71v3.69H38.739v1.257H40.71v3.458a3.446,3.446,0,0,1-2.166-1.547,5.88,5.88,0,0,1-.873-3.246V14.355h1.938V13.119H33.221v1.236h2.095v1.933a5.951,5.951,0,0,1-.863,3.257M46.4,28.7v3.593h.713V29.776l1.475,2.513h.7V28.7h-.71v2.5l-1.486-2.5ZM33.078,32.338a1.326,1.326,0,0,0,.874-.238.906.906,0,0,0,.288-.738V28.7h-.752v2.677a.512.512,0,0,1-.129.384.611.611,0,0,1-.418.123,1.216,1.216,0,0,1-.322-.046,1.975,1.975,0,0,1-.338-.152v.5a1.961,1.961,0,0,0,.386.12,2.142,2.142,0,0,0,.411.039M46.16,12.677H43.9V26.17H46.16ZM37.51,29.131V28.7H35.284v3.593H37.51v-.451H36.034V30.626h1.35V30.2h-1.35V29.131ZM51.978,16.939a6.452,6.452,0,0,1-3.541,1.132l.938.947a9.216,9.216,0,0,0,3.365-.684,3.988,3.988,0,0,0,2.141-1.666,4.129,4.129,0,0,0,2.155,1.657,9.021,9.021,0,0,0,3.344.693l.94-.947a6.463,6.463,0,0,1-3.53-1.132,3.143,3.143,0,0,1-1.705-2.6v-.083h4.227V13H49.449v1.257h4.222v.083a3.146,3.146,0,0,1-1.694,2.6M61.06,31.906a2.151,2.151,0,0,0,.37-1.413,2.151,2.151,0,0,0-.37-1.417,1.516,1.516,0,0,0-1.21-.428,1.541,1.541,0,0,0-1.213.428,2.158,2.158,0,0,0-.371,1.417,2.14,2.14,0,0,0,.371,1.413,1.535,1.535,0,0,0,1.213.425,1.52,1.52,0,0,0,1.21-.425m-1.842-.348a2.142,2.142,0,0,1-.2-1.076,2.165,2.165,0,0,1,.191-1.073.809.809,0,0,1,1.271,0,2.209,2.209,0,0,1,.187,1.076,2.276,2.276,0,0,1-.182,1.092.673.673,0,0,1-.628.3.687.687,0,0,1-.641-.312m5.321.732h.7V28.7h-.713v2.5l-1.481-2.5h-.694v3.593h.71V29.776Zm-14.609,0h.762l.259-.706h1.275l.264.706h.759L51.943,28.7h-.708Zm2.164-1.1H51.088l.5-1.556Zm4.48,1.1h.751V28.7h-.751ZM53.69,26.171h2.395V21.493h5.664V20.256H48.013v1.237H53.69ZM39.512,32.1a.911.911,0,0,0,.282-.738V28.7h-.748v2.677a.5.5,0,0,1-.132.384.6.6,0,0,1-.42.123,1.183,1.183,0,0,1-.315-.046,1.889,1.889,0,0,1-.342-.152v.5a1.949,1.949,0,0,0,.387.12,2.118,2.118,0,0,0,.409.039,1.348,1.348,0,0,0,.878-.238" transform="translate(0)" fill="#fff"/></svg>