<svg xmlns="http://www.w3.org/2000/svg" xmlns:xlink="http://www.w3.org/1999/xlink" width="361.859" height="48.373" viewBox="0 0 361.859 48.373"><defs><clipPath id="a"><rect width="361.859" height="48.373" fill="none"/></clipPath></defs><g transform="translate(0 0)"><g transform="translate(0 0)" clip-path="url(#a)"><path d="M254.038,44.093a7.276,7.276,0,0,0,2.574-1.36,9.385,9.385,0,0,0,2.053-2.346,11.819,11.819,0,0,0,1.346-3.107,13.464,13.464,0,0,0,.48-3.639V25.506h3.76V33.64a13.166,13.166,0,0,0,.427,3.36,11.924,11.924,0,0,0,1.226,3,10.1,10.1,0,0,0,1.947,2.414,8.31,8.31,0,0,0,2.587,1.6v3.28a10.217,10.217,0,0,1-2.4-1,15.761,15.761,0,0,1-2.28-1.573,13.926,13.926,0,0,1-1.947-1.96,10.3,10.3,0,0,1-1.374-2.16,12.121,12.121,0,0,1-1.494,2.373,12.928,12.928,0,0,1-1.973,1.974,12.563,12.563,0,0,1-4.933,2.427Zm19.174-18.987h3.627V48.92h-3.627Z" transform="translate(-92.852 -9.176)" fill="#333"/><path d="M294.6,33.8a7.747,7.747,0,0,0,2.48-.773,7.343,7.343,0,0,0,1.987-1.467,6.639,6.639,0,0,0,1.32-2.013,6.263,6.263,0,0,0,.48-2.467v-1.84h3.76v1.84a6.13,6.13,0,0,0,1.667,4.28,6.718,6.718,0,0,0,1.893,1.4,9.457,9.457,0,0,0,2.44.827v2.907a14.664,14.664,0,0,1-4.48-1.52,10.465,10.465,0,0,1-3.414-2.8,9.388,9.388,0,0,1-3.44,3.013,15.649,15.649,0,0,1-4.694,1.52Zm2.667,8.027h16.054V40.36H297.263V37.613H317v6.853H300.943v1.6H317.53v2.746H297.263ZM313.37,30.973h-4.64V27.879h4.64V25.106H317V36.68H313.37Z" transform="translate(-107.676 -9.176)" fill="#333"/><path d="M336.888,42.448h16.587V41.435H336.888V38.741h8.24V37.168h-9.974V34.314h23.735v2.853h-9.974v1.574h8.24v6.294H340.568v1.147h17.121v2.693h-20.8Zm0-17.174h20.267v7.894H336.888Zm16.64,2.88H340.514v2.133h13.014Z" transform="translate(-122.5 -9.238)" fill="#333"/><path d="M376.345,31.613a8.446,8.446,0,0,1,.4-2.707,5.741,5.741,0,0,1,1.12-2,4.779,4.779,0,0,1,1.72-1.24,5.635,5.635,0,0,1,2.226-.426,5.154,5.154,0,0,1,3.547,1.253,5.856,5.856,0,0,1,1.786,3.6h2.427V25.239h3.414V48.387h-3.414V42.173h-2.346a7.3,7.3,0,0,1-.547,2.32,5.486,5.486,0,0,1-1.147,1.72,4.665,4.665,0,0,1-1.654,1.067,5.775,5.775,0,0,1-2.067.36,5.624,5.624,0,0,1-2.226-.427,4.778,4.778,0,0,1-1.72-1.24,5.735,5.735,0,0,1-1.12-2,8.446,8.446,0,0,1-.4-2.707Zm7.52-.053a4.53,4.53,0,0,0-.547-2.4,1.73,1.73,0,0,0-3.013,0,4.525,4.525,0,0,0-.546,2.4v9.76a4.521,4.521,0,0,0,.546,2.4,1.729,1.729,0,0,0,3.013,0,4.526,4.526,0,0,0,.547-2.4Zm5.707,1.68h-2.293v5.787h2.293Zm5.094-8.134h3.414V48.92h-3.414Z" transform="translate(-137.556 -9.176)" fill="#333"/><path d="M422.188,37.373a10.337,10.337,0,0,1-3.16-.44,6.59,6.59,0,0,1-2.321-1.253,5.209,5.209,0,0,1-1.426-1.947,6.7,6.7,0,0,1,0-4.987,5.219,5.219,0,0,1,1.426-1.947,6.59,6.59,0,0,1,2.321-1.253,10.356,10.356,0,0,1,3.16-.44h.693a10.371,10.371,0,0,1,3.16.44,6.453,6.453,0,0,1,2.306,1.253,5.429,5.429,0,0,1,1.426,1.947,6.545,6.545,0,0,1,0,4.987,5.418,5.418,0,0,1-1.426,1.947,6.453,6.453,0,0,1-2.306,1.253,10.352,10.352,0,0,1-3.16.44Zm-6.054,2.107h20V48.92h-3.625V42.467H416.134Zm6.96-4.987a3.69,3.69,0,0,0,2.573-.879,3.38,3.38,0,0,0,0-4.747,3.691,3.691,0,0,0-2.573-.881h-1.12a3.69,3.69,0,0,0-2.573.881,3.38,3.38,0,0,0,0,4.747,3.689,3.689,0,0,0,2.573.879Zm9.415-9.387h3.625v2.4h3.147V30.44h-3.147v2.267h3.147V35.64h-3.147v2.907h-3.625Z" transform="translate(-151.612 -9.176)" fill="#333"/><path d="M453.679,44.093a7.266,7.266,0,0,0,2.574-1.36,9.387,9.387,0,0,0,2.053-2.346,11.822,11.822,0,0,0,1.346-3.107,13.466,13.466,0,0,0,.48-3.639V25.506h3.76V33.64a13.168,13.168,0,0,0,.427,3.36,11.922,11.922,0,0,0,1.226,3,10.1,10.1,0,0,0,1.947,2.414,8.309,8.309,0,0,0,2.587,1.6v3.28a10.216,10.216,0,0,1-2.4-1,15.763,15.763,0,0,1-2.28-1.573,13.925,13.925,0,0,1-1.947-1.96,10.3,10.3,0,0,1-1.374-2.16,12.12,12.12,0,0,1-1.494,2.373,12.93,12.93,0,0,1-1.973,1.974,12.563,12.563,0,0,1-4.933,2.427Zm19.174-18.987h3.627V48.92h-3.627Z" transform="translate(-165.822 -9.176)" fill="#333"/><path d="M494.868,44.665H518.6v3.067H494.868Zm1.2-7.28a12.507,12.507,0,0,0,3.387-1,10.433,10.433,0,0,0,2.8-1.853,8.647,8.647,0,0,0,1.907-2.587,7.286,7.286,0,0,0,.706-3.2v-3.68H508.6v3.68a7.387,7.387,0,0,0,.694,3.2,8.444,8.444,0,0,0,1.893,2.587,10.434,10.434,0,0,0,2.8,1.853,12.5,12.5,0,0,0,3.414,1v2.907a17.52,17.52,0,0,1-3.094-.653,17.29,17.29,0,0,1-2.907-1.187,14.706,14.706,0,0,1-2.573-1.693,12.692,12.692,0,0,1-2.094-2.173,12.443,12.443,0,0,1-2.107,2.173,15.4,15.4,0,0,1-2.573,1.693,16.744,16.744,0,0,1-2.907,1.187,17.918,17.918,0,0,1-3.081.653Z" transform="translate(-180.877 -9.161)" fill="#333"/><path d="M535.846,25.372h10.8V28.2h-7.334v2.027h5.867v2.747h-5.867v2.213h8.108v2.827H535.846Zm1.867,14.374h20v9.067h-20Zm16.374,2.879H541.34v3.307h12.747Zm-5.067-9.653h-2.773V29.826h2.773V25.239h3.414V38.813H549.02Zm5.28-7.867h3.414V38.814H554.3Z" transform="translate(-195.854 -9.176)" fill="#333"/><line y2="29.455" transform="translate(152.42 13.297)" fill="#333"/><rect width="0.476" height="29.455" transform="translate(152.182 13.297)" fill="#dbdbdb"/><path d="M12.01,15.571a37.442,37.442,0,0,1-4.062,6.183,19.753,19.753,0,0,0-4.174,8.266c-1.414,9.7,4.607,14.69,8.3,16.1A13.147,13.147,0,0,1,5.28,32.148c.6-2.973,2.188-6.029,5.8-9.914,0,0,4.258-4.441,4.833-8.3A13.6,13.6,0,0,0,9.962,0a14.866,14.866,0,0,1,2.048,15.57" transform="translate(-1.302 0)" fill="#63b62f"/><path d="M18.75,18.737a21.39,21.39,0,0,1-4.563,6.044C8.974,29.812,8.305,32.8,8.305,32.8A12.729,12.729,0,0,0,9.577,43.405a11.182,11.182,0,0,0,6.846,4.957,9.03,9.03,0,0,1-6.09-7.942c-.221-3,1.458-6.793,6.311-10.614A26.856,26.856,0,0,0,20.99,25.4a14.627,14.627,0,0,0,2.744-6.572,15.663,15.663,0,0,0-.9-7.672A16.666,16.666,0,0,0,18.515,4.64c3.694,7.132.235,14.1.235,14.1" transform="translate(-2.807 -1.696)" fill="#bdc7cc"/><path d="M39.169,42.164V25.545H32.586v18.53c-.019,1.287-.132,2.725-.132,2.725a8.777,8.777,0,0,1-.681,3.011,10.282,10.282,0,0,1-3.88,4.726,13.731,13.731,0,0,1-13.737.8c8.586,5.094,16.941.4,16.941.4,5.881-3.409,7.485-8.048,7.917-10.543a23.533,23.533,0,0,0,.155-3.032" transform="translate(-5.174 -9.337)" fill="#004097"/><path d="M7.646,48.513A14.906,14.906,0,0,1,2.116,40.9a17.678,17.678,0,0,1-.559-8.023,20.8,20.8,0,0,1,1.983-5.68,31.641,31.641,0,0,1,2.294-3.469,31.489,31.489,0,0,0,1.939-3.035A9.843,9.843,0,0,0,6.985,9.752a11.155,11.155,0,0,1-.524,8.564s-1.052,1.8-2.2,3.516a29.013,29.013,0,0,0-3.247,6.106A18.117,18.117,0,0,0,.45,38.017s1.188,7.184,7.2,10.5" transform="translate(0 -3.564)" fill="#00a6e9"/><path d="M22.612,68.944V66.877h-.406V66.6h.818v2.349Z" transform="translate(-8.117 -24.341)" fill="#004097"/><path d="M25.582,67.292a.611.611,0,0,0-.082-.358.3.3,0,0,0-.26-.113.281.281,0,0,0-.246.112.67.67,0,0,0-.076.363.652.652,0,0,0,.075.365.358.358,0,0,0,.511-.008.643.643,0,0,0,.077-.36m-.074.615a.6.6,0,0,1-.177.09.64.64,0,0,1-.2.028.6.6,0,0,1-.474-.166,1.076,1.076,0,0,1,.036-1.135.743.743,0,0,1,.558-.188.712.712,0,0,1,.549.2.872.872,0,0,1,.181.6,1.63,1.63,0,0,1-.15.659,5.466,5.466,0,0,1-.591.928h-.48q.314-.394.473-.614c.106-.146.2-.279.272-.4" transform="translate(-8.96 -24.319)" fill="#004097"/><path d="M27.357,68.583a1.062,1.062,0,0,0,.213.081.938.938,0,0,0,.223.027.6.6,0,0,0,.438-.144.572.572,0,0,0,.148-.43.373.373,0,0,0-.15-.323.768.768,0,0,0-.448-.108c-.081,0-.148,0-.206.007s-.116.014-.17.024l.216-1.124H28.77v.288h-.8l-.128.574c.043-.006.082-.01.117-.013s.067,0,.093,0a.766.766,0,0,1,.541.189.648.648,0,0,1,.2.5.788.788,0,0,1-.249.622,1.006,1.006,0,0,1-.7.224,1.668,1.668,0,0,1-.312-.028,1.588,1.588,0,0,1-.294-.084Z" transform="translate(-9.958 -24.341)" fill="#004097"/><path d="M30.243,68.926l.876-1.246a1.819,1.819,0,0,0,.174-.3.647.647,0,0,0,.056-.25.326.326,0,0,0-.072-.232.3.3,0,0,0-.23-.076.284.284,0,0,0-.244.1.6.6,0,0,0-.073.339v.082h-.412a.186.186,0,0,1,0-.046V67.22a.639.639,0,0,1,.19-.506.824.824,0,0,1,.567-.169.845.845,0,0,1,.537.154.516.516,0,0,1,.2.426.808.808,0,0,1-.076.329,2.084,2.084,0,0,1-.256.4l-.593.768h.858v.3Z" transform="translate(-11.054 -24.323)" fill="#004097"/><path d="M31.865,58.159v2.828a.918.918,0,0,0,.382.821,2.2,2.2,0,0,0,1.2.257,2.228,2.228,0,0,0,1.207-.257.919.919,0,0,0,.381-.821V58.159h-.8v2.87a.459.459,0,0,1-.19.41,1.4,1.4,0,0,1-1.183,0,.457.457,0,0,1-.195-.41v-2.87Z" transform="translate(-11.647 -21.257)" fill="#004097"/><path d="M18.42,62.075a1.461,1.461,0,0,0,.949-.258.975.975,0,0,0,.308-.794V58.16h-.812v2.878a.536.536,0,0,1-.143.412.654.654,0,0,1-.45.132,1.238,1.238,0,0,1-.343-.053,1.835,1.835,0,0,1-.37-.161V61.9a1.962,1.962,0,0,0,.419.129,2.206,2.206,0,0,0,.441.043" transform="translate(-6.418 -21.258)" fill="#004097"/><path d="M24.756,58.627V58.16H22.348v3.861h2.408v-.485h-1.6V60.231H24.62v-.459H23.158V58.627Z" transform="translate(-8.168 -21.258)" fill="#004097"/><path d="M28.9,61.817a.973.973,0,0,0,.308-.794V58.159H28.4v2.879a.537.537,0,0,1-.144.412.653.653,0,0,1-.45.132,1.277,1.277,0,0,1-.344-.053,1.743,1.743,0,0,1-.37-.161V61.9a2.1,2.1,0,0,0,.42.129,2.237,2.237,0,0,0,.443.043,1.452,1.452,0,0,0,.947-.258" transform="translate(-9.901 -21.257)" fill="#004097"/><path d="M25.1,53.18a1.507,1.507,0,0,0,.7-.234l4.084.284V47.96l-.426-.026.189.3v4.775l-3.928-.252a1.152,1.152,0,0,1-1.369,0l-3.925.252V48.232l.187-.3-.426.026v5.27l4.084-.284a1.5,1.5,0,0,0,.7.234,1.016,1.016,0,0,0,.128,0" transform="translate(-7.379 -17.52)" fill="#bdc7cc"/><path d="M21.316,47.461c-.091.143-.4.636-.413.65v4.281c.091-.151.4-.675.413-.687Z" transform="translate(-7.64 -17.347)" fill="#bdc7cc"/><path d="M24.756,54.79l.011.011a.9.9,0,0,0,.465.217.9.9,0,0,0-.457-.676,2.842,2.842,0,0,0-1.293-.223c-.27,0-.558.016-.887.048s-.653.079-.995.141c-.015.023-.378.629-.433.721l3.589-.237" transform="translate(-7.737 -19.78)" fill="#bdc7cc"/><path d="M34.518,48.111l-.412-.65V51.7c.008.013.321.536.412.687Z" transform="translate(-12.466 -17.347)" fill="#bdc7cc"/><path d="M28.541,54.341a.907.907,0,0,0-.458.676.909.909,0,0,0,.466-.216l.011-.011,3.589.237c-.056-.091-.417-.7-.432-.721-.342-.061-.677-.109-1-.14s-.617-.048-.887-.048a2.841,2.841,0,0,0-1.292.223" transform="translate(-10.264 -19.78)" fill="#bdc7cc"/><path d="M30.7,46.72a8.273,8.273,0,0,0-.916-.052l-.409.017-.312.047a1.663,1.663,0,0,0-.569.22l-.044.035-.02.013a1.417,1.417,0,0,0-.4.421v4.3a1.013,1.013,0,0,1,.217-.212,2.52,2.52,0,0,1,1.033-.324l.018,0,.02,0a6.175,6.175,0,0,1,.763-.027l.566.04c.286.028.619.07.989.126V46.871c-.322-.067-.638-.118-.94-.151m.412.952a2.052,2.052,0,0,1-1.2,1.158s.156.037.521.47a1.507,1.507,0,0,0,.475.395s-.515,1.015-.565,1.134a2.25,2.25,0,0,1-.634-1,.181.181,0,0,0-.179-.094s-.408.046-.575.06a.151.151,0,0,1-.166,0l-.06-.064s-.015,0-.04-.019a.136.136,0,0,1-.055-.1.1.1,0,0,1,.034-.086,5.973,5.973,0,0,0,.808-.64s-.007.024.031-.072a1.3,1.3,0,0,1-.327-.136s-.144-.1-.14-.226l.034,0s0,.154.3.244a.646.646,0,0,1-.1-.217.144.144,0,0,1,.041-.009s.083.25.226.256c0,0,.279-.171.3-.365,0,0-.115-.071-.163-.363l.039-.022s.046.276.183.268c0,0,.124,0,.2-.234a1.145,1.145,0,0,0,.061-.384,1.407,1.407,0,0,0-.029-.187l.029-.046a.852.852,0,0,1,.037.141.593.593,0,0,1,.109-.283l.025.015a.508.508,0,0,0-.067.31,1.4,1.4,0,0,1-.091.5,2.069,2.069,0,0,1-.463.692,4.139,4.139,0,0,0,.567-.277s.169-.1.189-.466h.044a.777.777,0,0,1-.006.294,1.24,1.24,0,0,0,.517-.631.389.389,0,0,0-.011-.257l.019-.024a.458.458,0,0,1,.062.178.322.322,0,0,1,.193-.176l.011.026a.481.481,0,0,0-.187.242" transform="translate(-10.245 -17.057)" fill="#bdc7cc"/><path d="M25.153,47l-.017-.013-.045-.034a1.639,1.639,0,0,0-.567-.221l-.315-.046-.406-.017a8.241,8.241,0,0,0-.916.052,9.4,9.4,0,0,0-.94.151v4.448c.371-.055.7-.1.989-.126l.568-.04a5.966,5.966,0,0,1,.759.027l.023,0,.021,0a2.507,2.507,0,0,1,1.03.325.949.949,0,0,1,.216.211v-4.3a1.41,1.41,0,0,0-.4-.421m-.569,3.589h-1.59a3.6,3.6,0,0,0-.246-1.907c.333-.376.756-.929.943-1.178v1.49a.251.251,0,1,0,.186,0v-1.5c.181.24.614.808.953,1.19a3.594,3.594,0,0,0-.246,1.907" transform="translate(-8.022 -17.057)" fill="#bdc7cc"/><path d="M128.167,30.4c0,2.382,2.464,4.316,5.5,4.316s5.509-1.935,5.509-4.316a3.9,3.9,0,0,0-1.64-3.071h2.1V25.64h-4.275V23.692h-3.377V25.64h-4.274v1.689H129.8a3.92,3.92,0,0,0-1.633,3.071m5.5-2.722a2.553,2.553,0,0,1,2.341,2.722,2.366,2.366,0,1,1-4.677,0,2.551,2.551,0,0,1,2.337-2.722M128.8,51.411h.988V47.923l2.063,3.487h.977V46.426h-.987v3.465l-2.074-3.465H128.8Zm-16.072-.98h1.77l.374.98h1.06l-1.82-4.985h-.988l-1.821,4.985h1.06Zm.891-2.712.7,2.158h-1.4Zm-5.1-11.317a2.477,2.477,0,0,0,1.684.539h4.483a5.285,5.285,0,0,0,1.56-.192c.426-.128.808-.253,1.341-.461v6.635h3.162V31.035h1.49V42.923h3.164V24.2h-3.164v5.089h-1.49V24.2h-3.162V34.718a9.026,9.026,0,0,1-1.294.357,7.4,7.4,0,0,1-1.485.128H111.2V26.642h4.768V24.9h-8.054V34.956a1.825,1.825,0,0,0,.617,1.446m36.337-5.886h2.714v-1.74h-2.714V24.17h-3.339v11.1h3.339Zm-68.5,15.909v3.65a1.187,1.187,0,0,0,.491,1.06,3.807,3.807,0,0,0,3.115,0,1.192,1.192,0,0,0,.488-1.06v-3.65H79.416v3.707a.582.582,0,0,1-.244.524,1.331,1.331,0,0,1-.766.171,1.346,1.346,0,0,1-.763-.171.582.582,0,0,1-.25-.524V46.426Zm46.9,0v3.65a1.186,1.186,0,0,0,.49,1.06,3.8,3.8,0,0,0,3.111,0,1.184,1.184,0,0,0,.494-1.06v-3.65h-1.035v3.707a.6.6,0,0,1-.247.524,1.338,1.338,0,0,1-.763.171,1.363,1.363,0,0,1-.77-.171.58.58,0,0,1-.247-.524V46.426Zm41.009,0-.657,1.4c-.055.124-.1.251-.148.376a4.241,4.241,0,0,0-.121.419c-.044-.169-.089-.321-.14-.459a2.564,2.564,0,0,0-.133-.342l-.65-1.391h-1.086l1.464,2.863v2.121h1.08V49.289l1.482-2.863Zm-47.423,0v4.985h3.3v-.626h-2.254V46.426Zm49.526-6.2h-7.031v-7.57h-3.218v7.57h-1.659v-7.57h-3.219v7.57h-3.142v1.718h18.268ZM161.1,32.387q0,2.1-.133,3.459a5.16,5.16,0,0,1-.78,2.331h2.947a7.05,7.05,0,0,0,.926-2.287,14.648,14.648,0,0,0,.334-3.278v-7.6h-14.78v1.74H161.1ZM147.14,46.426h-1.257v4.985h1.047V48.975h.028l1.784,2.436h1.124l-1.857-2.454a1.964,1.964,0,0,0,1.1-.365,1.075,1.075,0,0,0,.367-.862,1.06,1.06,0,0,0-.537-1,3.95,3.95,0,0,0-1.8-.3m1.018,1.972a1.64,1.64,0,0,1-.912.194h-.315V47.02h.282a2.054,2.054,0,0,1,.954.153.6.6,0,0,1,.253.556.767.767,0,0,1-.261.669m11.42,3.013V47.053h1.445v-.627h-3.947v.627h1.442v4.358Zm-6.974-.768a1.418,1.418,0,0,1-.763.179,2.82,2.82,0,0,1-.587-.07,4.4,4.4,0,0,1-.691-.215v.683a4.4,4.4,0,0,0,.691.188,3.778,3.778,0,0,0,.664.062,2.633,2.633,0,0,0,1.455-.371,1.1,1.1,0,0,0,.571-.944,1.061,1.061,0,0,0-.278-.721,3.238,3.238,0,0,0-.945-.664c-.031-.018-.087-.045-.159-.081-.763-.39-1.147-.733-1.147-1.021a.565.565,0,0,1,.3-.494,1.5,1.5,0,0,1,.792-.187,2.706,2.706,0,0,1,.572.067,3.62,3.62,0,0,1,.591.2v-.669a3.43,3.43,0,0,0-.664-.173,4.205,4.205,0,0,0-.694-.055,2.418,2.418,0,0,0-1.382.374,1.106,1.106,0,0,0-.56.941,1.038,1.038,0,0,0,.275.7,3.491,3.491,0,0,0,.97.678c.037.023.105.058.193.1.715.379,1.074.711,1.074,1a.551.551,0,0,1-.277.482m2.476.768h1.048V46.426H155.08Zm-59.13,0V47.053h1.443v-.627H93.447v.627h1.447v4.358Zm48.693-4.382v-.6h-3.106v4.985h3.106v-.626h-2.059V49.1h1.883v-.591h-1.883V47.029Zm-9.253-.6h-1.044v4.985h1.044Zm2.009,0h-1.066l1.709,4.985h.886l1.709-4.985h-1.056l-1.09,3.383Zm7.464-10.331H129.589v1.718h11.935v5.075h3.339ZM67.472,33.731a5.007,5.007,0,0,1-3.08,2.333l1.534,1.178A5.4,5.4,0,0,0,68.721,35.9a4.388,4.388,0,0,0,1.61-2.327A4.587,4.587,0,0,0,71.955,35.9a5.325,5.325,0,0,0,2.758,1.338L76.2,36.108v6.815H79.34V24.2H76.2v5.118H73.451v1.742H76.2v4.8a4.79,4.79,0,0,1-3.021-2.146,8.124,8.124,0,0,1-1.217-4.5v-2.68h2.7V24.814H65.756v1.718h2.921v2.68a8.211,8.211,0,0,1-1.2,4.519M84.13,46.426v4.985h.993V47.923l2.057,3.487h.982V46.426H87.17v3.465L85.1,46.426ZM65.555,51.478a1.866,1.866,0,0,0,1.22-.33,1.258,1.258,0,0,0,.4-1.025v-3.7H66.127v3.713a.707.707,0,0,1-.18.532.854.854,0,0,1-.582.172,1.638,1.638,0,0,1-.448-.065,2.593,2.593,0,0,1-.472-.211v.69a2.806,2.806,0,0,0,.538.168,3.016,3.016,0,0,0,.573.053M83.8,24.2H80.651V42.924H83.8ZM71.736,47.029v-.6h-3.1v4.985h3.1v-.626H69.678V49.1H71.56v-.591H69.678V47.029ZM91.913,30.115a9.015,9.015,0,0,1-4.938,1.57L88.282,33a12.876,12.876,0,0,0,4.693-.949,5.548,5.548,0,0,0,2.987-2.311,5.751,5.751,0,0,0,3,2.3,12.658,12.658,0,0,0,4.665.96l1.311-1.315a9.035,9.035,0,0,1-4.923-1.57q-2.379-1.546-2.377-3.6V26.4h5.893V24.653H88.387V26.4h5.887v.116q0,2.056-2.362,3.6M104.58,50.878a2.979,2.979,0,0,0,.515-1.961,2.981,2.981,0,0,0-.515-1.965,2.126,2.126,0,0,0-1.688-.594,2.158,2.158,0,0,0-1.692.594,2.985,2.985,0,0,0-.516,1.965,2.957,2.957,0,0,0,.516,1.961,2.716,2.716,0,0,0,3.381,0m-2.57-.483a2.951,2.951,0,0,1-.273-1.492A2.994,2.994,0,0,1,102,47.414a1.132,1.132,0,0,1,1.773,0,3.042,3.042,0,0,1,.26,1.493,3.14,3.14,0,0,1-.254,1.515.937.937,0,0,1-.876.411.96.96,0,0,1-.9-.433m7.421,1.015h.977V46.426h-.993v3.465l-2.066-3.465h-.968v4.985h.99V47.923Zm-20.374,0h1.062l.36-.98h1.779l.368.98h1.058l-1.82-4.985h-.988Zm3.018-1.534h-1.4l.7-2.158Zm6.247,1.534h1.048V46.426H98.322ZM94.3,42.923h3.341v-6.49h7.9V34.716H86.383v1.716H94.3ZM74.527,51.148a1.263,1.263,0,0,0,.394-1.025v-3.7H73.878v3.713a.681.681,0,0,1-.185.532.84.84,0,0,1-.584.172,1.6,1.6,0,0,1-.439-.065,2.508,2.508,0,0,1-.476-.211v.69a2.789,2.789,0,0,0,.539.168,2.979,2.979,0,0,0,.57.053,1.892,1.892,0,0,0,1.224-.33" transform="translate(-23.536 -8.66)" fill="#717071"/></g></g></svg>