<svg xmlns="http://www.w3.org/2000/svg" xmlns:xlink="http://www.w3.org/1999/xlink" width="130" height="47" viewBox="0 0 130 47"><defs><clipPath id="a"><rect width="130" height="47" fill="none"/></clipPath></defs><g clip-path="url(#a)"><path d="M10.457,15.128A36.363,36.363,0,0,1,6.49,21.135a19.156,19.156,0,0,0-4.075,8.031c-1.382,9.42,4.5,14.273,8.1,15.64A12.759,12.759,0,0,1,3.885,31.235c.585-2.889,2.137-5.858,5.662-9.632,0,0,4.158-4.316,4.72-8.066A13.177,13.177,0,0,0,8.456,0a14.386,14.386,0,0,1,2,15.128" fill="#64a91c"/><path d="M15.568,16.557a20.793,20.793,0,0,1-4.455,5.872c-5.09,4.888-5.744,7.788-5.744,7.788A12.314,12.314,0,0,0,6.611,40.525,10.918,10.918,0,0,0,13.3,45.341a8.784,8.784,0,0,1-5.947-7.717c-.216-2.913,1.424-6.6,6.163-10.313a26.18,26.18,0,0,0,4.244-4.282,14.172,14.172,0,0,0,2.68-6.386,15.146,15.146,0,0,0-.875-7.454A16.176,16.176,0,0,0,15.338,2.86c3.607,6.929.23,13.7.23,13.7" fill="#b0bcc2"/><path d="M33.2,31.895V15.748H26.769v18C26.75,35,26.64,36.4,26.64,36.4a8.5,8.5,0,0,1-.665,2.925,10.01,10.01,0,0,1-3.789,4.592,13.466,13.466,0,0,1-13.415.778c8.384,4.949,16.543.389,16.543.389,5.743-3.312,7.309-7.82,7.731-10.244a22.727,22.727,0,0,0,.151-2.946" fill="#003288"/><path d="M7.466,43.672a14.5,14.5,0,0,1-5.4-7.4,17.093,17.093,0,0,1-.546-7.8,20.138,20.138,0,0,1,1.937-5.519A30.732,30.732,0,0,1,5.7,19.587a30.641,30.641,0,0,0,1.893-2.949A9.525,9.525,0,0,0,6.82,6.011a10.79,10.79,0,0,1-.512,8.322s-1.027,1.753-2.144,3.416A28.164,28.164,0,0,0,.994,23.682a17.519,17.519,0,0,0-.555,9.793s1.161,6.98,7.027,10.2" fill="#0099e7"/><path d="M14.155,43.337V41.328h-.4v-.274h.8v2.282Z" fill="#003288"/><path d="M16.231,41.752a.591.591,0,0,0-.08-.348.3.3,0,0,0-.254-.11.274.274,0,0,0-.24.109.646.646,0,0,0-.074.353.627.627,0,0,0,.073.354.35.35,0,0,0,.5-.008.623.623,0,0,0,.075-.349m-.072.6a.574.574,0,0,1-.172.087.636.636,0,0,1-.193.028.587.587,0,0,1-.462-.161,1.042,1.042,0,0,1,.034-1.1.73.73,0,0,1,.546-.183.7.7,0,0,1,.536.194.842.842,0,0,1,.176.583,1.571,1.571,0,0,1-.146.641,5.254,5.254,0,0,1-.576.9h-.469c.2-.255.359-.454.461-.6s.192-.27.265-.391" fill="#003288"/><path d="M16.99,42.987a1.028,1.028,0,0,0,.208.079.92.92,0,0,0,.218.026.588.588,0,0,0,.428-.14.554.554,0,0,0,.144-.417.362.362,0,0,0-.147-.314.754.754,0,0,0-.437-.1c-.079,0-.144,0-.2.007a1.645,1.645,0,0,0-.166.023l.212-1.092H18.37v.28h-.783l-.125.557c.042-.006.08-.01.114-.013s.065,0,.091,0a.751.751,0,0,1,.528.184.628.628,0,0,1,.2.487.763.763,0,0,1-.244.6.984.984,0,0,1-.679.217,1.632,1.632,0,0,1-.3-.027,1.545,1.545,0,0,1-.288-.081Z" fill="#003288"/><path d="M18.738,43.337l.855-1.211a1.757,1.757,0,0,0,.17-.295.627.627,0,0,0,.055-.243.316.316,0,0,0-.071-.225.3.3,0,0,0-.224-.074.279.279,0,0,0-.238.1.582.582,0,0,0-.071.33v.079h-.4a.2.2,0,0,1,0-.044V41.68a.62.62,0,0,1,.185-.492.809.809,0,0,1,.554-.165.83.83,0,0,1,.525.15.5.5,0,0,1,.19.414.782.782,0,0,1-.074.319,2.015,2.015,0,0,1-.251.393l-.579.746H20.2v.29Z" fill="#003288"/><path d="M19.743,35.854V38.6a.89.89,0,0,0,.373.8,2.157,2.157,0,0,0,1.176.25,2.184,2.184,0,0,0,1.179-.25.891.891,0,0,0,.371-.8V35.854h-.785v2.789a.446.446,0,0,1-.186.4,1.381,1.381,0,0,1-1.156,0,.445.445,0,0,1-.19-.4V35.854Z" fill="#003288"/><path d="M11.72,39.658a1.434,1.434,0,0,0,.926-.25.946.946,0,0,0,.3-.771V35.854h-.793v2.8a.52.52,0,0,1-.139.4.642.642,0,0,1-.44.128,1.215,1.215,0,0,1-.335-.052,1.763,1.763,0,0,1-.361-.156v.52a1.92,1.92,0,0,0,.409.125,2.178,2.178,0,0,0,.431.041" fill="#003288"/><path d="M16.2,36.309v-.455H13.847v3.751H16.2v-.471h-1.56V37.867h1.428v-.446H14.638V36.309Z" fill="#003288"/><path d="M18.551,39.408a.944.944,0,0,0,.3-.771V35.854h-.79v2.8a.521.521,0,0,1-.14.4.641.641,0,0,1-.44.128,1.248,1.248,0,0,1-.335-.052,1.717,1.717,0,0,1-.362-.156v.52a2.042,2.042,0,0,0,.411.125,2.14,2.14,0,0,0,.432.041,1.424,1.424,0,0,0,.925-.25" fill="#003288"/><path d="M17.3,34.647a1.474,1.474,0,0,0,.685-.227l3.988.276V29.575l-.416-.025.185.29V34.48l-3.835-.245a1.127,1.127,0,0,1-1.336,0l-3.833.245V29.84l.183-.29-.416.025V34.7L16.5,34.42a1.464,1.464,0,0,0,.683.227.975.975,0,0,0,.124,0" fill="#b0bcc2"/><path d="M13.355,29.259c-.088.139-.394.618-.4.631v4.16l.4-.668Z" fill="#b0bcc2"/><path d="M16.62,34.016l.011.011a.893.893,0,0,0,.454.211.878.878,0,0,0-.447-.657,2.785,2.785,0,0,0-1.262-.217c-.264,0-.546.016-.866.047s-.638.077-.972.137c-.014.023-.368.612-.423.7l3.5-.231" fill="#b0bcc2"/><path d="M21.534,29.89l-.4-.631v4.123c.008.012.314.521.4.668Z" fill="#b0bcc2"/><path d="M17.847,33.58a.88.88,0,0,0-.447.657.89.89,0,0,0,.455-.211l.011-.011,3.5.23c-.054-.089-.408-.678-.422-.7-.334-.06-.662-.105-.973-.137s-.6-.047-.866-.047a2.787,2.787,0,0,0-1.262.217" fill="#b0bcc2"/><path d="M19.971,28.82a8.148,8.148,0,0,0-.894-.05l-.4.017-.305.045a1.619,1.619,0,0,0-.555.214l-.043.033-.019.013a1.377,1.377,0,0,0-.389.409v4.177a.969.969,0,0,1,.212-.206,2.463,2.463,0,0,1,1.008-.315l.018,0,.02,0a5.977,5.977,0,0,1,.745-.026l.553.039c.279.027.6.068.966.122V28.967c-.314-.066-.623-.115-.918-.147m.4.925A2,2,0,0,1,19.2,30.871s.152.037.508.456a1.466,1.466,0,0,0,.464.383s-.5.986-.552,1.1a2.184,2.184,0,0,1-.62-.973.177.177,0,0,0-.175-.091s-.4.045-.562.058a.147.147,0,0,1-.162,0l-.059-.062s-.014,0-.039-.018a.131.131,0,0,1-.054-.095.1.1,0,0,1,.033-.084,5.877,5.877,0,0,0,.789-.621s-.007.023.03-.07a1.265,1.265,0,0,1-.319-.132s-.141-.1-.137-.219l.033,0s0,.149.289.237a.629.629,0,0,1-.094-.211.139.139,0,0,1,.04-.009s.081.243.22.249c0,0,.272-.166.293-.355,0,0-.113-.069-.159-.353l.037-.021s.045.268.179.261c0,0,.122,0,.2-.227a1.1,1.1,0,0,0,.06-.373,1.358,1.358,0,0,0-.028-.182l.028-.045a.829.829,0,0,1,.037.138.577.577,0,0,1,.107-.275l.025.014a.488.488,0,0,0-.065.3,1.367,1.367,0,0,1-.089.483,2.017,2.017,0,0,1-.452.672,4.02,4.02,0,0,0,.553-.269s.165-.1.185-.452h.043a.737.737,0,0,1-.005.285,1.2,1.2,0,0,0,.5-.613.377.377,0,0,0-.011-.249l.019-.023a.436.436,0,0,1,.06.173.317.317,0,0,1,.188-.171l.011.026a.465.465,0,0,0-.182.235" fill="#b0bcc2"/><path d="M16.729,29.093l-.017-.013-.044-.033a1.606,1.606,0,0,0-.554-.215l-.307-.045-.4-.017a8.114,8.114,0,0,0-.894.05c-.3.032-.605.081-.919.147v4.322c.362-.054.687-.1.965-.122l.554-.039a5.894,5.894,0,0,1,.741.026l.023,0,.021,0a2.452,2.452,0,0,1,1.006.316.932.932,0,0,1,.211.2V29.5a1.373,1.373,0,0,0-.39-.409m-.556,3.487H14.62a3.48,3.48,0,0,0-.24-1.853c.325-.365.739-.9.921-1.144V31.03a.245.245,0,1,0,.182,0V29.571c.177.234.6.785.93,1.156a3.477,3.477,0,0,0-.24,1.853" fill="#b0bcc2"/><path d="M96.935,21.154c0,2.051,2.133,3.717,4.763,3.717s4.768-1.666,4.768-3.717a3.357,3.357,0,0,0-1.419-2.644h1.814V17.055h-3.7V15.378H100.24v1.677h-3.7V18.51h1.808a3.371,3.371,0,0,0-1.414,2.644M101.7,18.81a2.2,2.2,0,0,1,2.026,2.344,2.046,2.046,0,1,1-4.047,0A2.2,2.2,0,0,1,101.7,18.81M97.486,39.246h.855v-3l1.786,3h.845V34.954h-.854v2.983l-1.794-2.983h-.838ZM83.577,38.4h1.532l.324.844h.918l-1.576-4.292H83.92l-1.576,4.292h.917Zm.772-2.335.6,1.858H83.74Zm-4.41-9.745a2.149,2.149,0,0,0,1.457.464h3.88a4.6,4.6,0,0,0,1.35-.165c.368-.111.7-.218,1.16-.4v5.713h2.737V21.7h1.289V31.937h2.738V15.817H91.811V20.2H90.522V15.817H87.785v9.055a7.77,7.77,0,0,1-1.12.307,6.393,6.393,0,0,1-1.285.111H82.248V17.918h4.127v-1.5H79.4v8.658a1.566,1.566,0,0,0,.534,1.245m31.446-5.068h2.349v-1.5h-2.349V15.789H108.5v9.558h2.889ZM52.1,34.954V38.1a1.02,1.02,0,0,0,.424.913,3.311,3.311,0,0,0,2.7,0,1.024,1.024,0,0,0,.422-.913V34.954h-.9v3.192a.5.5,0,0,1-.211.451,1.157,1.157,0,0,1-.662.147,1.172,1.172,0,0,1-.661-.147A.5.5,0,0,1,53,38.146V34.954Zm40.591,0V38.1a1.02,1.02,0,0,0,.424.913,3.3,3.3,0,0,0,2.692,0,1.018,1.018,0,0,0,.428-.913V34.954h-.9v3.192a.513.513,0,0,1-.214.451,1.166,1.166,0,0,1-.66.147A1.184,1.184,0,0,1,93.8,38.6a.5.5,0,0,1-.214-.451V34.954Zm35.489,0-.569,1.2c-.047.107-.09.216-.128.323a3.689,3.689,0,0,0-.1.361c-.038-.145-.078-.276-.121-.4a2.274,2.274,0,0,0-.115-.295l-.563-1.2h-.94l1.267,2.465v1.827h.935V37.419l1.283-2.465Zm-41.04,0v4.292h2.854v-.539H88.044V34.954ZM130,29.615h-6.085V23.1h-2.785v6.518H119.7V23.1H116.91v6.518h-2.72v1.479H130Zm-4.564-6.75q0,1.812-.115,2.979a4.43,4.43,0,0,1-.675,2.007h2.55a6.048,6.048,0,0,0,.8-1.969,12.522,12.522,0,0,0,.289-2.823V16.514H115.5v1.5h9.941ZM113.355,34.954h-1.088v4.292h.906v-2.1h.024l1.543,2.1h.973l-1.607-2.113a1.708,1.708,0,0,0,.956-.314.923.923,0,0,0,.317-.742.911.911,0,0,0-.464-.863,3.428,3.428,0,0,0-1.56-.259m.881,1.7a1.427,1.427,0,0,1-.79.167h-.273V35.465h.245a1.788,1.788,0,0,1,.825.132.517.517,0,0,1,.218.479.658.658,0,0,1-.226.576m9.883,2.594V35.494h1.25v-.54h-3.415v.54H123.2v3.752Zm-6.035-.662a1.23,1.23,0,0,1-.661.154,2.423,2.423,0,0,1-.508-.061,3.793,3.793,0,0,1-.6-.185v.588a3.782,3.782,0,0,0,.6.162,3.286,3.286,0,0,0,.574.053,2.282,2.282,0,0,0,1.259-.319.947.947,0,0,0,.494-.813.91.91,0,0,0-.24-.621,2.788,2.788,0,0,0-.818-.572c-.027-.016-.075-.039-.137-.07-.66-.335-.992-.632-.992-.879a.487.487,0,0,1,.258-.426,1.3,1.3,0,0,1,.686-.161,2.358,2.358,0,0,1,.494.057,3.185,3.185,0,0,1,.512.176v-.576a2.981,2.981,0,0,0-.574-.149,3.7,3.7,0,0,0-.6-.048,2.1,2.1,0,0,0-1.2.322.951.951,0,0,0-.484.811.89.89,0,0,0,.237.6,3.008,3.008,0,0,0,.839.584c.033.02.092.05.167.089.619.327.929.612.929.865a.473.473,0,0,1-.239.415m2.143.662h.906V34.954h-.906Zm-51.171,0V35.494H70.3v-.54H66.888v.54H68.14v3.752Zm42.139-3.773v-.519h-2.688v4.292h2.688v-.539h-1.782V37.259h1.63V36.75h-1.63V35.472Zm-8.008-.519h-.9v4.292h.9Zm1.738,0H104l1.48,4.292h.766l1.479-4.292h-.915l-.943,2.913Zm6.459-8.9H98.166v1.48H108.5v4.369h2.889ZM44.41,24.022a4.331,4.331,0,0,1-2.666,2.009l1.328,1.015a4.681,4.681,0,0,0,2.418-1.152,3.781,3.781,0,0,0,1.393-2,3.948,3.948,0,0,0,1.406,2,4.618,4.618,0,0,0,2.387,1.152l1.285-.977v5.868H54.68V15.817H51.961v4.408H49.584v1.5h2.378v4.131a4.148,4.148,0,0,1-2.614-1.848,6.969,6.969,0,0,1-1.053-3.877V17.823h2.339V16.345H42.924v1.479h2.528v2.308a7.045,7.045,0,0,1-1.042,3.891M58.825,34.954v4.292h.86v-3l1.78,3h.849V34.954h-.857v2.983l-1.792-2.983ZM42.751,39.3a1.621,1.621,0,0,0,1.056-.284,1.08,1.08,0,0,0,.347-.883V34.954h-.908v3.2a.6.6,0,0,1-.156.458.739.739,0,0,1-.5.148A1.427,1.427,0,0,1,42.2,38.7a2.236,2.236,0,0,1-.408-.182v.594a2.4,2.4,0,0,0,.466.145,2.6,2.6,0,0,0,.5.046M58.539,15.817H55.815v16.12h2.724ZM48.1,35.472v-.519H45.413v4.292H48.1v-.539H46.319V37.259h1.628V36.75H46.319V35.472ZM65.561,20.909a7.831,7.831,0,0,1-4.274,1.352l1.131,1.132a11.192,11.192,0,0,0,4.061-.817,4.8,4.8,0,0,0,2.584-1.99,4.972,4.972,0,0,0,2.6,1.98,11,11,0,0,0,4.037.827l1.134-1.132a7.846,7.846,0,0,1-4.26-1.352,3.751,3.751,0,0,1-2.058-3.1v-.1h5.1v-1.5H62.509v1.5h5.1v.1a3.755,3.755,0,0,1-2.044,3.1M76.522,38.787a2.552,2.552,0,0,0,.445-1.688,2.556,2.556,0,0,0-.445-1.692,1.843,1.843,0,0,0-1.461-.511,1.873,1.873,0,0,0-1.465.511A2.561,2.561,0,0,0,73.15,37.1a2.533,2.533,0,0,0,.447,1.688,2.359,2.359,0,0,0,2.925,0M74.3,38.371a2.525,2.525,0,0,1-.236-1.285,2.564,2.564,0,0,1,.23-1.282.983.983,0,0,1,1.534,0,2.61,2.61,0,0,1,.225,1.286,2.686,2.686,0,0,1-.22,1.3.812.812,0,0,1-.758.354.831.831,0,0,1-.775-.373m6.422.874h.846V34.954h-.859v2.983l-1.788-2.983h-.837v4.292h.857v-3Zm-17.632,0h.919l.312-.844h1.539l.319.844h.916l-1.576-4.292h-.855ZM65.7,37.925H64.486l.608-1.858Zm5.407,1.321h.907V34.954h-.907Zm-3.48-7.308h2.891V26.349h6.835V24.871H60.775v1.478h6.852ZM50.515,39.02a1.085,1.085,0,0,0,.341-.883V34.954h-.9v3.2a.584.584,0,0,1-.16.458.73.73,0,0,1-.506.148,1.394,1.394,0,0,1-.38-.056,2.172,2.172,0,0,1-.412-.182v.594a2.391,2.391,0,0,0,.467.145,2.573,2.573,0,0,0,.494.046,1.645,1.645,0,0,0,1.059-.284" fill="#5f5e5e"/></g></svg>