<svg xmlns="http://www.w3.org/2000/svg" xmlns:xlink="http://www.w3.org/1999/xlink" width="316.525" height="58.612" viewBox="0 0 316.525 58.612"><defs><clipPath id="a"><rect width="316.525" height="58.612" fill="none"/></clipPath></defs><g clip-path="url(#a)"><path d="M13.817,18.866C12.64,21.668,8.9,26.357,8.9,26.357,6.951,28.916,4.65,32.128,3.838,36.372c-1.714,11.747,5.582,17.8,10.056,19.5A15.929,15.929,0,0,1,5.663,38.951c.725-3.6,2.651-7.3,7.025-12.011,0,0,5.159-5.382,5.856-10.058A16.477,16.477,0,0,0,11.335,0a18.012,18.012,0,0,1,2.482,18.866" transform="translate(-0.843 0)" fill="#63b62f"/><path d="M21.134,21.744c-1.527,3.657-5.529,7.323-5.529,7.323-6.316,6.1-7.127,9.712-7.127,9.712A15.422,15.422,0,0,0,10.02,51.634a13.55,13.55,0,0,0,8.294,6.006,10.94,10.94,0,0,1-7.378-9.623c-.268-3.633,1.766-8.231,7.647-12.861a32.57,32.57,0,0,0,5.266-5.34,17.731,17.731,0,0,0,3.326-7.964,18.975,18.975,0,0,0-1.086-9.295,20.185,20.185,0,0,0-5.239-7.894c4.476,8.642.285,17.08.285,17.08" transform="translate(-1.817 -1.097)" fill="#bdc7cc"/><path d="M44.54,45.818V25.682H36.564V48.134c-.023,1.56-.16,3.3-.16,3.3a10.633,10.633,0,0,1-.825,3.647,12.459,12.459,0,0,1-4.7,5.726c-8.323,5.617-16.645.971-16.645.971,10.4,6.172,20.527.485,20.527.485,7.125-4.131,9.068-9.751,9.592-12.774a28.451,28.451,0,0,0,.188-3.673" transform="translate(-3.349 -6.044)" fill="#004097"/><path d="M9.264,56.768a18.057,18.057,0,0,1-6.7-9.228,21.408,21.408,0,0,1-.678-9.721,25.207,25.207,0,0,1,2.4-6.882,38.288,38.288,0,0,1,2.78-4.2,38.128,38.128,0,0,0,2.349-3.678A11.926,11.926,0,0,0,8.463,9.8s2.077,5.373-.635,10.377c0,0-1.275,2.186-2.66,4.26,0,0-3.044,4.408-3.934,7.4A21.947,21.947,0,0,0,.545,44.052s1.44,8.7,8.719,12.716" transform="translate(0 -2.307)" fill="#00a6e9"/><path d="M22.818,69.8V67.3h-.492v-.342h.992V69.8Z" transform="translate(-5.254 -15.756)" fill="#004097"/><path d="M25.94,67.809a.74.74,0,0,0-.1-.434.367.367,0,0,0-.315-.137.339.339,0,0,0-.3.135.8.8,0,0,0-.092.44.779.779,0,0,0,.091.441.432.432,0,0,0,.619-.009.781.781,0,0,0,.094-.436m-.09.746a.711.711,0,0,1-.214.109.781.781,0,0,1-.239.034.726.726,0,0,1-.574-.2,1.3,1.3,0,0,1,.042-1.376.9.9,0,0,1,.677-.228.858.858,0,0,1,.665.242,1.054,1.054,0,0,1,.219.726,1.964,1.964,0,0,1-.181.8,6.577,6.577,0,0,1-.715,1.124h-.582q.381-.477.573-.743c.128-.177.238-.337.329-.487" transform="translate(-5.8 -15.742)" fill="#004097"/><path d="M27.527,69.363a1.251,1.251,0,0,0,.258.1,1.139,1.139,0,0,0,.27.032.728.728,0,0,0,.531-.175.694.694,0,0,0,.179-.52.453.453,0,0,0-.183-.392.931.931,0,0,0-.542-.131c-.1,0-.18,0-.249.009a2.065,2.065,0,0,0-.206.029l.263-1.361H29.24V67.3h-.971L28.114,68c.051-.008.1-.012.141-.016s.081,0,.112,0a.927.927,0,0,1,.655.229.782.782,0,0,1,.248.606.955.955,0,0,1-.3.755,1.22,1.22,0,0,1-.843.271,2.022,2.022,0,0,1-.377-.034,1.939,1.939,0,0,1-.357-.1Z" transform="translate(-6.446 -15.756)" fill="#004097"/><path d="M30.406,69.788l1.061-1.51a2.239,2.239,0,0,0,.211-.368.789.789,0,0,0,.069-.3.4.4,0,0,0-.088-.281.37.37,0,0,0-.278-.093.347.347,0,0,0-.3.121.731.731,0,0,0-.088.411v.1h-.5a.224.224,0,0,1-.005-.055v-.088a.776.776,0,0,1,.229-.613,1,1,0,0,1,.687-.2,1.03,1.03,0,0,1,.651.187.627.627,0,0,1,.236.517.978.978,0,0,1-.092.4,2.534,2.534,0,0,1-.311.491l-.719.931h1.04v.362Z" transform="translate(-7.156 -15.744)" fill="#004097"/><path d="M32.036,58.472V61.9a1.113,1.113,0,0,0,.463.995,2.664,2.664,0,0,0,1.459.311,2.7,2.7,0,0,0,1.463-.311,1.113,1.113,0,0,0,.461-.995V58.472h-.975V61.95a.558.558,0,0,1-.23.5,1.7,1.7,0,0,1-1.435,0,.555.555,0,0,1-.236-.5V58.472Z" transform="translate(-7.539 -13.76)" fill="#004097"/><path d="M18.7,63.216a1.768,1.768,0,0,0,1.149-.312,1.182,1.182,0,0,0,.374-.962v-3.47h-.984V61.96a.652.652,0,0,1-.173.5.794.794,0,0,1-.545.16,1.5,1.5,0,0,1-.415-.064,2.19,2.19,0,0,1-.448-.194v.648a2.389,2.389,0,0,0,.508.157,2.69,2.69,0,0,0,.535.051" transform="translate(-4.155 -13.76)" fill="#004097"/><path d="M25.386,59.039v-.567H22.469v4.678h2.917v-.587H23.45V60.982h1.772v-.556H23.45V59.039Z" transform="translate(-5.288 -13.76)" fill="#004097"/><path d="M29.428,62.9a1.18,1.18,0,0,0,.372-.962v-3.47h-.98V61.96a.653.653,0,0,1-.174.5.792.792,0,0,1-.545.16,1.547,1.547,0,0,1-.417-.064,2.148,2.148,0,0,1-.449-.195v.648a2.5,2.5,0,0,0,.51.156,2.656,2.656,0,0,0,.536.052,1.762,1.762,0,0,0,1.147-.312" transform="translate(-6.409 -13.76)" fill="#004097"/><path d="M26.249,54.548a1.822,1.822,0,0,0,.85-.284l4.948.344V48.223l-.515-.031.229.361v5.786L27,54.033a1.392,1.392,0,0,1-1.658,0l-4.756.306V48.553l.227-.361-.516.031v6.386l4.948-.344a1.811,1.811,0,0,0,.848.284,1.239,1.239,0,0,0,.154,0" transform="translate(-4.777 -11.341)" fill="#bdc7cc"/><path d="M21.516,47.716c-.11.174-.489.771-.5.787V53.69c.111-.184.491-.818.5-.833Z" transform="translate(-4.946 -11.229)" fill="#bdc7cc"/><path d="M25.631,55.223l.014.013a1.105,1.105,0,0,0,.564.263,1.1,1.1,0,0,0-.554-.82,3.444,3.444,0,0,0-1.566-.271c-.327,0-.677.02-1.075.058s-.791.1-1.206.171c-.018.028-.457.762-.525.873l4.349-.288" transform="translate(-5.008 -12.804)" fill="#bdc7cc"/><path d="M34.789,48.5c-.01-.017-.39-.613-.5-.787v5.141c.01.015.389.65.5.833Z" transform="translate(-8.069 -11.229)" fill="#bdc7cc"/><path d="M28.789,54.68a1.1,1.1,0,0,0-.555.82,1.1,1.1,0,0,0,.564-.263l.014-.013,4.348.288c-.067-.11-.505-.845-.523-.873-.414-.074-.82-.132-1.207-.171s-.749-.058-1.075-.058a3.444,3.444,0,0,0-1.566.271" transform="translate(-6.644 -12.804)" fill="#bdc7cc"/><path d="M31.412,46.982a10.054,10.054,0,0,0-1.109-.063l-.5.021L29.429,47a2,2,0,0,0-.689.267l-.054.042-.023.016a1.72,1.72,0,0,0-.483.51v5.208a1.2,1.2,0,0,1,.263-.256,3.051,3.051,0,0,1,1.251-.392l.022,0,.024,0a7.368,7.368,0,0,1,.924-.032l.685.048c.346.034.75.085,1.2.152v-5.39c-.391-.082-.775-.143-1.139-.183m.5,1.154a2.488,2.488,0,0,1-1.451,1.4s.189.045.631.569a1.808,1.808,0,0,0,.576.478s-.623,1.23-.684,1.374a2.712,2.712,0,0,1-.769-1.214A.218.218,0,0,0,30,50.632s-.495.055-.7.072a.182.182,0,0,1-.2,0l-.073-.078s-.018,0-.048-.023a.164.164,0,0,1-.068-.118.129.129,0,0,1,.041-.1,7.319,7.319,0,0,0,.979-.775s-.008.029.037-.088a1.568,1.568,0,0,1-.395-.164s-.174-.119-.17-.274l.041,0s0,.187.359.3a.788.788,0,0,1-.117-.262.165.165,0,0,1,.05-.011s.1.3.273.31c0,0,.338-.207.364-.443,0,0-.14-.086-.2-.44l.047-.027s.056.335.223.326c0,0,.151,0,.242-.283a1.373,1.373,0,0,0,.075-.465,1.715,1.715,0,0,0-.035-.227l.035-.056a1.042,1.042,0,0,1,.045.172.726.726,0,0,1,.132-.343l.031.017a.619.619,0,0,0-.082.377,1.706,1.706,0,0,1-.11.6,2.511,2.511,0,0,1-.56.838,4.923,4.923,0,0,0,.686-.336s.2-.126.229-.564h.053a.907.907,0,0,1-.006.356,1.5,1.5,0,0,0,.626-.765.471.471,0,0,0-.015-.311l.024-.029a.536.536,0,0,1,.073.216.4.4,0,0,1,.235-.214l.012.032a.579.579,0,0,0-.225.294" transform="translate(-6.632 -11.041)" fill="#bdc7cc"/><path d="M25.949,47.321l-.021-.016-.054-.041A1.98,1.98,0,0,0,25.187,47l-.381-.057-.492-.021a10.026,10.026,0,0,0-1.11.063c-.367.04-.751.1-1.14.183v5.39c.449-.067.853-.119,1.2-.152l.688-.048a7.265,7.265,0,0,1,.919.032l.028,0,.026,0a3.025,3.025,0,0,1,1.247.394,1.158,1.158,0,0,1,.263.255V47.831a1.718,1.718,0,0,0-.485-.51m-.69,4.348H23.333a4.354,4.354,0,0,0-.3-2.31c.4-.455.916-1.126,1.142-1.427v1.8a.3.3,0,1,0,.416.282.3.3,0,0,0-.191-.282V47.918c.219.291.744.979,1.155,1.441a4.354,4.354,0,0,0-.3,2.31" transform="translate(-5.192 -11.041)" fill="#bdc7cc"/><path d="M65.9,37.281a2.656,2.656,0,0,0,.972-.692,4.682,4.682,0,0,0,.8-1.21,7.569,7.569,0,0,0,.535-1.639,9.524,9.524,0,0,0,.2-1.993V27.693h-2.34V25.815H72.89v1.878H70.667v4.053a7.924,7.924,0,0,0,.642,3.469,4.093,4.093,0,0,0,1.845,1.919v1.961a6.527,6.527,0,0,1-2.092-1.186,5.51,5.51,0,0,1-1.5-1.945,6.842,6.842,0,0,1-1.54,2.027A5.866,5.866,0,0,1,65.9,39.242Zm8.3-4.7h-2.29v-2.01h2.29V25.486h2.108v14.3H74.209ZM77.552,25.4h2.109V40.115H77.552Z" transform="translate(-15.51 -5.978)" fill="#666"/><path d="M86.157,34.231h14.662v1.895H94.658v4.086h-2.34V36.126H86.157Zm.824-2.784a11.751,11.751,0,0,0,2.051-.462,7.083,7.083,0,0,0,1.7-.791,4.057,4.057,0,0,0,1.162-1.1,2.517,2.517,0,0,0,.445-1.4H87.228V25.812H99.748V27.69H94.642a2.523,2.523,0,0,0,.444,1.4,4.112,4.112,0,0,0,1.153,1.1,6.881,6.881,0,0,0,1.7.791,11.984,11.984,0,0,0,2.06.462v1.8a14.049,14.049,0,0,1-3.683-.848,8.548,8.548,0,0,1-2.825-1.722,8.54,8.54,0,0,1-2.825,1.722,14.05,14.05,0,0,1-3.682.848Z" transform="translate(-20.276 -6.074)" fill="#666"/><path d="M107.487,25.815h6.178v1.877h-4v9.425h4.4v1.877h-6.573Zm7.4-.33h2.109v5.388h1.648V25.4h2.108V40.114H118.64V32.882h-1.648v6.9h-2.109Z" transform="translate(-25.295 -5.978)" fill="#666"/><path d="M126.985,25.92h3.674V24.8h2.373V25.92H136.7v1.7h-9.72Zm3.789,7.726a3.878,3.878,0,0,1-2.546-.758,2.462,2.462,0,0,1-.914-1.993,2.637,2.637,0,0,1,.23-1.112,2.466,2.466,0,0,1,.676-.873,3.209,3.209,0,0,1,1.087-.577,4.787,4.787,0,0,1,1.466-.206h2.142a4.729,4.729,0,0,1,1.45.206,3.216,3.216,0,0,1,1.087.577,2.505,2.505,0,0,1,.923,1.985,2.461,2.461,0,0,1-.915,1.993,3.874,3.874,0,0,1-2.545.758Zm-3.047.989h12.438v5.338h-2.24V36.48H127.809Zm4.958-2.7a1.893,1.893,0,0,0,1.038-.264.864.864,0,0,0,.411-.775.854.854,0,0,0-.411-.749,1.85,1.85,0,0,0-1.038-.271h-1.7a1.8,1.8,0,0,0-1.029.271.855.855,0,0,0-.4.749.865.865,0,0,0,.4.775,1.846,1.846,0,0,0,1.029.264Zm5.24-6.672h2.24v3.69h1.977v2.01h-1.977v3.1h-2.24Z" transform="translate(-29.884 -5.836)" fill="#666"/><path d="M147.561,37.617h2.949V31.949h2.34v5.668h2.059V31.949h2.339v5.668h4.975v1.894H147.561Zm1.071-11.7h12.355v9.49h-2.24V27.831H148.632Z" transform="translate(-34.726 -6.1)" fill="#666"/><path d="M65.043,62.987a4.483,4.483,0,0,0,1.59-.84A5.8,5.8,0,0,0,67.9,60.7a7.283,7.283,0,0,0,.832-1.92,8.311,8.311,0,0,0,.3-2.248V51.5h2.323v5.025a8.135,8.135,0,0,0,.264,2.075,7.352,7.352,0,0,0,.758,1.854,6.24,6.24,0,0,0,1.2,1.491,5.141,5.141,0,0,0,1.6.989v2.026a6.348,6.348,0,0,1-1.483-.618,9.825,9.825,0,0,1-1.409-.972,8.613,8.613,0,0,1-1.2-1.211,6.36,6.36,0,0,1-.848-1.334,7.508,7.508,0,0,1-.923,1.466,7.993,7.993,0,0,1-1.219,1.22,7.772,7.772,0,0,1-3.048,1.5Zm11.845-11.73h2.24V65.969h-2.24Z" transform="translate(-15.307 -12.062)" fill="#666"/><path d="M85.835,56.628a4.8,4.8,0,0,0,1.532-.478,4.526,4.526,0,0,0,1.227-.906A4.1,4.1,0,0,0,89.41,54a3.872,3.872,0,0,0,.3-1.524V51.34H92.03v1.136a3.782,3.782,0,0,0,1.029,2.644,4.13,4.13,0,0,0,1.17.865,5.822,5.822,0,0,0,1.507.511v1.8a9.051,9.051,0,0,1-2.767-.939,6.467,6.467,0,0,1-2.109-1.73,5.807,5.807,0,0,1-2.125,1.861,9.651,9.651,0,0,1-2.9.939Zm1.647,4.959H97.4v-.906H87.482v-1.7H99.673v4.234H89.755v.988H100v1.7H87.482Zm9.951-6.705H94.566V52.971h2.867V51.257h2.24v7.15h-2.24Z" transform="translate(-20.2 -12.062)" fill="#666"/><path d="M107.7,61.953h10.247v-.625H107.7V59.663h5.09v-.972h-6.162V56.928h14.662v1.763h-6.162v.972h5.091v3.888H109.97v.709h10.577v1.664H107.7Zm0-10.61h12.521v4.876H107.7Zm10.279,1.78h-8.04v1.318h8.04Z" transform="translate(-25.092 -12.082)" fill="#666"/><path d="M127.739,55.277a5.237,5.237,0,0,1,.247-1.672,3.556,3.556,0,0,1,.692-1.235,2.949,2.949,0,0,1,1.063-.766,3.469,3.469,0,0,1,1.376-.264,3.184,3.184,0,0,1,2.192.775,3.62,3.62,0,0,1,1.1,2.224h1.5v-3h2.108v14.3h-2.108V61.8H134.46a4.516,4.516,0,0,1-.337,1.434,3.4,3.4,0,0,1-.709,1.062,2.874,2.874,0,0,1-1.021.659,3.564,3.564,0,0,1-1.277.223,3.469,3.469,0,0,1-1.376-.264,2.948,2.948,0,0,1-1.063-.766,3.549,3.549,0,0,1-.692-1.235,5.24,5.24,0,0,1-.247-1.672Zm4.646-.033a2.8,2.8,0,0,0-.338-1.483,1.068,1.068,0,0,0-1.861,0,2.792,2.792,0,0,0-.338,1.483v6.03a2.794,2.794,0,0,0,.338,1.483,1.068,1.068,0,0,0,1.861,0,2.8,2.8,0,0,0,.338-1.483Zm3.526,1.038h-1.418v3.575h1.418Zm3.146-5.025h2.109V65.969h-2.109Z" transform="translate(-30.061 -12.062)" fill="#666"/><path d="M152.017,58.836a6.406,6.406,0,0,1-1.953-.272,4.072,4.072,0,0,1-1.433-.775,3.221,3.221,0,0,1-.881-1.2,4.147,4.147,0,0,1,0-3.081,3.229,3.229,0,0,1,.881-1.2,4.084,4.084,0,0,1,1.433-.775,6.407,6.407,0,0,1,1.953-.271h.428a6.4,6.4,0,0,1,1.952.271,3.994,3.994,0,0,1,1.425.775,3.351,3.351,0,0,1,.881,1.2,4.041,4.041,0,0,1,0,3.081,3.342,3.342,0,0,1-.881,1.2,3.982,3.982,0,0,1-1.425.775,6.4,6.4,0,0,1-1.952.272Zm-3.74,1.3h12.356v5.832h-2.24V61.982H148.277Zm4.3-3.082a2.281,2.281,0,0,0,1.59-.543,2.089,2.089,0,0,0,0-2.933,2.282,2.282,0,0,0-1.59-.544h-.693a2.282,2.282,0,0,0-1.59.544,2.089,2.089,0,0,0,0,2.933,2.281,2.281,0,0,0,1.59.543Zm5.815-5.8h2.24V52.74h1.945v1.812h-1.945v1.4h1.945v1.812h-1.945v1.8h-2.24Z" transform="translate(-34.701 -12.062)" fill="#666"/><path d="M167.382,62.987a4.489,4.489,0,0,0,1.59-.84,5.8,5.8,0,0,0,1.269-1.45,7.307,7.307,0,0,0,.832-1.92,8.31,8.31,0,0,0,.3-2.248V51.5h2.323v5.025a8.1,8.1,0,0,0,.264,2.075,7.325,7.325,0,0,0,.758,1.854,6.241,6.241,0,0,0,1.2,1.491,5.132,5.132,0,0,0,1.6.989v2.026a6.315,6.315,0,0,1-1.482-.618,9.789,9.789,0,0,1-1.409-.972,8.656,8.656,0,0,1-1.2-1.211,6.392,6.392,0,0,1-.848-1.334,7.507,7.507,0,0,1-.923,1.466,8,8,0,0,1-1.22,1.22,7.762,7.762,0,0,1-3.047,1.5Zm11.845-11.73h2.24V65.969h-2.24Z" transform="translate(-39.39 -12.062)" fill="#666"/><path d="M188.5,63.344h14.662v1.895H188.5Zm.742-4.5a7.749,7.749,0,0,0,2.092-.618,6.448,6.448,0,0,0,1.73-1.145,5.328,5.328,0,0,0,1.178-1.6,4.491,4.491,0,0,0,.437-1.977V51.235h2.307v2.274a4.572,4.572,0,0,0,.428,1.977,5.227,5.227,0,0,0,1.17,1.6,6.448,6.448,0,0,0,1.73,1.145,7.747,7.747,0,0,0,2.108.618v1.8a10.922,10.922,0,0,1-1.911-.4,10.756,10.756,0,0,1-1.8-.733,9.151,9.151,0,0,1-1.59-1.046,7.865,7.865,0,0,1-1.294-1.343,7.708,7.708,0,0,1-1.3,1.343,9.607,9.607,0,0,1-1.59,1.046,10.4,10.4,0,0,1-1.8.733,11.162,11.162,0,0,1-1.9.4Z" transform="translate(-44.359 -12.057)" fill="#666"/><path d="M209.5,51.422h6.673v1.746h-4.531V54.42h3.625v1.7h-3.625v1.367h5.009v1.746H209.5Zm1.154,8.88h12.355v5.6H210.656Zm10.115,1.779H212.9v2.043h7.875Zm-3.13-5.964h-1.714V54.173h1.714V51.34h2.108v8.386h-2.108Zm3.261-4.86h2.109v8.468H220.9Z" transform="translate(-49.303 -12.062)" fill="#666"/><path d="M257.256,53.166a4.261,4.261,0,0,0,1.522-1.074,7.85,7.85,0,0,0,1.291-1.88,10.882,10.882,0,0,0,.882-2.544,14.174,14.174,0,0,0,.32-3.095V40.15h-3.632V37.234h3.555V34.472h3.657v2.762h3.376V40.15h-3.452v4.424a12.314,12.314,0,0,0,1,5.383,6.353,6.353,0,0,0,2.864,2.979v3.043a10.162,10.162,0,0,1-3.248-1.841,8.559,8.559,0,0,1-2.328-3.017A9.176,9.176,0,0,1,262,52.808a10.646,10.646,0,0,1-2.992,2.6,9.841,9.841,0,0,1-1.752.806ZM270.272,46.8h-3.554v-3.12h3.554V34.856h3.274v22.2h-3.274Zm5.192-12.071h3.274V57.564h-3.274Z" transform="translate(-60.541 -8.112)" fill="#333"/><path d="M290.266,49.869h3.3V48H288.86V45.266h22.76V48H306.4v1.867h3.555v7.774h-3.478v-4.91H290.266Zm5.831-5.754a7.124,7.124,0,0,1-4.475-1.253,4.4,4.4,0,0,1,0-6.8,7.129,7.129,0,0,1,4.475-1.253h8.286a7.131,7.131,0,0,1,4.476,1.253,4.4,4.4,0,0,1,0,6.8,7.126,7.126,0,0,1-4.476,1.253Zm8.158-2.762a3.527,3.527,0,0,0,1.995-.5,1.682,1.682,0,0,0,0-2.788,3.533,3.533,0,0,0-1.995-.5h-8.03a3.53,3.53,0,0,0-2,.5,1.681,1.681,0,0,0,0,2.788,3.524,3.524,0,0,0,2,.5ZM302.772,48H297.2v1.867h5.575Z" transform="translate(-67.978 -8.191)" fill="#333"/><path d="M319.628,53.014a6.982,6.982,0,0,0,2.468-1.3,9,9,0,0,0,1.968-2.251,11.3,11.3,0,0,0,1.292-2.979,12.911,12.911,0,0,0,.46-3.491v-7.8h3.606v7.8a12.636,12.636,0,0,0,.409,3.222,11.409,11.409,0,0,0,1.176,2.877,9.66,9.66,0,0,0,1.867,2.315,7.952,7.952,0,0,0,2.481,1.535v3.145a9.754,9.754,0,0,1-2.3-.959,15.147,15.147,0,0,1-2.187-1.509A13.42,13.42,0,0,1,329,51.736a9.876,9.876,0,0,1-1.317-2.071,11.634,11.634,0,0,1-1.432,2.276,12.413,12.413,0,0,1-1.893,1.893,12.073,12.073,0,0,1-4.731,2.327Zm18.387-18.208h3.477V57.643h-3.477Z" transform="translate(-75.219 -8.191)" fill="#333"/><path d="M351.9,43.143a7.463,7.463,0,0,0,2.378-.742,7.049,7.049,0,0,0,1.906-1.407,6.348,6.348,0,0,0,1.266-1.931,6,6,0,0,0,.46-2.365V34.934h3.605V36.7a5.875,5.875,0,0,0,1.6,4.1,6.447,6.447,0,0,0,1.815,1.343,9.112,9.112,0,0,0,2.341.792v2.788a14.064,14.064,0,0,1-4.3-1.458,10.036,10.036,0,0,1-3.273-2.685,9,9,0,0,1-3.3,2.89,15,15,0,0,1-4.5,1.457Zm2.557,7.7h15.4V49.434h-15.4V46.8h18.924v6.572h-15.4v1.535h15.907v2.634H354.458ZM369.9,40.432h-4.45V37.466h4.45v-2.66h3.478v11.1H369.9Z" transform="translate(-82.814 -8.191)" fill="#333"/><path d="M385.835,51.409h15.907v-.972H385.835V47.854h7.9V46.346h-9.564V43.609h22.76v2.737h-9.564v1.509h7.9V53.89H389.365v1.1h16.417v2.583H385.835Zm0-16.469h19.436v7.569H385.835ZM401.793,37.7H389.314v2.046h12.479Z" transform="translate(-90.409 -8.222)" fill="#333"/><line y2="35.497" transform="translate(185.255 18.964)" fill="#333"/><rect width="0.574" height="35.497" transform="translate(184.968 18.964)" fill="#dbdbdb"/></g></svg>