<svg xmlns="http://www.w3.org/2000/svg" xmlns:xlink="http://www.w3.org/1999/xlink" width="391.652" height="55" viewBox="0 0 391.652 55"><defs><clipPath id="a"><rect width="39" height="55" fill="none"/></clipPath></defs><g transform="translate(-361 -37)"><path d="M1.04-.988A4.2,4.2,0,0,0,2.574-2.08,7.393,7.393,0,0,0,3.835-3.991,11.924,11.924,0,0,0,4.68-6.578a15.008,15.008,0,0,0,.312-3.146v-6.4H1.3v-2.964H12.064v2.964H8.554v6.4A12.512,12.512,0,0,0,9.568-4.251,6.464,6.464,0,0,0,12.48-1.222V1.872A10.325,10.325,0,0,1,9.178,0,8.7,8.7,0,0,1,6.812-3.068,10.8,10.8,0,0,1,4.381.13,9.247,9.247,0,0,1,1.04,2.106Zm13.1-7.41H10.53V-11.57h3.614V-19.6h3.328V2.964H14.144Zm5.278-11.336H22.75V3.484H19.422Zm7.358,9.386a18.6,18.6,0,0,0,3.237-.728,11.241,11.241,0,0,0,2.678-1.248,6.436,6.436,0,0,0,1.833-1.742,3.981,3.981,0,0,0,.7-2.21H27.17V-19.24H46.93v2.964H38.87a3.981,3.981,0,0,0,.7,2.21,6.5,6.5,0,0,0,1.82,1.742,10.932,10.932,0,0,0,2.678,1.248,18.928,18.928,0,0,0,3.25.728v2.834a22.18,22.18,0,0,1-5.811-1.339A13.481,13.481,0,0,1,37.05-11.57a13.481,13.481,0,0,1-4.459,2.717A22.18,22.18,0,0,1,26.78-7.514Zm-1.3,4.394H48.62v2.99H38.9V3.484H35.2V-2.964H25.48ZM62.894-19.6h3.328v8.5h2.6v-8.632H72.15V3.484H68.822V-7.93h-2.6V2.964H62.894Zm-11.674.52h9.75v2.964H54.652V-1.248h6.942V1.716H51.22ZM80.73-6.5a6.119,6.119,0,0,1-4.017-1.2,3.887,3.887,0,0,1-1.443-3.146,4.157,4.157,0,0,1,.364-1.755A3.9,3.9,0,0,1,76.7-13.975a5.058,5.058,0,0,1,1.716-.91,7.576,7.576,0,0,1,2.314-.325h3.38a7.481,7.481,0,0,1,2.288.325,5.058,5.058,0,0,1,1.716.91A4.035,4.035,0,0,1,89.193-12.6a4.035,4.035,0,0,1,.377,1.755A3.887,3.887,0,0,1,88.127-7.7,6.119,6.119,0,0,1,84.11-6.5ZM75.92-4.94H95.55V3.484H92.014V-2.028H76.05ZM92.014-19.734H95.55v5.824h3.12v3.172H95.55V-5.85H92.014ZM74.75-18.694h5.8v-1.768h3.744v1.768h5.8v2.678H74.75Zm9,9.49a2.984,2.984,0,0,0,1.638-.416,1.36,1.36,0,0,0,.65-1.222,1.345,1.345,0,0,0-.65-1.183,2.915,2.915,0,0,0-1.638-.429H81.068a2.851,2.851,0,0,0-1.625.429,1.352,1.352,0,0,0-.637,1.183,1.367,1.367,0,0,0,.637,1.222,2.918,2.918,0,0,0,1.625.416ZM99.58-.65h4.654V-9.594h3.692V-.65h3.25V-9.594h3.692V-.65h7.852V2.34H99.58Zm1.69-18.46h19.5V-4.134h-3.536v-11.96H101.27ZM131.612-6.734a9.321,9.321,0,0,1-3.081-.468,6.349,6.349,0,0,1-2.262-1.326,5.5,5.5,0,0,1-1.391-2.054,7.221,7.221,0,0,1-.468-2.652,7.221,7.221,0,0,1,.468-2.652,5.5,5.5,0,0,1,1.391-2.054,6.349,6.349,0,0,1,2.262-1.326,9.321,9.321,0,0,1,3.081-.468h.676a8.837,8.837,0,0,1,3.471.624,6.172,6.172,0,0,1,2.379,1.716h4.056v-2.34h3.536v17h-3.536V-9.074h-4.056a5.942,5.942,0,0,1-2.379,1.729,9,9,0,0,1-3.471.611ZM126.49-4.68h3.536V.468H146.25V3.38H126.49ZM132.5-9.542a3.319,3.319,0,0,0,2.509-.988,3.741,3.741,0,0,0,.949-2.7,3.741,3.741,0,0,0-.949-2.7,3.319,3.319,0,0,0-2.509-.988H131.4a3.319,3.319,0,0,0-2.509.988,3.741,3.741,0,0,0-.949,2.7,3.741,3.741,0,0,0,.949,2.7,3.319,3.319,0,0,0,2.509.988Zm9.7-2.392v-2.6h-2.808q.052.312.078.637t.026.663q0,.364-.026.676t-.078.624Zm6.786,6.006h23.14v2.99H162.4V3.484H158.7V-2.938H148.98Zm1.3-4.68a14.186,14.186,0,0,0,3.276-.832,10.471,10.471,0,0,0,2.678-1.495,7.416,7.416,0,0,0,1.82-2.028,4.657,4.657,0,0,0,.676-2.431V-19.76h3.64v2.366a4.726,4.726,0,0,0,.663,2.431,7.146,7.146,0,0,0,1.82,2.028,10.707,10.707,0,0,0,2.691,1.495,14.186,14.186,0,0,0,3.276.832v2.834a18.8,18.8,0,0,1-5.811-1.5,14.86,14.86,0,0,1-4.459-2.951,14.86,14.86,0,0,1-4.459,2.951,18.8,18.8,0,0,1-5.811,1.5Zm30.368.494A9.227,9.227,0,0,1,178-10.465a5.879,5.879,0,0,1-1.989-1A4.4,4.4,0,0,1,174.759-13a4.407,4.407,0,0,1-.429-1.95,4.407,4.407,0,0,1,.429-1.95,4.4,4.4,0,0,1,1.248-1.534,5.879,5.879,0,0,1,1.989-1,9.227,9.227,0,0,1,2.652-.351h2.444a9.227,9.227,0,0,1,2.652.351,5.879,5.879,0,0,1,1.989,1,4.4,4.4,0,0,1,1.248,1.534,4.407,4.407,0,0,1,.429,1.95,4.406,4.406,0,0,1-.429,1.95,4.4,4.4,0,0,1-1.248,1.534,5.879,5.879,0,0,1-1.989,1,9.227,9.227,0,0,1-2.652.351Zm5.382,4.68h5.564v-14.3h3.536V-1.716h-3.536v-.858H186.03ZM175.63-2.86h3.536V.468H195.65V3.38H175.63ZM173.68-9.2h16.874v2.782h-7.618V-3.38h-3.692V-6.422H173.68Zm9.334-3.718a3.5,3.5,0,0,0,2.08-.559,1.727,1.727,0,0,0,.78-1.469,1.727,1.727,0,0,0-.78-1.469,3.5,3.5,0,0,0-2.08-.559h-2.288a3.5,3.5,0,0,0-2.08.559,1.727,1.727,0,0,0-.78,1.469,1.727,1.727,0,0,0,.78,1.469,3.5,3.5,0,0,0,2.08.559Z" transform="translate(557.002 79.292)" fill="#333"/><g transform="translate(361 37)"><g clip-path="url(#a)"><path d="M12.285,17.7c-1.115,2.63-4.66,7.03-4.66,7.03-1.84,2.4-4.019,5.415-4.788,9.4-1.623,11.023,5.285,16.7,9.521,18.3A14.918,14.918,0,0,1,4.564,36.551c.687-3.381,2.51-6.855,6.651-11.271,0,0,4.885-5.05,5.545-9.439A15.387,15.387,0,0,0,9.935,0a16.781,16.781,0,0,1,2.35,17.7" fill="#64a91c"/><path d="M18.29,19.375c-1.445,3.432-5.234,6.872-5.234,6.872-5.98,5.721-6.749,9.114-6.749,9.114a14.362,14.362,0,0,0,1.46,12.062,12.825,12.825,0,0,0,7.853,5.636,10.289,10.289,0,0,1-6.986-9.03C8.38,40.62,10.306,36.3,15.874,31.96a30.7,30.7,0,0,0,4.986-5.011,16.551,16.551,0,0,0,3.148-7.473,17.658,17.658,0,0,0-1.028-8.722A18.924,18.924,0,0,0,18.02,3.347c4.238,8.108.27,16.028.27,16.028" fill="#b0bcc2"/><path d="M39,37.324v-18.9H31.448V39.5c-.022,1.464-.151,3.1-.151,3.1a9.918,9.918,0,0,1-.781,3.423,11.73,11.73,0,0,1-4.451,5.374c-7.88,5.271-15.76.911-15.76.911,9.85,5.792,19.435.455,19.435.455,6.747-3.876,8.586-9.151,9.083-11.987A26.492,26.492,0,0,0,39,37.324" fill="#003288"/><path d="M8.771,51.105a16.976,16.976,0,0,1-6.343-8.659,19.928,19.928,0,0,1-.642-9.122,23.5,23.5,0,0,1,2.276-6.458,35.949,35.949,0,0,1,2.632-3.944A35.842,35.842,0,0,0,8.919,19.47,11.11,11.11,0,0,0,8.013,7.035a12.582,12.582,0,0,1-.6,9.738s-1.207,2.052-2.518,4a32.919,32.919,0,0,0-3.725,6.943A20.426,20.426,0,0,0,.516,39.173S1.88,47.341,8.771,51.105" fill="#0099e7"/><path d="M16.63,50.713v-2.35h-.466v-.321H17.1v2.671Z" fill="#003288"/><path d="M19.068,48.859a.69.69,0,0,0-.094-.408.347.347,0,0,0-.3-.129.323.323,0,0,0-.282.127.754.754,0,0,0-.087.413.731.731,0,0,0,.086.414.413.413,0,0,0,.587-.009.727.727,0,0,0,.089-.409m-.085.7a.675.675,0,0,1-.2.1.75.75,0,0,1-.227.032.691.691,0,0,1-.543-.188,1.215,1.215,0,0,1,.039-1.291A.859.859,0,0,1,18.692,48a.819.819,0,0,1,.63.227.983.983,0,0,1,.207.682,1.832,1.832,0,0,1-.172.75,6.145,6.145,0,0,1-.677,1.055H18.13c.24-.3.422-.531.542-.7s.226-.317.312-.457" fill="#003288"/><path d="M19.96,50.3a1.211,1.211,0,0,0,.244.093,1.085,1.085,0,0,0,.256.03.693.693,0,0,0,.5-.164.646.646,0,0,0,.169-.488.423.423,0,0,0-.173-.368.888.888,0,0,0-.514-.123c-.092,0-.17,0-.236.008a1.939,1.939,0,0,0-.2.027l.249-1.277h1.318v.327h-.92l-.147.652c.049-.007.094-.011.134-.015s.076,0,.107,0a.884.884,0,0,1,.621.215.734.734,0,0,1,.234.57.891.891,0,0,1-.286.708,1.159,1.159,0,0,1-.8.254,1.925,1.925,0,0,1-.357-.032,1.821,1.821,0,0,1-.338-.095Z" fill="#003288"/><path d="M22.014,50.713l1-1.417a2.054,2.054,0,0,0,.2-.345.731.731,0,0,0,.065-.285A.369.369,0,0,0,23.2,48.4a.353.353,0,0,0-.263-.086.329.329,0,0,0-.28.113.679.679,0,0,0-.084.386v.093H22.1a.23.23,0,0,1,0-.052v-.083a.724.724,0,0,1,.218-.575.953.953,0,0,1,.651-.193.978.978,0,0,1,.617.175.586.586,0,0,1,.224.485.912.912,0,0,1-.087.374,2.357,2.357,0,0,1-.295.46l-.68.873h.984v.339Z" fill="#003288"/><path d="M23.194,41.957v3.215a1.041,1.041,0,0,0,.438.934,2.542,2.542,0,0,0,1.382.292,2.574,2.574,0,0,0,1.385-.292,1.042,1.042,0,0,0,.436-.934V41.957h-.923V45.22a.522.522,0,0,1-.218.467,1.629,1.629,0,0,1-1.358,0,.52.52,0,0,1-.224-.467V41.957Z" fill="#003288"/><path d="M13.769,46.408a1.689,1.689,0,0,0,1.088-.293,1.1,1.1,0,0,0,.354-.9V41.957h-.932V45.23a.607.607,0,0,1-.163.468.757.757,0,0,1-.516.15,1.432,1.432,0,0,1-.393-.06,2.076,2.076,0,0,1-.424-.183v.608a2.262,2.262,0,0,0,.481.147,2.569,2.569,0,0,0,.506.048" fill="#003288"/><path d="M19.03,42.489v-.532H16.268v4.39H19.03V45.8H17.2V44.312h1.677V43.79H17.2v-1.3Z" fill="#003288"/><path d="M21.794,46.116a1.1,1.1,0,0,0,.353-.9V41.957h-.928V45.23a.609.609,0,0,1-.165.468.756.756,0,0,1-.517.15,1.471,1.471,0,0,1-.394-.061,2.021,2.021,0,0,1-.425-.183v.608a2.406,2.406,0,0,0,.482.147,2.524,2.524,0,0,0,.508.048,1.678,1.678,0,0,0,1.086-.293" fill="#003288"/><path d="M20.33,40.545a1.736,1.736,0,0,0,.8-.266l4.685.323V34.609l-.488-.029.217.339v5.429l-4.506-.286a1.328,1.328,0,0,1-1.569,0l-4.5.286V34.919l.215-.339-.489.029V40.6l4.685-.323a1.724,1.724,0,0,0,.8.266,1.15,1.15,0,0,0,.146,0" fill="#b0bcc2"/><path d="M15.689,34.239c-.1.163-.463.723-.474.738v4.868c.1-.172.465-.767.474-.782Z" fill="#b0bcc2"/><path d="M19.525,39.805l.013.012a1.05,1.05,0,0,0,.534.247,1.028,1.028,0,0,0-.525-.769,3.283,3.283,0,0,0-1.483-.254c-.31,0-.641.018-1.018.054s-.75.09-1.142.16c-.016.027-.433.716-.5.82l4.117-.27" fill="#b0bcc2"/><path d="M25.3,34.978l-.473-.738v4.824c.01.014.368.61.473.782Z" fill="#b0bcc2"/><path d="M20.967,39.3a1.029,1.029,0,0,0-.525.769,1.048,1.048,0,0,0,.534-.247l.013-.012,4.117.27c-.064-.1-.479-.793-.5-.82-.392-.07-.777-.123-1.143-.16s-.709-.054-1.018-.054a3.285,3.285,0,0,0-1.483.254" fill="#b0bcc2"/><path d="M23.462,33.726a9.61,9.61,0,0,0-1.051-.059l-.469.019-.358.053a1.907,1.907,0,0,0-.652.251l-.051.039-.022.015a1.615,1.615,0,0,0-.456.479v4.888a1.136,1.136,0,0,1,.249-.241,2.9,2.9,0,0,1,1.185-.368l.021,0,.023,0a7.05,7.05,0,0,1,.875-.03l.649.045c.328.032.71.08,1.135.143V33.9c-.369-.077-.732-.134-1.078-.172m.473,1.083a2.341,2.341,0,0,1-1.373,1.317s.179.043.6.534a1.72,1.72,0,0,0,.545.449s-.59,1.154-.648,1.289a2.556,2.556,0,0,1-.728-1.139.208.208,0,0,0-.205-.107s-.469.052-.66.068a.173.173,0,0,1-.19,0l-.069-.073s-.016,0-.046-.021a.154.154,0,0,1-.063-.111.119.119,0,0,1,.038-.1,6.9,6.9,0,0,0,.927-.727s-.008.027.035-.082a1.489,1.489,0,0,1-.374-.154s-.165-.112-.161-.257l.039,0s0,.175.34.278a.734.734,0,0,1-.111-.247.164.164,0,0,1,.047-.01s.1.285.259.291c0,0,.32-.195.344-.415,0,0-.133-.081-.187-.413l.044-.025s.053.314.21.306c0,0,.143,0,.231-.265a1.288,1.288,0,0,0,.07-.436,1.584,1.584,0,0,0-.033-.213l.033-.053a.967.967,0,0,1,.043.161.673.673,0,0,1,.125-.321l.029.017a.569.569,0,0,0-.076.353,1.594,1.594,0,0,1-.1.565,2.359,2.359,0,0,1-.531.787,4.731,4.731,0,0,0,.65-.315s.194-.118.217-.529h.05a.86.86,0,0,1-.006.334,1.412,1.412,0,0,0,.593-.718.44.44,0,0,0-.013-.292l.022-.027a.509.509,0,0,1,.071.2.371.371,0,0,1,.221-.2l.012.03a.544.544,0,0,0-.214.275" fill="#b0bcc2"/><path d="M19.654,34.045l-.02-.015-.052-.039a1.891,1.891,0,0,0-.65-.251l-.361-.053-.466-.019a9.57,9.57,0,0,0-1.051.059c-.348.037-.711.095-1.079.172v5.058c.425-.063.807-.111,1.134-.143l.651-.045a6.951,6.951,0,0,1,.871.03l.027,0,.024,0a2.888,2.888,0,0,1,1.181.37,1.093,1.093,0,0,1,.248.239V34.523a1.609,1.609,0,0,0-.458-.479M19,38.124H17.176a4.058,4.058,0,0,0-.282-2.168c.382-.427.868-1.056,1.082-1.339v1.694a.288.288,0,1,0,.213,0V34.6c.207.274.7.919,1.093,1.353A4.055,4.055,0,0,0,19,38.124" fill="#b0bcc2"/></g></g><path d="M.64-.608a2.583,2.583,0,0,0,.944-.672A4.55,4.55,0,0,0,2.36-2.456a7.338,7.338,0,0,0,.52-1.592,9.236,9.236,0,0,0,.192-1.936V-9.92H.8v-1.824H7.424V-9.92H5.264v3.936a7.7,7.7,0,0,0,.624,3.368A3.978,3.978,0,0,0,7.68-.752v1.9A6.354,6.354,0,0,1,5.648,0,5.355,5.355,0,0,1,4.192-1.888,6.644,6.644,0,0,1,2.7.08,5.691,5.691,0,0,1,.64,1.3ZM8.7-5.168H6.48V-7.12H8.7v-4.944h2.048V1.824H8.7Zm3.248-6.976H14V2.144H11.952ZM16.48-6.368a11.444,11.444,0,0,0,1.992-.448,6.918,6.918,0,0,0,1.648-.768,3.961,3.961,0,0,0,1.128-1.072,2.45,2.45,0,0,0,.432-1.36H16.72V-11.84H28.88v1.824H23.92a2.45,2.45,0,0,0,.432,1.36,4,4,0,0,0,1.12,1.072,6.727,6.727,0,0,0,1.648.768,11.648,11.648,0,0,0,2,.448v1.744a13.649,13.649,0,0,1-3.576-.824A8.3,8.3,0,0,1,22.8-7.12a8.3,8.3,0,0,1-2.744,1.672,13.649,13.649,0,0,1-3.576.824Zm-.8,2.7H29.92v1.84H23.936V2.144H21.664V-1.824H15.68Zm23.024-8.4h2.048v5.232h1.6v-5.312H44.4V2.144H42.352V-4.88h-1.6v6.7H38.7Zm-7.184.32h6V-9.92H33.632V-.768H37.9V1.056H31.52ZM49.68-4a3.765,3.765,0,0,1-2.472-.736,2.392,2.392,0,0,1-.888-1.936,2.558,2.558,0,0,1,.224-1.08A2.4,2.4,0,0,1,47.2-8.6a3.113,3.113,0,0,1,1.056-.56,4.662,4.662,0,0,1,1.424-.2h2.08a4.6,4.6,0,0,1,1.408.2,3.113,3.113,0,0,1,1.056.56,2.483,2.483,0,0,1,.664.848,2.483,2.483,0,0,1,.232,1.08,2.392,2.392,0,0,1-.888,1.936A3.765,3.765,0,0,1,51.76-4Zm-2.96.96H58.8V2.144H56.624V-1.248H46.8Zm9.9-9.1H58.8V-8.56h1.92v1.952H58.8V-3.6H56.624ZM46-11.5h3.568v-1.088h2.3V-11.5H55.44v1.648H46Zm5.536,5.84a1.836,1.836,0,0,0,1.008-.256.837.837,0,0,0,.4-.752.828.828,0,0,0-.4-.728,1.794,1.794,0,0,0-1.008-.264H49.888a1.754,1.754,0,0,0-1,.264.832.832,0,0,0-.392.728.841.841,0,0,0,.392.752,1.8,1.8,0,0,0,1,.256ZM61.28-.4h2.864V-5.9h2.272V-.4h2V-5.9h2.272V-.4H75.52V1.44H61.28Zm1.04-11.36h12v9.216H72.144V-9.9H62.32ZM11.5,7.056H13.68V21.344H11.5ZM0,18.448a4.361,4.361,0,0,0,1.544-.816,5.628,5.628,0,0,0,1.232-1.408,7.091,7.091,0,0,0,.808-1.864,8.09,8.09,0,0,0,.288-2.184V7.3H6.128v4.88a7.913,7.913,0,0,0,.256,2.016,7.171,7.171,0,0,0,.736,1.8A6.055,6.055,0,0,0,8.288,17.44a4.976,4.976,0,0,0,1.552.96v1.968a6.123,6.123,0,0,1-1.44-.6,9.463,9.463,0,0,1-1.368-.944,8.391,8.391,0,0,1-1.168-1.176,6.2,6.2,0,0,1-.824-1.3,7.28,7.28,0,0,1-.9,1.424A7.767,7.767,0,0,1,2.96,18.96a7.49,7.49,0,0,1-1.408.9A7.508,7.508,0,0,1,0,20.416Zm17.04-1.36h9.632v-.88H17.04V14.56H28.88v4.112H19.248v.96H29.2V21.28H17.04Zm-1.6-4.816a4.66,4.66,0,0,0,1.488-.464,4.406,4.406,0,0,0,1.192-.88,3.985,3.985,0,0,0,.792-1.208A3.756,3.756,0,0,0,19.2,8.24v-1.1h2.256v1.1a3.676,3.676,0,0,0,1,2.568,4.034,4.034,0,0,0,1.136.84,5.7,5.7,0,0,0,1.464.5v1.744a8.806,8.806,0,0,1-2.688-.912A6.283,6.283,0,0,1,20.32,11.3,5.63,5.63,0,0,1,18.256,13.1a9.388,9.388,0,0,1-2.816.912Zm11.264-1.7H23.92V8.72H26.7V7.056H28.88V14H26.7Zm5.216,6.848h9.952v-.608H31.92V15.2h4.944v-.944H30.88V12.544H45.12v1.712H39.136V15.2H44.08v3.776H34.128v.688H44.4V21.28H31.92Zm0-10.3H44.08v4.736H31.92ZM41.9,10.128V8.848H34.1v1.28Zm4.656.832a5.074,5.074,0,0,1,.24-1.624,3.445,3.445,0,0,1,.672-1.2A2.861,2.861,0,0,1,48.5,7.392a3.371,3.371,0,0,1,1.336-.256,3.089,3.089,0,0,1,2.128.752,3.511,3.511,0,0,1,1.072,2.16H54.5V7.136h2.048V21.024H54.5V17.3H53.088a4.372,4.372,0,0,1-.328,1.392,3.3,3.3,0,0,1-.688,1.032,2.787,2.787,0,0,1-.992.64,3.461,3.461,0,0,1-1.24.216A3.371,3.371,0,0,1,48.5,20.32a2.861,2.861,0,0,1-1.032-.744,3.445,3.445,0,0,1-.672-1.2,5.074,5.074,0,0,1-.24-1.624Zm10.992-3.9H59.6V21.344H57.552Zm-6.48,3.872a2.716,2.716,0,0,0-.328-1.44,1.038,1.038,0,0,0-1.808,0,2.716,2.716,0,0,0-.328,1.44v5.856a2.716,2.716,0,0,0,.328,1.44,1.038,1.038,0,0,0,1.808,0,2.716,2.716,0,0,0,.328-1.44Zm3.424,4.48V11.936H53.12v3.472Zm11.136-.992a6.215,6.215,0,0,1-1.9-.264,3.961,3.961,0,0,1-1.392-.752,3.132,3.132,0,0,1-.856-1.168,4.029,4.029,0,0,1,0-2.992,3.132,3.132,0,0,1,.856-1.168,3.961,3.961,0,0,1,1.392-.752,6.216,6.216,0,0,1,1.9-.264h.416a6.215,6.215,0,0,1,1.9.264,3.876,3.876,0,0,1,1.384.752,3.253,3.253,0,0,1,.856,1.168,3.928,3.928,0,0,1,0,2.992,3.253,3.253,0,0,1-.856,1.168,3.876,3.876,0,0,1-1.384.752,6.215,6.215,0,0,1-1.9.264ZM62,15.68H74v5.664H71.824V17.472H62Zm9.824-8.624H74V8.5h1.888v1.76H74v1.36h1.888v1.76H74V15.12H71.824Zm-5.648,5.632a2.214,2.214,0,0,0,1.544-.528,1.825,1.825,0,0,0,.584-1.424,1.825,1.825,0,0,0-.584-1.424,2.214,2.214,0,0,0-1.544-.528H65.5a2.214,2.214,0,0,0-1.544.528,1.825,1.825,0,0,0-.584,1.424,1.825,1.825,0,0,0,.584,1.424,2.214,2.214,0,0,0,1.544.528ZM87.5,7.056H89.68V21.344H87.5ZM76,18.448a4.361,4.361,0,0,0,1.544-.816,5.628,5.628,0,0,0,1.232-1.408,7.091,7.091,0,0,0,.808-1.864,8.09,8.09,0,0,0,.288-2.184V7.3h2.256v4.88a7.913,7.913,0,0,0,.256,2.016,7.17,7.17,0,0,0,.736,1.8,6.055,6.055,0,0,0,1.168,1.448,4.976,4.976,0,0,0,1.552.96v1.968a6.124,6.124,0,0,1-1.44-.6,9.463,9.463,0,0,1-1.368-.944,8.391,8.391,0,0,1-1.168-1.176,6.2,6.2,0,0,1-.824-1.3,7.28,7.28,0,0,1-.9,1.424A7.767,7.767,0,0,1,78.96,18.96,7.543,7.543,0,0,1,76,20.416Zm15.68.352h14.24v1.84H91.68Zm.72-4.368a7.513,7.513,0,0,0,2.032-.6,6.266,6.266,0,0,0,1.68-1.112,5.184,5.184,0,0,0,1.144-1.552,4.365,4.365,0,0,0,.424-1.92V7.04h2.24V9.248a4.435,4.435,0,0,0,.416,1.92,5.07,5.07,0,0,0,1.136,1.552,6.266,6.266,0,0,0,1.68,1.112,7.511,7.511,0,0,0,2.048.6v1.744a10.544,10.544,0,0,1-1.856-.392,10.4,10.4,0,0,1-1.744-.712,8.877,8.877,0,0,1-1.544-1.016,7.637,7.637,0,0,1-1.256-1.3,7.488,7.488,0,0,1-1.264,1.3,9.3,9.3,0,0,1-1.544,1.016,10.045,10.045,0,0,1-1.744.712,10.769,10.769,0,0,1-1.848.392Zm16,1.408h12v5.44h-12Zm-1.12-8.624h6.48v1.7h-4.4v1.216h3.52v1.648h-3.52V13.1h4.864v1.7H107.28Zm7.9,4.56H113.52V9.888h1.664V7.136h2.048V15.28h-2.048Zm3.168-4.72H120.4V15.28h-2.048Zm-.128,12.5V17.568h-7.648v1.984Z" transform="translate(409.002 66.292)" fill="#666"/><line y1="33.9" transform="translate(543 55.1)" fill="#fff" stroke="#dbdbdb" stroke-width="1"/></g></svg>