<svg xmlns="http://www.w3.org/2000/svg" xmlns:xlink="http://www.w3.org/1999/xlink" width="340.809" height="58.61" viewBox="0 0 340.809 58.61"><defs><clipPath id="a"><rect width="340.809" height="58.61" fill="none"/></clipPath></defs><g clip-path="url(#a)"><path d="M13.817,18.865c-1.178,2.8-4.922,7.491-4.922,7.491C6.951,28.915,4.65,32.127,3.838,36.371c-1.714,11.746,5.582,17.8,10.056,19.5A15.929,15.929,0,0,1,5.663,38.95c.725-3.6,2.651-7.3,7.025-12.011,0,0,5.159-5.382,5.856-10.058A16.477,16.477,0,0,0,11.335,0a18.011,18.011,0,0,1,2.482,18.865" transform="translate(-0.843 0)" fill="#63b62f"/><path d="M21.134,21.744c-1.527,3.657-5.528,7.323-5.528,7.323-6.316,6.1-7.127,9.712-7.127,9.712A15.421,15.421,0,0,0,10.02,51.632a13.549,13.549,0,0,0,8.294,6.006,10.94,10.94,0,0,1-7.378-9.623c-.268-3.633,1.766-8.231,7.646-12.861a32.569,32.569,0,0,0,5.266-5.34,17.73,17.73,0,0,0,3.325-7.964,18.975,18.975,0,0,0-1.086-9.294,20.184,20.184,0,0,0-5.239-7.893c4.475,8.641.285,17.08.285,17.08" transform="translate(-1.817 -1.097)" fill="#bdc7cc"/><path d="M44.539,45.817V25.682H36.563V48.133c-.023,1.56-.16,3.3-.16,3.3a10.633,10.633,0,0,1-.825,3.647,12.458,12.458,0,0,1-4.7,5.726c-8.322,5.617-16.644.971-16.644.971,10.4,6.171,20.526.485,20.526.485,7.125-4.131,9.068-9.751,9.592-12.773a28.45,28.45,0,0,0,.188-3.673" transform="translate(-3.35 -6.044)" fill="#004097"/><path d="M9.264,56.767a18.057,18.057,0,0,1-6.7-9.228,21.407,21.407,0,0,1-.678-9.721,25.206,25.206,0,0,1,2.4-6.882,38.286,38.286,0,0,1,2.78-4.2,38.127,38.127,0,0,0,2.349-3.678A11.926,11.926,0,0,0,8.462,9.8s2.077,5.372-.635,10.377c0,0-1.275,2.186-2.659,4.26,0,0-3.044,4.407-3.934,7.4A21.946,21.946,0,0,0,.545,44.051s1.44,8.7,8.718,12.716" transform="translate(0 -2.307)" fill="#00a6e9"/><path d="M22.818,69.8V67.3h-.492v-.342h.992V69.8Z" transform="translate(-5.255 -15.758)" fill="#004097"/><path d="M25.94,67.809a.74.74,0,0,0-.1-.434.367.367,0,0,0-.315-.137.339.339,0,0,0-.3.135.8.8,0,0,0-.092.44.779.779,0,0,0,.091.441.432.432,0,0,0,.619-.009.781.781,0,0,0,.094-.436m-.09.746a.71.71,0,0,1-.214.109.781.781,0,0,1-.239.034.726.726,0,0,1-.573-.2,1.3,1.3,0,0,1,.042-1.376.9.9,0,0,1,.677-.228.858.858,0,0,1,.665.242,1.054,1.054,0,0,1,.219.726,1.964,1.964,0,0,1-.181.8,6.577,6.577,0,0,1-.715,1.124h-.582q.381-.477.573-.743c.128-.177.238-.337.329-.487" transform="translate(-5.801 -15.744)" fill="#004097"/><path d="M27.527,69.363a1.251,1.251,0,0,0,.258.1,1.139,1.139,0,0,0,.27.032.728.728,0,0,0,.531-.175.694.694,0,0,0,.179-.52.453.453,0,0,0-.183-.391.931.931,0,0,0-.542-.131c-.1,0-.18,0-.249.009a2.067,2.067,0,0,0-.206.029l.263-1.361H29.24V67.3h-.971L28.114,68c.051-.008.1-.012.141-.016s.081,0,.112,0a.927.927,0,0,1,.655.229.782.782,0,0,1,.248.606.955.955,0,0,1-.3.755,1.219,1.219,0,0,1-.843.271,2.022,2.022,0,0,1-.377-.034,1.938,1.938,0,0,1-.357-.1Z" transform="translate(-6.447 -15.758)" fill="#004097"/><path d="M30.406,69.788l1.061-1.51a2.24,2.24,0,0,0,.211-.368.789.789,0,0,0,.069-.3.4.4,0,0,0-.088-.281.37.37,0,0,0-.278-.093.347.347,0,0,0-.3.121.731.731,0,0,0-.088.411v.1h-.5a.224.224,0,0,1-.005-.055v-.088a.776.776,0,0,1,.229-.613,1,1,0,0,1,.687-.2,1.03,1.03,0,0,1,.651.187.627.627,0,0,1,.236.517.978.978,0,0,1-.092.4,2.534,2.534,0,0,1-.311.491l-.719.931h1.04v.362Z" transform="translate(-7.156 -15.746)" fill="#004097"/><path d="M32.036,58.472V61.9a1.112,1.112,0,0,0,.463.995,2.664,2.664,0,0,0,1.459.311,2.7,2.7,0,0,0,1.463-.311,1.113,1.113,0,0,0,.461-.995V58.472h-.975V61.95a.558.558,0,0,1-.23.5,1.7,1.7,0,0,1-1.434,0,.555.555,0,0,1-.236-.5V58.472Z" transform="translate(-7.54 -13.761)" fill="#004097"/><path d="M18.7,63.216a1.768,1.768,0,0,0,1.149-.312,1.182,1.182,0,0,0,.374-.962v-3.47h-.984V61.96a.652.652,0,0,1-.173.5.794.794,0,0,1-.545.16,1.5,1.5,0,0,1-.415-.064,2.19,2.19,0,0,1-.448-.194v.648a2.389,2.389,0,0,0,.508.157,2.69,2.69,0,0,0,.534.051" transform="translate(-4.155 -13.761)" fill="#004097"/><path d="M25.386,59.039v-.567H22.469v4.678h2.917v-.587H23.45V60.982h1.772v-.556H23.45V59.039Z" transform="translate(-5.288 -13.762)" fill="#004097"/><path d="M29.428,62.9a1.18,1.18,0,0,0,.372-.962v-3.47h-.98V61.96a.653.653,0,0,1-.174.5.792.792,0,0,1-.545.16,1.547,1.547,0,0,1-.417-.064,2.148,2.148,0,0,1-.449-.195v.648a2.5,2.5,0,0,0,.51.156,2.656,2.656,0,0,0,.536.052,1.762,1.762,0,0,0,1.147-.312" transform="translate(-6.41 -13.761)" fill="#004097"/><path d="M26.248,54.548a1.822,1.822,0,0,0,.85-.284l4.948.344V48.223l-.515-.031.229.361v5.786L27,54.033a1.392,1.392,0,0,1-1.658,0l-4.756.306V48.553l.227-.361-.516.031v6.386l4.948-.344a1.811,1.811,0,0,0,.848.284,1.239,1.239,0,0,0,.154,0" transform="translate(-4.777 -11.342)" fill="#bdc7cc"/><path d="M21.516,47.716c-.11.174-.489.771-.5.787V53.69c.111-.184.491-.818.5-.833Z" transform="translate(-4.946 -11.23)" fill="#bdc7cc"/><path d="M25.631,55.223l.014.013a1.1,1.1,0,0,0,.564.263,1.1,1.1,0,0,0-.554-.82,3.444,3.444,0,0,0-1.566-.271c-.327,0-.677.02-1.075.058s-.791.1-1.206.171c-.018.028-.457.762-.525.873l4.349-.288" transform="translate(-5.009 -12.805)" fill="#bdc7cc"/><path d="M34.789,48.5c-.01-.017-.39-.613-.5-.787v5.141c.01.015.389.65.5.833Z" transform="translate(-8.07 -11.23)" fill="#bdc7cc"/><path d="M28.789,54.68a1.1,1.1,0,0,0-.555.82,1.1,1.1,0,0,0,.564-.263l.014-.013,4.348.288c-.067-.11-.505-.845-.523-.873-.414-.074-.82-.132-1.207-.171s-.749-.058-1.075-.058a3.444,3.444,0,0,0-1.566.271" transform="translate(-6.645 -12.805)" fill="#bdc7cc"/><path d="M31.412,46.982a10.054,10.054,0,0,0-1.109-.063l-.5.021L29.429,47a2,2,0,0,0-.689.267l-.054.042-.023.016a1.719,1.719,0,0,0-.482.51v5.208a1.2,1.2,0,0,1,.263-.256,3.051,3.051,0,0,1,1.251-.392l.022,0,.024,0a7.368,7.368,0,0,1,.924-.032l.685.048c.346.034.75.085,1.2.152v-5.39c-.391-.082-.775-.143-1.139-.183m.5,1.154a2.488,2.488,0,0,1-1.451,1.4s.189.045.631.569a1.808,1.808,0,0,0,.576.478s-.623,1.23-.684,1.374a2.712,2.712,0,0,1-.769-1.213A.218.218,0,0,0,30,50.632s-.495.055-.7.072a.182.182,0,0,1-.2,0l-.073-.078s-.018,0-.048-.023a.164.164,0,0,1-.068-.118.129.129,0,0,1,.041-.1,7.318,7.318,0,0,0,.979-.775s-.008.029.037-.088a1.568,1.568,0,0,1-.395-.164s-.174-.119-.17-.274l.041,0s0,.187.359.3a.788.788,0,0,1-.117-.262.165.165,0,0,1,.05-.011s.1.3.273.31c0,0,.338-.207.364-.443,0,0-.14-.086-.2-.44l.047-.027s.056.335.223.326c0,0,.151,0,.242-.283a1.373,1.373,0,0,0,.075-.465,1.715,1.715,0,0,0-.035-.227l.035-.056a1.042,1.042,0,0,1,.045.172.726.726,0,0,1,.132-.343l.031.017a.619.619,0,0,0-.082.377,1.705,1.705,0,0,1-.11.6,2.511,2.511,0,0,1-.56.838,4.924,4.924,0,0,0,.686-.336s.2-.126.229-.564h.053a.907.907,0,0,1-.006.356,1.5,1.5,0,0,0,.626-.765.471.471,0,0,0-.015-.311l.024-.029a.536.536,0,0,1,.073.216.4.4,0,0,1,.235-.214l.012.032a.579.579,0,0,0-.225.294" transform="translate(-6.633 -11.042)" fill="#bdc7cc"/><path d="M25.949,47.321l-.021-.016-.054-.041A1.98,1.98,0,0,0,25.187,47l-.381-.057-.492-.021a10.026,10.026,0,0,0-1.109.063c-.367.04-.751.1-1.14.183v5.39c.449-.067.853-.119,1.2-.152l.688-.048a7.264,7.264,0,0,1,.919.032l.028,0,.026,0a3.025,3.025,0,0,1,1.247.394,1.158,1.158,0,0,1,.263.255V47.831a1.718,1.718,0,0,0-.485-.51m-.69,4.348H23.333a4.354,4.354,0,0,0-.3-2.31c.4-.455.916-1.126,1.142-1.427v1.8a.3.3,0,1,0,.416.282.3.3,0,0,0-.191-.282V47.918c.219.291.744.979,1.155,1.441a4.354,4.354,0,0,0-.3,2.31" transform="translate(-5.193 -11.042)" fill="#bdc7cc"/><path d="M65.9,37.281a2.647,2.647,0,0,0,.972-.692,4.682,4.682,0,0,0,.8-1.21,7.555,7.555,0,0,0,.535-1.639,9.523,9.523,0,0,0,.2-1.993V27.693h-2.34V25.815H72.89v1.878H70.666v4.053a7.921,7.921,0,0,0,.642,3.468,4.093,4.093,0,0,0,1.845,1.918v1.961a6.527,6.527,0,0,1-2.092-1.186,5.514,5.514,0,0,1-1.5-1.944,6.848,6.848,0,0,1-1.54,2.026A5.866,5.866,0,0,1,65.9,39.242Zm8.3-4.695h-2.29V30.577h2.29V25.486h2.108v14.3H74.208ZM77.552,25.4h2.109V40.116H77.552Z" transform="translate(-15.511 -5.979)" fill="#666"/><path d="M86.157,34.231h14.662v1.895H94.658v4.085h-2.34V36.126H86.157Zm.824-2.784a11.75,11.75,0,0,0,2.051-.462,7.083,7.083,0,0,0,1.7-.791,4.057,4.057,0,0,0,1.161-1.1,2.517,2.517,0,0,0,.445-1.4H87.228V25.812h12.52V27.69H94.641a2.522,2.522,0,0,0,.444,1.4,4.112,4.112,0,0,0,1.153,1.1,6.881,6.881,0,0,0,1.7.791,11.984,11.984,0,0,0,2.06.462v1.8a14.049,14.049,0,0,1-3.683-.848,8.548,8.548,0,0,1-2.825-1.722,8.54,8.54,0,0,1-2.825,1.722,14.05,14.05,0,0,1-3.682.848Z" transform="translate(-20.278 -6.075)" fill="#666"/><path d="M107.487,25.815h6.178v1.878h-4v9.423h4.4v1.878h-6.573Zm7.4-.33h2.109v5.387h1.648V25.4h2.108V40.115H118.64V32.883h-1.648v6.9h-2.109Z" transform="translate(-25.298 -5.979)" fill="#666"/><path d="M126.985,25.92h3.674V24.8h2.373V25.92H136.7v1.7h-9.719Zm3.789,7.726a3.878,3.878,0,0,1-2.546-.758,2.462,2.462,0,0,1-.914-1.993,2.637,2.637,0,0,1,.23-1.112,2.466,2.466,0,0,1,.676-.873,3.209,3.209,0,0,1,1.087-.577,4.787,4.787,0,0,1,1.466-.206h2.142a4.729,4.729,0,0,1,1.45.206,3.216,3.216,0,0,1,1.087.577,2.505,2.505,0,0,1,.923,1.985,2.461,2.461,0,0,1-.915,1.993,3.874,3.874,0,0,1-2.545.758Zm-3.047.989h12.438v5.338h-2.24V36.48H127.809Zm4.958-2.7a1.893,1.893,0,0,0,1.038-.264.864.864,0,0,0,.411-.775.854.854,0,0,0-.411-.749,1.85,1.85,0,0,0-1.038-.271h-1.7a1.8,1.8,0,0,0-1.029.271.855.855,0,0,0-.4.749.865.865,0,0,0,.4.775,1.846,1.846,0,0,0,1.029.264Zm5.239-6.672h2.24v3.69h1.977v2.01h-1.977v3.1h-2.24Z" transform="translate(-29.887 -5.836)" fill="#666"/><path d="M147.561,37.617h2.948V31.949h2.34v5.668h2.059V31.949h2.339v5.668h4.975v1.894H147.561Zm1.07-11.7h12.355v9.489h-2.24V27.831H148.632Z" transform="translate(-34.729 -6.1)" fill="#666"/><path d="M65.043,62.987a4.483,4.483,0,0,0,1.59-.84A5.8,5.8,0,0,0,67.9,60.7a7.288,7.288,0,0,0,.832-1.919,8.32,8.32,0,0,0,.3-2.249V51.5h2.323v5.024a8.135,8.135,0,0,0,.264,2.075,7.341,7.341,0,0,0,.758,1.854,6.225,6.225,0,0,0,1.2,1.491,5.126,5.126,0,0,0,1.6.989v2.026a6.315,6.315,0,0,1-1.483-.618,9.763,9.763,0,0,1-1.408-.972,8.612,8.612,0,0,1-1.2-1.211,6.36,6.36,0,0,1-.848-1.334A7.513,7.513,0,0,1,69.31,62.3a7.988,7.988,0,0,1-1.219,1.219,7.772,7.772,0,0,1-3.048,1.5ZM76.888,51.258h2.24V65.97h-2.24Z" transform="translate(-15.308 -12.064)" fill="#666"/><path d="M85.835,56.628a4.794,4.794,0,0,0,1.532-.478,4.526,4.526,0,0,0,1.227-.906A4.1,4.1,0,0,0,89.41,54a3.872,3.872,0,0,0,.3-1.524V51.34h2.323v1.136a3.782,3.782,0,0,0,1.029,2.644,4.13,4.13,0,0,0,1.17.865,5.822,5.822,0,0,0,1.507.511v1.8a9.051,9.051,0,0,1-2.767-.939,6.467,6.467,0,0,1-2.109-1.73,5.806,5.806,0,0,1-2.125,1.861,9.651,9.651,0,0,1-2.9.939Zm1.647,4.959H97.4V60.68H87.482v-1.7H99.673v4.234H89.755v.988H100v1.7H87.482Zm9.95-6.705H94.566V52.971h2.867V51.257h2.24v7.15h-2.24Z" transform="translate(-20.202 -12.063)" fill="#666"/><path d="M107.7,61.953h10.246v-.626H107.7V59.663h5.09v-.972h-6.161V56.928h14.662v1.763h-6.162v.972h5.091v3.887H109.97v.709h10.577v1.664H107.7Zm0-10.609h12.52V56.22H107.7Zm10.279,1.779h-8.039v1.318h8.039Z" transform="translate(-25.095 -12.084)" fill="#666"/><path d="M127.739,55.277a5.24,5.24,0,0,1,.247-1.672,3.556,3.556,0,0,1,.692-1.235,2.948,2.948,0,0,1,1.063-.766,3.469,3.469,0,0,1,1.376-.264,3.183,3.183,0,0,1,2.191.775,3.62,3.62,0,0,1,1.1,2.224h1.5v-3h2.108v14.3h-2.108V61.8H134.46a4.516,4.516,0,0,1-.337,1.434,3.391,3.391,0,0,1-.709,1.062,2.874,2.874,0,0,1-1.021.659,3.564,3.564,0,0,1-1.277.223,3.469,3.469,0,0,1-1.376-.264,2.948,2.948,0,0,1-1.063-.766,3.549,3.549,0,0,1-.692-1.235,5.234,5.234,0,0,1-.247-1.672Zm4.646-.033a2.8,2.8,0,0,0-.338-1.483,1.069,1.069,0,0,0-1.861,0,2.794,2.794,0,0,0-.338,1.483v6.03a2.792,2.792,0,0,0,.338,1.483,1.068,1.068,0,0,0,1.861,0,2.8,2.8,0,0,0,.338-1.483Zm3.526,1.038h-1.418v3.575h1.418Zm3.146-5.024h2.109V65.97h-2.109Z" transform="translate(-30.064 -12.064)" fill="#666"/><path d="M152.016,58.835a6.406,6.406,0,0,1-1.953-.272,4.072,4.072,0,0,1-1.433-.775,3.221,3.221,0,0,1-.881-1.2,4.147,4.147,0,0,1,0-3.081,3.229,3.229,0,0,1,.881-1.2,4.084,4.084,0,0,1,1.433-.775,6.407,6.407,0,0,1,1.953-.271h.428a6.4,6.4,0,0,1,1.952.271,3.994,3.994,0,0,1,1.425.775,3.351,3.351,0,0,1,.881,1.2,4.041,4.041,0,0,1,0,3.081,3.341,3.341,0,0,1-.881,1.2,3.982,3.982,0,0,1-1.425.775,6.4,6.4,0,0,1-1.952.272Zm-3.74,1.3h12.356v5.832h-2.24V61.982H148.277Zm4.3-3.082a2.281,2.281,0,0,0,1.59-.543,2.089,2.089,0,0,0,0-2.932,2.282,2.282,0,0,0-1.59-.544h-.693a2.282,2.282,0,0,0-1.59.544,2.089,2.089,0,0,0,0,2.932,2.281,2.281,0,0,0,1.59.543Zm5.815-5.8h2.24V52.74h1.944v1.812h-1.944v1.4h1.944v1.812h-1.944v1.8h-2.24Z" transform="translate(-34.704 -12.063)" fill="#666"/><path d="M167.382,62.987a4.489,4.489,0,0,0,1.59-.84,5.8,5.8,0,0,0,1.269-1.45,7.313,7.313,0,0,0,.832-1.919,8.32,8.32,0,0,0,.3-2.249V51.5h2.323v5.024a8.1,8.1,0,0,0,.264,2.075,7.311,7.311,0,0,0,.758,1.854,6.224,6.224,0,0,0,1.2,1.491,5.117,5.117,0,0,0,1.6.989v2.026a6.283,6.283,0,0,1-1.482-.618,9.729,9.729,0,0,1-1.409-.972,8.654,8.654,0,0,1-1.2-1.211,6.392,6.392,0,0,1-.848-1.334,7.513,7.513,0,0,1-.923,1.467,7.992,7.992,0,0,1-1.22,1.219,7.762,7.762,0,0,1-3.047,1.5Zm11.845-11.729h2.24V65.97h-2.24Z" transform="translate(-39.394 -12.064)" fill="#666"/><path d="M188.5,63.344h14.662v1.895H188.5Zm.742-4.5a7.748,7.748,0,0,0,2.092-.618,6.448,6.448,0,0,0,1.73-1.145,5.328,5.328,0,0,0,1.178-1.6,4.491,4.491,0,0,0,.437-1.977V51.235h2.307v2.274a4.572,4.572,0,0,0,.428,1.977,5.227,5.227,0,0,0,1.17,1.6,6.448,6.448,0,0,0,1.73,1.145,7.747,7.747,0,0,0,2.108.618v1.8a10.922,10.922,0,0,1-1.911-.4,10.755,10.755,0,0,1-1.8-.733,9.151,9.151,0,0,1-1.59-1.046,7.865,7.865,0,0,1-1.294-1.343,7.707,7.707,0,0,1-1.3,1.343,9.607,9.607,0,0,1-1.59,1.046,10.4,10.4,0,0,1-1.8.733,11.162,11.162,0,0,1-1.9.4Z" transform="translate(-44.364 -12.058)" fill="#666"/><path d="M209.5,51.422h6.673v1.746h-4.531v1.252h3.624v1.7h-3.624v1.368h5.008v1.746H209.5Zm1.154,8.88h12.355v5.6H210.656Zm10.115,1.779H212.9v2.043h7.875Zm-3.13-5.963h-1.714V54.174h1.714V51.34h2.108v8.386h-2.108Zm3.261-4.859h2.109v8.468H220.9Z" transform="translate(-49.307 -12.064)" fill="#666"/><path d="M257.925,41.352a7.163,7.163,0,0,1,.486-2.724,5.611,5.611,0,0,1,1.381-2.02,5.882,5.882,0,0,1,2.136-1.253,9.33,9.33,0,0,1,5.549,0,5.889,5.889,0,0,1,2.136,1.253,5.621,5.621,0,0,1,1.381,2.02,7.163,7.163,0,0,1,.486,2.724V50a7.159,7.159,0,0,1-.486,2.723,5.614,5.614,0,0,1-1.381,2.02,5.889,5.889,0,0,1-2.136,1.253,9.33,9.33,0,0,1-5.549,0,5.883,5.883,0,0,1-2.136-1.253,5.6,5.6,0,0,1-1.381-2.02A7.159,7.159,0,0,1,257.925,50ZM268,41.275a3.471,3.471,0,0,0-.882-2.506,3.632,3.632,0,0,0-4.833,0,3.471,3.471,0,0,0-.882,2.506v8.8a3.469,3.469,0,0,0,.882,2.506,3.632,3.632,0,0,0,4.833,0A3.469,3.469,0,0,0,268,50.072Zm6.137-6.47h3.478v8.157h3.069v3.121h-3.069V57.641h-3.478Z" transform="translate(-60.704 -8.191)" fill="#333"/><path d="M289.529,44.114h9.692V38.36h-9.692V35.444H302.7V46.977h-9.692v6.265h11.329v2.915H289.529Zm16.34-9.309h3.478v8.413h3.069v3.12h-3.069v11.3h-3.478Z" transform="translate(-68.142 -8.191)" fill="#333"/><path d="M320.966,45.6a16.623,16.623,0,0,0,4.769-.831,8.831,8.831,0,0,0,3.209-1.879h-7.9V40.176h9.615a8.044,8.044,0,0,0,.409-2.353h-9.973V35.061h13.554v2.328a9.582,9.582,0,0,1-3.657,7.71,13.491,13.491,0,0,1-4.3,2.25,22.367,22.367,0,0,1-5.728,1.01Zm1.918,4.014h3.478v5.063h15.957V57.54H322.884Zm15.446-6.137h-3.555v-3.12h3.555V34.806h3.477V51.53H338.33Z" transform="translate(-75.541 -8.191)" fill="#333"/><path d="M353.239,35.01h3.273v3.606h3.939V35.01h3.273v4.885h2.4V34.934H369.4V51.275h-3.273v-8.26h-2.4v4.833H353.239Zm1.79,14.858h3.478v4.808h16.213V57.54h-19.69Zm5.421-8.49h-3.938v3.708h3.938Zm10.485-6.572h3.273V51.53h-3.273Z" transform="translate(-83.137 -8.191)" fill="#333"/><path d="M383.672,45.572a6.3,6.3,0,0,0,2.378-.9,7.693,7.693,0,0,0,1.905-1.688,7.963,7.963,0,0,0,1.266-2.225,7.156,7.156,0,0,0,.46-2.532v-3.3h3.605v3.3a7.119,7.119,0,0,0,.422,2.442,7.33,7.33,0,0,0,2.992,3.734,7.16,7.16,0,0,0,2.341.959v2.787a10.691,10.691,0,0,1-2.225-.664,13.941,13.941,0,0,1-2.071-1.074,13.7,13.7,0,0,1-1.816-1.369,11.621,11.621,0,0,1-1.457-1.547,11.5,11.5,0,0,1-3.3,3.133,12.167,12.167,0,0,1-4.5,1.726Zm2.557,4.04h3.478v5.063h15.957V57.54H386.229Zm15.446-5.6h-4.193V41.2h4.193v-1.79h-4.193V36.6h4.193v-1.79h3.478V51.53h-3.478Z" transform="translate(-90.299 -8.191)" fill="#333"/><path d="M415.945,44.967h9.563V43.944h-3.35a6.415,6.415,0,0,1-3.541-.831,2.7,2.7,0,0,1,0-4.576,6.421,6.421,0,0,1,3.541-.832H432.49a6.438,6.438,0,0,1,3.529.832,2.687,2.687,0,0,1,0,4.576,6.432,6.432,0,0,1-3.529.831H429.14v1.023H438.7v2.327H415.945Zm1.1-10.229h8.413V33h3.734v1.738h8.413v2.4H417.045Zm.562,16.648h15.907v-.844H417.607V48.113h19.435v5.6H421.136v.971h16.417v2.429H417.607Zm14.73-9.82a2.554,2.554,0,0,0,1.074-.192.574.574,0,0,0,0-1.1,2.555,2.555,0,0,0-1.074-.191H422.313a2.536,2.536,0,0,0-1.087.191.579.579,0,0,0,0,1.1,2.535,2.535,0,0,0,1.087.192Z" transform="translate(-97.895 -7.766)" fill="#333"/><line y2="35.496" transform="translate(185.25 18.963)" fill="#333"/><rect width="0.573" height="35.496" transform="translate(184.963 18.963)" fill="#dbdbdb"/></g></svg>