<svg xmlns="http://www.w3.org/2000/svg" xmlns:xlink="http://www.w3.org/1999/xlink" width="100" height="111.001" viewBox="0 0 100 111.001"><defs><clipPath id="a"><rect width="100" height="111.001" transform="translate(0 -0.001)" fill="none"/></clipPath></defs><g transform="translate(0 0.001)"><g clip-path="url(#a)"><path d="M2.287,102.509a6.234,6.234,0,0,0,6.241,6.213h45.2a6.234,6.234,0,0,0,6.241-6.213V95.553H2.287Z" fill="#fffffb"/><path d="M59.971,8.491a6.235,6.235,0,0,0-6.241-6.214H8.529A6.235,6.235,0,0,0,2.287,8.491v4.876H59.971Z" fill="#fffdff"/><path d="M53.729,0H8.529A8.519,8.519,0,0,0,0,8.491v94.018A8.519,8.519,0,0,0,8.529,111h45.2a8.519,8.519,0,0,0,8.529-8.49V8.491A8.519,8.519,0,0,0,53.729,0m7.385,94.414v8.1a7.368,7.368,0,0,1-7.385,7.352H8.529a7.368,7.368,0,0,1-7.385-7.352V8.491A7.369,7.369,0,0,1,8.529,1.139h45.2a7.369,7.369,0,0,1,7.385,7.353Z" fill="#2b2b2b"/><path d="M61.114,95.553H59.971v6.956a6.234,6.234,0,0,1-6.241,6.213H8.529a6.234,6.234,0,0,1-6.241-6.213V95.553H1.144v6.956a7.369,7.369,0,0,0,7.385,7.353h45.2a7.368,7.368,0,0,0,7.384-7.353V95.553Z" fill="#2b2b2b"/><path d="M1.144,93.275H2.287V15.645H1.144V93.275Z" fill="#2b2b2b"/><path d="M53.729,1.139H8.528A7.368,7.368,0,0,0,1.144,8.491v4.876H2.287V8.491a6.234,6.234,0,0,1,6.24-6.214h45.2a6.234,6.234,0,0,1,6.24,6.214v4.876h1.144v1.139h0v1.139H59.969V93.275h1.144v1.139h0V8.491a7.369,7.369,0,0,0-7.385-7.353" fill="#2b2b2b"/><rect width="57.683" height="1.139" transform="translate(2.287 13.368)" fill="#2b2b2b"/><rect width="57.683" height="1.139" transform="translate(2.287 14.507)" fill="#2b2b2b"/><rect width="1.144" height="1.139" transform="translate(59.971 13.368)" fill="#2b2b2b"/><rect width="1.144" height="1.139" transform="translate(1.144 14.507)" fill="#2b2b2b"/><rect width="1.144" height="1.139" transform="translate(59.971 14.507)" fill="#2b2b2b"/><rect width="1.144" height="1.139" transform="translate(1.144 13.368)" fill="#2b2b2b"/><rect width="57.683" height="1.139" transform="translate(2.287 93.276)" fill="#2b2b2b"/><rect width="57.683" height="1.139" transform="translate(2.287 94.415)" fill="#2b2b2b"/><rect width="1.144" height="1.139" transform="translate(1.144 93.276)" fill="#2b2b2b"/><rect width="1.144" height="1.139" transform="translate(59.971 93.276)" fill="#2b2b2b"/><rect width="1.144" height="1.139" transform="translate(59.971 94.415)" fill="#2b2b2b"/><rect width="1.144" height="1.139" transform="translate(1.144 94.415)" fill="#2b2b2b"/><path d="M59.97,93.275V21.933L21.283,93.275Z" fill="#75c9f8"/><path d="M2.287,15.645V93.276h19L59.971,21.933V15.645Z" fill="#b2e1ff"/><path d="M34.56,9.308H27.7a1.34,1.34,0,0,1-1.343-1.337v-.3A1.34,1.34,0,0,1,27.7,6.337H34.56A1.34,1.34,0,0,1,35.9,7.674v.3A1.34,1.34,0,0,1,34.56,9.308" fill="#2b2b2b"/><path d="M68.125,6.09c-16.973,0-30.732,11.9-30.732,26.587,0,10.081,6.486,18.85,16.044,23.358A91.227,91.227,0,0,1,42.765,66.888c7.345,0,15.814-4.286,21.569-7.834a35.547,35.547,0,0,0,3.791.21c16.973,0,30.73-11.9,30.73-26.587S85.1,6.09,68.125,6.09" fill="#fff"/><path d="M68.125,6.09c-16.973,0-30.732,11.9-30.732,26.587,0,10.081,6.486,18.85,16.044,23.358A91.227,91.227,0,0,1,42.765,66.888c7.345,0,15.814-4.286,21.569-7.834a35.547,35.547,0,0,0,3.791.21c16.973,0,30.73-11.9,30.73-26.587S85.1,6.09,68.125,6.09Z" fill="none" stroke="#2b2b2b" stroke-miterlimit="10" stroke-width="2.282"/><path d="M68.713,39.911a.939.939,0,0,1-.941-.937V33.831a.941.941,0,0,1,1.883,0v5.142a.939.939,0,0,1-.941.937" fill="#d82"/><path d="M69.9,42.5a1.188,1.188,0,1,1-1.188-1.183A1.185,1.185,0,0,1,69.9,42.5" fill="#d82"/><path d="M77.772,45.591a.938.938,0,0,1-.941-.936V38.337a8.131,8.131,0,0,0-6.4-7.9.935.935,0,0,1-.094-1.8,5.24,5.24,0,1,0-3.254,0,.935.935,0,0,1-.094,1.8,8.132,8.132,0,0,0-6.4,7.9v6.318a.941.941,0,0,1-1.883,0V38.337a10.018,10.018,0,0,1,5.72-8.995,7.12,7.12,0,1,1,8.563,0,10.017,10.017,0,0,1,5.719,8.995v6.318a.938.938,0,0,1-.941.936" fill="#2b2b2b"/></g></g></svg>