<svg xmlns="http://www.w3.org/2000/svg" width="31.018" height="23.753" viewBox="0 0 31.018 23.753"><path d="M14.8,6.975A1.657,1.657,0,1,1,13.141,5.32h0A1.655,1.655,0,0,1,14.8,6.974h0" fill="#5686c5"/><path d="M14.8,14.408a1.657,1.657,0,1,1-1.659-1.655h0A1.655,1.655,0,0,1,14.8,14.407h0" fill="#5686c5"/><path d="M29.9,21.408a1.123,1.123,0,0,1-1.124-1.122V16a5.024,5.024,0,0,0-3.944-4.884,1.121,1.121,0,0,1-.112-2.163,3.058,3.058,0,1,0-1.9,0,1.122,1.122,0,0,1-.112,2.163A5.023,5.023,0,0,0,18.76,16v4.286a1.124,1.124,0,0,1-2.247,0V16a7.285,7.285,0,0,1,3.506-6.2,5.3,5.3,0,1,1,7.5,0l0,0A7.285,7.285,0,0,1,31.018,16v4.286a1.123,1.123,0,0,1-1.124,1.122" fill="#6b6b6b"/><path d="M7.391,17.4V2.342A2.347,2.347,0,0,0,5.046,0h-2.7A2.347,2.347,0,0,0,0,2.342V17.4a1.1,1.1,0,0,0,.125.489v0l2.565,5.233a1.124,1.124,0,0,0,1.009.629h0a1.124,1.124,0,0,0,1.009-.629l2.567-5.233c.005-.011.007-.023.012-.035s.014-.04.022-.06a1.1,1.1,0,0,0,.079-.393M2.247,5.473h2.9v10.8h-2.9Zm0-3.131a.1.1,0,0,1,.1-.1h2.7a.1.1,0,0,1,.1.1V3.23h-2.9ZM3.7,20.08l-.763-1.561H4.465Z" fill="#6b6b6b"/></svg>