<svg xmlns="http://www.w3.org/2000/svg" width="25.63" height="27.827" viewBox="0 0 25.63 27.827"><path d="M20.212,10.185a10.462,10.462,0,0,1-5.418,2.688l.737,8.635a8.41,8.41,0,0,0,1.623,1.37,9.113,9.113,0,0,0,3.058,1.212Z" transform="translate(0 0)" fill="#5686c5"/><path d="M20.212,10.186v13.9a8.609,8.609,0,0,0,3.058-1.212A8.4,8.4,0,0,0,24.893,21.5l.737-8.635a10.468,10.468,0,0,1-5.418-2.687" transform="translate(0 0)" fill="#78a8dd"/><path d="M21.326,9.5V.978A.982.982,0,0,0,20.341,0H9.9a.946.946,0,0,0-.176.017C9.7.024,9.671.035,9.645.042A.912.912,0,0,0,9.54.074a.534.534,0,0,0-.082.043C9.431.134,9.4.145,9.37.164a.99.99,0,0,0-.151.123L.289,9.15a1.029,1.029,0,0,0-.112.135.354.354,0,0,0-.026.041A1.042,1.042,0,0,0,.09,9.44c-.007.015-.014.03-.02.045a1.012,1.012,0,0,0-.05.162A.939.939,0,0,0,0,9.822V26.849a.982.982,0,0,0,.985.978H20.341a.982.982,0,0,0,.985-.978V24.6l-1.971.011v1.26H1.971V10.82H9.915a.982.982,0,0,0,.985-.978V1.956h8.454V9.515ZM8.93,8.864H3.365L6.147,6.1,8.93,3.34Z" transform="translate(0 0)" fill="#6b6b6b"/></svg>