<svg xmlns="http://www.w3.org/2000/svg" width="299" height="159" viewBox="0 0 299 159"><rect width="299" height="159" fill="#f2f2f2"/><path d="M117.124,92.952h0m0,0h0m36.867-5.091c11.22,6.515,16.457,15.227,11.7,19.457-2.3,2.042-6.5,2.667-11.5,2.034,2.492,3.727,3.135,7.014.978,8.448-3.9,3.036-21.8,16.1-38.774,5.134a24.744,24.744,0,0,1-3.008-2.317c-5.881-5.342-5.81-11.371-3.853-16.491a6.123,6.123,0,0,1,.713-1.663,36.967,36.967,0,0,1,6.882-9.511h0c1.059-1.274,3.474-1.678,6.588-1.376a7.906,7.906,0,0,1-.519-1.428,4.683,4.683,0,0,1,1.529-4.94,10.74,10.74,0,0,1,4.612-2.2c-1.776-.848-2.52-2.032-1.661-2.8.959-.853,3.555-.857,5.8-.01,1.609.608,2.6,1.488,2.676,2.252a40.217,40.217,0,0,1,17.842,5.4m-18.356-9.577a2.888,2.888,0,0,0-2.485,0c-.411.365.035.956,1,1.319a2.888,2.888,0,0,0,2.485,0c.411-.365-.035-.956-1-1.319" transform="translate(65.277 20)" fill="#bbbecd" fill-rule="evenodd"/><path d="M90.53,78.962c2.063,1.7,4.672,2.728-2.252,5.316s-14.21,3.309-16.272,1.609,1.879-5.176,8.8-7.765,7.659-.86,9.721.84" transform="translate(65.277 20)" fill="#2f3dac" fill-rule="evenodd"/><path d="M102.462,73.312c-2.005-2.589-6.369-3.663-9.747-2.4s-4.49,4.385-2.485,6.973,6.369,3.663,9.747,2.4,4.49-4.385,2.485-6.973" transform="translate(65.277 20)" fill="#2f3dac" fill-rule="evenodd"/><path d="M71.472,85c-.27-1.847,3.458-4.685,9.336-6.882C84.751,76.648,86.686,76.574,88,77.1c.107.093.216.186.329.28,2.063,1.7,4.672,2.728-2.253,5.316C80.448,84.8,74.577,85.668,71.472,85" transform="translate(65.277 20)" fill="#0869a1" fill-rule="evenodd"/><path d="M99.914,71.315a9.462,9.462,0,0,0-7.2-.4c-3.378,1.263-4.49,4.385-2.485,6.973q.165.213.351.412a9.462,9.462,0,0,0,7.2.4c3.378-1.263,4.49-4.385,2.485-6.973q-.165-.213-.351-.412" transform="translate(65.277 20)" fill="#0869a1" fill-rule="evenodd"/><path d="M95.217,68.528c.363,2.961,2.608,6.655,6.735,10.526C111,87.542,125.673,93.67,134.722,92.741c4.115-.422,6.358-2.231,6.731-4.876,1.123-7.961-11.077-21.751-23.233-26.8-12.063-5.013-24.083-1.353-23,7.465" transform="translate(65.277 20)" fill="#c1d1f7" fill-rule="evenodd"/><path d="M95.165,67.765l0,.076c0-.025,0-.05,0-.075Zm.011.3c.326,8.377,2.5,47.153,23.161,55.968,20.675,8.449,22.837-28.564,23.161-36.636-.165,2.9-2.423,4.9-6.776,5.345-9.049.929-23.721-5.2-32.771-13.688-4.346-4.077-6.6-7.956-6.775-10.99m46.329,19.16,0-.1h0c0,.034,0,.068,0,.1" transform="translate(65.277 20)" fill="#c1d1f7" fill-rule="evenodd"/><path d="M95.217,68.528c.363,2.961,2.608,6.655,6.735,10.526C111,87.542,125.673,93.67,134.722,92.741a12.194,12.194,0,0,0,2.925-.635c-2.282-19.3-15.5-32.935-31.46-31.315a27.585,27.585,0,0,0-10.182,3.154,7.556,7.556,0,0,0-.788,4.582" transform="translate(65.277 20)" fill="#d0d9f8" fill-rule="evenodd"/><path d="M95.165,67.765l0,.076c0-.025,0-.05,0-.075ZM132.7,121.028A51.9,51.9,0,0,0,138,98.087a50.929,50.929,0,0,0-.35-5.981,12.183,12.183,0,0,1-2.925.635c-9.049.929-23.721-5.2-32.771-13.688-4.346-4.077-6.6-7.956-6.775-10.99.326,8.377,2.5,47.153,23.161,55.968,6.392,2.612,11.013.876,14.359-3" transform="translate(65.277 20)" fill="#d0d9f8" fill-rule="evenodd"/><path d="M95.217,68.528c.363,2.961,2.608,6.655,6.735,10.526,8.167,7.66,20.912,13.4,29.972,13.761q-.129-2.088-.374-4.195c-1.161-9.853-4.14-18.438-8.241-24.952a37.985,37.985,0,0,0-5.088-2.606c-12.063-5.013-24.083-1.353-23,7.465" transform="translate(65.277 20)" fill="#dfe2f9" fill-rule="evenodd"/><path d="M95.165,67.765l0,.076c0-.025,0-.05,0-.075Zm34.47,48.222a71.2,71.2,0,0,0,2.289-23.172c-9.06-.364-21.805-6.1-29.972-13.761-4.346-4.076-6.6-7.956-6.775-10.99.3,7.811,2.214,42.052,19.221,53.79,2.2,1.522,5.354,2.861,8.221,2.126,3.1-.794,5.878-3.876,7.017-7.993" transform="translate(65.277 20)" fill="#d8def5" fill-rule="evenodd"/><path d="M95.217,68.528c.363,2.961,2.608,6.655,6.735,10.526,7.47,7.007,18.771,12.4,27.578,13.552q-.129-2.267-.4-4.558c-1.231-10.452-4.508-19.481-9-26.12q-.954-.466-1.911-.865c-12.063-5.013-24.083-1.353-23,7.465" transform="translate(65.277 20)" fill="#e9ebfa" fill-rule="evenodd"/><path d="M95.165,67.765l0,.076c0-.025,0-.05,0-.075Zm34.364,24.841c-8.807-1.148-20.108-6.545-27.578-13.552-4.346-4.077-6.6-7.956-6.775-10.99.26,6.676,2.117,30.772,12.926,45.757,13.074,18.126,22.524-1.914,21.427-21.214" transform="translate(65.277 20)" fill="#dee1f5" fill-rule="evenodd"/><path d="M95.217,68.528c.363,2.961,2.608,6.655,6.735,10.526a53.885,53.885,0,0,0,11.678,8.158c5.456,2.865,10,2.779,6.468-6.489-4.432-11.619-12.686-18.9-22.139-17.937q-.668.068-1.328.189a7.4,7.4,0,0,0-1.414,5.553" transform="translate(65.277 20)" fill="#fff" fill-rule="evenodd"/><path d="M96.59,33.259a4.06,4.06,0,1,0,4.061,4.06,4.061,4.061,0,0,0-4.061-4.06m0-5.055a1.74,1.74,0,1,0,1.741,1.74A1.74,1.74,0,0,0,96.59,28.2" transform="translate(65.277 20)" fill="#2f3dac" fill-rule="evenodd"/><path d="M95.693,34.423a2,2,0,1,1-2,2,2,2,0,0,1,2-2m.54-5.842a.788.788,0,1,1-.789.788.788.788,0,0,1,.789-.788" transform="translate(65.277 20)" fill="#0869a1" fill-rule="evenodd"/><path d="M101.5,63.963l9.938-7.176.214-.124.223-.1.23-.081.238-.059.245-.037.251-.015.257.008.263.031.269.055.274.079.279.1.283.127.287.152.291.177,13.894,9.02c2.357,2.726,3.767,5.405,3.767,7.562,0,5.035-7.68,5.32-17.154.637-6.126-3.028-11.216-6.746-14.049-10.358" transform="translate(65.277 20)" fill="#c1d1f7" fill-rule="evenodd"/><path d="M117.033,33.082C104.015,28.88,94.4,37.464,94.4,48.59a20.216,20.216,0,0,0,2.828,10.185c3.774,6.527,11.015,11.762,19.806,14.6,13.018,4.2,23.571-1.411,23.571-12.537s-10.553-23.553-23.571-27.756" transform="translate(65.277 20)" fill="#dfe2f9" fill-rule="evenodd"/><path d="M101.956,34.327A16.453,16.453,0,0,0,94.4,48.59a20.216,20.216,0,0,0,2.828,10.185c3.774,6.527,11.015,11.761,19.806,14.6a24.228,24.228,0,0,0,12.788.907,12.947,12.947,0,0,0,6.453-11.741c0-11.092-10.52-23.479-23.5-27.669a19.248,19.248,0,0,0-10.821-.546" transform="translate(65.277 20)" fill="#e9ebfa" fill-rule="evenodd"/><path d="M98.353,43.359c5.9,4.942,12.133,9.578,19.805,12.857,1.4.906,2.537,3.425,2.537,5.6v6.728a2.6,2.6,0,0,1-1.361,2.557,3.458,3.458,0,0,1-2.087-.119c-3.2-1.063-8.71-4.575-10.327-5.618-5.13-3.306-7.483-5.322-9-8.142-1.309-2.441-2.107-5.379-2.107-11.558,0-2.173,1.142-3.21,2.537-2.3" transform="translate(65.277 20)" fill="#fff" fill-rule="evenodd"/><path d="M98.636,42.553c5.9,4.942,12.133,9.578,19.805,12.857,1.4.906,2.537,3.425,2.537,5.6v6.728a2.6,2.6,0,0,1-1.361,2.557,3.458,3.458,0,0,1-2.087-.119c-3.2-1.063-8.71-4.575-10.327-5.618-6.933-4.469-11.1-7.025-11.1-19.7,0-2.173,1.142-3.21,2.537-2.3" transform="translate(65.277 20)" fill="#0869a1" fill-rule="evenodd"/><path d="M110.712,37.588c-5.209-1.682-9.785-.983-13.191,1.207a17.214,17.214,0,0,1,7.972.755,31.4,31.4,0,0,1,9.955,5.443c6.4,4.983,10.8,12.15,10.76,18.785-.025,4.186,4.75,5.549,4.79-2.3.049-9.578-9.083-20.272-20.287-23.889" transform="translate(65.277 20)" fill="#fff" fill-rule="evenodd"/><path d="M134.474,54.04a4.06,4.06,0,1,0,4.061,4.06,4.061,4.061,0,0,0-4.061-4.06m0-5.055a1.74,1.74,0,1,0,1.741,1.74,1.74,1.74,0,0,0-1.741-1.74" transform="translate(65.277 20)" fill="#2f3dac" fill-rule="evenodd"/><path d="M133.577,55.2a2,2,0,1,1-2,2,2,2,0,0,1,2-2m.54-5.842a.788.788,0,1,1-.789.788.788.788,0,0,1,.789-.788" transform="translate(65.277 20)" fill="#0869a1" fill-rule="evenodd"/><path d="M98.636,42.553c5.9,4.942,12.133,9.578,19.805,12.857,1.4.906,2.537,3.425,2.537,5.6v6.728a2.6,2.6,0,0,1-1.361,2.557,1.322,1.322,0,0,1-.252.07,3.541,3.541,0,0,0,.277-1.43V62.206c0-2.173-1.141-4.692-2.537-5.6-7.672-3.28-13.9-7.916-19.805-12.857a1.783,1.783,0,0,0-.99-.327,1.428,1.428,0,0,1,2.326-.87" transform="translate(65.277 20)" fill="#2f3dac" fill-rule="evenodd"/><path d="M99.349,81.021a50.709,50.709,0,0,0,7.113,5.466,67.224,67.224,0,0,0,7.111,3.868,3.8,3.8,0,0,1,1.821,3.231v4.72c0,18.07-17.867,5.936-17.867-12.018v-4.72c0-1.331.781-1.5,1.823-.548" transform="translate(65.277 20)" fill="#f3fafa" fill-rule="evenodd"/><path d="M99.715,80.294a50.709,50.709,0,0,0,7.113,5.466,67.225,67.225,0,0,0,7.111,3.868,3.8,3.8,0,0,1,1.821,3.231v4.72c0,18.07-17.867,5.936-17.867-12.018v-4.72c0-1.331.781-1.5,1.823-.548" transform="translate(65.277 20)" fill="#2f3dac" fill-rule="evenodd"/><path d="M98.97,80.677a50.7,50.7,0,0,0,7.113,5.466,67.23,67.23,0,0,0,7.111,3.868,3.8,3.8,0,0,1,1.821,3.231v4.72c0,4.522-1.119,7.152-2.8,8.273-5.209,2-14.327-7.848-14.327-20.674v-4.72a1.918,1.918,0,0,1,.123-.748,2.271,2.271,0,0,1,.955.583" transform="translate(65.277 20)" fill="#0869a1" fill-rule="evenodd"/><path d="M137.852,101.017c2.315-1.336,4.192-3.419,4.192,3.971s-1.877,14.465-4.192,15.8-4.192-3.572-4.192-10.963,1.877-7.473,4.192-8.809" transform="translate(65.277 20)" fill="#2f3dac" fill-rule="evenodd"/><path d="M136.738,87.864c-3.128.971-5.663,4.681-5.663,8.286s2.535,5.74,5.663,4.769,5.663-4.681,5.663-8.286-2.535-5.74-5.663-4.769" transform="translate(65.277 20)" fill="#2f3dac" fill-rule="evenodd"/><path d="M136.839,120.979c-1.825-.394-3.178-4.878-3.178-11.153,0-4.208.609-6.046,1.56-7.1.124-.067.25-.137.377-.21,2.315-1.336,4.192-3.419,4.192,3.971,0,6.011-1.242,11.813-2.951,14.488" transform="translate(65.277 20)" fill="#0869a1" fill-rule="evenodd"/><path d="M133.975,89.551a9.456,9.456,0,0,0-2.9,6.6c0,3.605,2.535,5.74,5.663,4.769.171-.053.341-.115.508-.184a9.456,9.456,0,0,0,2.9-6.6c0-3.605-2.535-5.74-5.663-4.769-.171.053-.341.115-.508.184" transform="translate(65.277 20)" fill="#0869a1" fill-rule="evenodd"/><path d="M114.717,61.98A1.1,1.1,0,0,0,115.805,63a.956.956,0,0,0,.971-1.016,7.5,7.5,0,0,0-1.6-4.267,4.831,4.831,0,0,0-3.7-1.925,3.952,3.952,0,0,0-1.8.434,4.5,4.5,0,0,0-1.447,1.186,1.054,1.054,0,0,0,1.638,1.321,2.616,2.616,0,0,1,.833-.692,1.957,1.957,0,0,1,.894-.215,2.682,2.682,0,0,1,2,1.107,5.382,5.382,0,0,1,1.116,3.052m-12.061-7.446a.924.924,0,0,0,1.052.873.938.938,0,0,0,.777-.988,5.984,5.984,0,0,0-1.269-3.475,3.143,3.143,0,0,0-4.426-.662,4.413,4.413,0,0,0-1.1,1.172.956.956,0,0,0,.228,1.291A.9.9,0,0,0,99.2,52.5a2.561,2.561,0,0,1,.63-.68,1.366,1.366,0,0,1,1.991.346,4.118,4.118,0,0,1,.83,2.364" transform="translate(65.277 20)" fill="#9c9984" fill-rule="evenodd"/><path d="M115.261,61.98a.518.518,0,0,0,.513.479.451.451,0,0,0,.458-.479,6.928,6.928,0,0,0-1.469-3.946,4.246,4.246,0,0,0-3.252-1.709,3.422,3.422,0,0,0-1.561.377,4.006,4.006,0,0,0-1.285,1.055.5.5,0,0,0,.772.622,3.114,3.114,0,0,1,1-.823,2.485,2.485,0,0,1,1.134-.272,3.234,3.234,0,0,1,2.452,1.323,5.92,5.92,0,0,1,1.242,3.373" transform="translate(65.277 20)" fill="#ffff9a" fill-rule="evenodd"/><path d="M103.2,54.534a.346.346,0,0,0,.394.343.437.437,0,0,0,.348-.458,5.4,5.4,0,0,0-1.137-3.147,2.682,2.682,0,0,0-2.488-1.052,2.768,2.768,0,0,0-1.189.5,3.926,3.926,0,0,0-.976,1.041.413.413,0,0,0,.073.557.365.365,0,0,0,.519-.125,3.055,3.055,0,0,1,.756-.811,2.008,2.008,0,0,1,.864-.364,2.041,2.041,0,0,1,1.876.822,4.62,4.62,0,0,1,.962,2.692" transform="translate(65.277 20)" fill="#ffff9a" fill-rule="evenodd"/><path d="M18.076,37.838,82.925.454c1.762-1.016,3.2-.267,3.2,1.662V39.739a6.923,6.923,0,0,1-3.2,5.354l-2.955,1.7.471,9.959-12.372-3.1L18.076,82.477c-1.761,1.015-3.2.268-3.2-1.662V43.192a6.92,6.92,0,0,1,3.2-5.354" transform="translate(65.277 20)" fill="#0869a1" fill-rule="evenodd"/><path d="M73.235,42.714l-1.785-1.03V35.073l1.785,1.03Z" transform="translate(65.277 20)" fill="#f1cc30" fill-rule="evenodd"/><path d="M62.483,42.3,60.7,41.265V38.134l1.785,1.03Z" transform="translate(65.277 20)" fill="#f1cc30" fill-rule="evenodd"/><path d="M73.235,32.972l-1.785-1.03V19.487l1.785,1.03Z" transform="translate(65.277 20)" fill="#f1cc30" fill-rule="evenodd"/><path d="M73.788,14.716,72,13.686l2.489-1.434,1.785,1.03Z" transform="translate(65.277 20)" fill="#f7e436" fill-rule="evenodd"/><path d="M76.277,31.22l-1.785-1.03,3.353-1.931,1.785,1.03Z" transform="translate(65.277 20)" fill="#f7e436" fill-rule="evenodd"/><path d="M65.474,37.442l-1.785-1.03,7.761-4.47,1.785,1.03Z" transform="translate(65.277 20)" fill="#f7e436" fill-rule="evenodd"/><path d="M62.483,39.164,60.7,38.134,72,13.686l1.785,1.03Z" transform="translate(65.277 20)" fill="#f1cc30" fill-rule="evenodd"/><path d="M47.271,55.951l-1.785-1.03-.273-.166-.261-.195-.15-.135-.146-.146-.141-.157-.136-.169-.131-.18-.127-.191-.122-.2-.117-.213-.112-.224-.107-.236-.1-.247-.1-.258-.093-.269-.088-.28-.084-.292-.079-.3-.074-.314-.069-.325-.064-.336-.06-.348-.055-.359-.05-.37-.045-.381-.041-.392-.036-.4-.031-.415-.026-.426-.021-.437L42.53,46.1l-.012-.46-.007-.471,0-.482v-.3l0-.3,0-.3.006-.3.008-.294.01-.292.011-.289.013-.286.015-.283.017-.281.018-.278.02-.275.022-.273.024-.27.025-.267.027-.265.029-.262.031-.259.032-.257.034-.254.036-.251.038-.249.04-.246.041-.243.043-.24.045-.238.046-.235.048-.232.05-.229.052-.227.053-.224.055-.221.117-.438.124-.431.13-.424.137-.416.144-.41.151-.4.157-.4.164-.389.171-.382.178-.375.185-.368.192-.361.2-.354.205-.347.212-.34.219-.333.225-.325.232-.317.24-.308.247-.3.254-.291.262-.283.269-.274.276-.266.283-.257.29-.249.3-.24.3-.232.312-.223.319-.215.326-.207.333-.2.247-.138.243-.129.239-.12.235-.111.232-.1.228-.093.224-.084.22-.074L52.648,25l.213-.056.209-.047.206-.038.2-.029.2-.02.194-.01h.191l.186.008.182.017.178.025.174.034.17.043.165.051.161.06.157.068.153.077,1.785,1.03-.153-.077-.157-.068-.161-.06-.165-.051-.17-.043-.174-.034-.178-.025-.182-.017-.186-.008h-.191l-.194.01-.2.02-.2.029-.206.038-.209.047-.213.056-.217.066-.22.074-.224.084-.228.093-.232.1-.235.111-.239.12-.243.129-.247.138-.333.2-.326.207-.319.215-.312.223-.3.232-.3.241-.29.249-.283.257-.276.266-.269.274-.262.283-.254.291-.247.3-.24.308-.232.317-.225.325-.219.333-.212.34-.205.347-.2.354-.192.361-.185.368-.178.375-.171.382-.164.389-.158.4-.151.4-.144.41-.137.416-.13.424-.124.431-.117.438-.055.221-.053.224-.052.227-.05.229-.048.232-.046.235-.045.238-.043.24-.041.243-.04.246-.038.249-.036.251-.034.254-.033.257-.031.259-.029.262-.027.265-.025.267-.024.27-.022.273-.02.275-.018.278-.017.281-.015.284-.013.286-.011.289-.01.292-.008.294-.006.3,0,.3,0,.3v.3l0,.482.007.471.012.46.017.448.021.437.026.426.031.415.036.4.04.392.045.381.05.37.055.359.06.347.064.336.069.325.074.314.079.3.084.292.088.28.093.269.1.258.1.247.107.236.112.225.117.213.122.2.127.191.131.18.136.169.141.157.146.146.15.135.261.2Z" transform="translate(65.277 20)" fill="#f1cc30" fill-rule="evenodd"/><path d="M49.387,52.645,47.6,51.615l.2.106.2.086.207.065.212.045.218.024.223,0,.228-.017.233-.038.238-.058.244-.079.249-.1.254-.12.259-.14.259-.158.254-.172.249-.187.243-.2.238-.217.233-.231.228-.246.223-.261.218-.275.212-.29.207-.3.2-.319.2-.333.192-.348.186-.362.181-.377.088-.2.085-.2.082-.211.079-.218.077-.226.074-.232.071-.24.068-.247.065-.254.063-.262.06-.269.057-.276.054-.284.051-.291.049-.3.046-.305.043-.313.04-.32.037-.327.035-.335.032-.342.029-.349.026-.356.024-.364.021-.371.018-.378.015-.386.013-.393.01-.4.007-.408,0-.415V36.8l0-.411-.007-.4-.01-.39-.013-.38-.015-.369-.018-.358-.021-.348-.024-.338-.026-.327-.029-.316-.032-.306-.035-.3-.037-.285L55.195,32l-.043-.263-.046-.253-.049-.242-.051-.232-.054-.221-.057-.211-.06-.2-.063-.189-.065-.179-.068-.168-.071-.158-.074-.147-.077-.136-.079-.126-.082-.115-.085-.1-.088-.094-.18-.169-.186-.148-.191-.127-.2-.106,1.785,1.03.2.106.191.127.186.148.18.169.088.094.085.1.082.115.079.126.077.136.074.147.071.158.068.168.065.179.063.19.06.2.057.211.054.221.051.232.049.242.046.253.043.263.04.274.037.285.035.3.032.306.029.316.026.327.024.337.021.348.018.358.015.369.013.38.01.39.007.4,0,.411v.844l0,.415-.007.408-.01.4-.013.393-.015.386-.018.378-.021.371-.024.364-.026.356-.029.349-.032.342-.035.335-.037.327-.04.32-.043.313-.046.305-.049.3-.051.291-.054.284-.057.276-.06.269-.063.262-.065.254-.068.247-.071.24-.074.232-.077.225-.079.218-.082.211-.085.2-.088.2-.181.377-.186.363-.192.348-.2.333-.2.319-.207.3-.212.29-.217.275-.223.261-.228.246-.233.231-.238.217-.243.2-.249.187-.254.172-.259.158-.259.14-.254.12-.249.1-.244.079-.238.058-.233.038-.228.017-.223,0-.217-.024-.212-.045-.207-.065-.2-.086Z" transform="translate(65.277 20)" fill="#f1cc30" fill-rule="evenodd"/><path d="M34.781,64.86,33,63.83V57.22l1.785,1.03Z" transform="translate(65.277 20)" fill="#f1cc30" fill-rule="evenodd"/><path d="M24.03,64.441l-1.785-1.03V60.28l1.785,1.03Z" transform="translate(65.277 20)" fill="#f1cc30" fill-rule="evenodd"/><path d="M34.781,55.118,33,54.088V41.634l1.785,1.03Z" transform="translate(65.277 20)" fill="#f1cc30" fill-rule="evenodd"/><path d="M35.335,36.862l-1.785-1.03L36.038,34.4l1.785,1.03Z" transform="translate(65.277 20)" fill="#f7e436" fill-rule="evenodd"/><path d="M37.824,53.366l-1.785-1.03L39.392,50.4l1.785,1.03Z" transform="translate(65.277 20)" fill="#f7e436" fill-rule="evenodd"/><path d="M27.021,59.588l-1.785-1.03L33,54.088l1.785,1.03Z" transform="translate(65.277 20)" fill="#f7e436" fill-rule="evenodd"/><path d="M24.03,61.31l-1.785-1.03,11.3-24.448,1.785,1.03Z" transform="translate(65.277 20)" fill="#f1cc30" fill-rule="evenodd"/><path d="M34.782,64.86V58.25L24.03,64.441V61.31l11.3-24.448,2.489-1.434V53.366l3.353-1.931v3.131L37.824,56.5v6.611Zm0-9.742V42.664L27.021,59.588Z" transform="translate(65.277 20)" fill="#ffff8c" fill-rule="evenodd"/><path d="M44.294,45.722a34.408,34.408,0,0,1,.9-8.423,19.7,19.7,0,0,1,2.685-6.166,13.371,13.371,0,0,1,4.471-4.186,6.977,6.977,0,0,1,3.5-1.119,3.212,3.212,0,0,1,2.477,1.163,8.068,8.068,0,0,1,1.521,3.235,25.823,25.823,0,0,1,.559,6.218,34.5,34.5,0,0,1-.893,8.388A19.55,19.55,0,0,1,56.837,51a13.388,13.388,0,0,1-4.488,4.209q-3.569,2.056-5.612.384-2.446-2.071-2.443-9.868m3.111-1.779q0,6.833,1.423,8.259t3.52.221a9.175,9.175,0,0,0,3.52-4.283q1.426-3.083,1.423-9.892,0-6.833-1.423-8.259t-3.555-.2A8.4,8.4,0,0,0,48.967,33.7Q47.4,37.125,47.405,43.943" transform="translate(65.277 20)" fill="#ffff8c" fill-rule="evenodd"/><path d="M73.235,42.714V36.1L62.483,42.3V39.164l11.3-24.448,2.489-1.434V31.22l3.353-1.931V32.42l-3.353,1.931v6.611Zm0-9.742V20.517L65.474,37.442Z" transform="translate(65.277 20)" fill="#ffff8c" fill-rule="evenodd"/><path d="M8.431,63.846l-.141.12-.14.122-.139.124-.138.127-.136.129L7.6,64.6l-.134.133-.132.135-.131.138-.13.14-.128.141-.127.143-.126.145-.124.147-.123.149-.121.15L4.706,65.8l-.163.273-1.43,2.4-.163.273,1.055,1.171q-.037.088-.073.175l-.071.176q-.035.088-.068.176t-.066.176q-.032.088-.064.176t-.061.176q-.03.088-.059.176t-.054.171l0,.005h0l0,.005c-.018.057-.035.114-.052.171s-.034.118-.051.176-.033.117-.048.176-.031.118-.046.176-.029.117-.043.176-.027.117-.04.176-.025.117-.037.175-.024.117-.035.175L1.242,74.263V76.99L0,76.326V73.6l1.891-1.533.035-.175.037-.175L2,71.539l.043-.176.046-.176.048-.176.051-.176.054-.177.056-.176L2.36,70.3l.061-.176.064-.176.066-.176.068-.176.071-.176.073-.175L1.708,68.079l.163-.273,1.43-2.4.163-.273,1.621.221.121-.15.122-.149.124-.147.126-.145.127-.143.128-.141.13-.139.131-.137.133-.136.134-.133L6.5,63.8l.136-.129.137-.127.139-.124.14-.122.141-.12.4-2.309.23-.133,2.022-1.169.23-.133,1.242.665-.23.133L9.061,61.4l-.23.133Zm0,15.248.337,1.556.063.29-1.242-.665-.2-.943a5.987,5.987,0,0,0,1.047-.238m-4.426-.95-.073-.091q-.036-.046-.071-.094t-.068-.1q-.034-.049-.066-.1c-.022-.034-.043-.068-.064-.1s-.041-.07-.061-.106-.04-.072-.059-.109-.035-.069-.052-.1l0-.008h0l0-.007q-.026-.053-.05-.108T3.382,77.1c-.017-.04-.033-.08-.048-.12s-.031-.082-.046-.123-.029-.084-.043-.126-.027-.086-.04-.129-.026-.087-.038-.132-.024-.089-.035-.135l-.9.311.01.023.056.112.059.109L2.421,77l.064.1.066.1.068.1.071.094.073.091-1.055,2.39,1.242.664v0l.006-.013Zm3.906-4,.217.091.235.057.252.022.267-.013.281-.05.293-.087.3-.125.313-.163.157-.1.155-.1.153-.11.151-.117.148-.123.145-.129.142-.135.139-.14.135-.146.132-.15.128-.155.124-.159.12-.163.115-.166.111-.17.106-.173.1-.175.1-.177.091-.179.085-.181.079-.182.074-.183.068-.184.061-.184.055-.184.048-.184.041-.183.034-.182.027-.181.019-.179.012-.177,0-.175-.016-.334-.046-.307-.075-.278-.1-.249-.129-.219-.153-.188-.176-.157-.2-.124a1.572,1.572,0,0,0-.7-.171l.115.2.1.249.075.278.046.307.016.334,0,.175-.012.177-.02.179-.027.181-.034.182-.041.183-.048.184-.055.184-.061.184-.068.184-.074.183-.08.182-.085.181-.091.179-.1.177-.1.175-.106.173-.111.17-.115.166-.12.163-.124.159-.128.155-.132.15-.135.146-.139.14-.142.135-.145.129-.148.123-.151.117-.153.11-.155.1-.157.1-.313.163-.3.125-.293.087-.281.049-.267.013h0a1.46,1.46,0,0,0,.543.494M13.817,61.69l-.121-.01-.123-.007-.124,0h-.126l-.127,0-.128.007-.13.011-.131.014-.132.018-.134.021-.135.025-.136.029-.138.032-.139.036-.14.04-.141.043-.2-.9.048-.007.131-.014.13-.011.128-.007.127,0h.125l.124,0,.123.007.121.01,1.621-2.1.163.085,1.43.744.163.085,1.242.664-.163-.085-1.43-.744-.163-.085Zm4.8,2.461-.955.33-.648.224a5.026,5.026,0,0,0-.343-.975l.992-.343,1.242.664-.287.1Z" transform="translate(65.277 20)" fill="#7a87f9" fill-rule="evenodd"/><path d="M8.431,63.846a15.059,15.059,0,0,0-2.1,2.175L4.706,65.8l-.163.273-1.43,2.4-.163.273,1.055,1.171a13.938,13.938,0,0,0-.872,2.816L1.242,74.263V76.99l1.89-.654a4.429,4.429,0,0,0,.872,1.807l-1.054,2.39.163.085,1.43.744.163.085,1.62-2.1a5.209,5.209,0,0,0,2.1-.258l.4,1.846.23-.133,2.022-1.169.23-.133.4-2.308a15.059,15.059,0,0,0,2.1-2.175l1.62.221.163-.273,1.43-2.4.163-.273-1.054-1.17a13.935,13.935,0,0,0,.872-2.816L18.9,66.779V64.051l-1.891.654a4.431,4.431,0,0,0-.872-1.807l1.055-2.39-.163-.085-1.43-.744-.163-.085-1.621,2.1a5.208,5.208,0,0,0-2.1.258l-.4-1.846-.23.133L9.061,61.4l-.23.133Zm1.641,3.317c1.688-.976,3.057-.264,3.057,1.591a6.6,6.6,0,0,1-3.057,5.126c-1.688.976-3.057.264-3.057-1.591a6.6,6.6,0,0,1,3.057-5.126" transform="translate(65.277 20)" fill="#b5cafb" fill-rule="evenodd"/><path d="M24.3,64.285l-.272.156V61.31l11.3-24.448,2.489-1.434v.428l-2.218,1.277L24.3,61.581Z" transform="translate(65.277 20)" fill="#fff" fill-rule="evenodd"/><path d="M44.294,45.722a34.407,34.407,0,0,1,.9-8.423,19.7,19.7,0,0,1,2.685-6.166,13.371,13.371,0,0,1,4.471-4.186,6.976,6.976,0,0,1,3.5-1.119,3.206,3.206,0,0,1,2.411,1.088,3.207,3.207,0,0,0-2.14-.816,6.975,6.975,0,0,0-3.5,1.119A13.372,13.372,0,0,0,48.149,31.4a19.7,19.7,0,0,0-2.685,6.166,34.407,34.407,0,0,0-.9,8.423q0,7.218,2.092,9.528-2.366-2.129-2.363-9.8" transform="translate(65.277 20)" fill="#fff" fill-rule="evenodd"/><path d="M62.755,42.139l-.272.156V39.164l11.3-24.448,2.489-1.433v.428l-2.218,1.277-11.3,24.448Z" transform="translate(65.277 20)" fill="#fff" fill-rule="evenodd"/></svg>