<svg xmlns="http://www.w3.org/2000/svg" width="169" height="63" viewBox="0 0 169 63"><path d="M126.362,28c0,2.657,2.78,4.814,6.207,4.814s6.21-2.158,6.21-4.814a4.329,4.329,0,0,0-1.845-3.424H139.3V22.687h-4.828V20.516h-3.8v2.172h-4.828v1.885H128.2A4.358,4.358,0,0,0,126.362,28m6.207-3.038A2.859,2.859,0,0,1,135.2,28a2.666,2.666,0,1,1-5.276,0,2.861,2.861,0,0,1,2.638-3.038m-5.489,26.473h1.116v-3.89l2.322,3.89h1.106v-5.56H130.5v3.857l-2.33-3.857h-1.1Zm-18.122-1.09h2.007l.419,1.09h1.19l-2.055-5.556H109.4l-2.053,5.556h1.2Zm1.006-3.03.786,2.408h-1.578Zm-5.738-12.623a2.817,2.817,0,0,0,1.9.6h5.058a6.278,6.278,0,0,0,1.757-.215c.479-.142.9-.283,1.509-.518v7.4h3.57V28.7h1.677V41.96h3.569V21.085H119.69v5.672h-1.677V21.085h-3.572v11.73a10.466,10.466,0,0,1-1.457.4,8.429,8.429,0,0,1-1.67.142H107.23V23.806h5.37V21.867h-9.079V33.078a2.037,2.037,0,0,0,.7,1.613m40.972-6.565h3.058V26.185h-3.058V21.05h-3.77V33.429h3.77ZM67.951,45.875v4.068a1.319,1.319,0,0,0,.556,1.181,4.331,4.331,0,0,0,3.509,0,1.315,1.315,0,0,0,.551-1.181V45.875H71.4V50a.665.665,0,0,1-.277.59,2.056,2.056,0,0,1-1.722,0,.661.661,0,0,1-.286-.59V45.875Zm52.884,0v4.068a1.318,1.318,0,0,0,.553,1.181,4.327,4.327,0,0,0,3.507,0,1.316,1.316,0,0,0,.555-1.181V45.875h-1.167V50a.668.668,0,0,1-.278.59,1.547,1.547,0,0,1-.858.189,1.579,1.579,0,0,1-.865-.189A.663.663,0,0,1,122,50V45.875Zm46.234,0-.736,1.553a4.006,4.006,0,0,0-.172.424c-.051.147-.093.3-.139.459a4.993,4.993,0,0,0-.153-.506,2.743,2.743,0,0,0-.153-.382l-.739-1.548h-1.225l1.66,3.19v2.366h1.217V49.065l1.669-3.19Zm-53.469,0v5.556h3.722v-.7h-2.538V45.875Zm55.4-6.7h-7.489V30.516h-3.627v8.657h-1.868V30.516h-3.63v8.657H148.6v1.918H169Zm-5.507-8.96c0,1.563-.047,2.852-.151,3.857a5.619,5.619,0,0,1-.88,2.6h3.326a7.826,7.826,0,0,0,1.04-2.544,16.145,16.145,0,0,0,.375-3.66V21.985H150.546v1.942h12.946Zm-15.739,15.66H146.34v5.556h1.177V48.717h.028l2.017,2.714h1.267l-2.093-2.738a2.218,2.218,0,0,0,1.243-.408,1.193,1.193,0,0,0,.414-.962,1.175,1.175,0,0,0-.6-1.114,4.506,4.506,0,0,0-2.036-.333m1.145,2.2a1.826,1.826,0,0,1-1.022.213h-.36V46.533h.326a2.314,2.314,0,0,1,1.072.171.658.658,0,0,1,.286.618.856.856,0,0,1-.3.75m12.88,3.358V46.571h1.627v-.7h-4.453v.7h1.63V51.43Zm-7.867-.858a1.6,1.6,0,0,1-.859.2,3.046,3.046,0,0,1-.666-.079,5.437,5.437,0,0,1-.77-.237v.762a5.1,5.1,0,0,0,.778.209,4.4,4.4,0,0,0,.742.069,3,3,0,0,0,1.649-.412,1.229,1.229,0,0,0,.639-1.051,1.2,1.2,0,0,0-.313-.811,3.559,3.559,0,0,0-1.06-.736c-.041-.019-.1-.052-.184-.094q-1.293-.652-1.292-1.134a.631.631,0,0,1,.331-.558,1.677,1.677,0,0,1,.893-.21,2.867,2.867,0,0,1,.646.077,3.488,3.488,0,0,1,.666.227v-.751a4.793,4.793,0,0,0-.745-.192,5.463,5.463,0,0,0-.787-.058,2.708,2.708,0,0,0-1.556.421,1.226,1.226,0,0,0-.63,1.046,1.128,1.128,0,0,0,.312.782,3.954,3.954,0,0,0,1.093.757c.044.027.118.062.213.113q1.218.632,1.217,1.123a.6.6,0,0,1-.32.532m2.8.858h1.178v-5.55h-1.178Zm-66.665,0V46.571h1.628v-.7H87.223v.7h1.625V51.43Zm54.894-4.885v-.67h-3.5v5.556h3.5v-.7h-2.325V48.854h2.127v-.659h-2.127v-1.65ZM134.5,45.87h-1.176v5.556H134.5Zm2.265,0H135.57l1.923,5.556h1l1.926-5.556h-1.186L138,49.64Zm8.423-11.527H127.961v1.916h13.457V41.92h3.77ZM57.93,31.715a5.627,5.627,0,0,1-3.472,2.6l1.73,1.311a6.057,6.057,0,0,0,3.152-1.491,4.884,4.884,0,0,0,1.817-2.6,5.079,5.079,0,0,0,1.827,2.6A6.008,6.008,0,0,0,66.1,35.626l1.679-1.266v7.6H71.32V21.085H67.773v5.708h-3.1v1.942h3.1v5.354a5.4,5.4,0,0,1-3.409-2.4A9.007,9.007,0,0,1,63,26.673V23.681h3.046V21.767H55.695v1.914h3.6v2.991a9.053,9.053,0,0,1-1.36,5.043m18.784,14.16v5.556h1.121v-3.89l2.32,3.89H81.26V45.875H80.142v3.857L77.81,45.875ZM55.77,51.509a2.158,2.158,0,0,0,1.381-.371A1.4,1.4,0,0,0,57.6,50V45.88H56.419v4.141a.77.77,0,0,1-.209.593.962.962,0,0,1-.655.189,1.84,1.84,0,0,1-.5-.075,2.686,2.686,0,0,1-.537-.231v.768a3,3,0,0,0,.6.186,3.242,3.242,0,0,0,.645.062M76.338,21.085H72.8V41.964h3.542Zm-13.6,25.46v-.67h-3.5v5.556h3.5v-.7h-2.32V48.854h2.125v-.659H60.418v-1.65ZM85.487,27.68a10.221,10.221,0,0,1-5.567,1.747L81.4,30.9a14.643,14.643,0,0,0,5.293-1.062,6.233,6.233,0,0,0,3.361-2.572,6.519,6.519,0,0,0,3.39,2.561A14.427,14.427,0,0,0,98.7,30.9l1.479-1.469a10.25,10.25,0,0,1-5.555-1.747q-2.678-1.731-2.677-4.025v-.128H98.78V21.589H81.319v1.942h6.834v.128q0,2.291-2.667,4.021M99.77,50.836a3.274,3.274,0,0,0,.581-2.185,3.3,3.3,0,0,0-.581-2.2,3.078,3.078,0,0,0-3.81.005,3.311,3.311,0,0,0-.585,2.191,3.281,3.281,0,0,0,.585,2.185,3.077,3.077,0,0,0,3.81,0m-2.9-.532a3.336,3.336,0,0,1-.3-1.662,3.353,3.353,0,0,1,.3-1.666,1.292,1.292,0,0,1,1.818-.182,1.253,1.253,0,0,1,.182.182,3.417,3.417,0,0,1,.293,1.668,3.43,3.43,0,0,1-.288,1.687,1.071,1.071,0,0,1-.989.46,1.108,1.108,0,0,1-1.012-.485m8.368,1.132h1.106V45.875h-1.121v3.857L102.9,45.875h-1.091v5.556h1.109v-3.89Zm-22.967,0h1.2l.4-1.09h2l.422,1.09h1.2l-2.055-5.556H84.323Zm3.4-1.712H84.1l.792-2.408Zm7.041,1.712H93.9V45.875H92.715Zm-4.535-9.467h3.77V34.726h8.9V32.81h-21.6v1.916H88.18Zm-22.3,9.171A1.4,1.4,0,0,0,66.335,50V45.88H65.157v4.141a.766.766,0,0,1-.21.593.958.958,0,0,1-.654.189,1.84,1.84,0,0,1-.5-.075,2.7,2.7,0,0,1-.539-.231v.768a3.1,3.1,0,0,0,.611.186,3.229,3.229,0,0,0,.643.062,2.133,2.133,0,0,0,1.377-.371" transform="translate(0)" fill="#fff"/><path d="M126.362,28c0,2.657,2.78,4.814,6.207,4.814s6.21-2.158,6.21-4.814a4.329,4.329,0,0,0-1.845-3.424H139.3V22.687h-4.828V20.516h-3.8v2.172h-4.828v1.885H128.2A4.358,4.358,0,0,0,126.362,28m6.207-3.038A2.859,2.859,0,0,1,135.2,28a2.666,2.666,0,1,1-5.276,0,2.861,2.861,0,0,1,2.638-3.038m-5.489,26.473h1.116v-3.89l2.322,3.89h1.106v-5.56H130.5v3.857l-2.33-3.857h-1.1Zm-18.122-1.09h2.007l.419,1.09h1.19l-2.055-5.556H109.4l-2.053,5.556h1.2Zm1.006-3.03.786,2.408h-1.578Zm-5.738-12.623a2.817,2.817,0,0,0,1.9.6h5.058a6.278,6.278,0,0,0,1.757-.215c.479-.142.9-.283,1.509-.518v7.4h3.57V28.7h1.677V41.96h3.569V21.085H119.69v5.672h-1.677V21.085h-3.572v11.73a10.466,10.466,0,0,1-1.457.4,8.429,8.429,0,0,1-1.67.142H107.23V23.806h5.37V21.867h-9.079V33.078a2.037,2.037,0,0,0,.7,1.613m40.972-6.565h3.058V26.185h-3.058V21.05h-3.77V33.429h3.77ZM67.951,45.875v4.068a1.319,1.319,0,0,0,.556,1.181,4.331,4.331,0,0,0,3.509,0,1.315,1.315,0,0,0,.551-1.181V45.875H71.4V50a.665.665,0,0,1-.277.59,2.056,2.056,0,0,1-1.722,0,.661.661,0,0,1-.286-.59V45.875Zm52.884,0v4.068a1.318,1.318,0,0,0,.553,1.181,4.327,4.327,0,0,0,3.507,0,1.316,1.316,0,0,0,.555-1.181V45.875h-1.167V50a.668.668,0,0,1-.278.59,1.547,1.547,0,0,1-.858.189,1.579,1.579,0,0,1-.865-.189A.663.663,0,0,1,122,50V45.875Zm46.234,0-.736,1.553a4.006,4.006,0,0,0-.172.424c-.051.147-.093.3-.139.459a4.993,4.993,0,0,0-.153-.506,2.743,2.743,0,0,0-.153-.382l-.739-1.548h-1.225l1.66,3.19v2.366h1.217V49.065l1.669-3.19Zm-53.469,0v5.556h3.722v-.7h-2.538V45.875Zm55.4-6.7h-7.489V30.516h-3.627v8.657h-1.868V30.516h-3.63v8.657H148.6v1.918H169Zm-5.507-8.96c0,1.563-.047,2.852-.151,3.857a5.619,5.619,0,0,1-.88,2.6h3.326a7.826,7.826,0,0,0,1.04-2.544,16.145,16.145,0,0,0,.375-3.66V21.985H150.546v1.942h12.946Zm-15.739,15.66H146.34v5.556h1.177V48.717h.028l2.017,2.714h1.267l-2.093-2.738a2.218,2.218,0,0,0,1.243-.408,1.193,1.193,0,0,0,.414-.962,1.175,1.175,0,0,0-.6-1.114,4.506,4.506,0,0,0-2.036-.333m1.145,2.2a1.826,1.826,0,0,1-1.022.213h-.36V46.533h.326a2.314,2.314,0,0,1,1.072.171.658.658,0,0,1,.286.618.856.856,0,0,1-.3.75m12.88,3.358V46.571h1.627v-.7h-4.453v.7h1.63V51.43Zm-7.867-.858a1.6,1.6,0,0,1-.859.2,3.046,3.046,0,0,1-.666-.079,5.437,5.437,0,0,1-.77-.237v.762a5.1,5.1,0,0,0,.778.209,4.4,4.4,0,0,0,.742.069,3,3,0,0,0,1.649-.412,1.229,1.229,0,0,0,.639-1.051,1.2,1.2,0,0,0-.313-.811,3.559,3.559,0,0,0-1.06-.736c-.041-.019-.1-.052-.184-.094q-1.293-.652-1.292-1.134a.631.631,0,0,1,.331-.558,1.677,1.677,0,0,1,.893-.21,2.867,2.867,0,0,1,.646.077,3.488,3.488,0,0,1,.666.227v-.751a4.793,4.793,0,0,0-.745-.192,5.463,5.463,0,0,0-.787-.058,2.708,2.708,0,0,0-1.556.421,1.226,1.226,0,0,0-.63,1.046,1.128,1.128,0,0,0,.312.782,3.954,3.954,0,0,0,1.093.757c.044.027.118.062.213.113q1.218.632,1.217,1.123a.6.6,0,0,1-.32.532m2.8.858h1.178v-5.55h-1.178Zm-66.665,0V46.571h1.628v-.7H87.223v.7h1.625V51.43Zm54.894-4.885v-.67h-3.5v5.556h3.5v-.7h-2.325V48.854h2.127v-.659h-2.127v-1.65ZM134.5,45.87h-1.176v5.556H134.5Zm2.265,0H135.57l1.923,5.556h1l1.926-5.556h-1.186L138,49.64Zm8.423-11.527H127.961v1.916h13.457V41.92h3.77ZM57.93,31.715a5.627,5.627,0,0,1-3.472,2.6l1.73,1.311a6.057,6.057,0,0,0,3.152-1.491,4.884,4.884,0,0,0,1.817-2.6,5.079,5.079,0,0,0,1.827,2.6A6.008,6.008,0,0,0,66.1,35.626l1.679-1.266v7.6H71.32V21.085H67.773v5.708h-3.1v1.942h3.1v5.354a5.4,5.4,0,0,1-3.409-2.4A9.007,9.007,0,0,1,63,26.673V23.681h3.046V21.767H55.695v1.914h3.6v2.991a9.053,9.053,0,0,1-1.36,5.043m18.784,14.16v5.556h1.121v-3.89l2.32,3.89H81.26V45.875H80.142v3.857L77.81,45.875ZM55.77,51.509a2.158,2.158,0,0,0,1.381-.371A1.4,1.4,0,0,0,57.6,50V45.88H56.419v4.141a.77.77,0,0,1-.209.593.962.962,0,0,1-.655.189,1.84,1.84,0,0,1-.5-.075,2.686,2.686,0,0,1-.537-.231v.768a3,3,0,0,0,.6.186,3.242,3.242,0,0,0,.645.062M76.338,21.085H72.8V41.964h3.542Zm-13.6,25.46v-.67h-3.5v5.556h3.5v-.7h-2.32V48.854h2.125v-.659H60.418v-1.65ZM85.487,27.68a10.221,10.221,0,0,1-5.567,1.747L81.4,30.9a14.643,14.643,0,0,0,5.293-1.062,6.233,6.233,0,0,0,3.361-2.572,6.519,6.519,0,0,0,3.39,2.561A14.427,14.427,0,0,0,98.7,30.9l1.479-1.469a10.25,10.25,0,0,1-5.555-1.747q-2.678-1.731-2.677-4.025v-.128H98.78V21.589H81.319v1.942h6.834v.128q0,2.291-2.667,4.021M99.77,50.836a3.274,3.274,0,0,0,.581-2.185,3.3,3.3,0,0,0-.581-2.2,3.078,3.078,0,0,0-3.81.005,3.311,3.311,0,0,0-.585,2.191,3.281,3.281,0,0,0,.585,2.185,3.077,3.077,0,0,0,3.81,0m-2.9-.532a3.336,3.336,0,0,1-.3-1.662,3.353,3.353,0,0,1,.3-1.666,1.292,1.292,0,0,1,1.818-.182,1.253,1.253,0,0,1,.182.182,3.417,3.417,0,0,1,.293,1.668,3.43,3.43,0,0,1-.288,1.687,1.071,1.071,0,0,1-.989.46,1.108,1.108,0,0,1-1.012-.485m8.368,1.132h1.106V45.875h-1.121v3.857L102.9,45.875h-1.091v5.556h1.109v-3.89Zm-22.967,0h1.2l.4-1.09h2l.422,1.09h1.2l-2.055-5.556H84.323Zm3.4-1.712H84.1l.792-2.408Zm7.041,1.712H93.9V45.875H92.715Zm-4.535-9.467h3.77V34.726h8.9V32.81h-21.6v1.916H88.18Zm-22.3,9.171A1.4,1.4,0,0,0,66.335,50V45.88H65.157v4.141a.766.766,0,0,1-.21.593.958.958,0,0,1-.654.189,1.84,1.84,0,0,1-.5-.075,2.7,2.7,0,0,1-.539-.231v.768a3.1,3.1,0,0,0,.611.186,3.229,3.229,0,0,0,.643.062,2.133,2.133,0,0,0,1.377-.371" transform="translate(0)" fill="#fff"/><path d="M14.11,20.278c-1.279,3.013-5.345,8.052-5.345,8.052-2.112,2.751-4.613,6.2-5.494,10.77C1.407,51.722,9.333,58.228,14.2,60.059A17.07,17.07,0,0,1,5.251,41.867c.789-3.872,2.881-7.85,7.633-12.91,0,0,5.606-5.786,6.363-10.812A17.621,17.621,0,0,0,11.415,0a19.2,19.2,0,0,1,2.7,20.278" transform="translate(0)" fill="#64a91c"/><path d="M21,22.192c-1.658,3.931-6,7.871-6,7.871C8.133,36.616,7.25,40.5,7.25,40.5A16.427,16.427,0,0,0,8.926,54.32a14.713,14.713,0,0,0,9.012,6.457A11.789,11.789,0,0,1,9.921,50.432c-.291-3.9,1.919-8.848,8.308-13.823a35.22,35.22,0,0,0,5.721-5.74,18.923,18.923,0,0,0,3.613-8.56,20.2,20.2,0,0,0-1.179-9.991,21.689,21.689,0,0,0-5.693-8.484C25.555,13.123,21,22.193,21,22.193" transform="translate(0)" fill="#b0bcc2"/><path d="M44.766,42.752V21.109H36.1V45.243c-.026,1.675-.174,3.547-.174,3.547a11.35,11.35,0,0,1-.9,3.921,13.43,13.43,0,0,1-5.108,6.155c-9.038,6.034-18.08,1.043-18.08,1.043,11.3,6.635,22.3.522,22.3.522C41.883,55.991,43.99,49.95,44.561,46.7a30.276,30.276,0,0,0,.2-3.948" transform="translate(0)" fill="#003288"/><path d="M10.08,58.539A19.438,19.438,0,0,1,2.8,48.621a22.789,22.789,0,0,1-.737-10.45,26.893,26.893,0,0,1,2.615-7.4A41.178,41.178,0,0,1,7.7,26.254,41.207,41.207,0,0,0,10.249,22.3,12.711,12.711,0,0,0,9.209,8.057s2.256,5.776-.69,11.155c0,0-1.385,2.35-2.89,4.578,0,0-3.307,4.738-4.275,7.953A23.357,23.357,0,0,0,.607,44.87s1.565,9.356,9.473,13.669" transform="translate(0)" fill="#0099e7"/><path d="M19.1,58.089V55.4h-.534v-.369h1.077v3.06Z" transform="translate(0)" fill="#003288"/><path d="M21.9,55.965a.8.8,0,0,0-.109-.466.4.4,0,0,0-.343-.148.369.369,0,0,0-.324.146.873.873,0,0,0-.1.473.844.844,0,0,0,.1.475.393.393,0,0,0,.337.134.388.388,0,0,0,.337-.146.822.822,0,0,0,.1-.468m-.1.8a.749.749,0,0,1-.231.116.825.825,0,0,1-.261.038.8.8,0,0,1-.623-.216,1.391,1.391,0,0,1,.044-1.478.989.989,0,0,1,.737-.245.943.943,0,0,1,.723.259,1.131,1.131,0,0,1,.237.782,2.087,2.087,0,0,1-.2.858,7,7,0,0,1-.778,1.207H20.81q.416-.511.623-.8c.139-.189.258-.362.357-.523" transform="translate(0)" fill="#003288"/><path d="M22.919,57.62a1.263,1.263,0,0,0,.28.1,1.214,1.214,0,0,0,.294.036.8.8,0,0,0,.578-.189.736.736,0,0,0,.194-.558.483.483,0,0,0-.2-.422,1.029,1.029,0,0,0-.589-.139,2.453,2.453,0,0,0-.271.009,2.119,2.119,0,0,0-.224.032l.286-1.464h1.509v.37H23.724l-.169.746.154-.017h.123a1.024,1.024,0,0,1,.712.245.844.844,0,0,1,.27.653,1.019,1.019,0,0,1-.329.811,1.333,1.333,0,0,1-.915.291,2.349,2.349,0,0,1-.41-.036,2.091,2.091,0,0,1-.388-.109Z" transform="translate(0)" fill="#003288"/><path d="M25.275,58.09l1.154-1.622a2.472,2.472,0,0,0,.228-.4.812.812,0,0,0,.074-.325.423.423,0,0,0-.1-.3.4.4,0,0,0-.3-.1.379.379,0,0,0-.322.13.775.775,0,0,0-.095.442v.106h-.542a.288.288,0,0,1-.006-.059v-.1a.827.827,0,0,1,.249-.658,1.1,1.1,0,0,1,.746-.221,1.127,1.127,0,0,1,.7.2.669.669,0,0,1,.256.555,1.025,1.025,0,0,1-.1.428,2.689,2.689,0,0,1-.337.526l-.782,1h1.13v.388Z" transform="translate(0)" fill="#003288"/><path d="M26.63,48.06v3.683a1.191,1.191,0,0,0,.5,1.069,2.938,2.938,0,0,0,1.585.335,2.973,2.973,0,0,0,1.589-.335,1.2,1.2,0,0,0,.5-1.069V48.06H29.75V51.8a.6.6,0,0,1-.25.534,1.867,1.867,0,0,1-1.558,0,.591.591,0,0,1-.256-.534V48.06Z" transform="translate(0)" fill="#003288"/><path d="M15.814,53.158a1.948,1.948,0,0,0,1.248-.334,1.268,1.268,0,0,0,.4-1.035V48.06H16.4v3.748a.7.7,0,0,1-.188.537.865.865,0,0,1-.591.172,1.651,1.651,0,0,1-.452-.069,2.457,2.457,0,0,1-.486-.209v.7a2.647,2.647,0,0,0,.552.168,3.047,3.047,0,0,0,.58.055" transform="translate(0)" fill="#003288"/><path d="M21.851,48.669V48.06h-3.17v5.029H21.85v-.631h-2.1v-1.7h1.924v-.6H19.749V48.669Z" transform="translate(0)" fill="#003288"/><path d="M25.023,52.824a1.263,1.263,0,0,0,.4-1.034V48.06h-1.06v3.749a.7.7,0,0,1-.19.536.861.861,0,0,1-.592.172,1.69,1.69,0,0,1-.452-.069,2.338,2.338,0,0,1-.488-.209v.7a2.8,2.8,0,0,0,.553.168,2.923,2.923,0,0,0,.583.055,1.926,1.926,0,0,0,1.245-.334" transform="translate(0)" fill="#003288"/><path d="M23.343,46.442a2,2,0,0,0,.923-.305l5.376.37V39.642l-.559-.032.248.388v6.219l-5.17-.329a1.525,1.525,0,0,1-1.8,0l-5.168.329V40l.246-.388-.561.032v6.865l5.377-.37a1.991,1.991,0,0,0,.921.305,1.57,1.57,0,0,0,.168,0" transform="translate(0)" fill="#b0bcc2"/><path d="M18.019,39.219c-.12.186-.531.828-.544.845v5.577c.121-.2.533-.879.544-.9Z" transform="translate(0)" fill="#b0bcc2"/><path d="M22.42,45.6l.015.014a1.207,1.207,0,0,0,.612.282,1.168,1.168,0,0,0-.6-.88,3.766,3.766,0,0,0-1.7-.291c-.356,0-.736.021-1.169.063s-.859.1-1.308.183c-.019.03-.5.819-.57.938.16-.009,4.728-.309,4.728-.309" transform="translate(0)" fill="#b0bcc2"/><path d="M29.044,40.065,28.5,39.22v5.526c.011.017.422.7.543.9Z" transform="translate(0)" fill="#b0bcc2"/><path d="M24.074,45.011a1.179,1.179,0,0,0-.6.88,1.193,1.193,0,0,0,.614-.282L24.1,45.6s4.567.3,4.728.309l-.568-.938c-.451-.08-.892-.142-1.308-.184s-.813-.062-1.168-.062a3.766,3.766,0,0,0-1.7.291" transform="translate(0)" fill="#b0bcc2"/><path d="M26.937,38.631a11.069,11.069,0,0,0-1.207-.068l-.539.023-.41.061a2.164,2.164,0,0,0-.748.287l-.058.044-.02.022a1.835,1.835,0,0,0-.524.547v5.6a1.287,1.287,0,0,1,.285-.276,3.365,3.365,0,0,1,1.36-.421h.05a8.04,8.04,0,0,1,1.006-.033l.745.051c.377.036.815.092,1.308.164v-5.8c-.423-.087-.841-.154-1.237-.2m.543,1.24a2.68,2.68,0,0,1-1.576,1.507s.206.049.686.612a1.969,1.969,0,0,0,.626.514s-.677,1.321-.744,1.477a2.939,2.939,0,0,1-.835-1.305.236.236,0,0,0-.235-.122s-.538.059-.757.077a.2.2,0,0,1-.217,0l-.079-.083s-.019.005-.052-.024a.178.178,0,0,1-.073-.128.141.141,0,0,1,.044-.113,7.984,7.984,0,0,0,1.063-.832s-.009.031.04-.093a1.756,1.756,0,0,1-.43-.177s-.189-.128-.184-.294h.044s0,.2.389.318a.838.838,0,0,1-.128-.282.163.163,0,0,1,.054-.012s.111.326.3.334c0,0,.367-.224.4-.476,0,0-.153-.093-.214-.473l.05-.028s.06.359.241.349c0,0,.164,0,.265-.3a1.466,1.466,0,0,0,.079-.5,1.819,1.819,0,0,0-.037-.244l.037-.06a1.062,1.062,0,0,1,.049.184.767.767,0,0,1,.144-.367l.033.018a.66.66,0,0,0-.088.4,1.8,1.8,0,0,1-.121.648,2.705,2.705,0,0,1-.609.9,5.436,5.436,0,0,0,.745-.36s.222-.137.248-.607H26.7a1.007,1.007,0,0,1-.007.383,1.616,1.616,0,0,0,.68-.822.5.5,0,0,0-.015-.334l.024-.032a.6.6,0,0,1,.082.232.423.423,0,0,1,.253-.23l.013.035a.62.62,0,0,0-.244.315" transform="translate(0)" fill="#b0bcc2"/><path d="M22.567,39l-.022-.017-.059-.043a2.129,2.129,0,0,0-.746-.288l-.413-.061-.536-.023a10.824,10.824,0,0,0-1.207.068,12.041,12.041,0,0,0-1.238.2v5.8c.489-.073.926-.129,1.3-.164l.747-.052a8.139,8.139,0,0,1,1,.034h.058a3.327,3.327,0,0,1,1.355.424,1.3,1.3,0,0,1,.286.273v-5.6A1.852,1.852,0,0,0,22.567,39m-.749,4.674H19.729A4.646,4.646,0,0,0,19.4,41.19c.439-.488,1-1.209,1.241-1.533V41.6a.33.33,0,1,0,.244,0V39.64c.237.314.8,1.052,1.253,1.549a4.645,4.645,0,0,0-.323,2.484" transform="translate(0)" fill="#b0bcc2"/></svg>