<svg xmlns="http://www.w3.org/2000/svg" width="99.727" height="116.111" viewBox="0 0 99.727 116.111"><path d="M53.583,5.047H8.505A8.511,8.511,0,0,0,0,13.547v94.069a8.51,8.51,0,0,0,8.505,8.5H53.583a8.51,8.51,0,0,0,8.505-8.5V13.547a8.51,8.51,0,0,0-8.505-8.5" fill="#2b2b2b"/><path d="M2.281,107.612a6.227,6.227,0,0,0,6.224,6.216H53.583a6.227,6.227,0,0,0,6.224-6.216v-6.965H2.281Z" fill="#fffffb"/><path d="M59.807,98.373V26.992L21.225,98.373Z" fill="#75c9f8"/><path d="M2.281,20.7V98.374H21.225L59.807,26.992V20.7Z" fill="#b2e1ff"/><path d="M53.583,7.33H8.505a6.228,6.228,0,0,0-6.224,6.217v4.879H59.807V13.547A6.228,6.228,0,0,0,53.583,7.33M35.8,13.025a1.339,1.339,0,0,1-1.339,1.338l.005,0H27.622a1.339,1.339,0,0,1-1.339-1.338v-.3a1.339,1.339,0,0,1,1.339-1.335h6.844A1.34,1.34,0,0,1,35.8,12.725Z" fill="#fffdff"/><path d="M67.94,1.14c-16.927,0-30.648,11.909-30.648,26.6,0,10.087,6.468,18.861,16,23.371A91.077,91.077,0,0,1,42.648,61.972c7.325,0,15.771-4.288,21.511-7.839a35.126,35.126,0,0,0,3.781.21c16.927,0,30.647-11.911,30.647-26.6s-13.72-26.6-30.647-26.6" fill="#fff"/><path d="M42.648,63.112H39.582l2.321-2a90.283,90.283,0,0,0,9.586-9.626c-9.5-5.015-15.336-14-15.336-23.743C36.153,12.444,50.413,0,67.94,0S99.727,12.446,99.727,27.743s-14.26,27.74-31.787,27.74c-1.172,0-2.352-.061-3.514-.176-5.894,3.61-14.344,7.805-21.778,7.805M67.94,2.28C51.669,2.28,38.432,13.7,38.432,27.74c0,9.3,5.881,17.861,15.348,22.341l1.327.627-.937,1.13a92.538,92.538,0,0,1-8.236,8.721c6.2-.982,12.832-4.43,17.625-7.395l.334-.207.39.043a34.6,34.6,0,0,0,3.659.2c16.269,0,29.506-11.422,29.506-25.46S84.211,2.28,67.94,2.28" fill="#2b2b2b"/><path d="M68.526,44.98a.938.938,0,0,1-.939-.937h0V38.9a.939.939,0,0,1,1.877,0v5.145a.938.938,0,0,1-.938.938h0" fill="#d82"/><path d="M69.711,47.57a1.185,1.185,0,1,1-1.186-1.184h0a1.184,1.184,0,0,1,1.185,1.183Z" fill="#d82"/><path d="M77.561,40.663a.938.938,0,0,1-.939-.935V33.4a8.128,8.128,0,0,0-6.379-7.9.936.936,0,0,1-.094-1.806,5.226,5.226,0,1,0-3.245,0A.936.936,0,0,1,66.81,25.5a8.131,8.131,0,0,0-6.381,7.9v6.321a.939.939,0,0,1-1.877,0V33.4a10.025,10.025,0,0,1,5.7-9,7.1,7.1,0,1,1,8.54,0,10.025,10.025,0,0,1,5.7,9v6.321a.938.938,0,0,1-.937.937h0" fill="#2b2b2b"/></svg>