<svg xmlns="http://www.w3.org/2000/svg" width="25.046" height="27.281" viewBox="0 0 25.046 27.281"><path d="M18.265,6.7a.892.892,0,0,1-.581-.215L12.52,2.074,7.357,6.485A.9.9,0,0,1,6.063,5.234a.871.871,0,0,1,.131-.112L11.939.213a.9.9,0,0,1,1.163,0l5.746,4.909A.9.9,0,0,1,18.265,6.7" fill="#6b6b6b"/><path d="M25.036,10.78a.844.844,0,0,0-.009-.1.386.386,0,0,0-.017-.082.746.746,0,0,0-.026-.084c-.01-.027-.022-.055-.035-.082s-.025-.049-.04-.074a.857.857,0,0,0-.055-.079c-.01-.013-.017-.027-.027-.039s-.017-.015-.024-.023-.045-.045-.069-.066L24.7,10.12,21.434,7.333V9.69l1.326,1.132-1.326,1.134-1.8,1.54L12.52,19.581,5.4,13.5,3.609,11.97,2.274,10.828l1.334-1.14V7.334L.339,10.127l-.036.03c-.024.021-.046.042-.068.065s-.017.015-.025.024-.018.027-.028.04-.037.051-.054.078a.672.672,0,0,0-.04.075c-.012.026-.024.053-.035.081a.852.852,0,0,0-.026.086.745.745,0,0,0-.017.082.826.826,0,0,0-.01.1V26.381a.9.9,0,0,0,.9.9H24.146a.9.9,0,0,0,.9-.9v-15.6ZM1.79,12.772l1.916,1.637.527.451,3.144,2.686L1.79,22.181ZM23.25,25.484H1.79v-.976l6.97-5.783,3.178,2.715a.9.9,0,0,0,1.163,0l3.178-2.715,6.971,5.783Zm.009-3.3-5.588-4.635,5.588-4.774Z" fill="#6b6b6b"/><path d="M20.534,4.9H4.508a.9.9,0,0,0-.9.9v6.168L5.4,13.5V6.7H19.634v6.8l1.8-1.54V5.8a.9.9,0,0,0-.9-.9" fill="#5686c5"/></svg>