<svg xmlns="http://www.w3.org/2000/svg" width="25.412" height="27.6" viewBox="0 0 25.412 27.6"><path d="M18.725,8.529a1.114,1.114,0,0,0-.019-.191.177.177,0,0,0-.011-.044,1.216,1.216,0,0,0-.045-.145c-.006-.016-.012-.032-.019-.048a1.137,1.137,0,0,0-.082-.154l-2.29-3.529-1.425-2.2L13.716.5a1.1,1.1,0,0,0-.911-.5H12.8a1.1,1.1,0,0,0-.91.485L10.72,2.222l-1.479,2.2L6.871,7.931a1.14,1.14,0,0,0-.089.165l-.021.05a1.115,1.115,0,0,0-.047.152.135.135,0,0,1-.009.033,1.137,1.137,0,0,0-.019.193v10.42H8.878v-9.3h2.73v9.3H13.8v-9.3h2.73v9.3h2.194V8.529M9.843,7.447l2.04-3.029h1.759l1.966,3.029Z" transform="translate(-0.001)" fill="#5686c5"/><path d="M24.313,2.22v0H14.835l1.423,2.2h6.958v14.52H2.194V4.418H9.238l1.479-2.2H1.1A1.1,1.1,0,0,0,0,3.318V20.041a1.1,1.1,0,0,0,1.1,1.1H8.866L7.749,25.4H5.319a1.1,1.1,0,0,0,0,2.2H20.093a1.1,1.1,0,0,0,0-2.2h-2.43l-1.118-4.259h7.768a1.1,1.1,0,0,0,1.1-1.1V3.32a1.1,1.1,0,0,0-1.1-1.1M10.017,25.4l1.118-4.259h3.142L15.392,25.4Z" transform="translate(-0.001)" fill="#6b6b6b"/></svg>