<svg xmlns="http://www.w3.org/2000/svg" width="32.262" height="25.621" viewBox="0 0 32.262 25.621"><path d="M17.087,10.669A6.009,6.009,0,1,0,8.035,8.913a4.2,4.2,0,0,0-5.293,6.47A5.774,5.774,0,0,0,0,20.272v3.594a1.649,1.649,0,0,0,0,.263,1.623,1.623,0,0,0,1.748,1.487h19v0a.918.918,0,0,0,.918-.918V18.142a8.438,8.438,0,0,0-4.587-7.473M5.741,10.062v0a2.369,2.369,0,0,1,2.239,1.6c-.1.079-.18.171-.273.254-.069.063-.136.126-.2.19a8.552,8.552,0,0,0-.6.637c-.049.059-.1.117-.146.177a8.341,8.341,0,0,0-.531.747c-.035.054-.071.108-.1.163a8.414,8.414,0,0,0-.439.836c-.024.054-.052.107-.076.161-.035.082-.08.158-.113.241a.917.917,0,0,0-.491-.381,2.37,2.37,0,0,1,.736-4.623m-3.9,10.2a3.921,3.921,0,0,1,3.076-3.816.913.913,0,0,0,.179-.058c-.033.154-.05.311-.074.467-.01.063-.022.125-.031.189a8.5,8.5,0,0,0-.08,1.093v5.637H1.841Zm18,3.512H6.747V18.142c0-.024,0-.048,0-.072a6.656,6.656,0,0,1,.084-.932c.014-.092.032-.182.05-.272a6.518,6.518,0,0,1,.221-.826c.015-.044.025-.09.041-.134a6.666,6.666,0,0,1,.418-.913c.028-.05.059-.1.088-.147a6.643,6.643,0,0,1,.488-.72c.035-.045.069-.091.105-.136A6.561,6.561,0,0,1,11.9,11.742.918.918,0,0,0,12,9.972a4.173,4.173,0,1,1,2.592,0,.918.918,0,0,0,.092,1.77,6.578,6.578,0,0,1,5.158,6.4Z" transform="translate(0 0)" fill="#6b6b6b"/><path d="M28.05,6.73a.883.883,0,1,0,.883.882.884.884,0,0,0-.883-.882" transform="translate(0 0)" fill="#5686c5"/><path d="M25.608,6.73a.883.883,0,1,0,.883.882.884.884,0,0,0-.883-.882" transform="translate(0 0)" fill="#5686c5"/><path d="M23.167,6.73a.883.883,0,1,0,.883.882.884.884,0,0,0-.883-.882" transform="translate(0 0)" fill="#5686c5"/><path d="M29.375,2.3H21.843a2.893,2.893,0,0,0-2.888,2.889v5.2a2.891,2.891,0,0,0,2.888,2.886H22l-.118.72a.919.919,0,0,0,.906,1.067l0,0a.916.916,0,0,0,.443-.114l3.037-1.673h3.1a2.891,2.891,0,0,0,2.888-2.889v-5.2A2.891,2.891,0,0,0,29.375,2.3m1.052,8.089a1.053,1.053,0,0,1-1.052,1.052H26.037a.916.916,0,0,0-.443.114L24,12.437c0-.025,0-.049,0-.074a.918.918,0,0,0-.918-.918H21.843a1.053,1.053,0,0,1-1.052-1.052V5.19a1.052,1.052,0,0,1,1.052-1.054h7.535a1.053,1.053,0,0,1,1.049,1.057Z" transform="translate(0 0)" fill="#5686c5"/></svg>