<svg xmlns="http://www.w3.org/2000/svg" width="28.456" height="24.722" viewBox="0 0 28.456 24.722"><path d="M20.659,14.828a.9.9,0,1,1,.9.913.909.909,0,0,1-.9-.913" transform="translate(0)" fill="#5686c5"/><path d="M20.968,0H1.525A1.512,1.512,0,0,0,.447.452,1.538,1.538,0,0,0,0,1.539L.01,23.183a1.535,1.535,0,0,0,.448,1.088,1.509,1.509,0,0,0,1.077.451L21.2,24.716a8.682,8.682,0,0,1-1.35-.95c-.034-.035-.066-.072-.1-.108h0l-.025-.028c-.227-.252-.2-.519-.387-.8H6.361l.032-10.6a.262.262,0,0,1,.09-.19.4.4,0,0,1,.275-.1H15.1a.778.778,0,0,1,.54.21.6.6,0,0,1,.194.441V15.4a7.013,7.013,0,0,1,1.866-1.9v-.923a2.482,2.482,0,0,0-.78-1.811,2.625,2.625,0,0,0-1.82-.719H6.757a2.24,2.24,0,0,0-1.55.613,2.165,2.165,0,0,0-.681,1.554L4.494,22.831H1.876L1.867,1.884h2.67a.888.888,0,0,0-.045.181L4.526,5.7A2.143,2.143,0,0,0,5.2,7.248a2.253,2.253,0,0,0,1.552.612H15.1a2.632,2.632,0,0,0,1.823-.724A2.481,2.481,0,0,0,17.7,5.329V2.061a.917.917,0,0,0-.044-.177h2.97V11.9a6.607,6.607,0,0,1,.878-.059h.207c.117,0,.224.013.318.021h.042c.142.012.282.028.422.049V1.539A1.533,1.533,0,0,0,20.968,0M15.831,2.061V5.329a.612.612,0,0,1-.193.442.781.781,0,0,1-.541.21H6.757a.4.4,0,0,1-.276-.1.259.259,0,0,1-.088-.191L6.361,2.048a.878.878,0,0,0-.042-.164h6.487V4.492a.933.933,0,1,0,1.866,0V1.884h1.2a.917.917,0,0,0-.044.177" transform="translate(0)" fill="#6b6b6b"/><path d="M24.388,11.2c-.184-.085-.371-.165-.564-.234a6.63,6.63,0,0,0-1.066-.278c-.207-.036-.415-.067-.627-.085-.12-.01-.239-.022-.36-.025-.069,0-.138-.005-.208-.005a6.742,6.742,0,0,0-4.6,1.814,7.13,7.13,0,0,0-2.257,4.585q-.031.333-.032.674c0,.227.011.458.032.683a7.133,7.133,0,0,0,1.8,4.107l.006.007c.041.046.081.092.124.137.016.017.034.032.05.049a6.8,6.8,0,0,0,4.231,2.059q.157.015.315.024c.111.006.222.009.335.009a6.7,6.7,0,0,0,1.673-.212A7.132,7.132,0,0,0,24.388,11.2m0,10.262a4.6,4.6,0,0,1-.566.382,4.867,4.867,0,0,1-1.691.564v.036h-.568a.72.72,0,0,1-.114-.006,4.512,4.512,0,0,1-.947-.125,4.751,4.751,0,0,1-3.54-3.86,4.6,4.6,0,0,1,0-1.612A4.754,4.754,0,0,1,20.5,12.98a4.511,4.511,0,0,1,1.061-.129c.07,0,.139.008.208.011.122,0,.241.017.36.032a4.615,4.615,0,0,1,.627.128,4.508,4.508,0,0,1,1.066.432,4.757,4.757,0,0,1,.564.38,4.862,4.862,0,0,1,0,7.63" transform="translate(0)" fill="#5686c5"/><path d="M20.63,20.652V17.276a.934.934,0,1,1,1.867,0v3.376a.934.934,0,0,1-1.867,0" transform="translate(0)" fill="#5686c5"/></svg>