<svg xmlns="http://www.w3.org/2000/svg" width="21.008" height="25.651" viewBox="0 0 21.008 25.651"><path d="M0,24.765a.887.887,0,0,0,.888.886H20.119a.887.887,0,0,0,.889-.885h0V.886A.887.887,0,0,0,20.12,0H8.926a.93.93,0,0,0-.158.016A.273.273,0,0,0,8.7.037a.835.835,0,0,0-.1.03c-.026.011-.049.026-.074.039a.9.9,0,0,0-.08.043A.943.943,0,0,0,8.313.26L.26,8.289a.911.911,0,0,0-.1.123c-.009.012-.016.025-.024.037a.746.746,0,0,0-.055.1c-.006.014-.013.027-.018.041a.958.958,0,0,0-.045.147A.894.894,0,0,0,0,8.9V24.765Zm19.23-.886H1.777V9.8H8.941a.887.887,0,0,0,.889-.885h0V1.772h9.4ZM5.543,5.527l2.509-2.5v5H3.034Z" transform="translate(0 0)" fill="#6b6b6b"/><rect width="13.791" height="1.541" transform="translate(3.801 20.552)" fill="#5686c5"/><path d="M11.5,11.475v5.982l2.29-2.285a.695.695,0,0,1,.984.981L11.3,19.619a.7.7,0,0,1-.984,0l-3.48-3.464a.7.7,0,0,1,.984-.982l2.289,2.281V11.475Z" transform="translate(0 0)" fill="#5686c5"/></svg>