<svg xmlns="http://www.w3.org/2000/svg" width="26.393" height="29.356" viewBox="0 0 26.393 29.356"><path d="M6.257,29.356H1.13A1.081,1.081,0,0,1,.051,28.273h0v-8.5a1.081,1.081,0,0,1,1.075-1.087H6.257a1.081,1.081,0,0,1,1.079,1.083v8.5a1.081,1.081,0,0,1-1.079,1.083M2.209,27.189H5.178V20.852H2.209Z" fill="#6b6b6b"/><path d="M15.784,29.356H10.658a1.081,1.081,0,0,1-1.079-1.083v-12.3a1.081,1.081,0,0,1,1.079-1.083h5.126a1.081,1.081,0,0,1,1.079,1.083v12.3A1.081,1.081,0,0,1,15.784,29.356Zm-4.047-2.167H14.7V17.057H11.737Z" fill="#6b6b6b"/><path d="M25.314,29.356H20.187a1.081,1.081,0,0,1-1.079-1.083V11.961a1.081,1.081,0,0,1,1.079-1.083h5.127a1.081,1.081,0,0,1,1.079,1.083V28.272a1.081,1.081,0,0,1-1.079,1.083m-4.048-2.167h2.969V13.044H21.266Z" fill="#6b6b6b"/><path d="M20.059,2.645l1.423,1.2C13.694,12.736,2.141,12.251,0,12.076v2c6.738.547,16.48-1.5,23-8.956l1.381,1.162L25.958,0Z" fill="#5686c5"/></svg>