<svg xmlns="http://www.w3.org/2000/svg" width="23.014" height="28.585" viewBox="0 0 23.014 28.585"><path d="M20.93.5H16.422A1.421,1.421,0,0,0,15.344,0H7.669A1.421,1.421,0,0,0,6.591.5H2.084A2.079,2.079,0,0,0,0,2.564V26.516a2.079,2.079,0,0,0,2.084,2.069H20.93a2.079,2.079,0,0,0,2.084-2.069V2.564A2.079,2.079,0,0,0,20.93.5M8.189,1.942h6.636V3.305H8.189Zm-6.105.5H6.233V3.821A1.433,1.433,0,0,0,7.669,5.247h7.675A1.433,1.433,0,0,0,16.78,3.821V2.437h4.15a.131.131,0,0,1,.128.127V24.057H1.956V2.564a.131.131,0,0,1,.128-.127M20.93,26.643H2.084a.131.131,0,0,1-.128-.127v-.759h19.1v.759a.131.131,0,0,1-.128.127" transform="translate(0 0)" fill="#6b6b6b"/><path d="M16.982,20.97a.853.853,0,0,1-.856-.85,4.356,4.356,0,0,0-3.467-4.506.848.848,0,0,1-.305-1.548,2.71,2.71,0,0,0,1.558-2.36,2.407,2.407,0,1,0-3.332,2.315.848.848,0,0,1-.225,1.594,4.356,4.356,0,0,0-3.469,4.506.856.856,0,0,1-1.711,0A6.139,6.139,0,0,1,8.416,14.5a4.128,4.128,0,1,1,7.208-2.789,3.932,3.932,0,0,1-1.078,2.762,6.13,6.13,0,0,1,3.292,5.653.853.853,0,0,1-.856.85" transform="translate(0 0)" fill="#5686c5"/></svg>