<svg xmlns="http://www.w3.org/2000/svg" width="28.343" height="23.121" viewBox="0 0 28.343 23.121"><path d="M25.27,23.121h-9.6V18.089a1.5,1.5,0,1,0-2.994,0v5.031h-9.6A3.076,3.076,0,0,1,0,20.048V6.991A3.076,3.076,0,0,1,3.073,3.918H7.563L12.827.408a2.417,2.417,0,0,1,2.689,0h0l5.264,3.51H25.27a3.076,3.076,0,0,1,3.073,3.073V20.048a3.076,3.076,0,0,1-3.073,3.073M17.9,20.892H25.27a.845.845,0,0,0,.844-.844V6.991a.845.845,0,0,0-.844-.844H20.106L14.28,2.263a.191.191,0,0,0-.216,0L8.237,6.147H3.073a.845.845,0,0,0-.844.844V20.048a.845.845,0,0,0,.844.844h7.372v-2.8a3.726,3.726,0,1,1,7.452,0Z" transform="translate(0 0)" fill="#6b6b6b"/><path d="M18.653,34.252h1.463a.734.734,0,0,1,.732.732v2.926a.734.734,0,0,1-.732.732H18.653a.734.734,0,0,1-.732-.732V34.984a.734.734,0,0,1,.732-.732" transform="translate(-13.483 -25.77)" fill="#6b6b6b"/><path d="M1.463,0h0A1.463,1.463,0,0,1,2.926,1.463V2.926A1.462,1.462,0,0,1,1.463,4.389h0A1.463,1.463,0,0,1,0,2.926V1.463A1.463,1.463,0,0,1,1.463,0Z" transform="translate(20.979 8.482)" fill="#6b6b6b"/><path d="M18.653,57.882h1.463a.734.734,0,0,1,.732.732v2.926a.734.734,0,0,1-.732.732H18.653a.734.734,0,0,1-.732-.732V58.614a.734.734,0,0,1,.732-.732" transform="translate(-13.483 -43.548)" fill="#6b6b6b"/><path d="M1.463,0h0A1.463,1.463,0,0,1,2.926,1.463V2.926A1.462,1.462,0,0,1,1.463,4.389h0A1.463,1.463,0,0,1,0,2.926V1.463A1.463,1.463,0,0,1,1.463,0Z" transform="translate(20.979 14.334)" fill="#6b6b6b"/><path d="M45,20.438a4.023,4.023,0,1,0,4.023,4.023A4.023,4.023,0,0,0,45,20.438m1.463,4.754H45a.734.734,0,0,1-.732-.732V23a.731.731,0,1,1,1.463,0v.732h.732a.731.731,0,1,1,0,1.463" transform="translate(-30.833 -15.377)" fill="#5686c5"/></svg>