<svg xmlns="http://www.w3.org/2000/svg" width="26.003" height="28" viewBox="0 0 26.003 28"><path d="M24.419,13.859c0-.121.006-.241.006-.361s0-.24-.006-.361l1.4-1.913a.938.938,0,0,0,.156-.756,13.649,13.649,0,0,0-.71-2.251.9.9,0,0,0-.558-.517L22.483,7c-.133-.2-.271-.394-.412-.583l.037-2.391A.928.928,0,0,0,21.8,3.32a13.278,13.278,0,0,0-1.859-1.394.873.873,0,0,0-.748-.082L17,2.616q-.328-.121-.668-.223L15,.438a.888.888,0,0,0-.652-.386,12.8,12.8,0,0,0-2.3,0,.885.885,0,0,0-.653.386L10.055,2.392c-.225.067-.447.141-.668.224l-2.2-.774a.869.869,0,0,0-.748.082A13.2,13.2,0,0,0,4.581,3.317a.93.93,0,0,0-.306.706l.037,2.391Q4.1,6.7,3.9,7l-2.22.7a.9.9,0,0,0-.558.517,13.634,13.634,0,0,0-.709,2.25.94.94,0,0,0,.156.757l1.4,1.914c0,.123-.006.242-.006.36s0,.237.006.36l-1.4,1.914a.938.938,0,0,0-.156.756,13.73,13.73,0,0,0,.709,2.25.9.9,0,0,0,.558.518l1.075.34c.489-.5.975-.994,1.438-1.464l-1.585-.5a11.7,11.7,0,0,1-.361-1.145L3.58,14.7a.935.935,0,0,0,.177-.6c-.012-.212-.018-.406-.018-.594s.006-.385.018-.594a.935.935,0,0,0-.177-.6L2.244,10.471a11.7,11.7,0,0,1,.361-1.145l2.124-.672a.9.9,0,0,0,.49-.384A9.666,9.666,0,0,1,5.9,7.313a.938.938,0,0,0,.2-.6L6.064,4.43a11.507,11.507,0,0,1,.949-.712l2.1.739a.866.866,0,0,0,.616-.015,8.967,8.967,0,0,1,1.092-.365.89.89,0,0,0,.507-.361L12.6,1.85a10.467,10.467,0,0,1,1.175,0l1.276,1.867a.893.893,0,0,0,.5.36,9.268,9.268,0,0,1,1.1.366.874.874,0,0,0,.615.014l2.1-.739a11.737,11.737,0,0,1,.949.712l-.035,2.285a.938.938,0,0,0,.2.6,9.872,9.872,0,0,1,.678.959.894.894,0,0,0,.489.382l2.123.672a11.7,11.7,0,0,1,.361,1.145L22.8,12.3a.935.935,0,0,0-.177.609c.012.2.018.395.018.589s-.006.393-.018.59a.935.935,0,0,0,.177.609l1.336,1.829a11.7,11.7,0,0,1-.361,1.145l-2.123.672a.894.894,0,0,0-.489.382,9.863,9.863,0,0,1-.677.959.938.938,0,0,0-.2.6l.035,2.284a11.5,11.5,0,0,1-.949.711l-2.1-.739a.863.863,0,0,0-.615.014,9.269,9.269,0,0,1-1.1.366.894.894,0,0,0-.506.36l-1.276,1.868a10.965,10.965,0,0,1-1.175,0L11.328,23.28a.894.894,0,0,0-.507-.361c-.149-.039-.3-.086-.447-.133-.526.576-1.11,1.213-1.7,1.846l.708-.249c.221.081.444.156.669.223l1.335,1.954a.888.888,0,0,0,.652.386c.392.035.778.052,1.149.052s.768-.017,1.15-.052A.886.886,0,0,0,15,26.56L16.332,24.6c.225-.067.447-.141.668-.223l2.2.774a.873.873,0,0,0,.748-.082,13.229,13.229,0,0,0,1.86-1.394.93.93,0,0,0,.306-.706l-.037-2.391q.214-.284.412-.583l2.223-.7a.9.9,0,0,0,.558-.517,13.649,13.649,0,0,0,.71-2.251.938.938,0,0,0-.156-.756Z" transform="translate(0 0)" fill="#6b6b6b"/><path d="M18.243,12.511l-.4-1.625-3.4,3.084H13.359v-.491L16.841,9.9l-1.825-.373c-2.649-.535-4.723-.144-6.165,1.162A6.778,6.778,0,0,0,6.9,15.432c-.487.491-1.518,1.532-2.708,2.741-.463.47-.949.965-1.438,1.464-.552.564-1.107,1.132-1.632,1.672a3.61,3.61,0,0,0-1,3.515,4.433,4.433,0,0,0,3.042,3.042A3.612,3.612,0,0,0,4.121,28a3.165,3.165,0,0,0,2.3-.979c.655-.674,1.456-1.527,2.255-2.39.586-.632,1.17-1.269,1.7-1.846.765-.838,1.4-1.547,1.743-1.921A6.916,6.916,0,0,0,17.3,18.138a7.58,7.58,0,0,0,.951-5.627m-2.57,4.451a5.268,5.268,0,0,1-4.107,1.909l-.385.032-.262.292c-.026.029-1.826,2.032-3.639,3.99C6.8,23.7,6.318,24.22,5.868,24.7c-.3.316-.584.615-.846.883A1.315,1.315,0,0,1,3.67,25.9a2.43,2.43,0,0,1-1.641-1.6,1.571,1.571,0,0,1,.492-1.547c.573-.59,1.183-1.213,1.786-1.829.487-.5.97-.988,1.427-1.452,1.571-1.6,2.828-2.861,2.849-2.882l.322-.328L8.878,15.8a5.008,5.008,0,0,1,1.29-3.584,3.779,3.779,0,0,1,2.468-.874l-1.258,1.3v3.375H15.2l1.2-1.09a4.4,4.4,0,0,1-.728,2.043" transform="translate(0 0)" fill="#5686c5"/></svg>