<svg xmlns="http://www.w3.org/2000/svg" width="31.467" height="31.467" viewBox="0 0 31.467 31.467"><path d="M43.194,51.333v-.174c0-1.191.626-1.922,1.6-1.922a1.623,1.623,0,0,1,1.634,1.826v.182c0,1.174-.652,1.939-1.634,1.939s-1.6-.7-1.6-1.852m2.148.008v-.278c0-.5-.191-.783-.547-.783-.323,0-.5.278-.5.783v.27c0,.548.166.791.5.791.391,0,.547-.252.547-.783m.1,4.583c-.348.5-1.2-.052-.852-.574l4.053-5.94c.33-.487,1.182.087.835.574Zm2.252-1.731v-.156c0-1.2.652-1.914,1.627-1.914a1.632,1.632,0,0,1,1.644,1.844v.157a1.687,1.687,0,0,1-1.644,1.913c-.991,0-1.627-.67-1.627-1.844m2.157.035v-.253c0-.556-.191-.8-.531-.8s-.513.243-.513.774v.261c0,.556.148.765.513.765s.531-.182.531-.748" transform="translate(-31.912 -36.368)" fill="#6b6b6b"/><path d="M66.427,0V6.414a7.7,7.7,0,0,1,7.7,7.7h6.415A14.115,14.115,0,0,0,66.427,0" transform="translate(-49.076 0)" fill="#5686c5"/><path d="M29.276,18.5H22.862a1.045,1.045,0,0,0-1.045,1.045,6.656,6.656,0,1,1-6.657-6.657,1.045,1.045,0,0,0,1.045-1.045V5.434A1.045,1.045,0,0,0,15.16,4.389,15.154,15.154,0,0,0,4.446,30.269h0A15.053,15.053,0,0,0,15.16,34.71a15.165,15.165,0,0,0,15.16-15.16A1.045,1.045,0,0,0,29.276,18.5M2.09,19.55A13.088,13.088,0,0,1,14.115,6.52v4.345a8.739,8.739,0,0,0-5.83,14.087L7.171,26.067,5.215,28.023A13.038,13.038,0,0,1,2.09,19.55m24.39,6.533A13.121,13.121,0,0,1,15.16,32.62,12.961,12.961,0,0,1,6.692,29.5L9.763,26.43a8.676,8.676,0,0,0,5.4,1.865,8.749,8.749,0,0,0,8.683-7.7h4.345a13.061,13.061,0,0,1-1.71,5.488" transform="translate(0 -3.242)" fill="#6b6b6b"/><rect width="31.467" height="31.467" transform="translate(0 0)" fill="none"/></svg>