<svg xmlns="http://www.w3.org/2000/svg" width="29.271" height="21.197" viewBox="0 0 29.271 21.197"><path d="M28.471.826A33.764,33.764,0,0,0,23.879.5a20.7,20.7,0,0,0-9.24,1.832A20.762,20.762,0,0,0,5.391.5,33.9,33.9,0,0,0,.8.825a.928.928,0,0,0-.8.923v16.7a.934.934,0,0,0,.318.7.916.916,0,0,0,.735.219,33.68,33.68,0,0,1,4.223-.259c2.725,0,6.471.33,8.847,1.93.012.008.026.011.037.018s.025.02.039.028a.931.931,0,0,0,.114.045c.025.009.048.021.074.028a.9.9,0,0,0,.248.037v0a.917.917,0,0,0,.26-.041c.013,0,.025-.011.037-.015a.869.869,0,0,0,.139-.054c.017-.009.03-.024.047-.034s.021-.008.031-.015c2.375-1.595,6.122-1.93,8.846-1.93a33.491,33.491,0,0,1,4.223.259.916.916,0,0,0,.735-.219.934.934,0,0,0,.318-.7V1.748a.928.928,0,0,0-.8-.922M1.848,17.408V2.569a31.3,31.3,0,0,1,3.543-.208,19.392,19.392,0,0,1,8.32,1.589V18.7a21.606,21.606,0,0,0-8.435-1.454c-1.409,0-2.621.083-3.428.159m25.577,0c-.808-.075-2.02-.159-3.429-.159A21.609,21.609,0,0,0,15.561,18.7V3.951a19.4,19.4,0,0,1,8.321-1.589,31.537,31.537,0,0,1,3.543.208Z" transform="translate(0)" fill="#6b6b6b"/><path d="M6.309,8.893a.927.927,0,0,1-.924-.93h0V.924a.924.924,0,1,1,1.848,0V7.965A.927.927,0,0,1,6.31,8.9h0" transform="translate(0)" fill="#5686c5"/><rect width="29.271" height="21.197" transform="translate(0)" fill="none"/></svg>