<svg xmlns="http://www.w3.org/2000/svg" width="30.939" height="29.041" viewBox="0 0 30.939 29.041"><path d="M28.27,0H2.669A2.673,2.673,0,0,0,0,2.669v19.9a2.673,2.673,0,0,0,2.67,2.669H14.344v1.554H8.967a1.125,1.125,0,1,0,0,2.25h13a1.125,1.125,0,1,0,0-2.25H16.593V25.237H28.27a2.672,2.672,0,0,0,2.669-2.669V2.669A2.672,2.672,0,0,0,28.27,0M2.669,2.25h25.6a.42.42,0,0,1,.419.42V17.951H2.249V2.669a.421.421,0,0,1,.42-.42m26.02,20.319a.42.42,0,0,1-.419.42H2.669a.421.421,0,0,1-.42-.42V20.2h26.44Z" transform="translate(0.001)" fill="#6b6b6b"/><path d="M52.085,75.01a1.146,1.146,0,1,0-1.146-1.146,1.146,1.146,0,0,0,1.146,1.146" transform="translate(-36.614 -52.27)" fill="#6b6b6b"/><path d="M45.7,20.181l-.793-.107a4.583,4.583,0,0,0-.319-.77l.485-.637a.572.572,0,0,0-.05-.748l-.976-.976a.571.571,0,0,0-.748-.05l-.637.485a4.54,4.54,0,0,0-.771-.32l-.107-.793a.575.575,0,0,0-.565-.494h-1.38a.572.572,0,0,0-.565.493l-.108.793a4.558,4.558,0,0,0-.771.32l-.637-.485a.572.572,0,0,0-.749.05l-.976.976a.572.572,0,0,0-.051.748l.485.637a4.579,4.579,0,0,0-.319.77l-.794.107a.572.572,0,0,0-.493.565v1.38a.572.572,0,0,0,.493.565l.794.107a4.567,4.567,0,0,0,.319.77l-.485.637a.572.572,0,0,0,.051.748l.976.976a.573.573,0,0,0,.748.05L38.4,25.5a4.564,4.564,0,0,0,.771.32l.107.793a.572.572,0,0,0,.565.494h1.38a.561.561,0,0,0,.191-.034.572.572,0,0,0,.374-.459l.107-.793a4.534,4.534,0,0,0,.771-.319l.637.485a.572.572,0,0,0,.748-.051l.976-.976a.572.572,0,0,0,.05-.748l-.485-.637a4.573,4.573,0,0,0,.32-.771l.793-.107a.572.572,0,0,0,.494-.565v-1.38a.572.572,0,0,0-.494-.565m-.646,1.447-.677.092a.571.571,0,0,0-.481.445,3.413,3.413,0,0,1-.472,1.137.571.571,0,0,0,.026.654l.414.544-.272.272-.544-.414a.572.572,0,0,0-.654-.025,3.419,3.419,0,0,1-.985.432c-.051.013-.1.029-.153.04a.571.571,0,0,0-.444.481l-.092.677h-.384l-.091-.677A.574.574,0,0,0,39.8,24.8a3.431,3.431,0,0,1-1.138-.472.571.571,0,0,0-.654.026l-.544.414-.272-.272.414-.544a.571.571,0,0,0,.026-.655,3.425,3.425,0,0,1-.472-1.137.57.57,0,0,0-.481-.445L36,21.628v-.384l.677-.092a.571.571,0,0,0,.48-.445,3.421,3.421,0,0,1,.472-1.137.571.571,0,0,0-.026-.654l-.414-.544.272-.272.544.414a.571.571,0,0,0,.655.026,3.41,3.41,0,0,1,1.137-.472.571.571,0,0,0,.445-.481l.009-.067.083-.61h.384l.083.61.009.067a.571.571,0,0,0,.445.481,3.41,3.41,0,0,1,1.137.472.571.571,0,0,0,.655-.026l.544-.414.272.272-.414.544a.571.571,0,0,0-.025.655,3.413,3.413,0,0,1,.472,1.137.572.572,0,0,0,.481.445l.677.092Z" transform="translate(-25.058 -11.335)" fill="#5686c5"/><path d="M48.184,26.419a2.671,2.671,0,1,0,2.671,2.671,2.674,2.674,0,0,0-2.671-2.671m0,4.313a1.642,1.642,0,1,1,1.641-1.642,1.643,1.643,0,0,1-1.641,1.642" transform="translate(-32.714 -18.99)" fill="#5686c5"/></svg>