<svg xmlns="http://www.w3.org/2000/svg" width="27.492" height="25.792" viewBox="0 0 27.492 25.792"><path d="M34.331,20.276v3.643a1.09,1.09,0,0,0,1.093,1.093h5.1a1.09,1.09,0,0,0,1.093-1.093V20.276a1.09,1.09,0,0,0-1.093-1.093h-5.1a1.09,1.09,0,0,0-1.093,1.093" transform="translate(-25.484 -14.24)" fill="#5686c5"/><path d="M73.672,25.7a.731.731,0,0,0,.729.729h2.186a.729.729,0,0,0,0-1.457H74.4a.731.731,0,0,0-.729.729" transform="translate(-54.688 -18.537)" fill="#6b6b6b"/><path d="M73.256,37.92a.774.774,0,0,0,.771.771h2.315a.771.771,0,0,0,0-1.543H74.027a.774.774,0,0,0-.771.771" transform="translate(-54.379 -27.577)" fill="#6b6b6b"/><path d="M34.331,55.885a.774.774,0,0,0,.771.771H47.447a.771.771,0,0,0,0-1.543H35.1a.774.774,0,0,0-.771.771" transform="translate(-25.484 -40.912)" fill="#6b6b6b"/><path d="M34.331,73.851a.774.774,0,0,0,.771.772H47.447a.771.771,0,1,0,0-1.543H35.1a.774.774,0,0,0-.771.771" transform="translate(-25.484 -54.249)" fill="#6b6b6b"/><path d="M23.955,0H7.193A3.54,3.54,0,0,0,3.657,3.536v18.72a3.527,3.527,0,0,0,.149,1.012A2.767,2.767,0,0,1,2.06,21.389V4.724A1.031,1.031,0,0,0,0,4.724v16.71c0,.021,0,.042,0,.063.091,1.483,1.734,4.288,6.323,4.288a1.018,1.018,0,0,0,.284-.045,3.532,3.532,0,0,0,.585.053H23.955a3.54,3.54,0,0,0,3.536-3.536V3.536A3.54,3.54,0,0,0,23.955,0m1.475,22.256a1.476,1.476,0,0,1-1.475,1.475H7.193a1.477,1.477,0,0,1-1.475-1.475V3.536A1.476,1.476,0,0,1,7.193,2.061H23.955a1.476,1.476,0,0,1,1.475,1.475Z" transform="translate(0.001)" fill="#6b6b6b"/></svg>