<svg xmlns="http://www.w3.org/2000/svg" width="30.664" height="28.783" viewBox="0 0 30.664 28.783"><path d="M28.019,0H2.646A2.649,2.649,0,0,0,0,2.646V22.368a2.649,2.649,0,0,0,2.646,2.645H14.217v1.54H8.888a1.115,1.115,0,0,0,0,2.23H21.776a1.115,1.115,0,0,0,0-2.23H16.447v-1.54H28.019a2.648,2.648,0,0,0,2.645-2.645V2.646A2.649,2.649,0,0,0,28.019,0M2.646,2.23H28.019a.416.416,0,0,1,.416.416V17.792H2.23V2.646a.417.417,0,0,1,.416-.416M28.434,22.368a.416.416,0,0,1-.416.416H2.646a.417.417,0,0,1-.416-.416V20.021h26.2Z" fill="#6b6b6b"/><path d="M52.075,74.989a1.136,1.136,0,1,0-1.136-1.136,1.136,1.136,0,0,0,1.136,1.136" transform="translate(-36.742 -52.451)" fill="#6b6b6b"/><path d="M45.586,17.959A3.642,3.642,0,0,0,41.944,21.6v2.727a3.642,3.642,0,1,0,7.284,0V21.6a3.642,3.642,0,0,0-3.642-3.642m.774,5.006H44.812V19.317H46.36Z" transform="translate(-30.256 -12.954)" fill="#5686c5"/></svg>