<svg xmlns="http://www.w3.org/2000/svg" width="34.102" height="28.423" viewBox="0 0 34.102 28.423"><path d="M2.97,42.575c.958,0,1.629,1.227.527,2.195H.57c-1.1-.968-.431-2.195.527-2.195Z" transform="translate(0 -31.945)" fill="#6b6b6b"/><path d="M7.835,23.342a1.353,1.353,0,0,1-.979,1.219h0L4.1,23.515c-.685-1.3.378-2.2,1.273-1.864l1.75.665a1.1,1.1,0,0,1,.708,1.026" transform="translate(-2.915 -16.191)" fill="#6b6b6b"/><path d="M12.662,61.664a1.1,1.1,0,0,1-.708,1.026l-2.243.852h0c-1.374-.516-1.18-1.9-.286-2.239l2.236-.85h0a1.324,1.324,0,0,1,1,1.21" transform="translate(-6.54 -45.36)" fill="#6b6b6b"/><path d="M121.4,42.575c-.958,0-1.629,1.227-.527,2.195H123.8c1.1-.968.431-2.195-.527-2.195Z" transform="translate(-90.265 -31.945)" fill="#6b6b6b"/><path d="M116.884,23.342a1.353,1.353,0,0,0,.979,1.219h0l2.752-1.045c.685-1.3-.378-2.2-1.273-1.864l-1.75.665a1.1,1.1,0,0,0-.708,1.026" transform="translate(-87.702 -16.191)" fill="#6b6b6b"/><path d="M112.07,61.664a1.1,1.1,0,0,0,.708,1.026l2.243.852h0c1.374-.516,1.18-1.9.286-2.239l-2.236-.85h0a1.324,1.324,0,0,0-1,1.21" transform="translate(-84.09 -45.36)" fill="#6b6b6b"/><path d="M42.776,22.343H34.651a.929.929,0,0,1-.929-.924c-.047-.389-.812-1.424-3.392-5.694-.158-.236-.31-.485-.453-.742l0,0-.018-.031a10.1,10.1,0,1,1,17.722-.016l-.009.018c-.147.268-.307.53-.474.78-2.247,3.718-3.33,5.19-3.39,5.69a.929.929,0,0,1-.929.924m-7.4-1.857h6.67c.331-.921,1.2-1.981,3.469-5.737.008-.013.016-.027.025-.04.138-.2.269-.419.391-.639l.008-.016a8.24,8.24,0,1,0-14.466-.018l.016.028c.123.223.254.439.39.64l.026.04c2.272,3.759,3.14,4.82,3.471,5.741" transform="translate(-21.472 0)" fill="#6b6b6b"/><path d="M55.453,97.614a4.532,4.532,0,0,1-4.527-4.527.874.874,0,0,1,.874-.874h7.306a.874.874,0,0,1,.874.874,4.533,4.533,0,0,1-4.527,4.527m-2.638-3.653a2.78,2.78,0,0,0,5.277,0Z" transform="translate(-38.212 -69.191)" fill="#6b6b6b"/><path d="M48.4,27.306a1,1,0,0,1-.994-.912c-.367-4.219,3.905-6.353,4.087-6.442a1,1,0,0,1,.878,1.794c-.047.024-3.222,1.639-2.976,4.475a1,1,0,0,1-.908,1.082c-.03,0-.059,0-.088,0" transform="translate(-35.553 -14.895)" fill="#5686c5"/></svg>