<svg xmlns="http://www.w3.org/2000/svg" width="30.784" height="26.46" viewBox="0 0 30.784 26.46"><path d="M29.7,4.446H21.621V1.081A1.082,1.082,0,0,0,20.537,0H10.243A1.082,1.082,0,0,0,9.159,1.081V4.446H1.084A1.082,1.082,0,0,0,0,5.527V25.379A1.082,1.082,0,0,0,1.084,26.46H29.7a1.082,1.082,0,0,0,1.084-1.081V5.527A1.082,1.082,0,0,0,29.7,4.446M2.3,6.608H28.449l-2.217,8.9H13.681v0H4.544l-2.217-8.9H2.3Zm9.027-2.162V2.162h8.126V4.47H11.327ZM2.168,13.784V13.8l0-.016ZM28.62,24.3H2.168V13.811l.717,2.88a.949.949,0,0,0,.92.718V17.4H26.974a.948.948,0,0,0,.92-.718l.717-2.879h0v0l.007.005Z" transform="translate(0 0)" fill="#6b6b6b"/><path d="M16.342,13.037l.356-1.146a6.044,6.044,0,0,1-2.91,0l.356,1.146h.114L13.109,20.47l2.134,2.445,2.134-2.445-1.15-7.433Z" transform="translate(0 0)" fill="#5686c5"/></svg>