<svg xmlns="http://www.w3.org/2000/svg" width="23.948" height="26" viewBox="0 0 23.948 26"><path d="M18.886,9.521v0h0a9.778,9.778,0,0,1-5.062,2.511l.688,8.068a7.843,7.843,0,0,0,1.517,1.28,8.529,8.529,0,0,0,2.857,1.132,8.035,8.035,0,0,0,2.857-1.133A7.842,7.842,0,0,0,23.259,20.1l.689-8.068a9.781,9.781,0,0,1-5.062-2.511" transform="translate(0 0)" fill="#5686c5"/><path d="M18.084,23v1.177H1.841V10.109H9.264a.918.918,0,0,0,.921-.913h0V1.828h7.9V8.89l1.841-.018V.914A.918.918,0,0,0,19.006,0H9.249a1,1,0,0,0-.164.016C9.06.023,9.036.032,9.012.04a.883.883,0,0,0-.1.03c-.025.01-.049.03-.075.039a.446.446,0,0,0-.083.044.92.92,0,0,0-.141.115L.27,8.549a.938.938,0,0,0-.1.126c-.009.013-.017.026-.025.039a.993.993,0,0,0-.057.107l-.019.042a.878.878,0,0,0-.046.151A.9.9,0,0,0,0,9.177V25.086A.918.918,0,0,0,.92,26H19a.918.918,0,0,0,.921-.913h0v-2.1ZM5.744,5.7l2.6-2.581V8.282h-5.2Z" transform="translate(0 0)" fill="#6b6b6b"/></svg>