<svg xmlns="http://www.w3.org/2000/svg" width="25.023" height="22.1" viewBox="0 0 25.023 22.1"><path d="M24.078,4.817,13.129.125a1.583,1.583,0,0,0-1.232,0L.947,4.817a1.565,1.565,0,0,0,.616,3V8.21A1.17,1.17,0,0,0,2.736,9.383H22.289A1.17,1.17,0,0,0,23.462,8.21V7.819a1.565,1.565,0,0,0,.616-3M12.512,7.888a1.915,1.915,0,1,1,1.915-1.915,1.915,1.915,0,0,1-1.915,1.915" transform="translate(0 0)" fill="#5686c5"/><rect width="2.254" height="10.136" transform="translate(3.822 10.88)" fill="#6b6b6b"/><rect width="2.254" height="10.136" transform="translate(8.863 10.88)" fill="#6b6b6b"/><rect width="2.254" height="10.136" transform="translate(13.905 10.88)" fill="#6b6b6b"/><rect width="2.254" height="10.136" transform="translate(18.947 10.88)" fill="#6b6b6b"/><path d="M25.484,89.613H3.671a.989.989,0,1,1,0-1.978H25.484a.989.989,0,0,1,0,1.978" transform="translate(-2.066 -67.513)" fill="#6b6b6b"/></svg>