<svg xmlns="http://www.w3.org/2000/svg" width="21.461" height="24.318" viewBox="0 0 21.461 24.318"><path d="M11.712,33.9a5.259,5.259,0,1,1-7.437-7.437L8.733,22,6.953,19.92l-4.61,4.61a7.992,7.992,0,0,0,11.3,11.3l3.719-3.719-1.78-2.085Z" transform="translate(0 -13.857)" fill="#6b6b6b"/><path d="M19.97,38.086A.842.842,0,0,1,18.779,36.9L22.6,33.074l-1.78-2.085-3.974,3.974A3.575,3.575,0,0,0,21.9,40.018l3.575-3.575L23.7,34.359Z" transform="translate(-10.99 -21.556)" fill="#6b6b6b"/><path d="M29.142,3.627a3.05,3.05,0,0,1,4.314,4.314L28.595,12.8l1.78,2.085,5.014-5.014A5.783,5.783,0,0,0,27.21,1.695L22.841,6.064l1.78,2.085Z" transform="translate(-15.888 -0.001)" fill="#5686c5"/><path d="M56.673,40.567a1.37,1.37,0,0,0-1.933,0l-3.546,3.546,1.78,2.085,3.7-3.7a1.37,1.37,0,0,0,0-1.933" transform="translate(-35.612 -27.941)" fill="#5686c5"/><path d="M37.279,20.047a1.37,1.37,0,0,0-1.933,0L32.293,23.1l1.78,2.085,3.206-3.206a1.37,1.37,0,0,0,0-1.933" transform="translate(-22.463 -13.667)" fill="#5686c5"/></svg>