<svg xmlns="http://www.w3.org/2000/svg" width="30.715" height="24.197" viewBox="0 0 30.715 24.197"><path d="M21.277,14.689H19.771a.727.727,0,0,1-.724-.731v-1.57a.728.728,0,0,1,.725-.731h1.506a.728.728,0,0,1,.725.731v1.571a.728.728,0,0,1-.725.731" transform="translate(0 -0.027)" fill="#6b6b6b"/><path d="M26.957,19.249a1.319,1.319,0,0,0-1.3-1.335h-.1a1.513,1.513,0,0,0,.737-1.305,1.469,1.469,0,0,0-2.937-.077c0,.026,0,.051,0,.077a1.513,1.513,0,0,0,.737,1.305H24a1.319,1.319,0,0,0-1.3,1.335V20.5a1.362,1.362,0,0,0,.01.156,4.064,4.064,0,0,0,4.241,0,1.361,1.361,0,0,0,.01-.156Z" transform="translate(0 -0.027)" fill="#5686c5"/><path d="M26.773,8.924h0V5.53a2.423,2.423,0,0,0-2.389-2.451H21.872V.9a.873.873,0,0,0-1.746,0V3.078H6.647V.9A.874.874,0,0,0,4.9.9V3.078H2.389A2.424,2.424,0,0,0,0,5.53V21.753A2.424,2.424,0,0,0,2.389,24.2H24.3a5.788,5.788,0,0,1-3.642-1.792l0,0H2.389a.652.652,0,0,1-.643-.66V9.819H25.027V12.21a5.684,5.684,0,0,1,1.746.33V8.926h0Zm-1.747-.9H1.746V5.53a.652.652,0,0,1,.643-.659H4.9V6.382a.873.873,0,1,0,1.746,0h0V4.87H20.125V6.382a.873.873,0,1,0,1.746,0V4.87h2.512a.652.652,0,0,1,.643.659Z" transform="translate(0 -0.027)" fill="#6b6b6b"/><path d="M26.773,12.532a5.712,5.712,0,0,0-1.746-.329H24.85a5.945,5.945,0,0,0-5.861,6.013,6.075,6.075,0,0,0,1.666,4.194A5.787,5.787,0,0,0,24.3,24.2c.182.017.366.027.553.027a5.945,5.945,0,0,0,5.861-6.013,6.015,6.015,0,0,0-3.937-5.679m0,9.247a3.869,3.869,0,0,1-1.922.511h-.1a4.079,4.079,0,0,1,.1-8.151c.06,0,.118.006.177.009a3.871,3.871,0,0,1,1.746.5,4.126,4.126,0,0,1,0,7.134" transform="translate(0 -0.027)" fill="#5686c5"/><path d="M7,14.689H5.5a.727.727,0,0,1-.724-.731v-1.57a.727.727,0,0,1,.724-.731H7a.728.728,0,0,1,.725.731v1.571a.728.728,0,0,1-.725.73" transform="translate(0 -0.027)" fill="#6b6b6b"/><path d="M14.139,14.689H12.633a.727.727,0,0,1-.724-.731v-1.57a.727.727,0,0,1,.724-.731h1.506a.728.728,0,0,1,.725.731v1.571a.728.728,0,0,1-.725.731" transform="translate(0 -0.027)" fill="#6b6b6b"/><path d="M7,20.155H5.5a.727.727,0,0,1-.724-.731v-1.57a.727.727,0,0,1,.724-.731H7a.728.728,0,0,1,.725.731v1.571a.728.728,0,0,1-.725.73" transform="translate(0 -0.027)" fill="#6b6b6b"/><path d="M14.139,20.155H12.633a.727.727,0,0,1-.724-.731v-1.57a.727.727,0,0,1,.724-.731h1.506a.728.728,0,0,1,.725.731v1.571a.728.728,0,0,1-.725.731" transform="translate(0 -0.027)" fill="#6b6b6b"/></svg>