<svg xmlns="http://www.w3.org/2000/svg" width="26.863" height="26.139" viewBox="0 0 26.863 26.139"><path d="M25.9,15.457a.969.969,0,0,1-.97-.968h0V2.3a.362.362,0,0,0-.361-.362H2.49a.362.362,0,0,0-.362.362V14.49a.97.97,0,1,1-1.94,0V2.3A2.3,2.3,0,0,1,2.488,0H24.563a2.3,2.3,0,0,1,2.3,2.3V14.49a.969.969,0,0,1-.969.969h0" transform="translate(0)" fill="#6b6b6b"/><path d="M8.2,13.471a3.415,3.415,0,1,1,3.419-3.415A3.415,3.415,0,0,1,8.2,13.471m0-4.893a1.478,1.478,0,1,0,1.48,1.478A1.478,1.478,0,0,0,8.2,8.578" transform="translate(0)" fill="#5686c5"/><path d="M5.432,26.139H5.4a.97.97,0,0,1-.935-1l.114-3.257-.714,1.375-.019.035a1.971,1.971,0,0,1-2.675.785l-.039-.022A2.07,2.07,0,0,1,.213,21.3c.085-.2.2-.489.352-.853.379-.925.953-2.324,1.743-4.181,1.23-2.892,2.643-3.109,3.162-3.084h4.2l5.671-2.85a2.081,2.081,0,0,1,2.832.8c.013.023.025.047.037.07a2.116,2.116,0,0,1-.839,2.872l-.035.019c-.6.319-3.716,2.016-4.935,2.679L12.152,25.2a.97.97,0,0,1-1.939-.057l.266-8.991a.97.97,0,0,1,.505-.822c.191-.1,4.689-2.554,5.425-2.947a.189.189,0,0,0,.112-.241A.21.21,0,0,0,16.5,12.1c-.044-.084-.09-.137-.282-.04l-5.876,2.953a.971.971,0,0,1-.436.1H5.443c-.193.063-.756.5-1.353,1.9C3.3,18.858,2.734,20.25,2.356,21.17q-.237.578-.368.892l-.024.053c-.049.1-.028.128-.008.154a.234.234,0,0,0,.177.093l.018-.03,2.682-5.161a.97.97,0,0,1,1.83.48L6.4,25.2a.97.97,0,0,1-.969.935M5.32,15.107h0" transform="translate(0)" fill="#6b6b6b"/><rect width="7.363" height="1.937" transform="translate(15.074 4.145)" fill="#6b6b6b"/><rect width="7.363" height="1.937" transform="translate(15.074 7.176)" fill="#6b6b6b"/></svg>