<svg xmlns="http://www.w3.org/2000/svg" xmlns:xlink="http://www.w3.org/1999/xlink" width="179.514" height="61.578" viewBox="0 0 179.514 61.578"><defs><clipPath id="a"><rect width="179.514" height="61.578" fill="none"/></clipPath></defs><g clip-path="url(#a)"><path d="M13.662,19.82c-1.24,2.944-5.183,7.87-5.183,7.87-2.047,2.689-4.47,6.063-5.325,10.522C1.35,50.554,9.033,56.912,13.744,58.7A16.727,16.727,0,0,1,5.075,40.922c.764-3.785,2.792-7.674,7.4-12.62,0,0,5.433-5.654,6.167-10.568A17.289,17.289,0,0,0,11.049,0a18.889,18.889,0,0,1,2.614,19.82" fill="#64a91c"/><path d="M20.341,21.692c-1.608,3.842-5.821,7.694-5.821,7.694-6.651,6.4-7.505,10.2-7.505,10.2a16.172,16.172,0,0,0,1.623,13.5,14.269,14.269,0,0,0,8.734,6.31A11.5,11.5,0,0,1,9.6,49.294c-.282-3.816,1.861-8.647,8.052-13.511a34.249,34.249,0,0,0,5.546-5.61,18.6,18.6,0,0,0,3.5-8.367,19.9,19.9,0,0,0-1.143-9.765A21.2,21.2,0,0,0,20.04,3.748c4.713,9.078.3,17.944.3,17.944" fill="#b0bcc2"/><path d="M43.374,41.787V20.632h-8.4V44.221c-.024,1.639-.168,3.468-.168,3.468a11.162,11.162,0,0,1-.869,3.832,13.1,13.1,0,0,1-4.95,6.016c-8.764,5.9-17.527,1.02-17.527,1.02,10.955,6.484,21.615.509,21.615.509,7.5-4.339,9.549-10.245,10.1-13.42a29.857,29.857,0,0,0,.2-3.859" fill="#003288"/><path d="M9.755,57.217A18.98,18.98,0,0,1,2.7,47.522a22.451,22.451,0,0,1-.714-10.213,26.439,26.439,0,0,1,2.531-7.23,40.318,40.318,0,0,1,2.928-4.416A40.078,40.078,0,0,0,9.919,21.8,12.507,12.507,0,0,0,8.911,7.876s2.186,5.645-.668,10.9c0,0-1.343,2.3-2.8,4.475,0,0-3.2,4.631-4.142,7.773a23.011,23.011,0,0,0-.726,12.83S2.091,53,9.755,57.217" fill="#0099e7"/><path d="M18.5,56.778V54.147h-.518v-.359h1.044v2.99Z" fill="#003288"/><path d="M21.207,54.7a.777.777,0,0,0-.1-.456.385.385,0,0,0-.332-.144.358.358,0,0,0-.314.142.85.85,0,0,0-.1.462.824.824,0,0,0,.1.464.457.457,0,0,0,.653-.011.817.817,0,0,0,.1-.457m-.095.783a.747.747,0,0,1-.225.114.829.829,0,0,1-.253.036.766.766,0,0,1-.6-.211,1.368,1.368,0,0,1,.044-1.445.951.951,0,0,1,.713-.24.907.907,0,0,1,.7.254,1.106,1.106,0,0,1,.23.764,2.061,2.061,0,0,1-.191.839,6.866,6.866,0,0,1-.753,1.181h-.612c.267-.334.469-.595.6-.781s.251-.354.346-.512" fill="#003288"/><path d="M22.2,56.32a1.336,1.336,0,0,0,.272.1,1.2,1.2,0,0,0,.284.034.767.767,0,0,0,.56-.184.727.727,0,0,0,.188-.546.475.475,0,0,0-.192-.412.982.982,0,0,0-.571-.137c-.1,0-.189,0-.262.009a2.165,2.165,0,0,0-.217.031l.277-1.43H24v.366H22.979l-.164.73c.055-.008.1-.013.149-.017s.085,0,.118,0a.98.98,0,0,1,.69.241.824.824,0,0,1,.261.638,1,1,0,0,1-.319.792,1.282,1.282,0,0,1-.887.285,2.133,2.133,0,0,1-.4-.035,2.063,2.063,0,0,1-.376-.106Z" fill="#003288"/><path d="M24.483,56.778,25.6,55.192a2.321,2.321,0,0,0,.222-.386.822.822,0,0,0,.073-.319.414.414,0,0,0-.093-.295.39.39,0,0,0-.293-.1.364.364,0,0,0-.311.126.762.762,0,0,0-.093.432v.1H24.58a.25.25,0,0,1-.006-.058v-.093a.814.814,0,0,1,.242-.644,1.055,1.055,0,0,1,.724-.216,1.084,1.084,0,0,1,.686.2.658.658,0,0,1,.249.543,1.024,1.024,0,0,1-.1.419,2.641,2.641,0,0,1-.327.515l-.757.978h1.095v.38Z" fill="#003288"/><path d="M25.8,46.975v3.6a1.168,1.168,0,0,0,.487,1.046,2.813,2.813,0,0,0,1.537.327,2.85,2.85,0,0,0,1.54-.327,1.17,1.17,0,0,0,.485-1.046v-3.6H28.819v3.654a.586.586,0,0,1-.243.522,1.8,1.8,0,0,1-1.51,0,.584.584,0,0,1-.249-.522V46.975Z" fill="#003288"/><path d="M15.313,51.958a1.869,1.869,0,0,0,1.21-.328,1.24,1.24,0,0,0,.393-1.011V46.975H15.881v3.664a.682.682,0,0,1-.182.524.837.837,0,0,1-.574.168,1.6,1.6,0,0,1-.437-.068,2.3,2.3,0,0,1-.472-.2v.681a2.5,2.5,0,0,0,.535.164,2.826,2.826,0,0,0,.563.054" fill="#003288"/><path d="M21.164,47.57v-.6H18.092V51.89h3.072v-.617H19.126V49.612h1.865v-.584H19.126V47.57Z" fill="#003288"/><path d="M24.239,51.631a1.238,1.238,0,0,0,.392-1.011V46.975H23.6v3.664a.683.683,0,0,1-.183.524.836.836,0,0,1-.574.168,1.627,1.627,0,0,1-.439-.068,2.251,2.251,0,0,1-.472-.2v.681a2.657,2.657,0,0,0,.537.164,2.788,2.788,0,0,0,.564.054,1.856,1.856,0,0,0,1.208-.328" fill="#003288"/><path d="M22.61,45.393a1.923,1.923,0,0,0,.895-.3l5.21.362V38.748l-.543-.033.241.38v6.078L23.4,44.853a1.47,1.47,0,0,1-1.745,0l-5.008.321V39.1l.239-.38-.544.033v6.709l5.211-.362a1.909,1.909,0,0,0,.893.3,1.288,1.288,0,0,0,.163,0" fill="#b0bcc2"/><path d="M17.449,38.334c-.116.182-.515.809-.527.827v5.45c.117-.192.517-.859.527-.875Z" fill="#b0bcc2"/><path d="M21.715,44.566l.014.014a1.164,1.164,0,0,0,.593.276,1.151,1.151,0,0,0-.584-.861,3.631,3.631,0,0,0-1.649-.284c-.344,0-.713.021-1.132.061s-.833.1-1.27.179c-.018.03-.481.8-.552.918l4.579-.3" fill="#b0bcc2"/><path d="M28.137,39.161l-.526-.827v5.4c.011.016.409.683.526.875Z" fill="#b0bcc2"/><path d="M23.319,43.995a1.151,1.151,0,0,0-.585.861,1.16,1.16,0,0,0,.594-.276l.015-.014,4.579.3c-.071-.116-.533-.888-.551-.918-.437-.078-.864-.138-1.271-.179s-.788-.061-1.132-.061a3.63,3.63,0,0,0-1.649.284" fill="#b0bcc2"/><path d="M26.093,37.759a10.609,10.609,0,0,0-1.168-.066l-.522.022-.4.06a2.116,2.116,0,0,0-.725.281l-.056.044-.025.017a1.8,1.8,0,0,0-.507.536v5.472a1.273,1.273,0,0,1,.277-.269,3.214,3.214,0,0,1,1.317-.412l.023,0,.026,0a7.717,7.717,0,0,1,.973-.034l.722.051c.365.035.79.09,1.262.16V37.952c-.41-.086-.814-.15-1.2-.192m.526,1.212a2.614,2.614,0,0,1-1.527,1.474s.2.048.664.6a1.919,1.919,0,0,0,.606.5s-.656,1.292-.721,1.444a2.862,2.862,0,0,1-.81-1.275.231.231,0,0,0-.228-.12s-.521.058-.734.076a.191.191,0,0,1-.212,0l-.077-.081s-.018,0-.051-.024a.172.172,0,0,1-.071-.124.134.134,0,0,1,.043-.11,7.7,7.7,0,0,0,1.031-.814s-.009.03.039-.092a1.657,1.657,0,0,1-.416-.173s-.184-.125-.179-.287l.044,0s0,.2.377.311a.824.824,0,0,1-.123-.276.18.18,0,0,1,.053-.012s.106.319.288.326c0,0,.356-.218.383-.465,0,0-.148-.091-.208-.462l.049-.028s.059.352.234.342c0,0,.159,0,.257-.3a1.45,1.45,0,0,0,.078-.488,1.743,1.743,0,0,0-.037-.238l.037-.059a1.072,1.072,0,0,1,.048.181.758.758,0,0,1,.14-.36l.032.018a.641.641,0,0,0-.085.4,1.8,1.8,0,0,1-.117.633,2.641,2.641,0,0,1-.591.881,5.232,5.232,0,0,0,.722-.352s.216-.133.242-.593h.056a.969.969,0,0,1-.007.374,1.577,1.577,0,0,0,.66-.8.5.5,0,0,0-.015-.327l.024-.03a.577.577,0,0,1,.079.226.414.414,0,0,1,.246-.224l.014.034a.607.607,0,0,0-.238.308" fill="#b0bcc2"/><path d="M21.858,38.116l-.022-.017-.057-.043a2.1,2.1,0,0,0-.723-.281l-.4-.06-.519-.022a10.561,10.561,0,0,0-1.168.066c-.387.042-.79.106-1.2.192v5.663c.473-.071.9-.125,1.262-.16l.725-.051a7.659,7.659,0,0,1,.968.034l.03,0,.027,0a3.2,3.2,0,0,1,1.314.414,1.233,1.233,0,0,1,.276.268V38.652a1.8,1.8,0,0,0-.51-.536m-.726,4.568H19.1a4.573,4.573,0,0,0-.314-2.427c.425-.478.965-1.182,1.2-1.5v1.9a.32.32,0,1,0,.237,0V38.742c.231.307.783,1.028,1.216,1.515a4.568,4.568,0,0,0-.313,2.427" fill="#b0bcc2"/><path d="M132.29,27.777c0,2.937,3.046,5.323,6.8,5.323s6.809-2.386,6.809-5.323a4.812,4.812,0,0,0-2.026-3.787h2.591V21.906h-5.284V19.5H137.01v2.4h-5.283V23.99h2.581a4.832,4.832,0,0,0-2.019,3.787m6.8-3.357a3.151,3.151,0,0,1,2.893,3.357,2.923,2.923,0,1,1-5.781,0,3.148,3.148,0,0,1,2.888-3.357m-6.016,29.266H134.3v-4.3l2.551,4.3h1.207V47.54h-1.22v4.273l-2.562-4.273h-1.2Zm-19.866-1.208H115.4l.462,1.208h1.311l-2.25-6.147H113.7l-2.251,6.147h1.31Zm1.1-3.344.863,2.66h-1.733Zm-6.3-13.956a3.064,3.064,0,0,0,2.081.664h5.541a6.55,6.55,0,0,0,1.928-.236c.526-.158,1-.312,1.657-.569V43.22h3.909V28.56h1.841V43.22h3.911V20.133h-3.911V26.41h-1.841V20.133h-3.909V33.1a11.117,11.117,0,0,1-1.6.44,9.126,9.126,0,0,1-1.836.159h-4.473V23.142h5.894V21h-9.956V33.4a2.247,2.247,0,0,0,.762,1.783m44.912-7.258h3.354V25.775h-3.354V20.094H148.8V33.782h4.127ZM68.255,47.54v4.5a1.462,1.462,0,0,0,.606,1.307,4.717,4.717,0,0,0,3.85,0,1.468,1.468,0,0,0,.6-1.307v-4.5H72.033v4.572a.718.718,0,0,1-.3.646,1.649,1.649,0,0,1-.946.211,1.672,1.672,0,0,1-.944-.211.718.718,0,0,1-.308-.646V47.54Zm57.973,0v4.5a1.462,1.462,0,0,0,.606,1.307,4.706,4.706,0,0,0,3.845,0,1.46,1.46,0,0,0,.611-1.307v-4.5h-1.279v4.572a.735.735,0,0,1-.306.646,1.661,1.661,0,0,1-.943.211,1.686,1.686,0,0,1-.95-.211.716.716,0,0,1-.306-.646V47.54Zm50.687,0-.813,1.723c-.067.153-.129.31-.183.463a5.264,5.264,0,0,0-.148.517c-.054-.208-.111-.4-.172-.566a3.248,3.248,0,0,0-.165-.422l-.8-1.715h-1.342l1.81,3.531v2.616h1.335V51.07l1.832-3.531Zm-58.615,0v6.147h4.076v-.771h-2.786V47.54Zm61.214-7.645h-8.691V30.56h-3.977v9.335H164.8V30.56h-3.978v9.335h-3.884v2.118h22.58ZM173,30.227q0,2.6-.165,4.266a6.362,6.362,0,0,1-.964,2.874h3.642a8.681,8.681,0,0,0,1.144-2.82,17.988,17.988,0,0,0,.412-4.042V21.131H158.8v2.146H173ZM155.741,47.54h-1.554v6.147h1.294v-3h.035l2.2,3h1.39l-2.3-3.026a2.434,2.434,0,0,0,1.365-.45,1.324,1.324,0,0,0,.453-1.063,1.3,1.3,0,0,0-.663-1.236,4.883,4.883,0,0,0-2.228-.371M157,49.971a2.033,2.033,0,0,1-1.128.239h-.39V48.272h.349a2.551,2.551,0,0,1,1.179.188.742.742,0,0,1,.312.687.944.944,0,0,1-.323.824m14.115,3.715V48.313H172.9V47.54h-4.878v.773h1.783v5.373Zm-8.619-.948a1.754,1.754,0,0,1-.944.221,3.446,3.446,0,0,1-.725-.087,5.387,5.387,0,0,1-.854-.265v.843a5.4,5.4,0,0,0,.854.232,4.671,4.671,0,0,0,.82.076,3.255,3.255,0,0,0,1.8-.457,1.356,1.356,0,0,0,.706-1.164,1.305,1.305,0,0,0-.343-.889,3.979,3.979,0,0,0-1.168-.819c-.038-.023-.108-.056-.2-.1-.943-.48-1.417-.9-1.417-1.259a.7.7,0,0,1,.369-.61,1.857,1.857,0,0,1,.979-.231,3.359,3.359,0,0,1,.706.082,4.552,4.552,0,0,1,.731.252v-.824a4.253,4.253,0,0,0-.82-.213,5.268,5.268,0,0,0-.857-.068,2.993,2.993,0,0,0-1.708.461,1.362,1.362,0,0,0-.692,1.161,1.279,1.279,0,0,0,.339.866,4.308,4.308,0,0,0,1.2.836c.047.029.131.072.238.127.885.468,1.327.877,1.327,1.238a.679.679,0,0,1-.342.594m3.06.948h1.295V47.54h-1.295Zm-73.085,0V48.313h1.783V47.54H89.376v.773h1.788v5.373Zm60.184-5.4V47.54h-3.838v6.147h3.838v-.771H150.11V50.842h2.327v-.73H150.11V48.282Zm-11.437-.743h-1.291v6.147h1.291Zm2.483,0h-1.318l2.113,6.147h1.094L147.7,47.54H146.4l-1.347,4.172ZM152.927,34.8H134.048v2.119H148.8v6.258h4.127ZM57.272,31.884a6.189,6.189,0,0,1-3.808,2.877l1.9,1.453a6.678,6.678,0,0,0,3.454-1.649A5.414,5.414,0,0,0,60.8,31.7a5.655,5.655,0,0,0,2.008,2.87,6.588,6.588,0,0,0,3.409,1.649l1.836-1.4v8.4H71.94V20.133H68.057v6.312h-3.4v2.149h3.4v5.916a5.926,5.926,0,0,1-3.734-2.647,10,10,0,0,1-1.5-5.552V23.006h3.34V20.889H55.15v2.117H58.76v3.305a10.112,10.112,0,0,1-1.488,5.573M77.86,47.54v6.147h1.228v-4.3l2.542,4.3h1.213V47.54H81.619v4.273l-2.56-4.273ZM54.9,53.77a2.312,2.312,0,0,0,1.508-.407,1.55,1.55,0,0,0,.5-1.264V47.54h-1.3v4.579a.868.868,0,0,1-.223.656,1.054,1.054,0,0,1-.72.212,2.031,2.031,0,0,1-.554-.08,3.166,3.166,0,0,1-.583-.26V53.5a3.441,3.441,0,0,0,.666.207,3.713,3.713,0,0,0,.708.066m22.55-33.637H73.561V43.219h3.891ZM62.541,48.282V47.54H58.7v6.147h3.837v-.771H60V50.842h2.325v-.73H60V48.282ZM87.48,27.425a11.162,11.162,0,0,1-6.1,1.936l1.616,1.621a15.952,15.952,0,0,0,5.8-1.17,6.858,6.858,0,0,0,3.691-2.85A7.106,7.106,0,0,0,96.2,29.8a15.669,15.669,0,0,0,5.766,1.184l1.62-1.621A11.184,11.184,0,0,1,97.5,27.425q-2.94-1.906-2.939-4.443v-.144h7.284V20.689H83.122v2.149H90.4v.144q0,2.535-2.919,4.443m15.656,25.6a3.663,3.663,0,0,0,.636-2.417,3.668,3.668,0,0,0-.636-2.423,2.629,2.629,0,0,0-2.086-.732,2.67,2.67,0,0,0-2.092.732,3.672,3.672,0,0,0-.639,2.423,3.635,3.635,0,0,0,.639,2.417,3.361,3.361,0,0,0,4.178,0m-3.176-.6a3.625,3.625,0,0,1-.338-1.84,3.679,3.679,0,0,1,.328-1.836,1.4,1.4,0,0,1,2.191,0,3.747,3.747,0,0,1,.321,1.841,3.856,3.856,0,0,1-.315,1.867,1.159,1.159,0,0,1-1.082.507,1.186,1.186,0,0,1-1.106-.535m9.172,1.252h1.208V47.54h-1.227v4.273l-2.554-4.273h-1.2v6.147h1.224v-4.3Zm-25.182,0h1.313l.445-1.208h2.2l.455,1.208H89.67L87.419,47.54H86.2Zm3.73-1.891H85.945l.869-2.66ZM95.4,53.686H96.7V47.54H95.4ZM90.432,43.22h4.129v-8h9.762V33.1H80.645v2.116h9.787ZM65.992,53.363a1.556,1.556,0,0,0,.487-1.264V47.54h-1.29v4.579a.839.839,0,0,1-.228.656,1.04,1.04,0,0,1-.723.212,1.988,1.988,0,0,1-.542-.08,3.07,3.07,0,0,1-.588-.26V53.5a3.423,3.423,0,0,0,.667.207,3.667,3.667,0,0,0,.7.066,2.345,2.345,0,0,0,1.513-.407" fill="#5f5e5e"/></g></svg>