<svg id="로고" xmlns="http://www.w3.org/2000/svg" xmlns:xlink="http://www.w3.org/1999/xlink" width="74.844" height="89.95" viewBox="0 0 74.844 89.95">
  <defs>
    <clipPath id="clip-path">
      <rect id="사각형_1" data-name="사각형 1" width="74.844" height="89.95" fill="none"/>
    </clipPath>
  </defs>
  <g id="그룹_2" data-name="그룹 2">
    <g id="그룹_1" data-name="그룹 1" clip-path="url(#clip-path)">
      <path id="패스_2" data-name="패스 2" d="M29.261,20.321C28,23.34,23.99,28.39,23.99,28.39c-2.082,2.757-4.546,6.216-5.415,10.788-1.836,12.653,5.978,19.172,10.769,21.008a17.182,17.182,0,0,1-8.815-18.229c.777-3.881,2.839-7.868,7.523-12.938,0,0,5.525-5.8,6.271-10.835A17.8,17.8,0,0,0,26.6,0a19.494,19.494,0,0,1,2.658,20.321" fill="#64a91c"/>
      <path id="패스_3" data-name="패스 3" d="M36.053,22.24c-1.635,3.939-5.92,7.888-5.92,7.888C23.369,36.694,22.5,40.589,22.5,40.589a16.7,16.7,0,0,0,1.651,13.846,14.514,14.514,0,0,0,8.882,6.47,11.769,11.769,0,0,1-7.9-10.366c-.287-3.913,1.892-8.865,8.189-13.852a34.967,34.967,0,0,0,5.64-5.752,19.146,19.146,0,0,0,3.561-8.578,20.555,20.555,0,0,0-1.162-10.012,21.75,21.75,0,0,0-5.611-8.5c4.793,9.307.306,18.4.306,18.4" fill="#b0bcc2"/>
      <path id="패스_4" data-name="패스 4" d="M59.477,42.842V21.153H50.935V45.337c-.025,1.68-.171,3.556-.171,3.556a11.519,11.519,0,0,1-.884,3.929,13.4,13.4,0,0,1-5.034,6.168c-8.913,6.05-17.825,1.046-17.825,1.046C38.162,66.684,49,60.558,49,60.558c7.631-4.449,9.711-10.5,10.273-13.759a30.856,30.856,0,0,0,.2-3.957" fill="#003288"/>
      <path id="패스_5" data-name="패스 5" d="M25.287,58.662a19.434,19.434,0,0,1-7.174-9.939,23.2,23.2,0,0,1-.726-10.471,27.255,27.255,0,0,1,2.574-7.413,41.329,41.329,0,0,1,2.977-4.528,41.209,41.209,0,0,0,2.516-3.962A12.909,12.909,0,0,0,24.429,8.075s2.224,5.787-.68,11.178c0,0-1.365,2.355-2.848,4.588,0,0-3.259,4.748-4.213,7.97a23.771,23.771,0,0,0-.738,13.154s1.542,9.376,9.337,13.7" fill="#0099e7"/>
      <path id="패스_6" data-name="패스 6" d="M34.176,58.212v-2.7h-.527v-.368h1.062v3.066Z" fill="#003288"/>
      <path id="패스_7" data-name="패스 7" d="M36.934,56.083a.8.8,0,0,0-.106-.468.39.39,0,0,0-.338-.148.363.363,0,0,0-.319.146.876.876,0,0,0-.1.474.849.849,0,0,0,.1.475.462.462,0,0,0,.664-.011.844.844,0,0,0,.1-.469m-.1.8a.759.759,0,0,1-.229.117.837.837,0,0,1-.257.037.775.775,0,0,1-.614-.216,1.413,1.413,0,0,1,.045-1.482.963.963,0,0,1,.726-.246.918.918,0,0,1,.712.26,1.14,1.14,0,0,1,.234.783,2.129,2.129,0,0,1-.194.861,7.069,7.069,0,0,1-.766,1.211h-.623c.271-.343.477-.61.613-.8s.255-.363.352-.525" fill="#003288"/>
      <path id="패스_8" data-name="패스 8" d="M37.942,57.742a1.357,1.357,0,0,0,.276.106,1.211,1.211,0,0,0,.289.035.777.777,0,0,0,.569-.189.748.748,0,0,0,.192-.56.488.488,0,0,0-.2-.422.991.991,0,0,0-.581-.141c-.1,0-.192,0-.267.01a2.226,2.226,0,0,0-.221.031l.281-1.466h1.491v.376H38.736l-.166.748c.055-.008.106-.013.152-.017s.086,0,.12,0a.991.991,0,0,1,.7.247.848.848,0,0,1,.265.654,1.03,1.03,0,0,1-.324.812,1.3,1.3,0,0,1-.9.292,2.146,2.146,0,0,1-.4-.036,2.036,2.036,0,0,1-.382-.109Z" fill="#003288"/>
      <path id="패스_9" data-name="패스 9" d="M40.265,58.212,41.4,56.585a2.367,2.367,0,0,0,.226-.4.85.85,0,0,0,.074-.327.428.428,0,0,0-.094-.3.4.4,0,0,0-.3-.1.369.369,0,0,0-.316.13.789.789,0,0,0-.094.443v.107h-.534a.267.267,0,0,1-.006-.059v-.1a.838.838,0,0,1,.246-.66,1.068,1.068,0,0,1,.736-.221,1.1,1.1,0,0,1,.7.2.677.677,0,0,1,.253.556,1.06,1.06,0,0,1-.1.429,2.711,2.711,0,0,1-.333.528l-.77,1H42.2v.389Z" fill="#003288"/>
      <path id="패스_10" data-name="패스 10" d="M41.6,48.161v3.691a1.2,1.2,0,0,0,.5,1.072,2.841,2.841,0,0,0,1.563.335,2.876,2.876,0,0,0,1.566-.335,1.2,1.2,0,0,0,.493-1.072V48.161H44.674v3.746a.6.6,0,0,1-.247.536,1.818,1.818,0,0,1-1.536,0,.6.6,0,0,1-.253-.536V48.161Z" fill="#003288"/>
      <path id="패스_11" data-name="패스 11" d="M30.94,53.27a1.891,1.891,0,0,0,1.231-.336,1.277,1.277,0,0,0,.4-1.036V48.161H31.517v3.757a.7.7,0,0,1-.185.538.847.847,0,0,1-.584.172,1.6,1.6,0,0,1-.445-.069,2.342,2.342,0,0,1-.48-.21v.7a2.535,2.535,0,0,0,.544.168,2.864,2.864,0,0,0,.572.056" fill="#003288"/>
      <path id="패스_12" data-name="패스 12" d="M36.89,48.771v-.611H33.766V53.2H36.89v-.632H34.817v-1.7h1.9v-.6h-1.9V48.771Z" fill="#003288"/>
      <path id="패스_13" data-name="패스 13" d="M40.017,52.934a1.275,1.275,0,0,0,.4-1.036V48.161h-1.05v3.757a.7.7,0,0,1-.187.537.846.846,0,0,1-.584.172,1.642,1.642,0,0,1-.446-.07,2.268,2.268,0,0,1-.481-.21v.7a2.692,2.692,0,0,0,.546.168,2.815,2.815,0,0,0,.574.056,1.878,1.878,0,0,0,1.229-.336" fill="#003288"/>
      <path id="패스_14" data-name="패스 14" d="M38.36,46.539a1.947,1.947,0,0,0,.91-.306l5.3.371V39.726l-.553-.033.245.389v6.232l-5.1-.329a1.485,1.485,0,0,1-1.775,0l-5.093.329V40.082l.243-.389-.553.033V46.6l5.3-.371a1.933,1.933,0,0,0,.908.306,1.285,1.285,0,0,0,.166,0" fill="#b0bcc2"/>
      <path id="패스_15" data-name="패스 15" d="M33.112,39.3c-.118.187-.523.83-.536.848v5.587c.118-.2.525-.881.536-.9Z" fill="#b0bcc2"/>
      <path id="패스_16" data-name="패스 16" d="M37.45,45.691l.014.014a1.18,1.18,0,0,0,.6.283,1.18,1.18,0,0,0-.594-.883,3.667,3.667,0,0,0-1.677-.291c-.35,0-.725.021-1.151.063s-.848.1-1.292.184c-.018.03-.49.822-.562.941l4.657-.31" fill="#b0bcc2"/>
      <path id="패스_17" data-name="패스 17" d="M43.981,40.149l-.535-.848v5.538c.011.016.417.7.535.9Z" fill="#b0bcc2"/>
      <path id="패스_18" data-name="패스 18" d="M39.082,45.105a1.182,1.182,0,0,0-.594.883,1.178,1.178,0,0,0,.6-.283l.014-.014,4.657.31c-.072-.119-.542-.91-.56-.941-.444-.08-.879-.141-1.293-.183s-.8-.063-1.151-.063a3.668,3.668,0,0,0-1.677.291" fill="#b0bcc2"/>
      <path id="패스_19" data-name="패스 19" d="M41.9,38.712a10.713,10.713,0,0,0-1.188-.068l-.531.022-.405.061a2.138,2.138,0,0,0-.737.288l-.057.045-.025.017a1.842,1.842,0,0,0-.516.549v5.61a1.294,1.294,0,0,1,.282-.276,3.247,3.247,0,0,1,1.34-.423l.024,0,.026,0a7.857,7.857,0,0,1,.99-.035l.734.052c.371.036.8.092,1.284.164V38.91c-.418-.088-.828-.154-1.219-.2m.535,1.243a2.672,2.672,0,0,1-1.553,1.511s.2.049.676.613a1.955,1.955,0,0,0,.617.515s-.667,1.324-.733,1.48a2.935,2.935,0,0,1-.823-1.308.235.235,0,0,0-.232-.123s-.53.06-.746.078a.194.194,0,0,1-.215,0l-.079-.083s-.018,0-.051-.025a.177.177,0,0,1-.072-.127.138.138,0,0,1,.044-.113,7.821,7.821,0,0,0,1.048-.834s-.009.031.04-.094a1.67,1.67,0,0,1-.423-.177s-.187-.128-.182-.295l.044,0s0,.2.384.319A.848.848,0,0,1,40.054,41a.183.183,0,0,1,.054-.012s.108.327.293.334c0,0,.362-.223.389-.477,0,0-.15-.093-.211-.474l.05-.029s.06.36.238.351c0,0,.162,0,.261-.3a1.5,1.5,0,0,0,.079-.5,1.843,1.843,0,0,0-.037-.244l.037-.06a1.123,1.123,0,0,1,.049.185A.777.777,0,0,1,41.4,39.4l.033.019a.66.66,0,0,0-.086.405,1.855,1.855,0,0,1-.119.649,2.712,2.712,0,0,1-.6.9,5.3,5.3,0,0,0,.735-.362s.219-.136.246-.607h.057a1,1,0,0,1-.007.383,1.612,1.612,0,0,0,.671-.824.512.512,0,0,0-.015-.335l.025-.031a.59.59,0,0,1,.08.232.423.423,0,0,1,.25-.23l.014.035a.623.623,0,0,0-.242.316" fill="#b0bcc2"/>
      <path id="패스_20" data-name="패스 20" d="M37.6,39.078l-.022-.018-.058-.044a2.12,2.12,0,0,0-.736-.288l-.408-.061-.528-.022a10.667,10.667,0,0,0-1.188.068c-.393.043-.8.109-1.221.2v5.806c.481-.072.913-.128,1.283-.164l.737-.052a7.748,7.748,0,0,1,.985.035l.03,0,.027,0a3.233,3.233,0,0,1,1.336.424,1.245,1.245,0,0,1,.281.275v-5.61a1.836,1.836,0,0,0-.518-.549m-.739,4.683H34.793a4.721,4.721,0,0,0-.319-2.488c.432-.49.981-1.212,1.224-1.537V41.68a.328.328,0,0,0,.12.632.328.328,0,0,0,.12-.632V39.72c.235.314.8,1.055,1.236,1.553a4.716,4.716,0,0,0-.318,2.488" fill="#b0bcc2"/>
      <path id="패스_21" data-name="패스 21" d="M46.8,74.391c0,1.758,1.809,3.186,4.04,3.186s4.043-1.428,4.043-3.186a2.887,2.887,0,0,0-1.2-2.267h1.539V70.877H52.085V69.439H49.607v1.438H46.47v1.247H48a2.9,2.9,0,0,0-1.2,2.267m4.04-2.009a2.037,2.037,0,1,1-1.715,2.009,1.881,1.881,0,0,1,1.715-2.009M47.271,89.9H48V87.326L49.511,89.9h.717V86.221H49.5v2.558l-1.522-2.558h-.71Zm-11.8-.723h1.3l.274.723h.779l-1.336-3.679h-.725L34.43,89.9h.778Zm.654-2,.513,1.593H35.614Zm-3.74-8.354a1.81,1.81,0,0,0,1.236.4h3.29a3.866,3.866,0,0,0,1.145-.141c.312-.095.593-.187.984-.341v4.9h2.321V74.86h1.093v8.775h2.322V69.816H42.459v3.757H41.365V69.816H39.045v7.763a6.562,6.562,0,0,1-.95.263,5.365,5.365,0,0,1-1.09.1H34.349v-6.32h3.5V70.332H31.937v7.422a1.349,1.349,0,0,0,.453,1.067m26.668-4.344h1.992V73.193H59.057v-3.4h-2.45v8.194h2.45ZM8.782,86.221v2.694a.878.878,0,0,0,.36.782,2.076,2.076,0,0,0,1.143.246,2.088,2.088,0,0,0,1.143-.246.881.881,0,0,0,.358-.782V86.221h-.761v2.737a.432.432,0,0,1-.179.387.974.974,0,0,1-.562.126.989.989,0,0,1-.561-.126.432.432,0,0,1-.183-.387V86.221Zm34.423,0v2.694a.878.878,0,0,0,.36.782,2.775,2.775,0,0,0,2.283,0,.876.876,0,0,0,.363-.782V86.221h-.759v2.737a.442.442,0,0,1-.182.387.983.983,0,0,1-.56.126,1,1,0,0,1-.564-.126.43.43,0,0,1-.182-.387V86.221Zm30.1,0-.483,1.032c-.04.091-.076.185-.109.277a3.187,3.187,0,0,0-.088.309c-.032-.125-.066-.237-.1-.339a1.992,1.992,0,0,0-.1-.253l-.477-1.027h-.8l1.075,2.114V89.9h.793V88.334L74.1,86.221Zm-34.8,0V89.9h2.42v-.462H39.263V86.221Zm36.347-4.576h-5.16V76.057H67.322v5.588H66.105V76.057H63.743v5.588H61.437v1.268H74.844Zm-3.87-5.787q0,1.554-.1,2.554a3.826,3.826,0,0,1-.573,1.72h2.163a5.216,5.216,0,0,0,.68-1.688,10.848,10.848,0,0,0,.245-2.42V70.413H62.544V71.7h8.43ZM60.729,86.221h-.923V89.9h.768V88.1h.021L61.9,89.9h.825l-1.363-1.812a1.438,1.438,0,0,0,.81-.269.8.8,0,0,0,.269-.636.782.782,0,0,0-.394-.74,2.878,2.878,0,0,0-1.323-.222m.747,1.456a1.2,1.2,0,0,1-.669.143h-.232v-1.16h.208a1.5,1.5,0,0,1,.7.113.444.444,0,0,1,.185.411.567.567,0,0,1-.191.494M69.856,89.9V86.684h1.061v-.463h-2.9v.463h1.059V89.9Zm-5.118-.567a1.034,1.034,0,0,1-.56.132,2.031,2.031,0,0,1-.431-.052,3.2,3.2,0,0,1-.507-.158v.5a3.185,3.185,0,0,0,.507.139,2.752,2.752,0,0,0,.487.045,1.921,1.921,0,0,0,1.068-.273.813.813,0,0,0,.419-.7.786.786,0,0,0-.2-.532,2.367,2.367,0,0,0-.694-.49c-.023-.014-.064-.034-.117-.06-.56-.287-.841-.541-.841-.753a.417.417,0,0,1,.219-.365,1.094,1.094,0,0,1,.582-.138,1.973,1.973,0,0,1,.419.049,2.683,2.683,0,0,1,.434.151v-.494a2.525,2.525,0,0,0-.487-.128,3.107,3.107,0,0,0-.509-.041,1.767,1.767,0,0,0-1.014.276.817.817,0,0,0-.411.695.768.768,0,0,0,.2.518,2.546,2.546,0,0,0,.711.5c.028.017.077.043.142.076.525.28.788.525.788.741a.407.407,0,0,1-.2.356m1.817.567h.769V86.221h-.769Zm-43.4,0V86.684h1.059v-.463h-2.9v.463h1.062V89.9ZM58.9,86.666v-.445H56.617V89.9H58.9v-.462H57.385V88.2h1.382v-.437H57.385v-1.1Zm-6.791-.445h-.766V89.9h.766Zm1.474,0H52.8L54.052,89.9h.65l1.254-3.679H55.18l-.8,2.5Zm5.478-7.627H47.848v1.269h8.76v3.746h2.45ZM2.261,76.85A3.677,3.677,0,0,1,0,78.572l1.126.87a3.952,3.952,0,0,0,2.051-.987,3.243,3.243,0,0,0,1.181-1.718A3.387,3.387,0,0,0,5.55,78.454a3.9,3.9,0,0,0,2.024.987l1.09-.838v5.031H10.97V69.816H8.665v3.778H6.648V74.88H8.665v3.541a3.519,3.519,0,0,1-2.217-1.585,6.023,6.023,0,0,1-.893-3.323V71.535H7.538V70.268H1v1.268H3.145v1.978a6.089,6.089,0,0,1-.884,3.336m12.225,9.371V89.9h.729V87.326L16.724,89.9h.72V86.221h-.727v2.558L15.2,86.221ZM.854,89.95a1.363,1.363,0,0,0,.9-.243.932.932,0,0,0,.294-.757V86.221h-.77v2.741a.523.523,0,0,1-.132.393.624.624,0,0,1-.428.127,1.2,1.2,0,0,1-.329-.048,1.886,1.886,0,0,1-.346-.156v.509a2.023,2.023,0,0,0,.4.124,2.2,2.2,0,0,0,.42.039M14.243,69.816h-2.31V83.635h2.31ZM5.39,86.666v-.445H3.111V89.9H5.39v-.462H3.879V88.2H5.26v-.437H3.879v-1.1ZM20.2,74.18a6.59,6.59,0,0,1-3.624,1.159l.96.97a9.4,9.4,0,0,0,3.444-.7A4.077,4.077,0,0,0,23.168,73.9a4.224,4.224,0,0,0,2.205,1.7,9.238,9.238,0,0,0,3.424.709l.962-.97a6.6,6.6,0,0,1-3.613-1.159,3.218,3.218,0,0,1-1.745-2.66v-.086h4.325V70.148H17.61v1.287H21.93v.086A3.222,3.222,0,0,1,20.2,74.18m9.3,15.327a2.967,2.967,0,0,0,0-2.9,1.554,1.554,0,0,0-1.239-.438,1.578,1.578,0,0,0-1.242.438,2.212,2.212,0,0,0-.379,1.451,2.188,2.188,0,0,0,.379,1.447,1.571,1.571,0,0,0,1.242.436,1.557,1.557,0,0,0,1.239-.436m-1.886-.356a2.184,2.184,0,0,1-.2-1.1,2.218,2.218,0,0,1,.195-1.1.828.828,0,0,1,1.3,0,2.257,2.257,0,0,1,.191,1.1,2.322,2.322,0,0,1-.187,1.117.686.686,0,0,1-.642.3.7.7,0,0,1-.657-.32m5.446.749h.717V86.221h-.729v2.558l-1.516-2.558h-.71V89.9h.727V87.326ZM18.1,89.9h.78l.265-.723H20.45l.27.723H21.5l-1.336-3.679h-.725Zm2.215-1.132h-1.03l.516-1.593ZM24.9,89.9h.769V86.221H24.9ZM21.95,83.635H24.4V78.844h5.8V77.577H16.139v1.267H21.95ZM7.438,89.707a.936.936,0,0,0,.289-.757V86.221H6.962v2.741a.5.5,0,0,1-.136.393.614.614,0,0,1-.429.127,1.172,1.172,0,0,1-.322-.048,1.835,1.835,0,0,1-.349-.156v.509a2.012,2.012,0,0,0,.4.124,2.175,2.175,0,0,0,.419.039,1.383,1.383,0,0,0,.9-.243" fill="#5f5e5e"/>
    </g>
  </g>
</svg>
