<svg xmlns="http://www.w3.org/2000/svg" width="97" height="116.005" viewBox="0 0 97 116.005"><path d="M35.021,77.421l.077.043c-.025-.015-.051-.027-.076-.042v0s.044.025.127.068q.672.395,1.342.743c.229.119.461.229.692.341.3.146.6.287.894.419.213.094.426.187.64.276.407.169.812.325,1.216.471.109.04.217.084.326.122.564.2,1.124.369,1.68.524.064.018.129.033.193.05q.795.216,1.576.377l.226.048c.6.12,1.19.221,1.775.3l.032,0c.588.078,1.167.133,1.739.173l.216.016a29.867,29.867,0,0,0,5.292-.142l.337-.04c.489-.062.967-.131,1.429-.21.172-.03.343-.063.515-.1.415-.078.822-.161,1.212-.251.169-.038.336-.079.5-.121.5-.123.985-.252,1.439-.386l.074-.022A26.792,26.792,0,0,0,63.51,78.1c9.471-5.5,12.343-12.881,13.2-17.188.038-.191.078-.385.109-.563a39.683,39.683,0,0,0,.26-5.1V27.279H66.014V58.468c-.034,2.167-.222,4.585-.222,4.585a14.789,14.789,0,0,1-1.146,5.067,17.3,17.3,0,0,1-6.525,7.953c-11.551,7.8-23.1,1.348-23.1,1.348" transform="translate(0 -0.001)" fill="#fff"/><path d="M32.769,75.654l0,0-.008-.006.009,0a25.078,25.078,0,0,1-9.3-12.818,29.766,29.766,0,0,1-.941-13.5,35.043,35.043,0,0,1,3.336-9.562,53.263,53.263,0,0,1,3.859-5.837,53.372,53.372,0,0,0,3.26-5.111A16.577,16.577,0,0,0,31.66,10.415l0,.01-.006-.008s2.882,7.464-.881,14.417c0,0-1.769,3.034-3.691,5.915,0,0-4.225,6.122-5.461,10.278a30.514,30.514,0,0,0-.956,16.961s2,12.092,12.1,17.666" transform="translate(0 -0.001)" fill="#fff"/><path d="M43.61,71.118h0v.476h.682v3.479h.693v0h0V71.117H43.61Z" transform="translate(0 -0.001)" fill="#fff"/><path d="M54.483,71.323a1.43,1.43,0,0,0-.9-.26,1.385,1.385,0,0,0-.953.286,1.017,1.017,0,0,0-.165.254,1.054,1.054,0,0,0-.155.6v.122a.3.3,0,0,0,.008.079h.692v0h0v-.14a1.018,1.018,0,0,1,.121-.57.479.479,0,0,1,.409-.165.529.529,0,0,1,.386.127.554.554,0,0,1,.122.391,1.087,1.087,0,0,1-.1.419,3.258,3.258,0,0,1-.291.51l-1.474,2.1v0l2.517,0v-.5H53.254l1-1.291a3.607,3.607,0,0,0,.431-.681,1.372,1.372,0,0,0,.127-.553h0a.867.867,0,0,0-.328-.717" transform="translate(0 -0.001)" fill="#fff"/><path d="M57.58,67.63a2.363,2.363,0,0,1-1.99,0,.771.771,0,0,1-.328-.692V62.109H53.915v4.764a1.544,1.544,0,0,0,.642,1.381v0a3.686,3.686,0,0,0,2.027.439,3.733,3.733,0,0,0,2.03-.435,1.546,1.546,0,0,0,.639-1.381v-4.76h0v0H57.9v0h0v4.83a.74.74,0,0,1-.038.213.749.749,0,0,1-.281.474" transform="translate(0 -0.001)" fill="#fff"/><path d="M43.761,62.112h0v6.5h4.049v0h0v-.816H45.124V65.6h2.458v-.773H45.124V62.9H47.81v-.79H43.761Z" transform="translate(0 -0.001)" fill="#fff"/><path d="M56.461,58.083c.171.286.436.731.536.9v-.008l0,.005V51.778l-.694-1.094v.009l0-.005v7.143l0,0c.006.008.069.113.154.255" transform="translate(0 -0.001)" fill="#fff"/><path d="M52.825,57.8a4.76,4.76,0,0,0-1.65.187,4.487,4.487,0,0,0-.524.189v0a1.562,1.562,0,0,0-.291.21,1.524,1.524,0,0,0-.484.93,1.536,1.536,0,0,0,.784-.364h0l0,0,.018-.018.066,0,4.518.3,1.447.1h0c-.093-.154-.7-1.174-.726-1.211-.576-.1-1.139-.185-1.675-.238a14.592,14.592,0,0,0-1.492-.08" transform="translate(0 -0.001)" fill="#fff"/><path d="M54.307,49.925a13.912,13.912,0,0,0-1.541-.089l-.687.031-.524.078-.005,0h0c-.078.015-.151.044-.227.065s-.177.043-.262.076a2.86,2.86,0,0,0-.467.232l-.075.057-.032.023a2.387,2.387,0,0,0-.669.707v7.231l.007-.007v.009a1.711,1.711,0,0,1,.364-.357,4.269,4.269,0,0,1,1.737-.546h.031l.034-.005c.125-.012.25-.005.374-.013.3-.017.6-.038.9-.029l.952.066c.48.048,1.041.119,1.664.212v0h.008V50.179c-.54-.114-1.073-.2-1.58-.255Zm.815,1.375a.783.783,0,0,0-.128.234l.008-.01a3.451,3.451,0,0,1-2.014,1.949h0l-.014.007s.264.063.876.789a2.529,2.529,0,0,0,.8.665s-.843,1.667-.944,1.9a3.8,3.8,0,0,1-1.064-1.682.393.393,0,0,0-.3-.164s-.686.077-.967.1a.249.249,0,0,1-.277,0l-.1-.106s-.024.006-.066-.033a.225.225,0,0,1-.094-.164.185.185,0,0,1,.056-.144,10.108,10.108,0,0,0,1.356-1.074s0,.009,0-.005c0,0-.01.036.051-.121a2.2,2.2,0,0,1-.549-.229.538.538,0,0,1-.234-.375l.042,0h.012s0,.257.5.41v0l0,0a1.111,1.111,0,0,1-.163-.365.267.267,0,0,1,.068-.015.961.961,0,0,0,.221.359.264.264,0,0,0,.16.072,1.919,1.919,0,0,0,.273-.226.7.7,0,0,0,.23-.39s-.2-.119-.274-.611l.063-.034c0,.005.079.464.308.451a.172.172,0,0,0,.036-.008c.064-.018.207-.091.3-.386a1.869,1.869,0,0,0,.1-.646,2.07,2.07,0,0,0-.048-.314l.046-.074a1.358,1.358,0,0,1,.063.235l0,0v0a1,1,0,0,1,.182-.472l.042.025a.852.852,0,0,0-.112.52,2.357,2.357,0,0,1-.154.839,3.476,3.476,0,0,1-.778,1.163c.009,0,.017-.009.026-.012a7.111,7.111,0,0,0,.92-.449l.027-.022a.974.974,0,0,0,.3-.761h.07a1.275,1.275,0,0,1-.009.5,2.12,2.12,0,0,0,.875-1.069.648.648,0,0,0-.02-.432l.027-.035a.776.776,0,0,1,.1.3l.005-.007h0a.552.552,0,0,1,.128-.18.541.541,0,0,1,.192-.114l.017.046a.782.782,0,0,0-.185.173" transform="translate(0 -0.001)" fill="#fff"/><path d="M37.058,111.133a2.209,2.209,0,0,0-.27,0c-.057,0-.112-.008-.169,0h0c-.04,0-.078,0-.118,0a1.912,1.912,0,0,0-1.491.563,2.836,2.836,0,0,0-.492,1.87,2.8,2.8,0,0,0,.492,1.867.111.111,0,0,0,.014.009,2.035,2.035,0,0,0,1.6.551,2.025,2.025,0,0,0,1.6-.56,3.809,3.809,0,0,0,0-3.737,2.022,2.022,0,0,0-1.166-.56m-1.539,2.419a2.852,2.852,0,0,1,.252-1.419,1.074,1.074,0,0,1,.274-.232,1.17,1.17,0,0,1,.141-.072,1.067,1.067,0,0,1,.244-.078,1.142,1.142,0,0,1,.155-.012,1.021,1.021,0,0,1,.246.019,1.044,1.044,0,0,1,.162.05,1.066,1.066,0,0,1,.215.11,1.053,1.053,0,0,1,.242.2l.006.006a2.917,2.917,0,0,1,.247,1.424,2.97,2.97,0,0,1-.242,1.438.888.888,0,0,1-.833.391.911.911,0,0,1-.849-.41,2.792,2.792,0,0,1-.26-1.417" transform="translate(0 -0.001)" fill="#fff"/><path d="M47.294,111.186h-.939l-.189.517-1.543,4.23H45.63l.293-.787.055-.147H47.66l.355.935h1.011Zm-1.138,3.287.668-2.049.664,2.049Z" transform="translate(0 -0.001)" fill="#fff"/><path d="M91.983,97.827q0,2-.128,3.291a4.894,4.894,0,0,1-.741,2.22h2.8v0h0a6.673,6.673,0,0,0,.881-2.175,13.923,13.923,0,0,0,.318-3.12V90.8H81.059v1.659H91.984Z" transform="translate(0 -0.001)" fill="#fff"/><path d="M80.582,113.254a1.023,1.023,0,0,0,.347-.821,1.008,1.008,0,0,0-.283-.78.994.994,0,0,0-.229-.177,3.757,3.757,0,0,0-1.714-.289H77.5v4.748h0v0H78.5v-2.32h.025l1.7,2.318h0v0H81.3L79.532,113.6a1.874,1.874,0,0,0,1.05-.346M78.5,111.761h.269a1.965,1.965,0,0,1,.906.142.574.574,0,0,1,.237.527.733.733,0,0,1-.247.637,1.561,1.561,0,0,1-.868.184h-.3Z" transform="translate(0 -0.001)" fill="#fff"/><path d="M53.027,115.337H50.886V111.19h0v0h-.992v0h0v4.747h3.14v-.6h0Z" transform="translate(0 -0.001)" fill="#fff"/><path d="M45.942,57.4a10.255,10.255,0,0,1,1.276.043h.039a.216.216,0,0,1,.036,0,4.23,4.23,0,0,1,1.732.548l.008,0a1.627,1.627,0,0,1,.356.366v-.023l.008.008V51.1a2.389,2.389,0,0,0-.673-.707V50.4l-.028-.022-.076-.057a2.731,2.731,0,0,0-.953-.372l-.528-.079-.685-.03a13.905,13.905,0,0,0-1.54.088c-.51.056-1.042.141-1.582.255v.006l-.008,0v7.485c.624-.093,1.183-.164,1.663-.212Zm.317-3.647a.415.415,0,0,0-.141.1c-.005,0-.007.011-.011.016a.4.4,0,0,0-.074.113l-.009.013a.417.417,0,0,0,.716.413.415.415,0,0,0-.163-.656V51.237c.3.408,1.027,1.352,1.594,1.992,0,0-.816,2.059-.413,3.2H45.093c.405-1.136-.4-3.186-.414-3.207.56-.626,1.271-1.561,1.58-1.977Z" transform="translate(0 -0.001)" fill="#fff"/><path d="M46.726,28.682h0c-2.119,5.08-7.672,10.172-7.672,10.172-8.766,8.468-9.894,13.49-9.894,13.49A21.439,21.439,0,0,0,31.3,70.2a18.8,18.8,0,0,0,11.51,8.343l-.007,0,.009,0a15.192,15.192,0,0,1-10.241-13.37c-.372-5.044,2.451-11.43,10.613-17.861a45.317,45.317,0,0,0,7.309-7.419A24.589,24.589,0,0,0,55.108,28.83,26.39,26.39,0,0,0,53.6,15.922,28.038,28.038,0,0,0,46.329,4.957l0,.008-.007-.007c6.212,11.992.411,23.7.4,23.724" transform="translate(0 -0.001)" fill="#fff"/><path d="M40,18.233a27.873,27.873,0,0,1-2.075,7.975h0c-1.635,3.894-6.831,10.4-6.831,10.4-2.7,3.555-5.892,8.018-7.018,13.911v.006h0c-2.377,16.317,7.748,24.725,13.957,27.1-.022-.012-.042-.026-.064-.038l.065.027A22.11,22.11,0,0,1,26.6,54.113c1.008-5,3.681-10.146,9.751-16.683,0,0,7.16-7.473,8.128-13.973a23.672,23.672,0,0,0-1.317-13.083A22.586,22.586,0,0,0,34.478,0l.011.014L34.477.006A24.557,24.557,0,0,1,40,18.233" transform="translate(0 -0.001)" fill="#fff"/><path d="M48.23,71.393a1.2,1.2,0,0,0-.923-.336,1.255,1.255,0,0,0-.941.318,1.425,1.425,0,0,0-.244.468,1.38,1.38,0,0,0-.056.52,1.407,1.407,0,0,0,.243.927,1.008,1.008,0,0,0,.8.279,1.078,1.078,0,0,0,.333-.048.942.942,0,0,0,.281-.142c-.125.205-.278.423-.45.667s-.441.591-.794,1.033h.807a9.136,9.136,0,0,0,.993-1.56,2.76,2.76,0,0,0,.252-1.11V72.4a1.463,1.463,0,0,0-.3-1.01M46.8,72.734c-.009-.028-.025-.054-.031-.082a1.122,1.122,0,0,1-.017-.284c0-.011,0-.021,0-.032a1.119,1.119,0,0,1,.128-.611.444.444,0,0,1,.128-.1.452.452,0,0,1,.283-.08.507.507,0,0,1,.437.191,1.026,1.026,0,0,1,.139.6,1.071,1.071,0,0,1-.13.6.487.487,0,0,1-.429.19.5.5,0,0,1-.43-.174,1.041,1.041,0,0,1-.077-.215" transform="translate(0 -0.001)" fill="#fff"/><path d="M42.5,59.328l6.035-.4.02.018a1.546,1.546,0,0,0,.781.364v0h0a1.511,1.511,0,0,0-.77-1.136,4.743,4.743,0,0,0-2.172-.376,14.887,14.887,0,0,0-1.493.08c-.534.053-1.1.134-1.671.238h0l-.047.076c-.15.246-.6,1-.683,1.137" transform="translate(0 -0.001)" fill="#fff"/><path d="M76.546,90.005H73.365v10.566H76.54V96.048h2.587V94.39H76.546Z" transform="translate(0 -0.001)" fill="#fff"/><path d="M49.48,75.08h0a3.105,3.105,0,0,0,.527.051,1.686,1.686,0,0,0,1.169-.376,1.325,1.325,0,0,0,.419-1.049V73.7h0a1.086,1.086,0,0,0-.345-.843,1.283,1.283,0,0,0-.909-.318,1.091,1.091,0,0,0-.156,0c-.063.008-.127.012-.2.022L50.2,71.6h1.346v0h.006v-.482H49.614l-.365,1.891h.005a2.876,2.876,0,0,1,.287-.04,3.334,3.334,0,0,1,.346-.013,1.266,1.266,0,0,1,.369.031,1.312,1.312,0,0,1,.378.151.627.627,0,0,1,.253.543.956.956,0,0,1-.247.721,1,1,0,0,1-.736.246,1.562,1.562,0,0,1-.373-.047,1.76,1.76,0,0,1-.358-.136v0h0l-.183.457-.005.012v0a2.882,2.882,0,0,0,.5.142" transform="translate(0 -0.001)" fill="#fff"/><path d="M33.886,95.659a4.149,4.149,0,0,1-2.262-3.43v-.1H37.23V90.459h-14.4v0h0v1.659h5.6v.111a4.145,4.145,0,0,1-2.242,3.425,8.581,8.581,0,0,1-4.7,1.5l0,0h-.007l1.244,1.25a12.252,12.252,0,0,0,4.464-.9,5.277,5.277,0,0,0,2.84-2.2,5.471,5.471,0,0,0,2.858,2.19,12.074,12.074,0,0,0,4.438.914l1.245-1.25H38.56l.008-.008a8.6,8.6,0,0,1-4.682-1.5" transform="translate(0 -0.001)" fill="#fff"/><path d="M42.215,51.781v7.205l0-.007v.005c.154-.255.681-1.136.695-1.157V50.685l0,.006v0c-.152.239-.678,1.071-.695,1.093" transform="translate(0 -0.001)" fill="#fff"/><path d="M40.851,62.11h-.005v4.845a.9.9,0,0,1-.24.693,1.077,1.077,0,0,1-.751.22,2.091,2.091,0,0,1-.577-.088,3,3,0,0,1-.621-.27v0l-.005,0v.9a3.161,3.161,0,0,0,.7.217,3.617,3.617,0,0,0,.741.074l0,0a2.455,2.455,0,0,0,1.6-.434,1.633,1.633,0,0,0,.519-1.335v-4.82H40.851Z" transform="translate(0 -0.001)" fill="#fff"/><path d="M57.354,51.695v8.031l-6.59-.423-.009,0h0a1.926,1.926,0,0,1-2.29,0l-6.6.424V51.692l.315-.5-.717.043h-.01v8.872l6.869-.48a2.507,2.507,0,0,0,1.176.394,1.927,1.927,0,0,0,.215,0,2.529,2.529,0,0,0,1.179-.394l3.416.235,3.455.241V51.233l-.716-.043,0,.006h-.014Z" transform="translate(0 -0.001)" fill="#fff"/><path d="M20.924,100.045h-.008v1.634h7.531v6.178h3.177v0h.008v-6.176h7.5v0h.008v-1.634H20.924Z" transform="translate(0 -0.001)" fill="#fff"/><path d="M60.671,96.026c.062,2.224,2.37,4.017,5.224,4.017,2.893,0,5.239-1.839,5.239-4.107a3.712,3.712,0,0,0-.92-2.346,3.663,3.663,0,0,0-.638-.578h1.993V91.4H67.5V89.547H64.3v0h-.007V91.4H60.227v1.608h1.985a3.733,3.733,0,0,0-1.553,2.923v0c0,.031.011.059.012.09M65.9,93.343h.022a2.249,2.249,0,1,1-2.243,2.591h0A2.431,2.431,0,0,1,65.9,93.343" transform="translate(0 -0.001)" fill="#fff"/><path d="M72.517,111.187H71.512L70.48,114.4,69.443,111.2h0l0-.017H68.424l.006.017h0l1.625,4.747H70.9l1.625-4.747h-.014Z" transform="translate(0 -0.001)" fill="#fff"/><path d="M67.527,111.187h-1v4.748h0v.016h1V111.2h0Z" transform="translate(0 -0.001)" fill="#fff"/><path d="M64.154,111.19h0v3.3l-1.969-3.3h-.922v0h0v4.745h.94v-3.316l1.961,3.317h.932v-4.748h-.941Z" transform="translate(0 -0.001)" fill="#fff"/><path d="M76.54,101.357H62.012v1.651H73.365v4.829H76.54l0-6.466h0Z" transform="translate(0 -0.001)" fill="#fff"/><path d="M76.329,115.338H74.372v-1.587h1.791v-.562h0v-.014H74.372v-1.4l1.959,0V111.2h0v-.017H73.375v4.748h0v.016h2.954v-.6h0Z" transform="translate(0 -0.001)" fill="#fff"/><path d="M91.907,111.186H88.154v.6h0v0h1.37v4.145h0v0h1.007V111.79h1.373v-.6h0Z" transform="translate(0 -0.001)" fill="#fff"/><path d="M96.035,111.186H95l-.625,1.335a3.736,3.736,0,0,0-.14.355h0v0c-.041.117-.079.255-.114.4a4.378,4.378,0,0,0-.132-.436,2.387,2.387,0,0,0-.126-.326l-.619-1.327H92.206l1.394,2.728v2.02h0v0H94.63v-2.019l1.41-2.728h-.007Z" transform="translate(0 -0.001)" fill="#fff"/><path d="M84.913,114.041a3.052,3.052,0,0,0-.9-.634c-.029-.018-.083-.041-.151-.075-.72-.369-1.082-.695-1.089-.965a.533.533,0,0,1,.282-.462,1.394,1.394,0,0,1,.753-.178,2.556,2.556,0,0,1,.544.062,3.649,3.649,0,0,1,.562.2v-.657a3.193,3.193,0,0,0-.63-.165,3.943,3.943,0,0,0-.66-.053,2.285,2.285,0,0,0-1.314.355,1.054,1.054,0,0,0-.534.9l0,.012v.01a.971.971,0,0,0,.262.667,3.244,3.244,0,0,0,.922.646c.035.023.1.056.182.1.674.358,1.011.669,1.019.947a.525.525,0,0,1-.261.446,1.336,1.336,0,0,1-.724.172,2.767,2.767,0,0,1-.559-.069,4.339,4.339,0,0,1-.658-.2v.654h0v0a3.912,3.912,0,0,0,.657.178,3.508,3.508,0,0,0,.63.058,2.5,2.5,0,0,0,1.385-.35,1.047,1.047,0,0,0,.542-.9h0l0-.014a1.017,1.017,0,0,0-.264-.688" transform="translate(0 -0.001)" fill="#fff"/><path d="M87.254,111.187h-1v4.748h0v.016h1V111.19h0Z" transform="translate(0 -0.001)" fill="#fff"/><path d="M58.041,107.855V90.035H55.028V94.88H53.614V90.035H50.6v10.011a8.82,8.82,0,0,1-1.225.339,7.05,7.05,0,0,1-1.413.121H44.519V92.359h4.534v0h0V90.7H41.391v9.571a1.736,1.736,0,0,0,.586,1.377v0a2.364,2.364,0,0,0,1.6.512h4.265a5.059,5.059,0,0,0,1.484-.182c.168-.052.332-.105.5-.161l.193-.066c.179-.062.362-.127.579-.21v6.312h3.019V96.541h1.408v11.314h3.014Z" transform="translate(0 -0.001)" fill="#fff"/><path d="M31.387,111.186H27.634v.6h0v.017h1.373v4.132h0v.016h1V111.8h1.373v-.6h0Z" transform="translate(0 -0.001)" fill="#fff"/><path d="M15.273,111.187h-.985v3.531a.558.558,0,0,1-.232.5,1.269,1.269,0,0,1-.729.161,1.284,1.284,0,0,1-.725-.161.557.557,0,0,1-.236-.5v-3.53h0v0H11.38v3.475a1.13,1.13,0,0,0,.255.811,1.081,1.081,0,0,0,.214.2,2.712,2.712,0,0,0,1.48.315,2.731,2.731,0,0,0,1.483-.315,1.135,1.135,0,0,0,.464-1.01V111.19h0Z" transform="translate(0 -0.001)" fill="#fff"/><path d="M26.446,112.059l-.316-.869h0v0h-.94l-1.731,4.748h0v0h1.01l.344-.933H26.5l.35.933h1.006v0h0Zm-.778.366.661,2.05H25Z" transform="translate(0 -0.001)" fill="#fff"/><path d="M14.22,107.856V90.036H11.229v4.873H8.616v1.659h0v0h2.611v4.565a4.559,4.559,0,0,1-2.872-2.045,7.732,7.732,0,0,1-1.106-3.158c-.01-.085,0-.172-.012-.258a7.845,7.845,0,0,1-.039-.868V92.254H9.773V90.621h0v0H1.3v1.636H4.075v2.551c.005.187-.016.371-.025.557s0,.383-.025.572a7.824,7.824,0,0,1-1.094,3.171v0A4.762,4.762,0,0,1,0,101.326H0l1.459,1.123.007,0,0,0a5.129,5.129,0,0,0,2.658-1.275,4.167,4.167,0,0,0,1.527-2.2,4.342,4.342,0,0,0,1.54,2.2,5.06,5.06,0,0,0,2.625,1.276h.007l1.4-1.075v6.479h2.99Z" transform="translate(0 -0.001)" fill="#fff"/><path d="M4.036,111.19h0v4.747h0l2.953,0v-.6h0v0H5.032v-1.6H6.82v-.563h0v0H5.032v-1.412H6.989v-.574H4.036Z" transform="translate(0 -0.001)" fill="#fff"/><path d="M21.67,111.19h-.005v3.291L19.7,111.189h-.926v4.747h.95v-3.312l1.95,3.312h.938v-4.748H21.67Z" transform="translate(0 -0.001)" fill="#fff"/><path d="M43.767,111.187h-.945v3.3l-1.965-3.3h-.921v4.748h0v0h.942v-3.318l1.462,2.477.5.843h.93V111.19h0Z" transform="translate(0 -0.001)" fill="#fff"/><path d="M33.269,111.187h-1v4.748h0v0h1V111.19h0Z" transform="translate(0 -0.001)" fill="#fff"/><path d="M51.02,62.11h0v4.845a.9.9,0,0,1-.243.692,1.087,1.087,0,0,1-.756.222c-.034,0-.067-.013-.1-.015a2.133,2.133,0,0,1-.476-.073A2.973,2.973,0,0,1,49,67.588c-.057-.029-.12-.045-.176-.077h0v.9a3.493,3.493,0,0,0,.706.217,3.586,3.586,0,0,0,.745.074,2.441,2.441,0,0,0,1.591-.434h0a1.632,1.632,0,0,0,.517-1.336V62.11H51.02Z" transform="translate(0 -0.001)" fill="#fff"/><path d="M90.319,105.29V98.085H87.252v7.205H85.681V98.085H82.612v7.205H79.624v1.637H97V105.29Z" transform="translate(0 -0.001)" fill="#fff"/><path d="M58.906,111.19h0v3.531a.572.572,0,0,1-.232.5,1.256,1.256,0,0,1-.243.093,1.115,1.115,0,0,1-.109.042,1.3,1.3,0,0,1-.216.016,1.416,1.416,0,0,1-.159.011,1.3,1.3,0,0,1-.731-.162.556.556,0,0,1-.235-.5v-3.53h-.985v3.475a1.128,1.128,0,0,0,.466,1.01,3.644,3.644,0,0,0,2.961,0,1.13,1.13,0,0,0,.47-1.01V111.19h-.985Z" transform="translate(0 -0.001)" fill="#fff"/><path d="M15.473,90.035h-.008v17.82h3V90.035H15.473Z" transform="translate(0 -0.001)" fill="#fff"/><path d="M9.022,111.19h0v3.535a.54.54,0,0,1-.011.09A.62.62,0,0,1,8.99,115a.723.723,0,0,1-.051.084.593.593,0,0,1-.092.15.8.8,0,0,1-.556.164,1.438,1.438,0,0,1-.417-.062,2.381,2.381,0,0,1-.453-.2h0v.656a2.429,2.429,0,0,0,.514.159c.084.016.171.015.256.024a2.781,2.781,0,0,0,.287.026h0a1.8,1.8,0,0,0,1.164-.313,1.2,1.2,0,0,0,.374-.977v-3.52H9.022Z" transform="translate(0 -0.001)" fill="#fff"/><path d="M1.649,111.19h0v3.535a.669.669,0,0,1-.17.507.81.81,0,0,1-.554.164,1.5,1.5,0,0,1-.426-.062,2.4,2.4,0,0,1-.449-.2h0v.656a2.489,2.489,0,0,0,.512.159h0a2.77,2.77,0,0,0,.545.05h0a1.78,1.78,0,0,0,1.16-.313,1.2,1.2,0,0,0,.381-.977v-3.52h-1Z" transform="translate(0 -0.001)" fill="#fff"/></svg>