<svg xmlns="http://www.w3.org/2000/svg" xmlns:xlink="http://www.w3.org/1999/xlink" width="150" height="56" viewBox="0 0 150 56">
  <defs>
    <clipPath id="clip-path">
      <rect id="사각형_2" data-name="사각형 2" width="150" height="56" transform="translate(0 0)" fill="none"/>
    </clipPath>
  </defs>
  <g id="로고" transform="translate(0 0)">
    <g id="그룹_4" data-name="그룹 4">
      <g id="그룹_3" data-name="그룹 3" clip-path="url(#clip-path)">
        <path id="패스_22" data-name="패스 22" d="M112.153,24.885c0,2.362,2.468,4.279,5.51,4.279s5.512-1.918,5.512-4.279a3.852,3.852,0,0,0-1.638-3.044h2.1V20.167h-4.283v-1.93h-3.375v1.93H111.7v1.675h2.091a3.876,3.876,0,0,0-1.639,3.044m5.51-2.7a2.54,2.54,0,0,1,2.342,2.7,2.366,2.366,0,1,1-4.683,0,2.542,2.542,0,0,1,2.342-2.7M112.79,45.716h.99V42.258l2.061,3.458h.981V40.778h-.991v3.429l-2.068-3.429h-.973ZM96.7,44.747H98.48l.372.969h1.062l-1.824-4.938H97.1L95.28,45.716h1.062Zm.895-2.693.7,2.14H96.9ZM92.5,30.837a2.5,2.5,0,0,0,1.685.536h4.489a5.56,5.56,0,0,0,1.56-.191c.425-.126.807-.252,1.34-.461V37.3h3.169V25.515h1.488V37.3H109.4V18.742h-3.168v5.041H104.74V18.742h-3.169V29.169a9.258,9.258,0,0,1-1.293.352,7.492,7.492,0,0,1-1.482.126H95.171V21.161h4.767V19.438H91.88V29.4a1.811,1.811,0,0,0,.617,1.434M128.867,25h2.714V23.276h-2.714V18.711H125.52v11h3.347ZM60.3,40.778v3.616a1.176,1.176,0,0,0,.494,1.05,3.842,3.842,0,0,0,3.115,0,1.169,1.169,0,0,0,.489-1.05V40.778H63.367v3.67a.591.591,0,0,1-.246.525,1.822,1.822,0,0,1-1.528,0,.588.588,0,0,1-.253-.525v-3.67Zm46.942,0v3.616a1.172,1.172,0,0,0,.491,1.05,3.838,3.838,0,0,0,3.113,0,1.171,1.171,0,0,0,.493-1.05V40.778h-1.036v3.67a.594.594,0,0,1-.247.525,1.369,1.369,0,0,1-.762.168,1.4,1.4,0,0,1-.768-.168.589.589,0,0,1-.251-.525v-3.67Zm41.04,0-.653,1.381a3.447,3.447,0,0,0-.153.377c-.046.131-.083.263-.123.408a4.585,4.585,0,0,0-.136-.45,2.533,2.533,0,0,0-.136-.34l-.654-1.376h-1.088l1.473,2.835v2.1H147.9v-2.1l1.481-2.835Zm-47.461,0v4.938h3.3V45.1h-2.252V40.778ZM150,34.821h-6.648v-7.7h-3.219v7.7h-1.658v-7.7h-3.222v7.7h-3.36v1.7H150Zm-4.889-7.964c0,1.39-.042,2.535-.134,3.429a5,5,0,0,1-.781,2.308h2.953a6.96,6.96,0,0,0,.924-2.261,14.3,14.3,0,0,0,.333-3.253V19.542H133.62v1.726h11.492Zm-13.97,13.921h-1.256v4.938h1.045V43.3h.025l1.79,2.412h1.125l-1.858-2.434a1.962,1.962,0,0,0,1.1-.363,1.056,1.056,0,0,0,.368-.855,1.045,1.045,0,0,0-.536-.991,4,4,0,0,0-1.808-.3m1.016,1.953a1.622,1.622,0,0,1-.907.189h-.32V41.363h.289a2.051,2.051,0,0,1,.951.152.585.585,0,0,1,.254.549.762.762,0,0,1-.267.667m11.433,2.985V41.4h1.445v-.619h-3.953V41.4h1.447v4.319Zm-6.982-.763a1.416,1.416,0,0,1-.763.177,2.708,2.708,0,0,1-.591-.07,4.784,4.784,0,0,1-.684-.211v.678a4.539,4.539,0,0,0,.69.186,3.867,3.867,0,0,0,.659.061,2.66,2.66,0,0,0,1.464-.366,1.094,1.094,0,0,0,.567-.934,1.063,1.063,0,0,0-.277-.721,3.149,3.149,0,0,0-.941-.654c-.037-.017-.092-.046-.163-.084-.766-.387-1.146-.722-1.146-1.008a.562.562,0,0,1,.3-.491,1.484,1.484,0,0,1,.792-.187,2.507,2.507,0,0,1,.574.068,3.024,3.024,0,0,1,.591.2v-.668a4.23,4.23,0,0,0-.661-.171,4.85,4.85,0,0,0-.7-.052,2.4,2.4,0,0,0-1.381.374,1.091,1.091,0,0,0-.559.93,1,1,0,0,0,.276.7,3.5,3.5,0,0,0,.97.673c.039.024.1.055.189.1q1.081.561,1.081,1a.537.537,0,0,1-.284.473m2.483.763h1.046V40.778h-1.046Zm-59.175,0V41.4h1.445v-.619h-3.95V41.4h1.443v4.319Zm48.727-4.343v-.6h-3.108v4.938h3.108V45.1h-2.062v-1.67h1.888V42.84h-1.888V41.374Zm-9.263-.6h-1.044v4.938h1.044Zm2.01,0h-1.061l1.707,4.938h.887l1.71-4.938H123.58l-1.095,3.351Zm7.477-10.246H113.575v1.7H125.52v5.032h3.347Zm-77.457-2.34A4.992,4.992,0,0,1,48.327,30.5l1.536,1.166a5.376,5.376,0,0,0,2.8-1.326,4.345,4.345,0,0,0,1.613-2.307A4.513,4.513,0,0,0,55.9,30.342a5.327,5.327,0,0,0,2.761,1.326l1.49-1.126V37.3H63.29V18.742H60.146v5.073H57.4v1.726h2.748V30.3a4.8,4.8,0,0,1-3.025-2.129,8.016,8.016,0,0,1-1.213-4.463V21.05h2.7v-1.7H49.425v1.7h3.191v2.659a8.052,8.052,0,0,1-1.207,4.483M68.083,40.778v4.938h.994V42.258l2.059,3.458h.981V40.778h-.993v3.429l-2.07-3.429ZM49.492,45.786a1.91,1.91,0,0,0,1.226-.33,1.247,1.247,0,0,0,.4-1.015V40.778H50.068v3.681a.686.686,0,0,1-.186.527.855.855,0,0,1-.582.168,1.614,1.614,0,0,1-.442-.067,2.39,2.39,0,0,1-.477-.205v.683a2.646,2.646,0,0,0,.538.165,2.907,2.907,0,0,0,.573.055M67.749,18.742H64.605V37.3h3.144ZM55.679,41.374v-.6H52.573v4.938h3.105V45.1H53.617v-1.67H55.5V42.84H53.617V41.374ZM75.87,24.6a9.066,9.066,0,0,1-4.942,1.553l1.311,1.306a12.99,12.99,0,0,0,4.7-.944,5.529,5.529,0,0,0,2.983-2.286A5.786,5.786,0,0,0,82.93,26.51a12.8,12.8,0,0,0,4.671.954l1.312-1.306A9.1,9.1,0,0,1,83.983,24.6q-2.373-1.535-2.375-3.574v-.114h6.065V19.19H72.17v1.726h6.066v.114q0,2.035-2.367,3.574M88.548,45.187a2.916,2.916,0,0,0,.516-1.942,2.943,2.943,0,0,0-.516-1.952,2.728,2.728,0,0,0-3.382,0,2.943,2.943,0,0,0-.52,1.947,2.915,2.915,0,0,0,.52,1.942,2.729,2.729,0,0,0,3.382,0m-2.575-.477a2.982,2.982,0,0,1-.268-1.478,2.987,2.987,0,0,1,.264-1.481,1.147,1.147,0,0,1,1.777,0A3.026,3.026,0,0,1,88,43.232a3.046,3.046,0,0,1-.256,1.5.949.949,0,0,1-.878.409.979.979,0,0,1-.9-.431M93.4,45.716h.985V40.778h-.994v3.429l-2.07-3.429h-.968v4.938h.989V42.258Zm-20.387,0h1.063l.36-.969h1.774l.375.969h1.062l-1.824-4.938h-.987Zm3.018-1.522h-1.4l.7-2.14Zm6.254,1.522h1.047V40.778H82.286ZM78.26,37.3h3.349V30.867h7.9v-1.7H70.335v1.7H78.26ZM58.471,45.456a1.237,1.237,0,0,0,.4-1.015V40.778H57.824v3.681a.683.683,0,0,1-.187.527.847.847,0,0,1-.581.168,1.624,1.624,0,0,1-.442-.067,2.38,2.38,0,0,1-.478-.205v.683a2.748,2.748,0,0,0,.542.165,2.85,2.85,0,0,0,.571.055,1.887,1.887,0,0,0,1.222-.33" fill="#95a0a6"/>
        <path id="패스_23" data-name="패스 23" d="M112.153,24.885c0,2.362,2.468,4.279,5.51,4.279s5.512-1.918,5.512-4.279a3.852,3.852,0,0,0-1.638-3.044h2.1V20.167h-4.283v-1.93h-3.375v1.93H111.7v1.675h2.091a3.876,3.876,0,0,0-1.639,3.044m5.51-2.7a2.54,2.54,0,0,1,2.342,2.7,2.366,2.366,0,1,1-4.683,0,2.542,2.542,0,0,1,2.342-2.7M112.79,45.716h.99V42.258l2.061,3.458h.981V40.778h-.991v3.429l-2.068-3.429h-.973ZM96.7,44.747H98.48l.372.969h1.062l-1.824-4.938H97.1L95.28,45.716h1.062Zm.895-2.693.7,2.14H96.9ZM92.5,30.837a2.5,2.5,0,0,0,1.685.536h4.489a5.56,5.56,0,0,0,1.56-.191c.425-.126.807-.252,1.34-.461V37.3h3.169V25.515h1.488V37.3H109.4V18.742h-3.168v5.041H104.74V18.742h-3.169V29.169a9.258,9.258,0,0,1-1.293.352,7.492,7.492,0,0,1-1.482.126H95.171V21.161h4.767V19.438H91.88V29.4a1.811,1.811,0,0,0,.617,1.434M128.867,25h2.714V23.276h-2.714V18.711H125.52v11h3.347ZM60.3,40.778v3.616a1.176,1.176,0,0,0,.494,1.05,3.842,3.842,0,0,0,3.115,0,1.169,1.169,0,0,0,.489-1.05V40.778H63.367v3.67a.591.591,0,0,1-.246.525,1.822,1.822,0,0,1-1.528,0,.588.588,0,0,1-.253-.525v-3.67Zm46.942,0v3.616a1.172,1.172,0,0,0,.491,1.05,3.838,3.838,0,0,0,3.113,0,1.171,1.171,0,0,0,.493-1.05V40.778h-1.036v3.67a.594.594,0,0,1-.247.525,1.369,1.369,0,0,1-.762.168,1.4,1.4,0,0,1-.768-.168.589.589,0,0,1-.251-.525v-3.67Zm41.04,0-.653,1.381a3.447,3.447,0,0,0-.153.377c-.046.131-.083.263-.123.408a4.585,4.585,0,0,0-.136-.45,2.533,2.533,0,0,0-.136-.34l-.654-1.376h-1.088l1.473,2.835v2.1H147.9v-2.1l1.481-2.835Zm-47.461,0v4.938h3.3V45.1h-2.252V40.778ZM150,34.821h-6.648v-7.7h-3.219v7.7h-1.658v-7.7h-3.222v7.7h-3.36v1.7H150Zm-4.889-7.964c0,1.39-.042,2.535-.134,3.429a5,5,0,0,1-.781,2.308h2.953a6.96,6.96,0,0,0,.924-2.261,14.3,14.3,0,0,0,.333-3.253V19.542H133.62v1.726h11.492Zm-13.97,13.921h-1.256v4.938h1.045V43.3h.025l1.79,2.412h1.125l-1.858-2.434a1.962,1.962,0,0,0,1.1-.363,1.056,1.056,0,0,0,.368-.855,1.045,1.045,0,0,0-.536-.991,4,4,0,0,0-1.808-.3m1.016,1.953a1.622,1.622,0,0,1-.907.189h-.32V41.363h.289a2.051,2.051,0,0,1,.951.152.585.585,0,0,1,.254.549.762.762,0,0,1-.267.667m11.433,2.985V41.4h1.445v-.619h-3.953V41.4h1.447v4.319Zm-6.982-.763a1.416,1.416,0,0,1-.763.177,2.708,2.708,0,0,1-.591-.07,4.784,4.784,0,0,1-.684-.211v.678a4.539,4.539,0,0,0,.69.186,3.867,3.867,0,0,0,.659.061,2.66,2.66,0,0,0,1.464-.366,1.094,1.094,0,0,0,.567-.934,1.063,1.063,0,0,0-.277-.721,3.149,3.149,0,0,0-.941-.654c-.037-.017-.092-.046-.163-.084-.766-.387-1.146-.722-1.146-1.008a.562.562,0,0,1,.3-.491,1.484,1.484,0,0,1,.792-.187,2.507,2.507,0,0,1,.574.068,3.024,3.024,0,0,1,.591.2v-.668a4.23,4.23,0,0,0-.661-.171,4.85,4.85,0,0,0-.7-.052,2.4,2.4,0,0,0-1.381.374,1.091,1.091,0,0,0-.559.93,1,1,0,0,0,.276.7,3.5,3.5,0,0,0,.97.673c.039.024.1.055.189.1q1.081.561,1.081,1a.537.537,0,0,1-.284.473m2.483.763h1.046V40.778h-1.046Zm-59.175,0V41.4h1.445v-.619h-3.95V41.4h1.443v4.319Zm48.727-4.343v-.6h-3.108v4.938h3.108V45.1h-2.062v-1.67h1.888V42.84h-1.888V41.374Zm-9.263-.6h-1.044v4.938h1.044Zm2.01,0h-1.061l1.707,4.938h.887l1.71-4.938H123.58l-1.095,3.351Zm7.477-10.246H113.575v1.7H125.52v5.032h3.347Zm-77.457-2.34A4.992,4.992,0,0,1,48.327,30.5l1.536,1.166a5.376,5.376,0,0,0,2.8-1.326,4.345,4.345,0,0,0,1.613-2.307A4.513,4.513,0,0,0,55.9,30.342a5.327,5.327,0,0,0,2.761,1.326l1.49-1.126V37.3H63.29V18.742H60.146v5.073H57.4v1.726h2.748V30.3a4.8,4.8,0,0,1-3.025-2.129,8.016,8.016,0,0,1-1.213-4.463V21.05h2.7v-1.7H49.425v1.7h3.191v2.659a8.052,8.052,0,0,1-1.207,4.483M68.083,40.778v4.938h.994V42.258l2.059,3.458h.981V40.778h-.993v3.429l-2.07-3.429ZM49.492,45.786a1.91,1.91,0,0,0,1.226-.33,1.247,1.247,0,0,0,.4-1.015V40.778H50.068v3.681a.686.686,0,0,1-.186.527.855.855,0,0,1-.582.168,1.614,1.614,0,0,1-.442-.067,2.39,2.39,0,0,1-.477-.205v.683a2.646,2.646,0,0,0,.538.165,2.907,2.907,0,0,0,.573.055M67.749,18.742H64.605V37.3h3.144ZM55.679,41.374v-.6H52.573v4.938h3.105V45.1H53.617v-1.67H55.5V42.84H53.617V41.374ZM75.87,24.6a9.066,9.066,0,0,1-4.942,1.553l1.311,1.306a12.99,12.99,0,0,0,4.7-.944,5.529,5.529,0,0,0,2.983-2.286A5.786,5.786,0,0,0,82.93,26.51a12.8,12.8,0,0,0,4.671.954l1.312-1.306A9.1,9.1,0,0,1,83.983,24.6q-2.373-1.535-2.375-3.574v-.114h6.065V19.19H72.17v1.726h6.066v.114q0,2.035-2.367,3.574M88.548,45.187a2.916,2.916,0,0,0,.516-1.942,2.943,2.943,0,0,0-.516-1.952,2.728,2.728,0,0,0-3.382,0,2.943,2.943,0,0,0-.52,1.947,2.915,2.915,0,0,0,.52,1.942,2.729,2.729,0,0,0,3.382,0m-2.575-.477a2.982,2.982,0,0,1-.268-1.478,2.987,2.987,0,0,1,.264-1.481,1.147,1.147,0,0,1,1.777,0A3.026,3.026,0,0,1,88,43.232a3.046,3.046,0,0,1-.256,1.5.949.949,0,0,1-.878.409.979.979,0,0,1-.9-.431M93.4,45.716h.985V40.778h-.994v3.429l-2.07-3.429h-.968v4.938h.989V42.258Zm-20.387,0h1.063l.36-.969h1.774l.375.969h1.062l-1.824-4.938h-.987Zm3.018-1.522h-1.4l.7-2.14Zm6.254,1.522h1.047V40.778H82.286ZM78.26,37.3h3.349V30.867h7.9v-1.7H70.335v1.7H78.26ZM58.471,45.456a1.237,1.237,0,0,0,.4-1.015V40.778H57.824v3.681a.683.683,0,0,1-.187.527.847.847,0,0,1-.581.168,1.624,1.624,0,0,1-.442-.067,2.38,2.38,0,0,1-.478-.205v.683a2.748,2.748,0,0,0,.542.165,2.85,2.85,0,0,0,.571.055,1.887,1.887,0,0,0,1.222-.33" fill="#5f5e5e"/>
        <path id="패스_24" data-name="패스 24" d="M12.513,18.025c-1.136,2.678-4.747,7.158-4.747,7.158C5.891,27.627,3.672,30.7,2.889,34.751c-1.652,11.224,5.383,17.007,9.7,18.635A15.189,15.189,0,0,1,4.648,37.215c.7-3.442,2.557-6.978,6.775-11.475,0,0,4.976-5.143,5.648-9.611A15.663,15.663,0,0,0,10.119,0a17.081,17.081,0,0,1,2.394,18.025" fill="#64a91c"/>
        <path id="패스_25" data-name="패스 25" d="M18.629,19.727c-1.473,3.494-5.331,7-5.331,7C7.207,32.548,6.423,36,6.423,36A14.619,14.619,0,0,0,7.911,48.284a13.064,13.064,0,0,0,8,5.739,10.479,10.479,0,0,1-7.116-9.2c-.258-3.469,1.7-7.864,7.375-12.287a31.288,31.288,0,0,0,5.079-5.1,16.833,16.833,0,0,0,3.207-7.609,17.979,17.979,0,0,0-1.046-8.881,19.281,19.281,0,0,0-5.054-7.542c4.317,8.257.276,16.319.276,16.319" fill="#b0bcc2"/>
        <path id="패스_26" data-name="패스 26" d="M39.724,38V18.764H32.032V40.216c-.023,1.489-.154,3.153-.154,3.153a10.093,10.093,0,0,1-.8,3.485,11.945,11.945,0,0,1-4.534,5.471c-8.026,5.367-16.052.927-16.052.927,10.032,5.9,19.8.464,19.8.464,6.871-3.947,8.745-9.316,9.251-12.205A27.036,27.036,0,0,0,39.724,38" fill="#003288"/>
        <path id="패스_27" data-name="패스 27" d="M8.935,52.034a17.286,17.286,0,0,1-6.461-8.816,20.288,20.288,0,0,1-.654-9.289,23.951,23.951,0,0,1,2.318-6.576,36.714,36.714,0,0,1,2.682-4.015,36.545,36.545,0,0,0,2.265-3.514A11.31,11.31,0,0,0,8.162,7.162a12.809,12.809,0,0,1-.612,9.916s-1.23,2.089-2.565,4.07c0,0-2.936,4.212-3.795,7.07A20.791,20.791,0,0,0,.526,39.884S1.915,48.2,8.935,52.034" fill="#0099e7"/>
        <path id="패스_28" data-name="패스 28" d="M16.939,51.635V49.243h-.474v-.328h.956v2.72Z" fill="#003288"/>
        <path id="패스_29" data-name="패스 29" d="M19.423,49.747a.7.7,0,0,0-.1-.414.352.352,0,0,0-.3-.132.328.328,0,0,0-.287.13.772.772,0,0,0-.089.421.753.753,0,0,0,.088.422.347.347,0,0,0,.3.119.342.342,0,0,0,.3-.13.733.733,0,0,0,.091-.416m-.087.713a.676.676,0,0,1-.206.1.726.726,0,0,1-.232.034.707.707,0,0,1-.553-.192,1.238,1.238,0,0,1,.039-1.314.879.879,0,0,1,.654-.218.838.838,0,0,1,.642.23,1,1,0,0,1,.211.7,1.861,1.861,0,0,1-.175.763,6.225,6.225,0,0,1-.69,1.073h-.561q.368-.455.553-.71c.123-.168.229-.322.317-.465" fill="#003288"/>
        <path id="패스_30" data-name="패스 30" d="M20.331,51.218a1.168,1.168,0,0,0,.249.093,1.075,1.075,0,0,0,.26.032.7.7,0,0,0,.513-.168.655.655,0,0,0,.172-.5.432.432,0,0,0-.176-.375.911.911,0,0,0-.523-.124c-.094,0-.173,0-.241.008a1.952,1.952,0,0,0-.2.028l.254-1.3h1.343v.333h-.937l-.15.663.136-.015c.041,0,.078,0,.109,0a.9.9,0,0,1,.632.218.75.75,0,0,1,.24.581.909.909,0,0,1-.292.721,1.179,1.179,0,0,1-.812.259,2.027,2.027,0,0,1-.364-.032,1.854,1.854,0,0,1-.345-.1Z" fill="#003288"/>
        <path id="패스_31" data-name="패스 31" d="M22.423,51.635l1.024-1.442a2.155,2.155,0,0,0,.2-.352.735.735,0,0,0,.066-.289.377.377,0,0,0-.084-.269.363.363,0,0,0-.268-.088.334.334,0,0,0-.285.116.692.692,0,0,0-.084.393V49.8h-.481a.208.208,0,0,1-.005-.052v-.084a.736.736,0,0,1,.222-.585.97.97,0,0,1,.662-.2,1,1,0,0,1,.628.179.6.6,0,0,1,.228.493.92.92,0,0,1-.089.381,2.383,2.383,0,0,1-.3.468l-.694.89h1v.345Z" fill="#003288"/>
        <path id="패스_32" data-name="패스 32" d="M23.626,42.72v3.274a1.06,1.06,0,0,0,.446.95,2.6,2.6,0,0,0,1.407.3,2.628,2.628,0,0,0,1.411-.3,1.06,1.06,0,0,0,.444-.95V42.72h-.94v3.323a.529.529,0,0,1-.223.475,1.657,1.657,0,0,1-1.383,0,.527.527,0,0,1-.228-.475V42.72Z" fill="#003288"/>
        <path id="패스_33" data-name="패스 33" d="M14.025,47.252a1.724,1.724,0,0,0,1.108-.3,1.126,1.126,0,0,0,.361-.92V42.72h-.95v3.332a.616.616,0,0,1-.167.477.764.764,0,0,1-.525.153,1.465,1.465,0,0,1-.4-.061,2.175,2.175,0,0,1-.432-.186v.619a2.373,2.373,0,0,0,.49.149,2.67,2.67,0,0,0,.515.049" fill="#003288"/>
        <path id="패스_34" data-name="패스 34" d="M19.383,43.261v-.541H16.57V47.19h2.814v-.561H17.517V45.118h1.708v-.532H17.517V43.261Z" fill="#003288"/>
        <path id="패스_35" data-name="패스 35" d="M22.2,46.955a1.124,1.124,0,0,0,.359-.919V42.72h-.945v3.333a.619.619,0,0,1-.169.477.765.765,0,0,1-.526.153,1.5,1.5,0,0,1-.4-.061,2.028,2.028,0,0,1-.433-.186v.619a2.463,2.463,0,0,0,.491.149,2.577,2.577,0,0,0,.518.049,1.71,1.71,0,0,0,1.106-.3" fill="#003288"/>
        <path id="패스_36" data-name="패스 36" d="M20.708,41.282a1.777,1.777,0,0,0,.819-.271l4.772.329v-6.1l-.5-.028.221.345v5.528l-4.589-.293a1.35,1.35,0,0,1-1.6,0l-4.587.293V35.554l.219-.345-.5.028v6.1l4.773-.329a1.764,1.764,0,0,0,.818.271,1.32,1.32,0,0,0,.149,0" fill="#b0bcc2"/>
        <path id="패스_37" data-name="패스 37" d="M15.981,34.862c-.106.165-.471.736-.483.751V40.57c.107-.176.473-.782.483-.8Z" fill="#b0bcc2"/>
        <path id="패스_38" data-name="패스 38" d="M19.888,40.529l.013.012a1.066,1.066,0,0,0,.543.251,1.041,1.041,0,0,0-.535-.782,3.336,3.336,0,0,0-1.51-.259c-.316,0-.653.019-1.038.056s-.763.092-1.162.163c-.017.027-.442.728-.506.834.142-.008,4.194-.275,4.194-.275" fill="#b0bcc2"/>
        <path id="패스_39" data-name="패스 39" d="M25.769,35.614l-.482-.751v4.912c.01.015.375.62.482.8Z" fill="#b0bcc2"/>
        <path id="패스_40" data-name="패스 40" d="M21.357,40.01a1.048,1.048,0,0,0-.536.782,1.062,1.062,0,0,0,.545-.251l.013-.012s4.054.267,4.194.275c-.065-.106-.488-.807-.5-.834-.4-.071-.792-.126-1.164-.164s-.722-.055-1.037-.055a3.343,3.343,0,0,0-1.51.259" fill="#b0bcc2"/>
        <path id="패스_41" data-name="패스 41" d="M23.9,34.339a9.847,9.847,0,0,0-1.07-.06l-.478.02-.364.054a1.919,1.919,0,0,0-.664.255l-.052.039-.022.017a1.626,1.626,0,0,0-.465.486v4.977a1.16,1.16,0,0,1,.253-.245,2.974,2.974,0,0,1,1.207-.374l.022,0,.023,0a7.089,7.089,0,0,1,.891-.029l.661.045c.335.032.723.082,1.157.146v-5.15c-.376-.077-.747-.137-1.1-.175m.482,1.1a2.383,2.383,0,0,1-1.4,1.34s.183.044.608.544a1.752,1.752,0,0,0,.556.457s-.6,1.175-.661,1.313a2.617,2.617,0,0,1-.741-1.16.212.212,0,0,0-.209-.108s-.477.052-.672.068a.175.175,0,0,1-.193,0L21.6,37.82s-.017,0-.047-.021a.159.159,0,0,1-.066-.114.125.125,0,0,1,.039-.1,7.07,7.07,0,0,0,.944-.74s-.008.028.036-.083a1.546,1.546,0,0,1-.381-.157s-.168-.114-.163-.261l.039,0s0,.178.346.283a.759.759,0,0,1-.113-.251.169.169,0,0,1,.048-.011s.1.29.264.3c0,0,.326-.2.351-.423,0,0-.136-.083-.19-.421l.045-.025s.054.319.214.31c0,0,.145,0,.235-.269a1.3,1.3,0,0,0,.071-.445,1.562,1.562,0,0,0-.033-.217l.033-.053a.959.959,0,0,1,.044.164.678.678,0,0,1,.127-.326l.03.016a.582.582,0,0,0-.078.359,1.617,1.617,0,0,1-.107.576,2.4,2.4,0,0,1-.54.8,4.846,4.846,0,0,0,.661-.32s.2-.122.221-.54h.052a.88.88,0,0,1-.006.341,1.434,1.434,0,0,0,.6-.731.45.45,0,0,0-.013-.3l.022-.028a.534.534,0,0,1,.074.206.377.377,0,0,1,.225-.2l.012.031a.552.552,0,0,0-.217.28" fill="#b0bcc2"/>
        <path id="패스_42" data-name="패스 42" d="M20.019,34.663,20,34.648l-.053-.038a1.9,1.9,0,0,0-.662-.256l-.367-.054-.476-.02a9.593,9.593,0,0,0-1.07.06c-.355.038-.724.1-1.1.174v5.151c.433-.065.822-.115,1.156-.146l.663-.046a7.158,7.158,0,0,1,.887.03l.027,0,.025,0a2.943,2.943,0,0,1,1.2.377,1.115,1.115,0,0,1,.254.243V35.151a1.631,1.631,0,0,0-.468-.488m-.665,4.155H17.5a4.137,4.137,0,0,0-.288-2.208c.39-.434.884-1.075,1.1-1.363v1.724a.293.293,0,1,0,.217,0V35.233c.211.279.717.935,1.113,1.377a4.133,4.133,0,0,0-.286,2.208" fill="#b0bcc2"/>
      </g>
    </g>
  </g>
</svg>
