<svg xmlns="http://www.w3.org/2000/svg" width="114.352" height="136.613" viewBox="0 0 114.352 136.613"><path d="M44.706,30.861c-1.927,4.585-8.053,12.254-8.053,12.254-3.18,4.187-6.946,9.44-8.273,16.383-2.8,19.216,9.133,29.115,16.453,31.9A26.057,26.057,0,0,1,31.364,63.717c1.187-5.893,4.338-11.949,11.494-19.649,0,0,8.442-8.8,9.582-16.454,0,0,4.015-17.1-11.794-27.614,7.945,9.89,8.1,21.32,4.061,30.861" fill="#64a91c"/><path d="M55.084,33.775c-2.5,5.982-9.045,11.979-9.045,11.979C35.7,55.726,34.377,61.641,34.377,61.641A25.222,25.222,0,0,0,36.9,82.668a22.169,22.169,0,0,0,13.57,9.825A17.9,17.9,0,0,1,38.4,76.751c-.439-5.942,2.891-13.464,12.511-21.037a53.259,53.259,0,0,0,8.617-8.735,28.982,28.982,0,0,0,5.441-13.027A31.043,31.043,0,0,0,63.19,18.746,33.01,33.01,0,0,0,54.617,5.835c7.323,14.135.467,27.94.467,27.94" fill="#b0bcc2"/><path d="M90.872,65.063V32.124H77.822V68.853c-.038,2.551-.262,5.4-.262,5.4-.452,4.349-1.35,5.967-1.35,5.967a20.386,20.386,0,0,1-7.692,9.367C54.9,98.775,41.285,91.175,41.285,91.175c17.021,10.1,33.585.794,33.585.794,11.658-6.757,14.838-15.952,15.7-20.9a46.573,46.573,0,0,0,.307-6.009" fill="#003288"/><path d="M38.635,89.088A29.547,29.547,0,0,1,27.674,73.994a35.023,35.023,0,0,1-1.109-15.9A41.216,41.216,0,0,1,30.5,46.833a62.86,62.86,0,0,1,4.549-6.876,62.609,62.609,0,0,0,3.844-6.016s6.79-10.84-1.566-21.678c0,0,3.4,8.789-1.039,16.976,0,0-2.086,3.577-4.352,6.968,0,0-4.98,7.21-6.437,12.1a35.905,35.905,0,0,0-1.129,19.98s2.357,14.239,14.266,20.8" fill="#0099e7"/><path d="M52.216,88.4V84.3h-.8v-.559h1.622V88.4Z" fill="#003288"/><path d="M56.429,85.173a1.207,1.207,0,0,0-.162-.71.6.6,0,0,0-.516-.224.556.556,0,0,0-.488.221,1.325,1.325,0,0,0-.15.72,1.285,1.285,0,0,0,.149.722.708.708,0,0,0,1,0l.013-.013a1.278,1.278,0,0,0,.153-.712m-.147,1.219a1.158,1.158,0,0,1-.35.178,1.269,1.269,0,0,1-.392.056,1.188,1.188,0,0,1-.94-.327,2.133,2.133,0,0,1,.068-2.25,1.475,1.475,0,0,1,1.109-.373,1.409,1.409,0,0,1,1.088.4,1.726,1.726,0,0,1,.358,1.189,3.211,3.211,0,0,1-.3,1.307,10.8,10.8,0,0,1-1.17,1.839H54.8q.623-.78.936-1.216c.208-.29.39-.552.539-.8" fill="#003288"/><path d="M57.97,87.691a2.052,2.052,0,0,0,.422.161,1.882,1.882,0,0,0,.442.053,1.19,1.19,0,0,0,.87-.287,1.132,1.132,0,0,0,.3-.85.741.741,0,0,0-.3-.641,1.525,1.525,0,0,0-.887-.214,3.328,3.328,0,0,0-.408.015c-.115.015-.231.027-.338.048l.43-2.227h2.278v.571h-1.59l-.254,1.136c.085-.012.162-.02.232-.026s.132-.006.184-.006a1.522,1.522,0,0,1,1.073.375,1.287,1.287,0,0,1,.405.993,1.56,1.56,0,0,1-.495,1.234,1.993,1.993,0,0,1-1.378.443,3.27,3.27,0,0,1-.617-.055,3.111,3.111,0,0,1-.584-.165Z" fill="#003288"/><path d="M61.52,88.4l1.736-2.47a3.536,3.536,0,0,0,.345-.6,1.266,1.266,0,0,0,.112-.5.647.647,0,0,0-.144-.459.61.61,0,0,0-.455-.15.568.568,0,0,0-.483.2,1.194,1.194,0,0,0-.144.673v.162h-.816a.458.458,0,0,1-.009-.09v-.144a1.271,1.271,0,0,1,.376-1,1.636,1.636,0,0,1,1.124-.336,1.675,1.675,0,0,1,1.066.306,1.029,1.029,0,0,1,.387.845,1.61,1.61,0,0,1-.15.651,4.105,4.105,0,0,1-.509.8L62.78,87.813h1.7V88.4Z" fill="#003288"/><path d="M63.559,73.14v5.6a1.819,1.819,0,0,0,.757,1.628,4.364,4.364,0,0,0,2.387.509,4.413,4.413,0,0,0,2.393-.509,1.821,1.821,0,0,0,.754-1.628v-5.6H68.256v5.689a.913.913,0,0,1-.377.813,2.8,2.8,0,0,1-2.346,0,.91.91,0,0,1-.386-.813V73.14Z" fill="#003288"/><path d="M47.271,80.9a2.9,2.9,0,0,0,1.881-.51,1.933,1.933,0,0,0,.611-1.573V73.14h-1.61v5.705a1.062,1.062,0,0,1-.282.816,1.3,1.3,0,0,1-.892.261,2.441,2.441,0,0,1-.679-.1,3.581,3.581,0,0,1-.733-.318v1.06a3.9,3.9,0,0,0,.831.256,4.426,4.426,0,0,0,.874.084" fill="#003288"/><path d="M56.363,74.068V73.14H51.589v7.653h4.773v-.96H53.2V77.246h2.9v-.91H53.2V74.068Z" fill="#003288"/><path d="M61.14,80.39a1.928,1.928,0,0,0,.609-1.573V73.14h-1.6v5.705a1.063,1.063,0,0,1-.285.816,1.3,1.3,0,0,1-.893.262,2.533,2.533,0,0,1-.681-.106,3.461,3.461,0,0,1-.734-.318v1.06a4.124,4.124,0,0,0,.834.256,4.309,4.309,0,0,0,.877.084,2.882,2.882,0,0,0,1.877-.51" fill="#003288"/><path d="M58.609,70.678A2.989,2.989,0,0,0,60,70.214l8.1.563V60.331l-.844-.051.375.592v9.464l-7.786-.5a2.28,2.28,0,0,1-2.712,0l-7.782.5V60.872l.372-.592-.845.051V70.778l8.1-.563a2.959,2.959,0,0,0,1.387.464,2.137,2.137,0,0,0,.253,0" fill="#b0bcc2"/><path d="M50.59,59.686c-.18.284-.8,1.26-.819,1.287v8.486c.181-.3.8-1.338.819-1.363Z" fill="#b0bcc2"/><path d="M57.219,69.39l.022.022a1.805,1.805,0,0,0,.922.43,1.791,1.791,0,0,0-.907-1.341,5.64,5.64,0,0,0-2.562-.442c-.535,0-1.108.032-1.758.1-.631.064-1.3.157-1.973.279-.028.046-.748,1.248-.858,1.429l7.115-.471" fill="#b0bcc2"/><path d="M67.2,60.974c-.016-.027-.638-1-.818-1.287V68.1c.016.025.637,1.063.818,1.363Z" fill="#b0bcc2"/><path d="M59.711,68.5a1.792,1.792,0,0,0-.908,1.341,1.8,1.8,0,0,0,.923-.43l.022-.022,7.115.47c-.11-.181-.828-1.382-.856-1.429-.678-.122-1.343-.215-1.975-.279-.648-.063-1.224-.1-1.758-.1a5.631,5.631,0,0,0-2.563.442" fill="#b0bcc2"/><path d="M64.022,58.792a16.436,16.436,0,0,0-1.815-.1l-.811.034-.619.093a3.289,3.289,0,0,0-1.126.437l-.088.068-.038.026a2.8,2.8,0,0,0-.789.834V68.7a1.965,1.965,0,0,1,.43-.419,4.988,4.988,0,0,1,2.047-.642h.076A12.1,12.1,0,0,1,62.8,67.58l1.122.079c.567.055,1.227.139,1.962.249V59.091c-.638-.134-1.265-.234-1.863-.3m.818,1.888a4.066,4.066,0,0,1-2.373,2.3s.309.075,1.032.931a2.988,2.988,0,0,0,.942.782S63.42,66.7,63.319,66.94a4.448,4.448,0,0,1-1.258-1.986.358.358,0,0,0-.354-.186s-.81.091-1.14.118a.3.3,0,0,1-.329,0l-.12-.127s-.028.008-.078-.037a.267.267,0,0,1-.11-.193.211.211,0,0,1,.07-.18,11.923,11.923,0,0,0,1.6-1.267s-.014.048.061-.143a2.566,2.566,0,0,1-.647-.269s-.286-.195-.278-.448l.068-.005s0,.3.587.484a1.281,1.281,0,0,1-.192-.43.287.287,0,0,1,.082-.018s.165.5.447.507c0,0,.553-.339.6-.724,0,0-.229-.141-.323-.719l.076-.044s.092.547.364.533c0,0,.247-.006.4-.463a2.263,2.263,0,0,0,.121-.761,2.9,2.9,0,0,0-.057-.37l.057-.092a1.684,1.684,0,0,1,.074.281,1.178,1.178,0,0,1,.217-.56l.05.029a1,1,0,0,0-.132.616,2.808,2.808,0,0,1-.181.985,4.116,4.116,0,0,1-.918,1.371,8.033,8.033,0,0,0,1.122-.549s.335-.206.376-.923h.087a1.52,1.52,0,0,1-.01.582A2.454,2.454,0,0,0,64.667,60.7a.773.773,0,0,0-.023-.509l.038-.048a.881.881,0,0,1,.122.352.646.646,0,0,1,.383-.35l.022.052a.943.943,0,0,0-.37.48" fill="#b0bcc2"/><path d="M57.441,59.347l-.034-.027-.089-.067a3.253,3.253,0,0,0-1.124-.438l-.623-.093-.806-.034a16.437,16.437,0,0,0-1.815.1c-.6.065-1.229.166-1.865.3V67.9c.735-.11,1.4-.194,1.96-.249l1.126-.079a11.919,11.919,0,0,1,1.5.052h.088a4.954,4.954,0,0,1,2.042.644,1.886,1.886,0,0,1,.429.417V60.17a2.788,2.788,0,0,0-.792-.834m-1.129,7.112H53.16c.481-1.344-.488-3.779-.488-3.779.66-.744,1.5-1.841,1.87-2.334V63.3a.5.5,0,1,0,.368,0V60.322c.359.477,1.217,1.6,1.889,2.358,0,0-.968,2.435-.486,3.779" fill="#b0bcc2"/><path d="M71.51,112.975c0,2.67,2.763,4.839,6.172,4.839s6.178-2.169,6.178-4.839a4.378,4.378,0,0,0-1.838-3.443h2.351v-1.893H79.579v-2.183H75.793v2.183H71v1.893h2.342a4.4,4.4,0,0,0-1.832,3.443m6.172-3.052a3.09,3.09,0,1,1-2.62,3.052,2.862,2.862,0,0,1,2.62-3.052m-5.458,26.605h1.108v-3.91l2.314,3.91H76.74V130.94H75.634v3.884l-2.325-3.884H72.224Zm-18.022-1.1h1.985l.419,1.1H57.8l-2.042-5.588H54.647L52.6,136.529h1.188Zm1-3.04.783,2.419H54.413ZM49.487,119.7a2.777,2.777,0,0,0,1.888.6H56.4a5.938,5.938,0,0,0,1.749-.214c.477-.144.906-.283,1.5-.517v7.438H63.2V113.688h1.67v13.326h3.548V106.027H64.871v5.705H63.2v-5.705H59.655v11.789a10.132,10.132,0,0,1-1.452.4,8.234,8.234,0,0,1-1.665.144H52.48v-9.6h5.347v-1.95H48.8v11.272a2.044,2.044,0,0,0,.691,1.62m40.744-6.6h3.043v-1.95H90.231v-5.165H86.488v12.444h3.744Zm-76.817,17.84v4.091a1.329,1.329,0,0,0,.55,1.188,3.184,3.184,0,0,0,1.746.373,3.206,3.206,0,0,0,1.747-.373,1.334,1.334,0,0,0,.547-1.188v-4.091H16.846V135.1a.654.654,0,0,1-.273.588,1.5,1.5,0,0,1-.858.192,1.519,1.519,0,0,1-.857-.192.654.654,0,0,1-.28-.588v-4.156Zm52.593,0v4.091a1.329,1.329,0,0,0,.55,1.188,4.261,4.261,0,0,0,3.489,0,1.328,1.328,0,0,0,.554-1.188v-4.091h-1.16V135.1a.669.669,0,0,1-.277.588,1.514,1.514,0,0,1-.856.192,1.533,1.533,0,0,1-.862-.192.65.65,0,0,1-.278-.588v-4.156Zm45.983,0-.737,1.567c-.061.138-.117.281-.166.421a4.759,4.759,0,0,0-.135.47c-.049-.189-.1-.36-.156-.515a2.925,2.925,0,0,0-.15-.383l-.729-1.559H108.7l1.642,3.21v2.378h1.211v-2.378l1.662-3.21Zm-53.175,0v5.588h3.7v-.7h-2.53v-4.887Zm55.533-6.95h-7.884v-8.486H102.86v8.486H101v-8.486H97.391v8.486H93.867v1.925h20.484Zm-5.913-8.789q0,2.359-.149,3.878a5.784,5.784,0,0,1-.875,2.613h3.3a7.892,7.892,0,0,0,1.038-2.564,16.389,16.389,0,0,0,.374-3.675v-8.521H95.558v1.951h12.88ZM92.785,130.942h-1.41v5.588h1.174V133.8h.032l2,2.73h1.261l-2.082-2.751a2.2,2.2,0,0,0,1.24-.41,1.347,1.347,0,0,0-.189-2.09,4.428,4.428,0,0,0-2.021-.338m1.141,2.211a1.839,1.839,0,0,1-1.023.217h-.354v-1.762h.317a2.3,2.3,0,0,1,1.069.171.672.672,0,0,1,.283.624.859.859,0,0,1-.292.749m12.805,3.377v-4.885h1.62v-.7h-4.425v.7h1.618v4.885Zm-7.819-.862a1.59,1.59,0,0,1-.856.2,3.1,3.1,0,0,1-.658-.079,4.887,4.887,0,0,1-.774-.241v.766a4.949,4.949,0,0,0,.774.211,4.211,4.211,0,0,0,.744.069,2.949,2.949,0,0,0,1.631-.415,1.231,1.231,0,0,0,.64-1.058,1.191,1.191,0,0,0-.312-.808,3.637,3.637,0,0,0-1.06-.745c-.035-.021-.1-.051-.178-.091-.856-.437-1.285-.822-1.285-1.144a.633.633,0,0,1,.335-.554,1.678,1.678,0,0,1,.888-.21,3,3,0,0,1,.641.075,4.091,4.091,0,0,1,.663.229v-.749a3.9,3.9,0,0,0-.744-.194,4.712,4.712,0,0,0-.778-.062,2.707,2.707,0,0,0-1.549.419,1.238,1.238,0,0,0-.627,1.055,1.159,1.159,0,0,0,.308.787,3.879,3.879,0,0,0,1.087.76c.042.026.118.065.216.115q1.2.639,1.2,1.125a.617.617,0,0,1-.31.54m2.777.862h1.174v-5.588H101.69Zm-66.3,0v-4.885H37v-.7H32.579v.7H34.2v4.885Zm54.6-4.912v-.675H86.5v5.588h3.482v-.7H87.677v-1.885h2.111v-.663H87.677v-1.663Zm-10.375-.675H78.439v5.588H79.61Zm2.253,0h-1.2l1.917,5.588h.993l1.917-5.588H84.308l-1.222,3.792Zm8.369-11.582H73.1v1.927H86.488v5.688h3.744ZM3.454,116.71A5.614,5.614,0,0,1,0,119.325l1.72,1.321a6.055,6.055,0,0,0,3.133-1.5,4.923,4.923,0,0,0,1.8-2.609,5.142,5.142,0,0,0,1.822,2.609,5.974,5.974,0,0,0,3.093,1.5l1.666-1.272v7.64h3.522V106.027H13.238v5.738H10.157v1.954h3.081V119.1a5.376,5.376,0,0,1-3.387-2.407,9.1,9.1,0,0,1-1.365-5.047v-3h3.03v-1.925H1.529v1.925H4.8v3a9.205,9.205,0,0,1-1.35,5.066m18.677,14.232v5.588h1.114v-3.91l2.306,3.91h1.1v-5.588H25.541v3.884l-2.322-3.884ZM1.3,136.606a2.088,2.088,0,0,0,1.368-.37,1.409,1.409,0,0,0,.449-1.149v-4.145H1.945V135.1a.791.791,0,0,1-.2.6.958.958,0,0,1-.653.193,1.844,1.844,0,0,1-.5-.073,2.914,2.914,0,0,1-.529-.236v.773a3.071,3.071,0,0,0,.6.188,3.378,3.378,0,0,0,.642.06m20.457-30.578h-3.53v20.987h3.53ZM8.235,131.617v-.675H4.754v5.588H8.235v-.7H5.927v-1.885h2.11v-.663H5.927v-1.663Zm22.624-18.961a10.107,10.107,0,0,1-5.537,1.76l1.466,1.473a14.457,14.457,0,0,0,5.262-1.064,6.226,6.226,0,0,0,3.348-2.59,6.443,6.443,0,0,0,3.37,2.578A14.18,14.18,0,0,0,44,115.89l1.469-1.473a10.136,10.136,0,0,1-5.52-1.76q-2.669-1.732-2.666-4.039v-.131H43.89v-1.954H26.9v1.954h6.6v.131q0,2.3-2.648,4.039m14.2,23.276a4.484,4.484,0,0,0,0-4.4,2.381,2.381,0,0,0-1.893-.666,2.415,2.415,0,0,0-1.9.666,4.462,4.462,0,0,0,0,4.4,2.411,2.411,0,0,0,1.9.661,2.386,2.386,0,0,0,1.893-.661m-2.881-.541a3.3,3.3,0,0,1-.306-1.672,3.347,3.347,0,0,1,.3-1.67,1.269,1.269,0,0,1,1.783-.2,1.231,1.231,0,0,1,.2.2,3.414,3.414,0,0,1,.292,1.674,3.5,3.5,0,0,1-.286,1.7,1.049,1.049,0,0,1-.981.461,1.076,1.076,0,0,1-1-.486m8.321,1.138h1.1v-5.588H50.483v3.884l-2.317-3.884H47.081v5.588h1.111v-3.91Zm-22.845,0h1.191l.4-1.1h1.994l.413,1.1h1.187l-2.038-5.6H29.7Zm3.384-1.719h-1.57l.788-2.419Zm7,1.719H39.22v-5.588H38.045Zm-4.509-9.515h3.746v-7.276h8.856v-1.924H24.658v1.924h8.878Zm-22.172,9.221a1.418,1.418,0,0,0,.442-1.149v-4.145h-1.17V135.1a.763.763,0,0,1-.207.6.944.944,0,0,1-.656.193,1.781,1.781,0,0,1-.492-.073,2.8,2.8,0,0,1-.534-.236v.773a3.118,3.118,0,0,0,.6.188,3.272,3.272,0,0,0,.64.06,2.124,2.124,0,0,0,1.372-.37" fill="#5f5e5e"/></svg>