<svg xmlns="http://www.w3.org/2000/svg" width="203.29" height="50" viewBox="0 0 203.29 50"><path d="M9.457,47.547A14.657,14.657,0,0,0,23.9,46.719a10.69,10.69,0,0,0,4.081-4.885,8.946,8.946,0,0,0,.716-3.111s.118-1.486.139-2.815V16.753h6.923V33.93a24.132,24.132,0,0,1-.162,3.134c-.456,2.579-2.143,7.374-8.327,10.9A19.785,19.785,0,0,1,18.523,50a17.784,17.784,0,0,1-9.066-2.453M7.13,43.111A12.967,12.967,0,0,1,5.791,32.145s.706-3.084,6.188-8.285c0,0,3.472-3.127,4.8-6.247,0,0,3.638-7.2-.247-14.571a17.22,17.22,0,0,1,4.549,6.734,15.944,15.944,0,0,1,.941,7.929A14.949,14.949,0,0,1,19.136,24.5a28.063,28.063,0,0,1-4.571,4.556C9.465,33,7.7,36.927,7.928,40.025a9.374,9.374,0,0,0,6.4,8.211,11.762,11.762,0,0,1-7.2-5.125M2.61,31.028A20.3,20.3,0,0,1,7,22.484a38.624,38.624,0,0,0,4.272-6.39A15.155,15.155,0,0,0,9.117,0a13.926,13.926,0,0,1,6.257,14.4c-.6,3.99-5.083,8.582-5.083,8.582-3.8,4.015-5.467,7.172-6.1,10.246a13.539,13.539,0,0,0,7.145,14.438C7.455,46.212,1.123,41.049,2.61,31.028M.483,35.612a18.42,18.42,0,0,1,.6-10.417A29.828,29.828,0,0,1,4.5,18.883c1.2-1.769,2.309-3.634,2.309-3.634A11.357,11.357,0,0,0,7.358,6.4,10.033,10.033,0,0,1,8.188,17.7a32.629,32.629,0,0,1-2.039,3.137,32.774,32.774,0,0,0-2.414,3.586A21.247,21.247,0,0,0,1.649,30.3a18,18,0,0,0,.589,8.294,15.454,15.454,0,0,0,5.816,7.87C1.734,43.036.484,35.611.484,35.611ZM18.5,46.112a1.657,1.657,0,0,1-.31-.086l.118-.29a1.039,1.039,0,0,0,.224.083.974.974,0,0,0,.234.029.637.637,0,0,0,.462-.15.579.579,0,0,0,.155-.443.386.386,0,0,0-.158-.335.83.83,0,0,0-.472-.111,1.98,1.98,0,0,0-.216.007,1.792,1.792,0,0,0-.179.025l.229-1.162H19.8v.3h-.843l-.135.592.123-.014h.1a.818.818,0,0,1,.569.2.664.664,0,0,1,.216.518.806.806,0,0,1-.263.644,1.068,1.068,0,0,1-.731.231,1.829,1.829,0,0,1-.33-.043Zm1.69,0,.922-1.287a1.9,1.9,0,0,0,.183-.315.652.652,0,0,0,.059-.257.276.276,0,0,0-.317-.318.3.3,0,0,0-.257.1.614.614,0,0,0-.076.351v.084h-.433a.148.148,0,0,1,0-.047V44.34a.651.651,0,0,1,.2-.522.879.879,0,0,1,.6-.175.912.912,0,0,1,.566.159.533.533,0,0,1,.2.441.815.815,0,0,1-.08.339,2.113,2.113,0,0,1-.269.418l-.625.795h.9V46.1Zm-3.561,0c.221-.271.387-.482.5-.634s.206-.288.285-.416a.643.643,0,0,1-.185.093.667.667,0,0,1-.208.03.639.639,0,0,1-.5-.171,1.1,1.1,0,0,1,.035-1.174.792.792,0,0,1,.589-.194.757.757,0,0,1,.578.205.892.892,0,0,1,.19.621,1.637,1.637,0,0,1-.158.681,5.472,5.472,0,0,1-.621.958Zm.242-2.057a.689.689,0,0,0-.08.375.667.667,0,0,0,.079.377.383.383,0,0,0,.538-.009.653.653,0,0,0,.082-.372.632.632,0,0,0-.086-.37.316.316,0,0,0-.275-.118.3.3,0,0,0-.257.107ZM15.255,46.1V43.967h-.427v-.292h.86V46.1Zm3.273-3.957a2.253,2.253,0,0,1-.442-.133v-.553a1.788,1.788,0,0,0,.39.166,1.338,1.338,0,0,0,.361.055.7.7,0,0,0,.473-.136.551.551,0,0,0,.151-.426V38.143h.851V41.1a1,1,0,0,1-.323.821,1.55,1.55,0,0,1-1,.265,2.3,2.3,0,0,1-.461-.041Zm-6.359,0a2.134,2.134,0,0,1-.441-.133v-.553a1.906,1.906,0,0,0,.389.166,1.338,1.338,0,0,0,.361.055.7.7,0,0,0,.473-.136.548.548,0,0,0,.15-.427V38.143h.854V41.1a1,1,0,0,1-.324.822,1.563,1.563,0,0,1-1,.265,2.385,2.385,0,0,1-.462-.042Zm9.506-.23a.942.942,0,0,1-.4-.849V38.143h.841v2.966a.467.467,0,0,0,.2.424,1.5,1.5,0,0,0,1.245,0,.467.467,0,0,0,.2-.424V38.143h.846v2.923a.945.945,0,0,1-.4.849,2.392,2.392,0,0,1-1.27.265,2.351,2.351,0,0,1-1.267-.265Zm-6.752.22V38.142h2.532v.484H15.776V39.81H17.31v.474H15.773v1.349h1.679v.5Zm36.1-1.3a2.453,2.453,0,0,1-.488-.148v-.609a2.15,2.15,0,0,0,.43.184,1.467,1.467,0,0,0,.4.059.771.771,0,0,0,.523-.15.609.609,0,0,0,.168-.471V36.409H53V39.68a1.1,1.1,0,0,1-.358.906,1.706,1.706,0,0,1-1.1.294,2.5,2.5,0,0,1-.518-.05Zm-6.982,0a2.425,2.425,0,0,1-.485-.148v-.609a2.227,2.227,0,0,0,.429.184,1.467,1.467,0,0,0,.4.059.775.775,0,0,0,.524-.15.612.612,0,0,0,.167-.471V36.409h.934V39.68a1.108,1.108,0,0,1-.358.906,1.732,1.732,0,0,1-1.1.294,2.531,2.531,0,0,1-.514-.05Zm77.706-.015a4.08,4.08,0,0,1-.622-.167v-.6a4.251,4.251,0,0,0,.616.188,2.457,2.457,0,0,0,.533.063,1.286,1.286,0,0,0,.687-.157.479.479,0,0,0,.255-.423q0-.39-.972-.891c-.077-.04-.135-.068-.171-.09a3.137,3.137,0,0,1-.873-.6.893.893,0,0,1-.248-.621.971.971,0,0,1,.5-.83,2.165,2.165,0,0,1,1.243-.335,4.261,4.261,0,0,1,.628.047,3.767,3.767,0,0,1,.6.152v.6a2.787,2.787,0,0,0-.533-.18,2.3,2.3,0,0,0-.516-.061,1.357,1.357,0,0,0-.714.167.5.5,0,0,0-.266.438q0,.382,1.031.9c.065.033.114.059.148.075a2.813,2.813,0,0,1,.847.584.944.944,0,0,1,.249.643.976.976,0,0,1-.51.834,2.4,2.4,0,0,1-1.318.328,3.421,3.421,0,0,1-.6-.067Zm-24.771-.24a1.043,1.043,0,0,1-.442-.937V36.409h.93v3.277a.525.525,0,0,0,.226.469,1.264,1.264,0,0,0,.692.15,1.242,1.242,0,0,0,.686-.15.531.531,0,0,0,.221-.469V36.409h.932v3.229a1.041,1.041,0,0,1-.444.937,3.472,3.472,0,0,1-2.8,0Zm-20.314-.229a3.456,3.456,0,0,1,0-3.473,2.469,2.469,0,0,1,3.044,0,2.615,2.615,0,0,1,.464,1.742,2.6,2.6,0,0,1-.464,1.734,2.474,2.474,0,0,1-3.044,0Zm.722-3.069a3.756,3.756,0,0,0,0,2.642.884.884,0,0,0,.808.385.857.857,0,0,0,.79-.365,2.69,2.69,0,0,0,.23-1.339,2.674,2.674,0,0,0-.234-1.325,1.038,1.038,0,0,0-1.461-.139,1.074,1.074,0,0,0-.139.139Zm-22.653,3.3a1.044,1.044,0,0,1-.445-.937V36.409h.931v3.277a.523.523,0,0,0,.228.469,1.653,1.653,0,0,0,1.376,0,.529.529,0,0,0,.221-.469V36.409h.932v3.229a1.038,1.038,0,0,1-.44.937,3.472,3.472,0,0,1-2.8,0Zm77.417.243V38.94l-1.326-2.532h.979l.589,1.229a2.165,2.165,0,0,1,.122.3c.047.131.088.265.122.4.036-.13.069-.248.111-.364a3.17,3.17,0,0,1,.137-.337l.589-1.233h.983l-1.333,2.532v1.877Zm-3.859,0V36.961h-1.3v-.553h3.558v.553h-1.3v3.856Zm-3.094,0V36.409h.941v4.409Zm-5.711,0-1.612-2.154h-.023v2.154h-.94V36.409h1.13a3.619,3.619,0,0,1,1.626.265,1.048,1.048,0,0,1,.316,1.449,1.016,1.016,0,0,1-.165.2,1.772,1.772,0,0,1-.994.324l1.672,2.173Zm-1.634-2.5h.288a1.464,1.464,0,0,0,.816-.169.676.676,0,0,0,.24-.6.522.522,0,0,0-.229-.491,1.858,1.858,0,0,0-.856-.135h-.26Zm-4.856,2.5V36.409h2.8v.532h-1.855V38.25h1.7v.523h-1.7v1.491h1.855v.553Zm-3.148,0-1.536-4.414h.955l.986,2.993.986-2.993h.947l-1.538,4.409Zm-3.33,0V36.409h.939v4.409Zm-2.246,0-1.86-3.092v3.087h-.891V36.409h.876l1.861,3.062V36.409h.891v4.409Zm-13.514,0V36.409H91.7v3.856h2.027v.553Zm-1.774,0-.336-.865h-1.6l-.326.865h-.956l1.64-4.409h.89l1.641,4.409ZM87.22,39.464h1.261l-.627-1.911Zm-3.145,1.359-1.852-3.087v3.087h-.89V36.409H82.2l1.863,3.062V36.409h.895v4.409Zm-10,0V36.409h.935v4.409Zm-3.089,0V36.961h-1.3v-.553h3.555v.553h-1.3v3.856Zm-2.041,0-.338-.865h-1.6l-.324.865h-.956l1.641-4.409h.888L69.9,40.823Zm-1.76-1.359h1.262l-.629-1.911ZM64.04,40.823l-1.853-3.087v3.087h-.9V36.409h.875l1.863,3.062V36.409h.893v4.409Zm-16.707,0V36.409h2.8v.532H48.277V38.25h1.7v.523h-1.7v1.491h1.856v.553Zm-27.941-4.2a1.6,1.6,0,0,1-.737.242,1,1,0,0,1-.134,0,1.6,1.6,0,0,1-.736-.242l-4.3.294V31.462l.449-.025-.2.308V36.68l4.128-.261a1.223,1.223,0,0,0,1.439,0l4.13.261V31.745l-.2-.308.447.025v5.449Zm-.134-.43-.011.012a.966.966,0,0,1-.49.223.939.939,0,0,1,.482-.7A3.026,3.026,0,0,1,20.6,35.5c.283,0,.59.017.933.049s.688.083,1.048.146l.454.745c-.134-.012-3.783-.251-3.783-.251Zm-4.659-.5c.359-.063.711-.112,1.046-.145s.65-.05.933-.05a3.026,3.026,0,0,1,1.359.231.932.932,0,0,1,.482.7.971.971,0,0,1-.489-.223l-.013-.012-3.775.246c.051-.1.434-.729.449-.753Zm8.177-.175V31.127l.434.671v4.426c-.1-.158-.433-.7-.442-.712ZM13.966,31.8c.011-.014.339-.523.435-.671v4.385c-.009.013-.338.554-.435.712Zm4.756-.412a1.458,1.458,0,0,1,.418-.435l.021-.015.047-.035a1.73,1.73,0,0,1,.6-.228l.328-.049.431-.018a9.092,9.092,0,0,1,.962.054c.317.034.651.087.989.157v4.6c-.39-.058-.74-.1-1.041-.131l-.595-.041a6.475,6.475,0,0,0-.8.026h-.04a2.687,2.687,0,0,0-1.087.334,1.057,1.057,0,0,0-.228.22Zm1.765,2.486a2.338,2.338,0,0,0,.668,1.036c.053-.123.594-1.173.594-1.173a1.579,1.579,0,0,1-.5-.408c-.383-.447-.548-.486-.548-.486a2.132,2.132,0,0,0,1.259-1.2.5.5,0,0,1,.2-.25l-.011-.028a.338.338,0,0,0-.2.183.47.47,0,0,0-.067-.184l-.019.026a.4.4,0,0,1,.012.265,1.287,1.287,0,0,1-.544.653.777.777,0,0,0,.005-.3h-.047a.581.581,0,0,1-.2.481,4.394,4.394,0,0,1-.6.286,2.145,2.145,0,0,0,.486-.715,1.421,1.421,0,0,0,.1-.515.52.52,0,0,1,.07-.32l-.026-.014a.606.606,0,0,0-.115.292.842.842,0,0,0-.04-.147l-.03.048a1.282,1.282,0,0,1,.03.194,1.133,1.133,0,0,1-.064.4c-.081.238-.211.241-.211.241-.145.008-.193-.277-.193-.277l-.04.022c.049.3.171.375.171.375-.022.2-.316.378-.316.378-.149-.006-.238-.265-.238-.265a.158.158,0,0,0-.043.01.651.651,0,0,0,.1.223c-.311-.094-.311-.252-.311-.252h-.035a.345.345,0,0,0,.147.234,1.39,1.39,0,0,0,.344.14c-.04.1-.032.074-.032.074a6.324,6.324,0,0,1-.85.661.115.115,0,0,0-.035.089.14.14,0,0,0,.059.1c.026.023.041.02.041.02l.064.066a.157.157,0,0,0,.174,0c.176-.014.6-.061.6-.061a.191.191,0,0,1,.178.092Zm-2.26,1.741a2.649,2.649,0,0,0-1.082-.337H17.1a6.678,6.678,0,0,0-.8-.027l-.6.041c-.3.028-.651.072-1.04.131v-4.6c.338-.069.67-.122.989-.156a8.607,8.607,0,0,1,.963-.054l.427.018.331.049a1.725,1.725,0,0,1,.6.229l.048.034.018.014a1.455,1.455,0,0,1,.42.436v4.443a.965.965,0,0,0-.236-.228Zm-2.722-2.923a3.668,3.668,0,0,1,.259,1.971h1.672a3.657,3.657,0,0,1,.257-1.971c-.356-.394-.812-.98-1-1.229V33.01a.258.258,0,0,1,.166.241.263.263,0,1,1-.361-.241V31.471c-.2.257-.651.829-1,1.217Zm80.118.617V22.781H94.284V33.3H91.432V27.43c-.48.186-.823.3-1.206.411a5.048,5.048,0,0,1-1.4.17h-4.04a2.257,2.257,0,0,1-1.516-.478,1.612,1.612,0,0,1-.556-1.281v-8.9h7.253v1.539H85.676v7.577h3.262a6.784,6.784,0,0,0,1.334-.113,8.231,8.231,0,0,0,1.164-.314V16.734h2.852v4.5h1.339v-4.5h2.851V33.3Zm-25.171,0V27.561H63.31V26.04H80.567v1.521H73.456V33.3Zm-12.289,0V16.734h2.83V33.3Zm-4.013,0V27.27l-1.34,1a4.81,4.81,0,0,1-2.485-1.184,4.035,4.035,0,0,1-1.46-2.06,3.878,3.878,0,0,1-1.452,2.06A4.85,4.85,0,0,1,44.9,28.27l-1.382-1.04a4.489,4.489,0,0,0,2.774-2.064,7.15,7.15,0,0,0,1.086-4V18.8H44.5V17.276h8.267V18.8H50.335v2.373a7.118,7.118,0,0,0,1.092,3.985,4.316,4.316,0,0,0,2.723,1.9V22.805H51.677V21.264H54.15v-4.53h2.83V33.3Zm58.837-.031v-4.5h-10.75V27.26H115.99v6.013Zm5.736-.662V31.09h3.024V24.219h2.9V31.09h1.492V24.219h2.9V31.09h5.971v1.522Zm11.074-3.51a4.441,4.441,0,0,0,.7-2.061c.082-.8.12-1.821.12-3.062v-5H120.268V17.448h13.307v6.729a12.68,12.68,0,0,1-.3,2.9,6.183,6.183,0,0,1-.831,2.02ZM112.978,26.53V16.707h3.012v4.075h2.443v1.541H115.99V26.53Zm-12.03-4.311a3.454,3.454,0,0,1,1.474-2.718H100.54V18.006h3.85V16.283h3.038v1.723h3.855V19.5h-1.889a3.434,3.434,0,0,1,1.474,2.718c0,2.109-2.22,3.82-4.962,3.82s-4.958-1.71-4.958-3.819m2.851,0a2.126,2.126,0,1,0,2.107-2.411,2.277,2.277,0,0,0-2.107,2.411m-29.152,1.45a5.2,5.2,0,0,1-2.708-2.032,4.977,4.977,0,0,1-2.685,2.041,11.766,11.766,0,0,1-4.229.843l-1.18-1.166a8.21,8.21,0,0,0,4.448-1.387,3.862,3.862,0,0,0,2.129-3.191v-.1H64.963V17.134H78.917v1.541H73.458v.1A3.864,3.864,0,0,0,75.6,21.966a8.23,8.23,0,0,0,4.438,1.387l-1.181,1.166a11.6,11.6,0,0,1-4.206-.85" transform="translate(0)" fill="#fff"/><path d="M174.419,27.693h4.013v3.388h-7.949V36.4h8.731V39.76H157.739V36.4h8.782V31.081h-8V27.693h3.363v-7.22h-2.972V17.111h19.1v3.362h-3v3.389a10.288,10.288,0,0,1-.6,3.831m-3.336-7.22h-5.239v7.22h4.718a10.3,10.3,0,0,0,.521-3.545Z" transform="translate(0)" fill="#fff"/><path d="M193.309,28.735h-9.93V16.954h11.727v2.919h-7.87v1.46h7.324v2.919h-7.324v1.59h6.229a14.908,14.908,0,0,0,3.675-.312v2.762a12.484,12.484,0,0,1-3.831.443M203,37.049H188.7V38.17H203.29v2.841H184.734v-6.8h14.308V33.088H184.734V30.195H203ZM199.042,24.3h-3.675V20.89h3.675V16.695H203V29.257h-3.962Z" transform="translate(0)" fill="#fff"/><path d="M146.51,41a.5.5,0,0,1,1,0,.5.5,0,1,1-1,0m0-2a.5.5,0,0,1,1,0,.5.5,0,1,1-1,0m0-2a.5.5,0,0,1,1,0,.5.5,0,1,1-1,0m0-2a.5.5,0,0,1,1,0,.5.5,0,1,1-1,0m0-2a.5.5,0,0,1,1,0,.5.5,0,1,1-1,0m0-2a.5.5,0,0,1,1,0,.5.5,0,1,1-1,0m0-2a.5.5,0,0,1,1,0,.5.5,0,1,1-1,0m0-2a.5.5,0,0,1,1,0,.5.5,0,1,1-1,0m0-2a.5.5,0,0,1,1,0,.5.5,0,1,1-1,0m0-2a.5.5,0,0,1,1,0,.5.5,0,1,1-1,0m0-2a.5.5,0,1,1,.5.5.5.5,0,0,1-.5-.5m0-2a.5.5,0,0,1,1,0,.5.5,0,1,1-1,0m0-2a.5.5,0,1,1,.5.5.5.5,0,0,1-.5-.5m0-2a.5.5,0,1,1,.5.5.5.5,0,0,1-.5-.5" transform="translate(0)" fill="#fff"/><rect width="203.29" height="50" transform="translate(0)" fill="none"/></svg>