<svg xmlns="http://www.w3.org/2000/svg" width="65.946" height="61.781" viewBox="0 0 65.946 61.781"><path d="M65.943,40.553V5.679A5.69,5.69,0,0,0,60.255,0H5.694A5.691,5.691,0,0,0,0,5.679v34.9l0,.027v7.405a5.69,5.69,0,0,0,5.69,5.678H30.573v3.306H19.114a2.393,2.393,0,1,0,0,4.786H46.832a2.393,2.393,0,0,0,0-4.786H35.367V53.689H60.258a5.69,5.69,0,0,0,5.688-5.678V40.582c0-.01,0-.019,0-.029M5.694,4.786H60.252a.9.9,0,0,1,.894.893v32.51H4.794V5.679a.9.9,0,0,1,.9-.893M61.149,48.011a.9.9,0,0,1-.894.893H5.7a.9.9,0,0,1-.9-.893V42.975H61.149Z" transform="translate(0 0)" fill="#6b6b6b"/><path d="M32.975,48.376a2.437,2.437,0,1,0-2.433-2.441,2.441,2.441,0,0,0,2.433,2.441" transform="translate(0 0)" fill="#6b6b6b"/><rect width="5.049" height="5.041" transform="translate(17.765 14.582)" fill="#e07141"/><rect width="5.049" height="5.041" transform="translate(17.765 24.75)" fill="#e07141"/><rect width="18.199" height="4.786" transform="translate(27.585 14.711)" fill="#6b6b6b"/><rect width="18.199" height="4.786" transform="translate(27.585 24.877)" fill="#6b6b6b"/><rect width="65.946" height="61.781" transform="translate(0 0)" fill="none"/></svg>