<svg id="구성_요소_1_1" data-name="구성 요소 1 – 1" xmlns="http://www.w3.org/2000/svg" xmlns:xlink="http://www.w3.org/1999/xlink" width="157.753" height="24.003" viewBox="0 0 157.753 24.003">
  <defs>
    <clipPath id="clip-path">
      <path id="별5" d="M1114.057,1465.11a1.5,1.5,0,0,0-2.7,0l-3.014,6.2-6.731.994a1.5,1.5,0,0,0-.834,2.55l4.884,4.833-1.153,6.83a1.5,1.5,0,0,0,2.189,1.575l6.014-3.211,6.014,3.211a1.5,1.5,0,0,0,2.189-1.575l-1.158-6.83,4.884-4.833a1.5,1.5,0,0,0-.834-2.55l-6.736-.994Z" fill="#e40808"/>
    </clipPath>
  </defs>
  <path id="별1" d="M981.058,1465.11a1.5,1.5,0,0,0-2.7,0l-3.014,6.2-6.731.994a1.5,1.5,0,0,0-.834,2.55l4.884,4.833-1.153,6.83a1.5,1.5,0,0,0,2.189,1.575l6.014-3.211,6.014,3.211a1.5,1.5,0,0,0,2.189-1.575l-1.158-6.83,4.884-4.833a1.5,1.5,0,0,0-.834-2.55l-6.736-.994Z" transform="translate(-967.335 -1464.266)" fill="#e40808"/>
  <path id="별2" d="M1014.057,1465.11a1.5,1.5,0,0,0-2.7,0l-3.014,6.2-6.731.994a1.5,1.5,0,0,0-.834,2.55l4.885,4.833-1.153,6.83a1.5,1.5,0,0,0,2.189,1.575l6.014-3.211,6.014,3.211a1.5,1.5,0,0,0,2.189-1.575l-1.158-6.83,4.884-4.833a1.5,1.5,0,0,0-.834-2.55l-6.736-.994Z" transform="translate(-967.335 -1464.266)" fill="#e40808"/>
  <path id="뱔3" d="M1048.058,1465.11a1.5,1.5,0,0,0-2.7,0l-3.014,6.2-6.731.994a1.5,1.5,0,0,0-.834,2.55l4.884,4.833-1.153,6.83a1.5,1.5,0,0,0,2.189,1.575l6.014-3.211,6.014,3.211a1.5,1.5,0,0,0,2.189-1.575l-1.158-6.83,4.884-4.833a1.5,1.5,0,0,0-.834-2.55l-6.736-.994Z" transform="translate(-967.335 -1464.266)" fill="#e40808"/>
  <path id="별4" d="M1081.057,1465.11a1.5,1.5,0,0,0-2.7,0l-3.014,6.2-6.731.994a1.5,1.5,0,0,0-.834,2.55l4.885,4.833-1.153,6.83a1.5,1.5,0,0,0,2.189,1.575l6.014-3.211,6.014,3.211a1.5,1.5,0,0,0,2.189-1.575l-1.158-6.83,4.885-4.833a1.5,1.5,0,0,0-.834-2.55l-6.736-.994Z" transform="translate(-967.335 -1464.266)" fill="#e40808"/>
  <g id="별5-2" data-name="별5" transform="translate(-967.335 -1464.266)">
    <path id="별5-3" data-name="별5" d="M1114.057,1465.11a1.5,1.5,0,0,0-2.7,0l-3.014,6.2-6.731.994a1.5,1.5,0,0,0-.834,2.55l4.884,4.833-1.153,6.83a1.5,1.5,0,0,0,2.189,1.575l6.014-3.211,6.014,3.211a1.5,1.5,0,0,0,2.189-1.575l-1.158-6.83,4.884-4.833a1.5,1.5,0,0,0-.834-2.55l-6.736-.994Z" fill="#e40808"/>
  </g>
</svg>
