<svg id="그룹_32" data-name="그룹 32" xmlns="http://www.w3.org/2000/svg" xmlns:xlink="http://www.w3.org/1999/xlink" width="45.68" height="59.436" viewBox="0 0 45.68 59.436">
  <defs>
    <clipPath id="clip-path">
      <rect id="사각형_14" data-name="사각형 14" width="45.68" height="59.436" fill="none"/>
    </clipPath>
    <clipPath id="clip-path-3">
      <rect id="사각형_12" data-name="사각형 12" width="41.602" height="41.602" fill="none"/>
    </clipPath>
  </defs>
  <g id="그룹_31" data-name="그룹 31" clip-path="url(#clip-path)">
    <path id="패스_61" data-name="패스 61" d="M46.447,51.094l-9.876-3.144V90.211l9.876-6.174,9.617,6.174V47.949Z" transform="translate(-23.472 -30.775)" fill="#0044a2"/>
    <path id="패스_62" data-name="패스 62" d="M56.35,60.151,52,57.432v35.35l4.35-2.719,4.379,2.811V57.34Z" transform="translate(-33.375 -36.802)" fill="#00d092"/>
    <g id="그룹_30" data-name="그룹 30">
      <g id="그룹_29" data-name="그룹 29" clip-path="url(#clip-path)">
        <path id="패스_63" data-name="패스 63" d="M45.68,22.84A22.84,22.84,0,1,1,22.839,0,22.84,22.84,0,0,1,45.68,22.84" transform="translate(0 0.001)" fill="#ffde3b"/>
        <g id="그룹_28" data-name="그룹 28" transform="translate(2.039 2.039)" style="mix-blend-mode: multiply;isolation: isolate">
          <g id="그룹_27" data-name="그룹 27">
            <g id="그룹_26" data-name="그룹 26" clip-path="url(#clip-path-3)">
              <path id="패스_64" data-name="패스 64" d="M26.493,47.294a20.8,20.8,0,1,1,20.8-20.8,20.824,20.824,0,0,1-20.8,20.8m0-40.528A19.727,19.727,0,1,0,46.219,26.494,19.749,19.749,0,0,0,26.493,6.767" transform="translate(-5.692 -5.692)" fill="#ffde3b"/>
            </g>
          </g>
        </g>
        <path id="패스_65" data-name="패스 65" d="M30.775,59.217c0,.245-.352.352-.842.352s-.857-.107-.857-.352V55.559H23.429V54.075H36.207c.26,0,.367.26.367.75,0,.505-.107.735-.367.735H30.775Zm-1.7-13.5h1.7v1.515h3.856c.26,0,.367.26.367.75,0,.505-.107.735-.367.735h-3.8a1.034,1.034,0,0,0,.107.276c.612,1.331,2.525,2.173,4.025,2.662.23.077.184.352-.03.811-.26.551-.321.673-.582.6a8.52,8.52,0,0,1-4.392-2.678c-.75,1.224-2.648,2.188-4.469,2.724-.245.077-.352-.153-.566-.6-.245-.505-.26-.765-.046-.842,1.607-.551,3.4-1.3,3.994-2.525a1.809,1.809,0,0,0,.153-.428H25.051V47.234h4.025Z" transform="translate(-15.037 -29.343)"/>
        <path id="패스_66" data-name="패스 66" d="M66.468,49.173c.077,1.286,2.1,3.076,3.091,3.795.2.138.076.306-.214.735-.275.413-.383.566-.628.413a10.16,10.16,0,0,1-2.969-3.061A9.623,9.623,0,0,1,62.519,54.3c-.245.138-.382,0-.7-.428-.352-.474-.413-.643-.2-.78,1.056-.658,3.152-2.556,3.152-3.917H61.816V47.689h2.954v-1.5h1.668v1.5h2.709c.26,0,.367.26.367.75,0,.505-.107.735-.367.735Zm-.015,11.064a2.089,2.089,0,0,1-1.163-.688,1.909,1.909,0,0,1-.6-1.025v-3.29h1.7v3.014a.444.444,0,0,0,.475.505h6.458c.26,0,.367.275.367.75,0,.535-.138.734-.367.734Zm6.932-4.575c0,.26-.4.352-.873.352-.535,0-.826-.122-.826-.352V51.346H68.809V49.877h2.877V46.3h1.7Z" transform="translate(-39.467 -29.645)"/>
      </g>
    </g>
  </g>
</svg>
