<svg id="그룹_16" data-name="그룹 16" xmlns="http://www.w3.org/2000/svg" width="34" height="32" viewBox="0 0 34 32">
  <defs>
    <clipPath id="clip-path">
      <rect id="사각형_8" data-name="사각형 8" width="34" height="32" fill="none"/>
    </clipPath>
  </defs>
  <g id="그룹_15" data-name="그룹 15" clip-path="url(#clip-path)">
    <path id="패스_57" data-name="패스 57" d="M31.774,32H26.426a1.158,1.158,0,0,1-1.169-1.147V22.667a8.16,8.16,0,0,0-3.42-6.6,1.139,1.139,0,0,1-.473-1.035,5.361,5.361,0,0,1,10.686.507,5.19,5.19,0,0,1-1.535,3.684A7.184,7.184,0,0,1,34,25.326v4.489A2.046,2.046,0,0,1,31.774,32M27.6,29.707h4.067V25.326a4.921,4.921,0,0,0-3.917-4.766,1.175,1.175,0,0,1-.408-.171,10.2,10.2,0,0,1,.258,2.277ZM23.807,14.669A10.524,10.524,0,0,1,26.913,19a1.161,1.161,0,0,1,.717-.648,2.958,2.958,0,0,0,2.083-2.813,3.027,3.027,0,0,0-5.905-.867" fill="#6b6b6b"/>
    <path id="패스_58" data-name="패스 58" d="M7.417,32H2.227A2.047,2.047,0,0,1,0,29.815V25.326A7.185,7.185,0,0,1,3.485,19.22a5.189,5.189,0,0,1-1.534-3.684,5.312,5.312,0,0,1,5.355-5.254A5.321,5.321,0,0,1,12.62,14.9a1.139,1.139,0,0,1-.488,1.075,8.145,8.145,0,0,0-3.546,6.69v8.187A1.158,1.158,0,0,1,7.417,32M2.338,29.707H6.248v-7.04a10.24,10.24,0,0,1,.235-2.179,1.184,1.184,0,0,1-.228.073,4.921,4.921,0,0,0-3.918,4.766ZM7.306,12.575a2.993,2.993,0,0,0-3.018,2.961,2.957,2.957,0,0,0,2.082,2.813A1.164,1.164,0,0,1,7,18.824a10.506,10.506,0,0,1,3.162-4.254,3.014,3.014,0,0,0-2.851-2" fill="#6b6b6b"/>
    <path id="패스_59" data-name="패스 59" d="M18.107,14.895l.384-1.216a6.618,6.618,0,0,1-3.138,0l.384,1.216h.124l-1.24,7.885,2.3,2.594,2.3-2.594-1.24-7.885Z" fill="#5686c5"/>
    <path id="패스_60" data-name="패스 60" d="M26.426,32H7.417a1.158,1.158,0,0,1-1.169-1.147V22.667a10.518,10.518,0,0,1,5.842-9.334A7.438,7.438,0,0,1,9.27,7.507a7.654,7.654,0,0,1,15.3,0,7.438,7.438,0,0,1-2.821,5.827A10.517,10.517,0,0,1,27.6,22.667v8.187A1.158,1.158,0,0,1,26.426,32M8.586,29.707H25.258v-7.04a8.253,8.253,0,0,0-6.569-7.992,1.141,1.141,0,0,1-.117-2.211,5.213,5.213,0,0,0,3.664-4.957,5.316,5.316,0,0,0-10.629,0,5.213,5.213,0,0,0,3.664,4.957,1.141,1.141,0,0,1-.117,2.211,8.254,8.254,0,0,0-6.57,7.992Z" fill="#6b6b6b"/>
  </g>
</svg>