<svg xmlns="http://www.w3.org/2000/svg" width="35" height="33" viewBox="0 0 35 33">
  <defs>
    <clipPath id="clip-path">
      <rect id="사각형_5" data-name="사각형 5" width="35" height="33" transform="translate(0 0)" fill="none"/>
    </clipPath>
  </defs>
  <g id="그룹_10" data-name="그룹 10" transform="translate(0 0)">
    <g id="그룹_9" data-name="그룹 9" clip-path="url(#clip-path)">
      <path id="패스_44" data-name="패스 44" d="M33.654,29.3H1.346A1.343,1.343,0,0,1,0,27.963v-13.4a1.343,1.343,0,0,1,1.346-1.34H33.654A1.343,1.343,0,0,1,35,14.562v13.4a1.343,1.343,0,0,1-1.346,1.34M2.692,26.623H32.308V15.9H2.692Z" fill="#6b6b6b"/>
      <path id="패스_45" data-name="패스 45" d="M9.647,33a4.118,4.118,0,0,1-4.123-4.1v-.921a1.343,1.343,0,0,1,1.346-1.34h5.553a1.343,1.343,0,0,1,1.346,1.34V28.9A4.118,4.118,0,0,1,9.647,33M8.28,29.315a1.432,1.432,0,0,0,2.734,0Z" fill="#6b6b6b"/>
      <path id="패스_46" data-name="패스 46" d="M26.278,33a4.118,4.118,0,0,1-4.123-4.1v-.921a1.343,1.343,0,0,1,1.346-1.34h5.553a1.343,1.343,0,0,1,1.346,1.34V28.9A4.118,4.118,0,0,1,26.278,33m-1.367-3.685a1.432,1.432,0,0,0,2.734,0Z" fill="#6b6b6b"/>
      <path id="패스_47" data-name="패스 47" d="M26.923,15.579a1.343,1.343,0,0,1-1.346-1.34V1.34a1.346,1.346,0,0,1,2.692,0v12.9a1.343,1.343,0,0,1-1.346,1.34" fill="#5686c5"/>
      <path id="패스_48" data-name="패스 48" d="M9.591,21.386A1.795,1.795,0,1,0,7.8,23.173a1.791,1.791,0,0,0,1.795-1.787" fill="#5686c5"/>
      <path id="패스_49" data-name="패스 49" d="M14.311,22.695a1.857,1.857,0,0,0-2.63-2.618,1.857,1.857,0,0,0,2.63,2.618" fill="#6b6b6b"/>
      <path id="패스_50" data-name="패스 50" d="M19.749,22.695a1.857,1.857,0,0,0-2.63-2.618,1.857,1.857,0,0,0,2.63,2.618" fill="#6b6b6b"/>
    </g>
  </g>
</svg>