<svg id="벡터_고급_개체" data-name="벡터 고급 개체" xmlns="http://www.w3.org/2000/svg" width="35" height="35" viewBox="0 0 35 35">
  <defs>
    <clipPath id="clip-path">
      <rect id="사각형_6" data-name="사각형 6" width="35" height="35" transform="translate(0 0)" fill="none"/>
    </clipPath>
  </defs>
  <g id="그룹_12" data-name="그룹 12">
    <g id="그룹_11" data-name="그룹 11" clip-path="url(#clip-path)">
      <path id="패스_51" data-name="패스 51" d="M17.5,35A17.5,17.5,0,1,1,35,17.5,17.52,17.52,0,0,1,17.5,35m0-32.761A15.261,15.261,0,1,0,32.761,17.5,15.279,15.279,0,0,0,17.5,2.239" fill="#6b6b6b"/>
      <path id="패스_52" data-name="패스 52" d="M23.633,15.515l7.054-2.284a13.791,13.791,0,0,0-1.7-3.479L22.84,13.9a6.407,6.407,0,0,1,.793,1.617" fill="#5686c5"/>
      <path id="패스_53" data-name="패스 53" d="M31.342,18.149l-7.4-.347a6.427,6.427,0,0,1-1.881,4.256c-.079.079-.161.156-.245.231l4.96,5.508c.179-.162.356-.327.527-.5a13.814,13.814,0,0,0,4.042-9.15" fill="#5686c5"/>
      <path id="패스_54" data-name="패스 54" d="M17.5,22.639A5.139,5.139,0,1,1,22.64,17.5,5.145,5.145,0,0,1,17.5,22.639m0-8.04a2.9,2.9,0,1,0,2.9,2.9,2.9,2.9,0,0,0-2.9-2.9" fill="#6b6b6b"/>
    </g>
  </g>
</svg>