<svg id="그룹_18" data-name="그룹 18" xmlns="http://www.w3.org/2000/svg" width="33" height="35" viewBox="0 0 33 35">
	<defs>
		<clipPath id="clip-path">
			<rect id="사각형_9" data-name="사각형 9" width="33" height="35" fill="none"/>
		</clipPath>
	</defs>
	<g id="그룹_17" data-name="그룹 17" clip-path="url(#clip-path)">
		<path id="패스_61" data-name="패스 61" d="M16.5,27.019a1.377,1.377,0,0,1-1.375-1.379v-3.4a1.375,1.375,0,1,1,2.75,0v3.4A1.377,1.377,0,0,1,16.5,27.019" fill="#6b6b6b"/>
		<path id="패스_62" data-name="패스 62" d="M16.5,35a5.172,5.172,0,1,1,5.156-5.172A5.17,5.17,0,0,1,16.5,35m0-7.586a2.414,2.414,0,1,0,2.406,2.414A2.413,2.413,0,0,0,16.5,27.414" fill="#6b6b6b"/>
		<path id="패스_63" data-name="패스 63" d="M12.719,31.207H1.375a1.379,1.379,0,0,1,0-2.758H12.719a1.379,1.379,0,0,1,0,2.758" fill="#6b6b6b"/>
		<path id="패스_64" data-name="패스 64" d="M31.625,31.207H20.282a1.379,1.379,0,0,1,0-2.758H31.625a1.379,1.379,0,0,1,0,2.758" fill="#6b6b6b"/>
		<path id="패스_65" data-name="패스 65" d="M16.5,23.621A11.81,11.81,0,1,1,28.273,11.81,11.805,11.805,0,0,1,16.5,23.621m0-20.862a9.052,9.052,0,1,0,9.023,9.052A9.048,9.048,0,0,0,16.5,2.759" fill="#5686c5"/>
		<path id="패스_66" data-name="패스 66" d="M16.5,23.621a4.742,4.742,0,0,1-4.729-4.745V4.745a4.729,4.729,0,1,1,9.459,0V18.876a4.742,4.742,0,0,1-4.73,4.745m0-20.862a1.985,1.985,0,0,0-1.979,1.986V18.876a1.98,1.98,0,1,0,3.959,0V4.745A1.985,1.985,0,0,0,16.5,2.759" fill="#5686c5"/>
		<path id="패스_67" data-name="패스 67" d="M25.952,16.355a1.365,1.365,0,0,1-.783-.247,2.182,2.182,0,0,0-1.253-.395H8.973a2.187,2.187,0,0,0-1.184.349,1.378,1.378,0,0,1-1.483-2.323,4.928,4.928,0,0,1,2.668-.784H23.915a4.913,4.913,0,0,1,2.823.888,1.38,1.38,0,0,1-.786,2.512" fill="#5686c5"/>
		<path id="패스_68" data-name="패스 68" d="M24.12,9.729H9.178a4.88,4.88,0,0,1-2.862-.922,1.378,1.378,0,0,1,1.6-2.243,2.15,2.15,0,0,0,1.261.407H24.12A2.159,2.159,0,0,0,25.2,6.681a1.378,1.378,0,0,1,1.372,2.391,4.908,4.908,0,0,1-2.451.656" fill="#5686c5"/>
	</g>
</svg>