<svg id="그룹_6" data-name="그룹 6" xmlns="http://www.w3.org/2000/svg" width="36" height="34" viewBox="0 0 36 34">
  <defs>
    <clipPath id="clip-path">
      <rect id="사각형_3" data-name="사각형 3" width="36" height="34" fill="none"/>
    </clipPath>
  </defs>
  <g id="그룹_5" data-name="그룹 5" clip-path="url(#clip-path)">
    <path id="패스_33" data-name="패스 33" d="M32.895,29.547H3.106A3.119,3.119,0,0,1,0,26.422V22.334a1.313,1.313,0,0,1,1.309-1.317H34.692A1.313,1.313,0,0,1,36,22.334v4.088a3.119,3.119,0,0,1-3.106,3.125m-30.277-5.9v2.771a.491.491,0,0,0,.489.491H32.895a.49.49,0,0,0,.488-.491V23.651Z" fill="#6b6b6b"/>
    <path id="패스_34" data-name="패스 34" d="M34.691,23.651a1.313,1.313,0,0,1-1.309-1.317V3.125a.49.49,0,0,0-.488-.492H3.106a.491.491,0,0,0-.489.492V22.334a1.309,1.309,0,1,1-2.618,0V3.125A3.12,3.12,0,0,1,3.106,0H32.895A3.119,3.119,0,0,1,36,3.125V22.334a1.313,1.313,0,0,1-1.309,1.317" fill="#6b6b6b"/>
    <path id="패스_35" data-name="패스 35" d="M18,26.623a1.341,1.341,0,1,1,1.332-1.342A1.338,1.338,0,0,1,18,26.623" fill="#6b6b6b"/>
    <path id="패스_36" data-name="패스 36" d="M25.566,34H10.434a1.317,1.317,0,0,1,0-2.634H25.566a1.317,1.317,0,0,1,0,2.634" fill="#6b6b6b"/>
    <path id="패스_37" data-name="패스 37" d="M18,33.671a1.313,1.313,0,0,1-1.309-1.317V28.23a1.309,1.309,0,1,1,2.618,0v4.124A1.313,1.313,0,0,1,18,33.671" fill="#6b6b6b"/>
    <path id="패스_38" data-name="패스 38" d="M18,19.324a7.175,7.175,0,1,1,7.13-7.175A7.16,7.16,0,0,1,18,19.324M18,7.609a4.541,4.541,0,1,0,4.512,4.54A4.532,4.532,0,0,0,18,7.609" fill="#5686c5"/>
    <path id="패스_39" data-name="패스 39" d="M16.458,14.668V9.509l4.44,2.579Z" fill="#5686c5"/>
  </g>
</svg>