<svg id="벡터_고급_개체" data-name="벡터 고급 개체" xmlns="http://www.w3.org/2000/svg" width="29" height="37" viewBox="0 0 29 37">
  <defs>
    <clipPath id="clip-path">
      <rect id="사각형_7" data-name="사각형 7" width="29" height="37" fill="none"/>
    </clipPath>
  </defs>
  <g id="그룹_14" data-name="그룹 14">
    <g id="그룹_13" data-name="그룹 13" clip-path="url(#clip-path)">
      <path id="패스_55" data-name="패스 55" d="M3.363,30.784a1.238,1.238,0,0,1-.948-.442,1.3,1.3,0,0,1,.128-1.8L26.432,7.431a1.235,1.235,0,0,1,1.766.13,1.3,1.3,0,0,1-.128,1.8L4.181,30.473a1.232,1.232,0,0,1-.819.312" fill="#5686c5"/>
      <path id="패스_56" data-name="패스 56" d="M14.5,37c-1.794,0-5.94-1.732-8.076-3.15a20.156,20.156,0,0,1-4.39-3.92,1.293,1.293,0,0,1-.269-.69L0,8.014A1.3,1.3,0,0,1,.33,7.041a1.24,1.24,0,0,1,.922-.413C7.638,6.628,13.539.454,13.6.391a1.234,1.234,0,0,1,1.8,0c.058.061,5.982,6.236,12.347,6.236a1.24,1.24,0,0,1,.922.413A1.3,1.3,0,0,1,29,8.015L27.235,29.241a1.3,1.3,0,0,1-.269.69,20.123,20.123,0,0,1-4.388,3.918C20.384,35.306,16.378,37,14.5,37M4.226,28.613a18.592,18.592,0,0,0,3.563,3.094A19.7,19.7,0,0,0,14.5,34.442c1.132,0,4.59-1.327,6.713-2.737a18.59,18.59,0,0,0,3.562-3.092l1.617-19.5c-5.352-.569-10-4.325-11.892-6.069C12.6,4.787,7.96,8.543,2.609,9.113Z" fill="#6b6b6b"/>
    </g>
  </g>
</svg>