<svg xmlns="http://www.w3.org/2000/svg" width="99.728" height="111.061" viewBox="0 0 99.728 111.061">
  <defs>
    <clipPath id="clip-path">
      <rect id="사각형_15" data-name="사각형 15" width="99.728" height="111.061" transform="translate(0 -0.001)" fill="none"/>
    </clipPath>
  </defs>
  <g id="벡터_고급_개체" data-name="벡터 고급 개체" transform="translate(0 0.001)">
    <g id="그룹_6" data-name="그룹 6">
      <g id="그룹_5" data-name="그룹 5" clip-path="url(#clip-path)">
        <path id="패스_41" data-name="패스 41" d="M2.281,102.565a6.227,6.227,0,0,0,6.224,6.216H53.583a6.227,6.227,0,0,0,6.224-6.216V95.6H2.281Z" fill="#fffffb"/>
        <path id="패스_42" data-name="패스 42" d="M59.807,8.5a6.228,6.228,0,0,0-6.224-6.217H8.505A6.228,6.228,0,0,0,2.281,8.5v4.879H59.807Z" fill="#fffdff"/>
        <path id="패스_43" data-name="패스 43" d="M53.583,0H8.505A8.51,8.51,0,0,0,0,8.5v94.069a8.51,8.51,0,0,0,8.505,8.495H53.583a8.51,8.51,0,0,0,8.505-8.495V8.5A8.51,8.51,0,0,0,53.583,0m7.365,94.466v8.1a7.36,7.36,0,0,1-7.365,7.356H8.505a7.36,7.36,0,0,1-7.365-7.356V8.5A7.361,7.361,0,0,1,8.505,1.139H53.583A7.361,7.361,0,0,1,60.948,8.5Z" fill="#2b2b2b"/>
        <path id="패스_44" data-name="패스 44" d="M60.948,95.6H59.807v6.96a6.227,6.227,0,0,1-6.224,6.216H8.505a6.227,6.227,0,0,1-6.224-6.216V95.6H1.141v6.96a7.361,7.361,0,0,0,7.365,7.357H53.584a7.36,7.36,0,0,0,7.364-7.357V95.6Z" fill="#2b2b2b"/>
        <path id="패스_45" data-name="패스 45" d="M1.141,93.326H2.281V15.653H1.141V93.326Z" fill="#2b2b2b"/>
        <path id="패스_46" data-name="패스 46" d="M53.583,1.139H8.5A7.36,7.36,0,0,0,1.141,8.5v4.879H2.281V8.5A6.227,6.227,0,0,1,8.5,2.279H53.583A6.227,6.227,0,0,1,59.806,8.5v4.879h1.141v1.139h0v1.139H59.806V93.326h1.141v1.139h0V8.5a7.361,7.361,0,0,0-7.365-7.357" fill="#2b2b2b"/>
        <rect id="사각형_3" data-name="사각형 3" width="57.526" height="1.139" transform="translate(2.281 13.375)" fill="#2b2b2b"/>
        <rect id="사각형_4" data-name="사각형 4" width="57.526" height="1.139" transform="translate(2.281 14.515)" fill="#2b2b2b"/>
        <rect id="사각형_5" data-name="사각형 5" width="1.141" height="1.139" transform="translate(59.807 13.375)" fill="#2b2b2b"/>
        <rect id="사각형_6" data-name="사각형 6" width="1.141" height="1.139" transform="translate(1.141 14.515)" fill="#2b2b2b"/>
        <rect id="사각형_7" data-name="사각형 7" width="1.141" height="1.139" transform="translate(59.807 14.515)" fill="#2b2b2b"/>
        <rect id="사각형_8" data-name="사각형 8" width="1.141" height="1.139" transform="translate(1.141 13.375)" fill="#2b2b2b"/>
        <rect id="사각형_9" data-name="사각형 9" width="57.526" height="1.139" transform="translate(2.281 93.327)" fill="#2b2b2b"/>
        <rect id="사각형_10" data-name="사각형 10" width="57.526" height="1.139" transform="translate(2.281 94.466)" fill="#2b2b2b"/>
        <rect id="사각형_11" data-name="사각형 11" width="1.141" height="1.139" transform="translate(1.141 93.327)" fill="#2b2b2b"/>
        <rect id="사각형_12" data-name="사각형 12" width="1.141" height="1.139" transform="translate(59.807 93.327)" fill="#2b2b2b"/>
        <rect id="사각형_13" data-name="사각형 13" width="1.141" height="1.139" transform="translate(59.807 94.466)" fill="#2b2b2b"/>
        <rect id="사각형_14" data-name="사각형 14" width="1.141" height="1.139" transform="translate(1.141 94.466)" fill="#2b2b2b"/>
        <path id="패스_47" data-name="패스 47" d="M59.807,93.326V21.945L21.225,93.326Z" fill="#75c9f8"/>
        <path id="패스_48" data-name="패스 48" d="M2.281,15.654V93.327H21.225L59.807,21.945V15.654Z" fill="#b2e1ff"/>
        <path id="패스_49" data-name="패스 49" d="M34.466,9.313H27.622a1.339,1.339,0,0,1-1.339-1.338v-.3A1.339,1.339,0,0,1,27.622,6.34h6.844A1.339,1.339,0,0,1,35.8,7.678v.3a1.339,1.339,0,0,1-1.339,1.338" fill="#2b2b2b"/>
        <path id="패스_50" data-name="패스 50" d="M67.94,6.093c-16.927,0-30.648,11.909-30.648,26.6,0,10.087,6.468,18.861,16,23.371A91.126,91.126,0,0,1,42.648,66.925c7.325,0,15.771-4.288,21.511-7.839a35.335,35.335,0,0,0,3.781.21c16.927,0,30.647-11.911,30.647-26.6s-13.72-26.6-30.647-26.6" fill="#fff"/>
        <path id="패스_51" data-name="패스 51" d="M67.94,6.093c-16.927,0-30.648,11.909-30.648,26.6,0,10.087,6.468,18.861,16,23.371A91.126,91.126,0,0,1,42.648,66.925c7.325,0,15.771-4.288,21.511-7.839a35.335,35.335,0,0,0,3.781.21c16.927,0,30.647-11.911,30.647-26.6S84.866,6.093,67.94,6.093Z" fill="none" stroke="#2b2b2b" stroke-miterlimit="10" stroke-width="2.28"/>
        <path id="패스_52" data-name="패스 52" d="M68.526,39.933a.938.938,0,0,1-.939-.938V33.85a.939.939,0,0,1,1.877,0v5.145a.938.938,0,0,1-.939.938" fill="#d82"/>
        <path id="패스_53" data-name="패스 53" d="M69.711,42.523a1.185,1.185,0,1,1-1.185-1.184,1.184,1.184,0,0,1,1.185,1.184" fill="#d82"/>
        <path id="패스_54" data-name="패스 54" d="M77.561,45.616a.937.937,0,0,1-.939-.937V38.358a8.129,8.129,0,0,0-6.379-7.9.936.936,0,0,1-.094-1.806,5.226,5.226,0,1,0-3.245,0,.936.936,0,0,1-.094,1.806,8.13,8.13,0,0,0-6.381,7.9v6.321a.939.939,0,0,1-1.877,0V38.358a10.025,10.025,0,0,1,5.7-9,7.1,7.1,0,1,1,8.54,0,10.024,10.024,0,0,1,5.7,9v6.321a.937.937,0,0,1-.939.937" fill="#2b2b2b"/>
      </g>
    </g>
  </g>
</svg>