<svg id="벡터_고급_개체" data-name="벡터 고급 개체" xmlns="http://www.w3.org/2000/svg" width="114.351" height="136.606" viewBox="0 0 114.351 136.606">
  <defs>
    <clipPath id="clip-path">
      <rect id="사각형_3" data-name="사각형 3" width="114.351" height="136.606" fill="none"/>
    </clipPath>
  </defs>
  <g id="그룹_6" data-name="그룹 6">
    <g id="그룹_5" data-name="그룹 5" clip-path="url(#clip-path)">
      <path id="패스_41" data-name="패스 41" d="M44.706,30.861c-1.927,4.585-8.053,12.254-8.053,12.254-3.18,4.187-6.946,9.44-8.273,16.383-2.8,19.216,9.133,29.115,16.453,31.9A26.056,26.056,0,0,1,31.364,63.717c1.187-5.893,4.338-11.949,11.494-19.649,0,0,8.442-8.8,9.582-16.454,0,0,4.015-17.1-11.794-27.614,7.945,9.89,8.1,21.32,4.061,30.861" fill="#64a91c"/>
      <path id="패스_42" data-name="패스 42" d="M55.084,33.775c-2.5,5.982-9.045,11.979-9.045,11.979C35.7,55.726,34.377,61.641,34.377,61.641A25.224,25.224,0,0,0,36.9,82.668,22.17,22.17,0,0,0,50.47,92.493,17.9,17.9,0,0,1,38.4,76.751c-.439-5.942,2.891-13.464,12.511-21.037a53.27,53.27,0,0,0,8.617-8.735,28.984,28.984,0,0,0,5.441-13.027A31.038,31.038,0,0,0,63.19,18.746,33.014,33.014,0,0,0,54.617,5.835c7.323,14.135.467,27.94.467,27.94" fill="#b0bcc2"/>
      <path id="패스_43" data-name="패스 43" d="M90.872,65.063V32.124H77.822V68.853c-.038,2.551-.262,5.4-.262,5.4-.452,4.349-1.35,5.967-1.35,5.967a20.387,20.387,0,0,1-7.692,9.367C54.9,98.775,41.285,91.175,41.285,91.175c17.021,10.1,33.585.794,33.585.794,11.658-6.757,14.838-15.952,15.7-20.9a46.581,46.581,0,0,0,.307-6.009" fill="#003288"/>
      <path id="패스_44" data-name="패스 44" d="M38.635,89.088A29.544,29.544,0,0,1,27.674,73.994a35.027,35.027,0,0,1-1.109-15.9A41.218,41.218,0,0,1,30.5,46.833a62.723,62.723,0,0,1,4.549-6.876,62.54,62.54,0,0,0,3.844-6.016s6.79-10.84-1.566-21.678c0,0,3.4,8.789-1.039,16.976,0,0-2.086,3.577-4.352,6.968,0,0-4.98,7.21-6.437,12.1A35.9,35.9,0,0,0,24.37,68.287s2.357,14.239,14.266,20.8" fill="#0099e7"/>
      <path id="패스_45" data-name="패스 45" d="M52.216,88.4v-4.1h-.8v-.559h1.622V88.4Z" fill="#003288"/>
      <path id="패스_46" data-name="패스 46" d="M56.429,85.173a1.21,1.21,0,0,0-.162-.71.6.6,0,0,0-.516-.224.556.556,0,0,0-.488.221,1.323,1.323,0,0,0-.15.72,1.283,1.283,0,0,0,.149.722.708.708,0,0,0,1.014-.016,1.276,1.276,0,0,0,.153-.712m-.147,1.219a1.163,1.163,0,0,1-.35.178,1.286,1.286,0,0,1-.392.056A1.188,1.188,0,0,1,54.6,86.3a2.134,2.134,0,0,1,.068-2.25,1.477,1.477,0,0,1,1.109-.373,1.408,1.408,0,0,1,1.088.4,1.724,1.724,0,0,1,.358,1.189,3.217,3.217,0,0,1-.3,1.307,10.726,10.726,0,0,1-1.17,1.839h-.952c.415-.52.728-.926.936-1.216s.39-.552.539-.8" fill="#003288"/>
      <path id="패스_47" data-name="패스 47" d="M57.97,87.691a2.081,2.081,0,0,0,.422.161,1.86,1.86,0,0,0,.442.053,1.191,1.191,0,0,0,.87-.287A1.133,1.133,0,0,0,60,86.768a.739.739,0,0,0-.3-.641,1.521,1.521,0,0,0-.887-.214c-.159,0-.293,0-.408.015s-.231.027-.338.048l.43-2.227h2.278v.571h-1.59l-.254,1.136c.085-.012.162-.02.232-.026s.132-.006.184-.006a1.52,1.52,0,0,1,1.073.375,1.284,1.284,0,0,1,.405.993,1.56,1.56,0,0,1-.495,1.234,1.991,1.991,0,0,1-1.378.443,3.3,3.3,0,0,1-.617-.055,3.124,3.124,0,0,1-.584-.165Z" fill="#003288"/>
      <path id="패스_48" data-name="패스 48" d="M61.52,88.4l1.736-2.47a3.589,3.589,0,0,0,.345-.6,1.284,1.284,0,0,0,.112-.5.647.647,0,0,0-.144-.459.608.608,0,0,0-.455-.15.566.566,0,0,0-.483.2,1.192,1.192,0,0,0-.144.673v.162h-.816a.4.4,0,0,1-.009-.09v-.144a1.269,1.269,0,0,1,.376-1,1.638,1.638,0,0,1,1.124-.336,1.68,1.68,0,0,1,1.066.306,1.026,1.026,0,0,1,.387.845,1.6,1.6,0,0,1-.15.651,4.113,4.113,0,0,1-.509.8L62.78,87.813h1.7V88.4Z" fill="#003288"/>
      <path id="패스_49" data-name="패스 49" d="M63.559,73.14v5.6a1.819,1.819,0,0,0,.757,1.628,4.361,4.361,0,0,0,2.387.509,4.417,4.417,0,0,0,2.393-.509,1.821,1.821,0,0,0,.754-1.628v-5.6H68.256v5.689a.912.912,0,0,1-.377.813,2.792,2.792,0,0,1-2.346,0,.909.909,0,0,1-.386-.813V73.14Z" fill="#003288"/>
      <path id="패스_50" data-name="패스 50" d="M47.271,80.9a2.9,2.9,0,0,0,1.881-.51,1.934,1.934,0,0,0,.611-1.573V73.14h-1.61v5.705a1.064,1.064,0,0,1-.282.816,1.3,1.3,0,0,1-.892.261,2.455,2.455,0,0,1-.679-.105,3.59,3.59,0,0,1-.733-.318v1.06a3.89,3.89,0,0,0,.831.256,4.4,4.4,0,0,0,.874.084" fill="#003288"/>
      <path id="패스_51" data-name="패스 51" d="M56.363,74.068V73.14H51.589v7.653h4.773v-.96H53.2V77.246h2.9v-.91H53.2V74.068Z" fill="#003288"/>
      <path id="패스_52" data-name="패스 52" d="M61.14,80.39a1.93,1.93,0,0,0,.609-1.573V73.14h-1.6v5.705a1.065,1.065,0,0,1-.285.816,1.3,1.3,0,0,1-.893.262,2.522,2.522,0,0,1-.681-.106,3.476,3.476,0,0,1-.734-.318v1.06a4.132,4.132,0,0,0,.834.256,4.325,4.325,0,0,0,.877.084,2.881,2.881,0,0,0,1.877-.51" fill="#003288"/>
      <path id="패스_53" data-name="패스 53" d="M58.609,70.678A2.985,2.985,0,0,0,60,70.214l8.1.563V60.331l-.844-.051.375.592v9.464l-7.786-.5a2.279,2.279,0,0,1-2.712,0l-7.782.5V60.872l.372-.592-.845.051V70.778l8.1-.563a2.964,2.964,0,0,0,1.387.464,1.974,1.974,0,0,0,.253,0" fill="#b0bcc2"/>
      <path id="패스_54" data-name="패스 54" d="M50.59,59.686c-.18.284-.8,1.26-.819,1.287v8.486c.181-.3.8-1.338.819-1.363Z" fill="#b0bcc2"/>
      <path id="패스_55" data-name="패스 55" d="M57.219,69.39l.022.022a1.807,1.807,0,0,0,.922.43,1.791,1.791,0,0,0-.907-1.341,5.632,5.632,0,0,0-2.562-.442c-.535,0-1.108.032-1.758.095-.631.064-1.3.157-1.973.279-.028.046-.748,1.248-.858,1.429l7.115-.471" fill="#b0bcc2"/>
      <path id="패스_56" data-name="패스 56" d="M67.2,60.974c-.016-.027-.638-1-.818-1.287V68.1c.016.025.637,1.063.818,1.363Z" fill="#b0bcc2"/>
      <path id="패스_57" data-name="패스 57" d="M59.711,68.5a1.794,1.794,0,0,0-.908,1.341,1.8,1.8,0,0,0,.923-.43l.022-.022,7.115.47c-.11-.181-.828-1.382-.856-1.429-.678-.122-1.343-.215-1.975-.279-.648-.063-1.224-.095-1.758-.095a5.633,5.633,0,0,0-2.563.442" fill="#b0bcc2"/>
      <path id="패스_58" data-name="패스 58" d="M64.022,58.792a16.464,16.464,0,0,0-1.815-.1l-.811.034-.619.093a3.278,3.278,0,0,0-1.126.437l-.088.068-.038.026a2.8,2.8,0,0,0-.789.834V68.7a1.971,1.971,0,0,1,.43-.419,4.982,4.982,0,0,1,2.047-.642l.036,0,.04,0A12.077,12.077,0,0,1,62.8,67.58l1.122.079c.567.055,1.227.139,1.962.249V59.091c-.638-.134-1.265-.234-1.863-.3m.818,1.888a4.067,4.067,0,0,1-2.373,2.3s.309.075,1.032.931a2.981,2.981,0,0,0,.942.782s-1.02,2.011-1.121,2.248a4.456,4.456,0,0,1-1.258-1.986.358.358,0,0,0-.354-.186s-.81.091-1.14.118a.3.3,0,0,1-.329,0l-.12-.127s-.028.008-.078-.037a.268.268,0,0,1-.11-.193A.209.209,0,0,1,60,64.349a11.939,11.939,0,0,0,1.6-1.267s-.014.048.061-.143a2.56,2.56,0,0,1-.647-.269s-.286-.195-.278-.448l.068-.005s0,.3.587.484a1.285,1.285,0,0,1-.192-.43.281.281,0,0,1,.082-.018s.165.5.447.507c0,0,.553-.339.6-.724,0,0-.229-.141-.323-.719l.076-.044s.092.547.364.533c0,0,.247-.006.4-.463a2.262,2.262,0,0,0,.121-.761,2.783,2.783,0,0,0-.057-.37l.057-.092a1.7,1.7,0,0,1,.074.281,1.175,1.175,0,0,1,.217-.56l.05.029a1,1,0,0,0-.132.616,2.8,2.8,0,0,1-.181.985,4.116,4.116,0,0,1-.918,1.371,8.126,8.126,0,0,0,1.122-.549s.335-.206.376-.923h.087a1.512,1.512,0,0,1-.01.582A2.453,2.453,0,0,0,64.667,60.7a.773.773,0,0,0-.023-.509l.038-.048a.893.893,0,0,1,.122.352.644.644,0,0,1,.383-.35l.022.052a.947.947,0,0,0-.37.48" fill="#b0bcc2"/>
      <path id="패스_59" data-name="패스 59" d="M57.441,59.347l-.034-.027-.089-.067a3.251,3.251,0,0,0-1.124-.438l-.623-.093-.806-.034a16.394,16.394,0,0,0-1.815.1c-.6.065-1.229.166-1.865.3v8.817c.735-.11,1.4-.194,1.96-.249l1.126-.079a11.909,11.909,0,0,1,1.5.052l.046,0,.042,0a4.96,4.96,0,0,1,2.042.644,1.9,1.9,0,0,1,.429.417v-8.52a2.8,2.8,0,0,0-.792-.834m-1.129,7.112H53.16c.481-1.344-.488-3.779-.488-3.779.66-.744,1.5-1.841,1.87-2.334V63.3a.5.5,0,1,0,.368,0V60.322c.359.477,1.217,1.6,1.889,2.358,0,0-.968,2.435-.486,3.779" fill="#b0bcc2"/>
      <path id="패스_60" data-name="패스 60" d="M71.51,112.975c0,2.67,2.763,4.839,6.172,4.839s6.178-2.169,6.178-4.839a4.377,4.377,0,0,0-1.838-3.443h2.351v-1.893H79.579v-2.183H75.793v2.183H71v1.893h2.342a4.4,4.4,0,0,0-1.832,3.443m6.172-3.052a3.09,3.09,0,1,1-2.62,3.052,2.862,2.862,0,0,1,2.62-3.052m-5.458,26.605h1.108v-3.91l2.314,3.91H76.74v-5.588H75.634v3.884l-2.325-3.884H72.224Zm-18.022-1.1h1.985l.419,1.1H57.8l-2.042-5.588H54.647L52.6,136.529h1.188Zm1-3.04.783,2.419H54.413ZM49.487,119.7a2.776,2.776,0,0,0,1.888.6H56.4a5.941,5.941,0,0,0,1.749-.214c.477-.144.906-.283,1.5-.517v7.438H63.2V113.688h1.67v13.326h3.548V106.027H64.871v5.705H63.2v-5.705H59.655v11.789a10.075,10.075,0,0,1-1.452.4,8.246,8.246,0,0,1-1.665.144H52.48v-9.6h5.347v-1.95H48.8v11.272a2.044,2.044,0,0,0,.691,1.62m40.744-6.6h3.043v-1.95H90.231v-5.165H86.488v12.444h3.744ZM13.418,130.942v4.091a1.33,1.33,0,0,0,.55,1.188,3.188,3.188,0,0,0,1.746.373,3.205,3.205,0,0,0,1.747-.373,1.334,1.334,0,0,0,.547-1.188v-4.091H16.846V135.1a.654.654,0,0,1-.273.588,1.5,1.5,0,0,1-.858.192,1.518,1.518,0,0,1-.857-.192.654.654,0,0,1-.28-.588v-4.156Zm52.593,0v4.091a1.33,1.33,0,0,0,.55,1.188,4.263,4.263,0,0,0,3.489,0,1.327,1.327,0,0,0,.554-1.188v-4.091h-1.16V135.1a.67.67,0,0,1-.277.588,1.509,1.509,0,0,1-.856.192,1.531,1.531,0,0,1-.862-.192.652.652,0,0,1-.278-.588v-4.156Zm45.983,0-.737,1.567c-.061.138-.117.281-.166.421a4.817,4.817,0,0,0-.135.47c-.049-.189-.1-.36-.156-.515a3.013,3.013,0,0,0-.15-.383l-.729-1.559H108.7l1.642,3.21v2.378h1.211v-2.378l1.662-3.21Zm-53.175,0v5.588h3.7v-.7H59.989v-4.887Zm55.533-6.95h-7.884v-8.486h-3.608v8.486H101v-8.486H97.391v8.486H93.867v1.925h20.484Zm-5.913-8.789q0,2.36-.149,3.878a5.788,5.788,0,0,1-.875,2.613h3.3a7.894,7.894,0,0,0,1.038-2.564,16.379,16.379,0,0,0,.374-3.675v-8.521H95.558v1.951h12.88ZM92.785,130.942h-1.41v5.588h1.174V133.8h.032l2,2.73h1.261l-2.082-2.751A2.205,2.205,0,0,0,95,133.369a1.2,1.2,0,0,0,.411-.966,1.186,1.186,0,0,0-.6-1.124,4.421,4.421,0,0,0-2.021-.338m1.141,2.211a1.842,1.842,0,0,1-1.023.217h-.354v-1.762h.317a2.3,2.3,0,0,1,1.069.171.673.673,0,0,1,.283.624.859.859,0,0,1-.292.749m12.805,3.377v-4.885h1.62v-.7h-4.425v.7h1.618v4.885Zm-7.819-.862a1.588,1.588,0,0,1-.856.2,3.121,3.121,0,0,1-.658-.079,4.916,4.916,0,0,1-.774-.241v.766a4.89,4.89,0,0,0,.774.211,4.229,4.229,0,0,0,.744.069,2.948,2.948,0,0,0,1.631-.415,1.233,1.233,0,0,0,.64-1.058,1.189,1.189,0,0,0-.312-.808,3.616,3.616,0,0,0-1.06-.745c-.035-.021-.1-.051-.178-.091-.856-.437-1.285-.822-1.285-1.144a.633.633,0,0,1,.335-.554,1.679,1.679,0,0,1,.888-.21,3.032,3.032,0,0,1,.641.075,4.117,4.117,0,0,1,.663.229v-.749a3.876,3.876,0,0,0-.744-.194,4.776,4.776,0,0,0-.778-.062,2.712,2.712,0,0,0-1.549.419,1.24,1.24,0,0,0-.627,1.055,1.162,1.162,0,0,0,.308.787,3.89,3.89,0,0,0,1.087.76c.042.026.118.065.216.115.8.426,1.2.8,1.2,1.125a.617.617,0,0,1-.31.54m2.777.862h1.174v-5.588h-1.174Zm-66.3,0v-4.885H37v-.7H32.579v.7H34.2v4.885Zm54.6-4.912v-.675H86.5v5.588h3.482v-.7H87.677v-1.885h2.111v-.663H87.677v-1.663Zm-10.375-.675H78.439v5.588H79.61Zm2.253,0h-1.2l1.917,5.588h.993l1.917-5.588H84.308l-1.222,3.792Zm8.369-11.582H73.1v1.927H86.488v5.688h3.744ZM3.454,116.71A5.615,5.615,0,0,1,0,119.325l1.72,1.321a6.054,6.054,0,0,0,3.133-1.5,4.924,4.924,0,0,0,1.805-2.609,5.142,5.142,0,0,0,1.822,2.609,5.972,5.972,0,0,0,3.093,1.5l1.666-1.272v7.64h3.522V106.027H13.238v5.738H10.157v1.954h3.081V119.1a5.376,5.376,0,0,1-3.387-2.407,9.106,9.106,0,0,1-1.365-5.047v-3h3.03v-1.925H1.529v1.925H4.8v3a9.206,9.206,0,0,1-1.35,5.066m18.677,14.232v5.588h1.114v-3.91l2.306,3.91h1.1v-5.588H25.541v3.884l-2.322-3.884ZM1.3,136.606a2.092,2.092,0,0,0,1.368-.37,1.411,1.411,0,0,0,.449-1.149v-4.145H1.945V135.1a.792.792,0,0,1-.2.6.957.957,0,0,1-.653.193,1.84,1.84,0,0,1-.5-.073,2.89,2.89,0,0,1-.529-.236v.773a3.1,3.1,0,0,0,.6.188,3.379,3.379,0,0,0,.642.06m20.457-30.578h-3.53v20.987h3.53ZM8.235,131.617v-.675H4.754v5.588H8.235v-.7H5.927v-1.885h2.11v-.663H5.927v-1.663Zm22.624-18.961a10.111,10.111,0,0,1-5.537,1.76l1.466,1.473a14.444,14.444,0,0,0,5.262-1.064,6.222,6.222,0,0,0,3.348-2.59,6.447,6.447,0,0,0,3.37,2.578A14.188,14.188,0,0,0,44,115.89l1.469-1.473a10.132,10.132,0,0,1-5.52-1.76q-2.668-1.733-2.666-4.039v-.131H43.89v-1.954H26.9v1.954h6.6v.131q0,2.3-2.648,4.039m14.2,23.276a4.482,4.482,0,0,0,0-4.4,2.382,2.382,0,0,0-1.893-.666,2.419,2.419,0,0,0-1.9.666,3.344,3.344,0,0,0-.58,2.2,3.308,3.308,0,0,0,.58,2.2,2.408,2.408,0,0,0,1.9.661,2.387,2.387,0,0,0,1.893-.661m-2.881-.541a3.3,3.3,0,0,1-.306-1.672,3.351,3.351,0,0,1,.3-1.67,1.269,1.269,0,0,1,1.987,0,3.41,3.41,0,0,1,.292,1.674,3.507,3.507,0,0,1-.286,1.7,1.05,1.05,0,0,1-.981.461,1.075,1.075,0,0,1-1-.486m8.321,1.138h1.1v-5.588H50.483v3.884l-2.317-3.884H47.081v5.588h1.111v-3.91Zm-22.845,0h1.191l.4-1.1h1.994l.413,1.1h1.187L30.8,130.942H29.7Zm3.384-1.719H29.467l.788-2.419Zm7.005,1.719H39.22v-5.588H38.045Zm-4.509-9.515h3.746v-7.276h8.856v-1.924H24.658v1.924h8.878Zm-22.172,9.221a1.417,1.417,0,0,0,.442-1.149v-4.145h-1.17V135.1a.763.763,0,0,1-.207.6.943.943,0,0,1-.656.193,1.8,1.8,0,0,1-.492-.073,2.812,2.812,0,0,1-.534-.236v.773a3.088,3.088,0,0,0,.605.188,3.342,3.342,0,0,0,.64.06,2.122,2.122,0,0,0,1.372-.37" fill="#5f5e5e"/>
    </g>
  </g>
</svg>