<svg xmlns="http://www.w3.org/2000/svg" width="96.999" height="116" viewBox="0 0 96.999 116">
  <defs>
    <clipPath id="clip-path">
      <rect id="사각형_1" data-name="사각형 1" width="96.999" height="116" transform="translate(0 0)" fill="none"/>
    </clipPath>
  </defs>
  <g id="로고" transform="translate(-918 -55)">
    <g id="로고-2" data-name="로고" transform="translate(918 55)">
      <g id="그룹_2" data-name="그룹 2">
        <g id="그룹_1" data-name="그룹 1" clip-path="url(#clip-path)">
          <path id="패스_1" data-name="패스 1" d="M37.922,26.207c-1.635,3.894-6.831,10.4-6.831,10.4-2.7,3.555-5.892,8.018-7.018,13.912-2.378,16.318,7.747,24.725,13.957,27.093A22.137,22.137,0,0,1,26.6,54.105c1.007-5,3.68-10.145,9.75-16.683,0,0,7.161-7.476,8.128-13.973,0,0,3.406-14.525-10-23.449,6.739,8.4,6.869,18.1,3.445,26.207" fill="#64a91c"/>
          <path id="패스_2" data-name="패스 2" d="M46.726,28.682c-2.119,5.08-7.672,10.172-7.672,10.172-8.766,8.468-9.894,13.49-9.894,13.49A21.441,21.441,0,0,0,31.3,70.2a18.8,18.8,0,0,0,11.512,8.343A15.193,15.193,0,0,1,32.571,65.173c-.372-5.044,2.451-11.43,10.613-17.861a45.284,45.284,0,0,0,7.309-7.419,24.585,24.585,0,0,0,4.615-11.063A26.382,26.382,0,0,0,53.6,15.922,28.034,28.034,0,0,0,46.329,4.957c6.213,12,.4,23.725.4,23.725" fill="#b0bcc2"/>
          <path id="패스_3" data-name="패스 3" d="M77.083,55.249V27.279H66.014V58.468c-.034,2.167-.222,4.585-.222,4.585a14.793,14.793,0,0,1-1.146,5.067,17.3,17.3,0,0,1-6.525,7.953c-11.551,7.8-23.1,1.348-23.1,1.348C49.459,86,63.51,78.1,63.51,78.1,73.4,72.359,76.1,64.553,76.823,60.351a39.678,39.678,0,0,0,.26-5.1" fill="#003288"/>
          <path id="패스_4" data-name="패스 4" d="M32.773,75.652a25.086,25.086,0,0,1-9.3-12.818,29.77,29.77,0,0,1-.942-13.5,35.071,35.071,0,0,1,3.336-9.562,53.345,53.345,0,0,1,3.859-5.836,53.4,53.4,0,0,0,3.26-5.111,16.579,16.579,0,0,0-1.328-18.408s2.882,7.464-.881,14.417c0,0-1.769,3.034-3.691,5.915,0,0-4.225,6.122-5.461,10.278a30.512,30.512,0,0,0-.956,16.961s2,12.092,12.1,17.666" fill="#0099e7"/>
          <path id="패스_5" data-name="패스 5" d="M44.292,75.071V71.593H43.61v-.476h1.376v3.954Z" fill="#003288"/>
          <path id="패스_6" data-name="패스 6" d="M47.867,72.327a1.033,1.033,0,0,0-.138-.6.508.508,0,0,0-.438-.191.472.472,0,0,0-.413.189,1.125,1.125,0,0,0-.128.611,1.1,1.1,0,0,0,.127.614.5.5,0,0,0,.43.175.492.492,0,0,0,.43-.19,1.081,1.081,0,0,0,.13-.6m-.125,1.035a.973.973,0,0,1-.3.151,1.082,1.082,0,0,1-.333.048,1.013,1.013,0,0,1-.8-.279,1.413,1.413,0,0,1-.243-.927,1.392,1.392,0,0,1,.3-.982,1.257,1.257,0,0,1,.942-.318,1.2,1.2,0,0,1,.923.336,1.462,1.462,0,0,1,.3,1.01,2.738,2.738,0,0,1-.252,1.11,9.113,9.113,0,0,1-.993,1.56h-.807c.353-.442.619-.785.794-1.033s.331-.469.457-.676" fill="#003288"/>
          <path id="패스_7" data-name="패스 7" d="M49.173,74.465a1.741,1.741,0,0,0,.358.136,1.532,1.532,0,0,0,.375.047,1,1,0,0,0,.739-.246.956.956,0,0,0,.248-.721.626.626,0,0,0-.253-.543,1.289,1.289,0,0,0-.753-.182,3.373,3.373,0,0,0-.346.013c-.1.01-.2.022-.287.04l.366-1.891h1.932V71.6H50.2l-.216.964c.072-.01.137-.014.2-.022s.112-.005.156-.005a1.283,1.283,0,0,1,.909.318,1.087,1.087,0,0,1,.345.843,1.327,1.327,0,0,1-.42,1.048,1.692,1.692,0,0,1-1.169.376,3.011,3.011,0,0,1-.524-.045,2.862,2.862,0,0,1-.5-.142Z" fill="#003288"/>
          <path id="패스_8" data-name="패스 8" d="M52.184,75.071l1.474-2.1a3.246,3.246,0,0,0,.292-.511,1.084,1.084,0,0,0,.1-.421.554.554,0,0,0-.121-.39.524.524,0,0,0-.386-.127.478.478,0,0,0-.411.167,1.018,1.018,0,0,0-.121.57v.14h-.692a.321.321,0,0,1-.008-.079V72.2a1.077,1.077,0,0,1,.319-.851,1.387,1.387,0,0,1,.953-.286,1.427,1.427,0,0,1,.9.26.868.868,0,0,1,.328.717,1.363,1.363,0,0,1-.127.553,3.633,3.633,0,0,1-.431.681l-1,1.293H54.7v.5Z" fill="#003288"/>
          <path id="패스_9" data-name="패스 9" d="M53.915,62.109v4.76a1.544,1.544,0,0,0,.642,1.381,3.679,3.679,0,0,0,2.025.434,3.726,3.726,0,0,0,2.03-.434,1.545,1.545,0,0,0,.639-1.381v-4.76H57.9v4.829a.775.775,0,0,1-.32.692,2.363,2.363,0,0,1-1.99,0,.771.771,0,0,1-.328-.692V62.109Z" fill="#003288"/>
          <path id="패스_10" data-name="패스 10" d="M40.1,68.7a2.454,2.454,0,0,0,1.6-.434,1.635,1.635,0,0,0,.519-1.335v-4.82H40.846v4.845a.9.9,0,0,1-.24.693,1.086,1.086,0,0,1-.756.221,2.086,2.086,0,0,1-.577-.088,3.04,3.04,0,0,1-.621-.27v.9a3.172,3.172,0,0,0,.705.217,3.615,3.615,0,0,0,.741.074" fill="#003288"/>
          <path id="패스_11" data-name="패스 11" d="M47.81,62.9V62.11H43.761v6.5H47.81v-.816H45.124V65.6h2.458v-.773H45.124V62.9Z" fill="#003288"/>
          <path id="패스_12" data-name="패스 12" d="M51.862,68.265a1.632,1.632,0,0,0,.517-1.335v-4.82h-1.36v4.845a.9.9,0,0,1-.243.692,1.087,1.087,0,0,1-.757.222,2.13,2.13,0,0,1-.577-.088,3,3,0,0,1-.623-.27v.9a3.436,3.436,0,0,0,.706.217,3.582,3.582,0,0,0,.745.074,2.442,2.442,0,0,0,1.591-.434" fill="#003288"/>
          <path id="패스_13" data-name="패스 13" d="M49.716,60.019a2.524,2.524,0,0,0,1.179-.394l6.867.48V51.233l-.716-.043.318.5v8.037l-6.6-.424a1.938,1.938,0,0,1-2.3,0l-6.6.424V51.692l.315-.5-.717.043V60.1l6.869-.48a2.506,2.506,0,0,0,1.177.394,1.881,1.881,0,0,0,.214,0" fill="#b0bcc2"/>
          <path id="패스_14" data-name="패스 14" d="M42.914,50.685c-.152.239-.678,1.07-.695,1.094v7.205c.154-.255.681-1.136.695-1.157Z" fill="#b0bcc2"/>
          <path id="패스_15" data-name="패스 15" d="M48.536,58.926l.019.018a1.548,1.548,0,0,0,.781.363,1.511,1.511,0,0,0-.77-1.136,4.755,4.755,0,0,0-2.172-.376,14.8,14.8,0,0,0-1.493.08c-.535.053-1.1.134-1.673.238-.025.037-.635,1.057-.728,1.211.2-.012,6.036-.4,6.036-.4" fill="#b0bcc2"/>
          <path id="패스_16" data-name="패스 16" d="M57,51.778l-.694-1.094v7.143c.014.019.54.9.694,1.156Z" fill="#b0bcc2"/>
          <path id="패스_17" data-name="패스 17" d="M50.651,58.171a1.522,1.522,0,0,0-.771,1.136,1.542,1.542,0,0,0,.784-.363l.018-.018s5.834.387,6.036.4c-.093-.154-.7-1.174-.726-1.211-.576-.1-1.139-.185-1.675-.238a14.759,14.759,0,0,0-1.492-.08,4.768,4.768,0,0,0-2.174.376" fill="#b0bcc2"/>
          <path id="패스_18" data-name="패스 18" d="M54.307,49.925a14.042,14.042,0,0,0-1.541-.089l-.687.031-.524.078a2.8,2.8,0,0,0-.956.372l-.075.057-.032.023a2.385,2.385,0,0,0-.669.707V58.34a1.677,1.677,0,0,1,.364-.357,4.269,4.269,0,0,1,1.737-.546.216.216,0,0,1,.031,0l.034-.005a10.345,10.345,0,0,1,1.283-.043l.952.066c.48.048,1.041.119,1.664.212V50.179c-.54-.114-1.073-.2-1.58-.255m.694,1.6a3.454,3.454,0,0,1-2.014,1.949s.263.063.876.79a2.529,2.529,0,0,0,.8.664s-.865,1.706-.951,1.908a3.794,3.794,0,0,1-1.067-1.686.3.3,0,0,0-.3-.159s-.687.078-.967.1a.25.25,0,0,1-.278,0l-.1-.106s-.023.005-.066-.034a.224.224,0,0,1-.094-.164.182.182,0,0,1,.057-.146,10.082,10.082,0,0,0,1.359-1.076s-.012.04.052-.122a2.159,2.159,0,0,1-.549-.229s-.242-.164-.235-.379l.057-.005s0,.257.5.411a1.106,1.106,0,0,1-.163-.366.241.241,0,0,1,.07-.016s.141.421.38.432c0,0,.469-.287.505-.615,0,0-.2-.119-.274-.611l.065-.035s.077.464.309.451c0,0,.209-.005.337-.393a1.884,1.884,0,0,0,.1-.646,2.292,2.292,0,0,0-.048-.314l.048-.078a1.414,1.414,0,0,1,.063.237.992.992,0,0,1,.183-.474l.043.026a.848.848,0,0,0-.112.52,2.381,2.381,0,0,1-.154.839,3.5,3.5,0,0,1-.778,1.163A6.989,6.989,0,0,0,53.6,52.9s.284-.175.318-.783h.075a1.3,1.3,0,0,1-.009.5,2.085,2.085,0,0,0,.869-1.063.659.659,0,0,0-.019-.432l.031-.041a.763.763,0,0,1,.1.3.544.544,0,0,1,.325-.3l.017.047a.787.787,0,0,0-.313.406" fill="#b0bcc2"/>
          <path id="패스_19" data-name="패스 19" d="M48.724,50.4l-.028-.022-.076-.057a2.741,2.741,0,0,0-.953-.372l-.528-.079-.685-.03a13.976,13.976,0,0,0-1.54.088c-.51.056-1.042.141-1.582.255v7.486c.624-.093,1.183-.164,1.664-.212l.954-.066a10.2,10.2,0,0,1,1.276.044l.039,0a.342.342,0,0,1,.036,0,4.237,4.237,0,0,1,1.732.548,1.61,1.61,0,0,1,.364.354V51.1a2.4,2.4,0,0,0-.673-.707m-.957,6.039H45.093c.407-1.141-.415-3.21-.415-3.21.561-.631,1.272-1.562,1.586-1.982v2.508a.421.421,0,1,0,.313,0V51.225c.3.406,1.032,1.359,1.6,2,0,0-.82,2.068-.412,3.21" fill="#b0bcc2"/>
          <path id="패스_20" data-name="패스 20" d="M60.659,95.936c0,2.267,2.343,4.107,5.236,4.107s5.239-1.839,5.239-4.107a3.715,3.715,0,0,0-1.559-2.924h1.994V91.4H67.5V89.55H64.291V91.4H60.227v1.608h1.986a3.732,3.732,0,0,0-1.554,2.924M65.9,93.343a2.625,2.625,0,1,1-2.223,2.593A2.43,2.43,0,0,1,65.9,93.343m-4.63,22.593H62.2v-3.32l1.963,3.32h.93V111.19h-.94v3.3l-1.971-3.3h-.921ZM45.978,115h1.683l.356.933h1.009l-1.732-4.747h-.939l-1.732,4.747H45.63Zm.847-2.58.665,2.053H46.156ZM41.978,101.65a2.366,2.366,0,0,0,1.6.512h4.265a5.078,5.078,0,0,0,1.484-.182c.4-.123.767-.242,1.275-.438v6.313h3.008V96.541h1.417v11.314h3.009V90.035H55.028V94.88H53.611V90.035H50.6v10.011a8.758,8.758,0,0,1-1.231.341,7.049,7.049,0,0,1-1.413.122H44.517v-8.15h4.536V90.7H41.391v9.571a1.736,1.736,0,0,0,.586,1.377m34.562-5.6h2.582V94.39H76.539V90.005H73.365v10.566h3.175ZM11.383,111.19v3.475a1.13,1.13,0,0,0,.466,1.01,2.712,2.712,0,0,0,1.48.315,2.732,2.732,0,0,0,1.483-.315,1.135,1.135,0,0,0,.464-1.01V111.19H14.29v3.53a.557.557,0,0,1-.232.5,1.264,1.264,0,0,1-.728.162,1.28,1.28,0,0,1-.726-.162.558.558,0,0,1-.238-.5v-3.53Zm44.613,0v3.475a1.13,1.13,0,0,0,.466,1.01,3.628,3.628,0,0,0,2.959,0,1.13,1.13,0,0,0,.47-1.01V111.19h-.985v3.53a.57.57,0,0,1-.234.5,1.279,1.279,0,0,1-.727.162,1.3,1.3,0,0,1-.731-.162.556.556,0,0,1-.235-.5v-3.53Zm39,0-.625,1.334c-.053.116-.1.237-.141.355s-.08.257-.115.4c-.041-.162-.084-.306-.132-.437a2.621,2.621,0,0,0-.127-.326l-.619-1.326H92.209l1.394,2.728v2.019h1.027v-2.019l1.41-2.728Zm-45.106,0v4.747h3.137v-.6H50.886V111.19ZM97,105.29H90.312V98.085h-3.06v7.205H85.673V98.085H82.612v7.205H79.624v1.637H97Zm-5.017-7.463q0,2-.128,3.291a4.892,4.892,0,0,1-.741,2.22h2.8a6.683,6.683,0,0,0,.881-2.176,13.949,13.949,0,0,0,.318-3.121V90.806H81.059v1.656H91.984ZM78.707,111.19h-1.2v4.747h.995v-2.32h.027l1.7,2.32H81.3L79.532,113.6a1.878,1.878,0,0,0,1.05-.346,1.025,1.025,0,0,0,.347-.821,1.007,1.007,0,0,0-.509-.954,3.755,3.755,0,0,0-1.714-.288m.967,1.88a1.561,1.561,0,0,1-.868.184h-.3v-1.494h.269a1.969,1.969,0,0,1,.908.143.574.574,0,0,1,.24.53.734.734,0,0,1-.248.637m10.862,2.867v-4.148h1.373v-.6H88.156v.6h1.373v4.148Zm-6.634-.732a1.338,1.338,0,0,1-.725.172,2.753,2.753,0,0,1-.559-.069,4.373,4.373,0,0,1-.657-.2v.649a3.877,3.877,0,0,0,.657.178,3.52,3.52,0,0,0,.63.058,2.5,2.5,0,0,0,1.385-.35,1.048,1.048,0,0,0,.542-.9,1.014,1.014,0,0,0-.263-.688,3.058,3.058,0,0,0-.9-.633c-.03-.018-.083-.04-.151-.075-.726-.372-1.09-.7-1.09-.972a.533.533,0,0,1,.284-.471,1.393,1.393,0,0,1,.753-.178,2.59,2.59,0,0,1,.544.062,3.591,3.591,0,0,1,.562.2v-.636a3.21,3.21,0,0,0-.63-.164,3.944,3.944,0,0,0-.66-.053,2.288,2.288,0,0,0-1.314.355,1.052,1.052,0,0,0-.533.9.974.974,0,0,0,.262.667,3.25,3.25,0,0,0,.922.646c.035.023.1.056.182.1.682.362,1.022.677,1.022.957a.524.524,0,0,1-.263.458m2.355.732h1V111.19h-1Zm-56.241,0v-4.148h1.373v-.6H27.636v.6h1.376v4.148Zm46.315-4.173v-.574H73.378v4.747h2.954v-.6H74.372v-1.6h1.791v-.562H74.372v-1.414Zm-8.8-.574h-.995v4.747h.995Zm1.912,0H68.427l1.625,4.747H70.9l1.625-4.747h-1l-1.036,3.223Zm7.1-9.833H62.012v1.637H73.365v4.829h3.175ZM2.931,99.107A4.764,4.764,0,0,1,0,101.327l1.459,1.123a5.124,5.124,0,0,0,2.658-1.276,4.16,4.16,0,0,0,1.531-2.213,4.348,4.348,0,0,0,1.545,2.213,5.058,5.058,0,0,0,2.625,1.276l1.412-1.081v6.485h2.989V90.035H11.229v4.873H8.616v1.659h2.613v4.567a4.56,4.56,0,0,1-2.872-2.045A7.726,7.726,0,0,1,7.2,94.805V92.252H9.77V90.618H1.3v1.634H4.075v2.553a7.827,7.827,0,0,1-1.144,4.3M18.773,111.19v4.747h.945v-3.32l1.955,3.32h.934V111.19h-.942v3.3l-1.971-3.3ZM1.107,116a1.779,1.779,0,0,0,1.16-.313,1.2,1.2,0,0,0,.381-.977v-3.52h-1v3.535a.668.668,0,0,1-.17.507.811.811,0,0,1-.554.164,1.479,1.479,0,0,1-.426-.062,2.451,2.451,0,0,1-.449-.2v.657a2.5,2.5,0,0,0,.513.159,2.767,2.767,0,0,0,.545.05M18.459,90.035H15.465v17.82h2.994ZM6.985,111.764v-.574H4.032v4.747H6.985v-.6H5.028v-1.6H6.817v-.562H5.028v-1.414Zm19.192-16.1a8.583,8.583,0,0,1-4.7,1.5l1.244,1.25a12.25,12.25,0,0,0,4.464-.9,5.279,5.279,0,0,0,2.84-2.2,5.472,5.472,0,0,0,2.858,2.19,12.071,12.071,0,0,0,4.438.914l1.245-1.25a8.6,8.6,0,0,1-4.682-1.5,4.148,4.148,0,0,1-2.262-3.429v-.111H37.23V90.464H22.822v1.659h5.6v.111a4.153,4.153,0,0,1-2.246,3.429M38.224,115.43a3.811,3.811,0,0,0,0-3.737,2.016,2.016,0,0,0-1.605-.565,2.048,2.048,0,0,0-1.609.565,3.794,3.794,0,0,0,0,3.737,2.038,2.038,0,0,0,1.609.56,2.023,2.023,0,0,0,1.605-.56m-2.445-.46a2.8,2.8,0,0,1-.26-1.418,2.847,2.847,0,0,1,.252-1.419,1.079,1.079,0,0,1,1.687-.005,2.912,2.912,0,0,1,.247,1.425,2.979,2.979,0,0,1-.242,1.439.889.889,0,0,1-.833.392.911.911,0,0,1-.851-.412m7.059.967h.93V111.19h-.945v3.3l-1.965-3.3h-.921v4.747h.942v-3.32Zm-19.379,0h1.01l.344-.933H26.5l.35.933h1.006L26.13,111.19h-.94Zm2.871-1.461H25l.668-2.053Zm5.941,1.461h1V111.19h-1Zm-3.824-8.082h3.177v-6.178h7.513v-1.634H20.916v1.634h7.531ZM9.64,115.687a1.205,1.205,0,0,0,.375-.977v-3.52H9.022v3.535a.645.645,0,0,1-.174.507.8.8,0,0,1-.557.164,1.445,1.445,0,0,1-.417-.062,2.368,2.368,0,0,1-.453-.2v.657a2.485,2.485,0,0,0,.514.159,2.731,2.731,0,0,0,.542.05,1.806,1.806,0,0,0,1.164-.313" fill="#5f5e5e"/>
        </g>
      </g>
    </g>
    <path id="Color_Overlay" data-name="Color Overlay" d="M925.934,170.95a2.475,2.475,0,0,1-.514-.159v-.656a2.357,2.357,0,0,0,.453.2,1.428,1.428,0,0,0,.418.062.8.8,0,0,0,.556-.164.646.646,0,0,0,.175-.507v-3.536h.994v3.52a1.2,1.2,0,0,1-.374.977,1.806,1.806,0,0,1-1.164.313A2.715,2.715,0,0,1,925.934,170.95Zm-7.373,0a2.493,2.493,0,0,1-.512-.159v-.656a2.436,2.436,0,0,0,.449.2,1.462,1.462,0,0,0,.427.062.813.813,0,0,0,.553-.164.668.668,0,0,0,.171-.507v-3.536h1v3.52a1.2,1.2,0,0,1-.381.977,1.778,1.778,0,0,1-1.16.313A2.755,2.755,0,0,1,918.562,170.95Zm82.057-.018a4,4,0,0,1-.658-.178V170.1a4.387,4.387,0,0,0,.658.2,2.719,2.719,0,0,0,.559.069,1.34,1.34,0,0,0,.724-.172.526.526,0,0,0,.264-.458c0-.279-.339-.595-1.021-.957-.083-.042-.148-.075-.183-.1a3.25,3.25,0,0,1-.922-.646.974.974,0,0,1-.263-.667,1.054,1.054,0,0,1,.534-.9,2.29,2.29,0,0,1,1.314-.355,3.963,3.963,0,0,1,.66.053,3.2,3.2,0,0,1,.63.165v.635a3.533,3.533,0,0,0-.562-.194,2.564,2.564,0,0,0-.544-.062,1.4,1.4,0,0,0-.753.178.533.533,0,0,0-.284.471c0,.271.365.6,1.091.972.068.034.122.057.151.075a3.044,3.044,0,0,1,.9.634,1.014,1.014,0,0,1,.264.688,1.046,1.046,0,0,1-.543.9,2.488,2.488,0,0,1-1.384.35A3.521,3.521,0,0,1,1000.619,170.932Zm-26.158-.257a1.129,1.129,0,0,1-.466-1.01v-3.475h.983v3.531a.557.557,0,0,0,.235.5,1.3,1.3,0,0,0,.732.161,1.285,1.285,0,0,0,.727-.161.571.571,0,0,0,.233-.5v-3.531h.985v3.475a1.13,1.13,0,0,1-.47,1.01,3.632,3.632,0,0,1-2.959,0Zm-21.452-.245a2.806,2.806,0,0,1-.492-1.867,2.835,2.835,0,0,1,.492-1.87,2.049,2.049,0,0,1,1.609-.565,2.017,2.017,0,0,1,1.606.565,3.81,3.81,0,0,1,0,3.737,2.588,2.588,0,0,1-3.215,0Zm.761-3.3a2.858,2.858,0,0,0-.251,1.42,2.8,2.8,0,0,0,.259,1.417.911.911,0,0,0,.851.412.887.887,0,0,0,.833-.391,2.969,2.969,0,0,0,.242-1.438,2.919,2.919,0,0,0-.247-1.425,1.081,1.081,0,0,0-1.687,0Zm-23.922,3.542a1.13,1.13,0,0,1-.467-1.01v-3.475h.984v3.531a.557.557,0,0,0,.238.5,1.284,1.284,0,0,0,.725.161,1.27,1.27,0,0,0,.729-.161.558.558,0,0,0,.232-.5v-3.531h.985v3.475a1.134,1.134,0,0,1-.464,1.01,3.641,3.641,0,0,1-2.963,0Zm81.753.263v-2.02l-1.394-2.728h1.033l.619,1.327a2.489,2.489,0,0,1,.126.326,4.376,4.376,0,0,1,.132.436c.035-.142.071-.273.115-.4a3.745,3.745,0,0,1,.14-.355l.625-1.335h1.039l-1.41,2.728v2.02Zm-4.074,0v-4.149h-1.372v-.6h3.753v.6h-1.372v4.149Zm-3.272,0v-4.748h1v4.748Zm-6.029,0-1.7-2.321h-.027v2.321h-.995v-4.748h1.2a3.747,3.747,0,0,1,1.714.289,1.007,1.007,0,0,1,.509.954,1.025,1.025,0,0,1-.347.821,1.882,1.882,0,0,1-1.05.346l1.766,2.337Zm-1.723-2.684h.3a1.566,1.566,0,0,0,.868-.184.734.734,0,0,0,.247-.637.573.573,0,0,0-.24-.53,1.957,1.957,0,0,0-.908-.144h-.268Zm-5.127,2.684v-4.748h2.954v.574h-1.959v1.414h1.791v.563h-1.791v1.6h1.959v.6Zm-3.326,0-1.625-4.748h1.013l1.039,3.223,1.036-3.223h1.005l-1.625,4.748Zm-3.517,0v-4.748h.995v4.748Zm-2.367,0-1.963-3.32v3.32h-.94v-4.748h.922l1.97,3.3v-3.3h.941v4.748Zm-14.273,0v-4.748h.992v4.151h2.146v.6Zm-1.877,0L965.66,170h-1.682l-.348.934h-1.007l1.732-4.748h.939l1.732,4.748Zm-1.861-1.462h1.334l-.665-2.052Zm-3.318,1.462-1.959-3.32v3.32h-.941v-4.748h.921l1.965,3.3v-3.3h.945v4.748Zm-10.567,0v-4.748h1v4.748Zm-3.26,0v-4.149h-1.375v-.6h3.753v.6h-1.372v4.149Zm-2.157,0-.349-.934h-1.692l-.344.934h-1.01l1.731-4.748h.94l1.731,4.748ZM943,169.475h1.335l-.667-2.052Zm-3.322,1.462-1.955-3.32v3.32h-.946v-4.748h.922l1.971,3.3v-3.3h.941v4.748Zm-17.642,0v-4.748h2.953v.574h-1.957v1.414h1.788v.563h-1.788v1.6h1.957v.6Zm51-8.082V151.541h-1.417v11.314H968.6v-6.314c-.508.2-.871.315-1.275.438a5.1,5.1,0,0,1-1.484.182H961.58a2.366,2.366,0,0,1-1.6-.512,1.735,1.735,0,0,1-.587-1.376V145.7h7.662v1.656h-4.536v8.15h3.443a7.019,7.019,0,0,0,1.413-.121,8.751,8.751,0,0,0,1.231-.341V145.035h3.008v4.845h1.417v-4.845h3.01v17.82Zm-26.581,0v-6.178h-7.531v-1.634h18.221v1.634h-7.513v6.178Zm-12.982,0v-17.82h2.993v17.82Zm-4.236,0V156.37l-1.412,1.08a5.058,5.058,0,0,1-2.624-1.275,4.345,4.345,0,0,1-1.544-2.213,4.167,4.167,0,0,1-1.531,2.213,5.125,5.125,0,0,1-2.658,1.275L918,156.326a4.76,4.76,0,0,0,2.93-2.219,7.825,7.825,0,0,0,1.145-4.3v-2.553H919.3v-1.633h8.473v1.633H925.2v2.553a7.723,7.723,0,0,0,1.158,4.284,4.561,4.561,0,0,0,2.873,2.045v-4.567h-2.613v-1.659h2.613v-4.874h2.989v17.82Zm62.135-.032v-4.829H980.012v-1.637H994.54v6.466Zm6.259-.9V160.29h2.989v-7.205h3.061v7.205h1.578v-7.205h3.06v7.205H1015v1.636Zm11.491-3.588a4.894,4.894,0,0,0,.742-2.219q.127-1.288.128-3.291v-5.366H999.059v-1.656h14.058v7.237a13.96,13.96,0,0,1-.318,3.12,6.686,6.686,0,0,1-.881,2.175Zm-17.751-2.766V145.005h3.175v4.385h2.581v1.657H994.54v4.525Zm-12.705-4.636a3.73,3.73,0,0,1,1.554-2.924h-1.987V146.4h4.065v-1.853H985.5V146.4h4.065v1.608h-1.993a3.715,3.715,0,0,1,1.559,2.924c0,2.267-2.347,4.107-5.239,4.107S978.659,153.2,978.659,150.936Zm3.013,0a2.25,2.25,0,1,0,2.223-2.593A2.432,2.432,0,0,0,981.672,150.936ZM950.885,152.5a5.471,5.471,0,0,1-2.858-2.191,5.275,5.275,0,0,1-2.84,2.2,12.253,12.253,0,0,1-4.463.9l-1.244-1.25a8.582,8.582,0,0,0,4.7-1.5,4.154,4.154,0,0,0,2.246-3.43v-.111h-5.6v-1.659H955.23v1.659h-5.606v.111a4.149,4.149,0,0,0,2.262,3.43,8.6,8.6,0,0,0,4.682,1.5l-1.245,1.25A12.072,12.072,0,0,1,950.885,152.5Zm2.137-20.075s11.549,6.456,23.1-1.348a17.3,17.3,0,0,0,6.525-7.953,14.776,14.776,0,0,0,1.146-5.067s.189-2.418.222-4.585V82.279h11.069v27.97a39.706,39.706,0,0,1-.26,5.1c-.728,4.2-3.424,12.008-13.314,17.744a31.184,31.184,0,0,1-13.99,3.32A28.045,28.045,0,0,1,953.022,132.422ZM949.3,125.2a21.442,21.442,0,0,1-2.14-17.854s1.128-5.022,9.894-13.491c0,0,5.552-5.091,7.672-10.172,0,0,5.817-11.722-.4-23.725A28.044,28.044,0,0,1,971.6,70.922a26.375,26.375,0,0,1,1.506,12.909,24.586,24.586,0,0,1-4.614,11.063,45.287,45.287,0,0,1-7.31,7.419c-8.161,6.431-10.984,12.817-10.613,17.861a15.194,15.194,0,0,0,10.241,13.369A18.8,18.8,0,0,1,949.3,125.2Zm-7.228-19.676c1.127-5.893,4.321-10.357,7.019-13.912,0,0,5.2-6.511,6.831-10.4,3.424-8.1,3.295-17.806-3.445-26.206,13.411,8.924,10.005,23.45,10.005,23.45-.968,6.5-8.128,13.973-8.128,13.973-6.07,6.538-8.743,11.679-9.751,16.683a22.136,22.136,0,0,0,11.426,23.511C949.82,130.248,939.695,121.84,942.072,105.523Zm-3.4,7.463a30.509,30.509,0,0,1,.956-16.961c1.236-4.156,5.46-10.278,5.46-10.278,1.922-2.882,3.692-5.916,3.692-5.916,3.762-6.953.88-14.417.88-14.417a16.578,16.578,0,0,1,1.328,18.408,53.373,53.373,0,0,1-3.26,5.111,53.277,53.277,0,0,0-3.859,5.837,35.05,35.05,0,0,0-3.336,9.562,29.76,29.76,0,0,0,.941,13.5,25.082,25.082,0,0,0,9.3,12.818C940.671,125.077,938.672,112.986,938.672,112.986Zm28.808,17.093a2.887,2.887,0,0,1-.5-.142l.189-.472a1.766,1.766,0,0,0,.357.136,1.558,1.558,0,0,0,.375.046,1,1,0,0,0,.739-.246.956.956,0,0,0,.247-.721.626.626,0,0,0-.253-.543,1.29,1.29,0,0,0-.753-.183c-.136,0-.249,0-.346.013s-.194.023-.286.041l.365-1.891h1.932v.484H968.2l-.216.965c.072-.011.137-.014.2-.022s.112,0,.157,0a1.279,1.279,0,0,1,.909.318,1.085,1.085,0,0,1,.345.842,1.326,1.326,0,0,1-.419,1.049,1.689,1.689,0,0,1-1.169.376A3.019,3.019,0,0,1,967.48,130.079Zm-5.188-.007v-3.479h-.682v-.476h1.375v3.955Zm7.891,0,1.474-2.1a3.287,3.287,0,0,0,.292-.51,1.09,1.09,0,0,0,.1-.421.555.555,0,0,0-.122-.391.525.525,0,0,0-.386-.127.48.48,0,0,0-.41.166,1.021,1.021,0,0,0-.121.571v.14h-.692a.289.289,0,0,1-.008-.079V127.2a1.075,1.075,0,0,1,.32-.85,1.387,1.387,0,0,1,.953-.285,1.423,1.423,0,0,1,.9.26.868.868,0,0,1,.328.717,1.366,1.366,0,0,1-.127.553,3.586,3.586,0,0,1-.431.681l-1,1.293H972.7v.5Zm-5.693,0c.353-.442.619-.784.795-1.032s.33-.47.457-.676a.972.972,0,0,1-.3.151,1.088,1.088,0,0,1-.333.048,1.017,1.017,0,0,1-.8-.279,1.418,1.418,0,0,1-.242-.927,1.394,1.394,0,0,1,.3-.983,1.256,1.256,0,0,1,.941-.318,1.2,1.2,0,0,1,.923.336,1.463,1.463,0,0,1,.3,1.01,2.74,2.74,0,0,1-.252,1.111,9.147,9.147,0,0,1-.994,1.56Zm.388-3.351a1.121,1.121,0,0,0-.128.612,1.1,1.1,0,0,0,.126.614.5.5,0,0,0,.43.175.491.491,0,0,0,.43-.19,1.083,1.083,0,0,0,.13-.6,1.029,1.029,0,0,0-.139-.6.507.507,0,0,0-.437-.191A.471.471,0,0,0,964.878,126.72Zm2.648-3.094a3.421,3.421,0,0,1-.706-.217v-.9a3.014,3.014,0,0,0,.622.271,2.164,2.164,0,0,0,.578.087,1.087,1.087,0,0,0,.757-.222.9.9,0,0,0,.243-.691v-4.846h1.36v4.82a1.632,1.632,0,0,1-.517,1.336,2.445,2.445,0,0,1-1.591.435A3.578,3.578,0,0,1,967.526,123.626Zm-10.169,0a3.122,3.122,0,0,1-.7-.217v-.9a3.009,3.009,0,0,0,.621.27,2.079,2.079,0,0,0,.577.088,1.086,1.086,0,0,0,.756-.221.9.9,0,0,0,.24-.693v-4.845h1.366v4.82a1.636,1.636,0,0,1-.519,1.336,2.454,2.454,0,0,1-1.595.434A3.557,3.557,0,0,1,957.357,123.624Zm15.2-.374a1.545,1.545,0,0,1-.642-1.381v-4.76h1.346v4.83a.771.771,0,0,0,.328.691,2.366,2.366,0,0,0,1.991,0,.773.773,0,0,0,.319-.691v-4.83h1.353v4.76a1.546,1.546,0,0,1-.639,1.381,3.729,3.729,0,0,1-2.03.435A3.685,3.685,0,0,1,972.556,123.25Zm-10.8.358v-6.5h4.049v.787h-2.686v1.927h2.458v.772h-2.458v2.2h2.686v.815Zm7.134-8.983a2.53,2.53,0,0,1-1.179.394,1.81,1.81,0,0,1-.215,0,2.511,2.511,0,0,1-1.176-.394l-6.869.48v-8.872l.717-.042-.315.5v8.037l6.6-.424a1.938,1.938,0,0,0,2.3,0l6.6.424v-8.037l-.318-.5.716.042V115.1Zm-.213-.7-.018.018a1.543,1.543,0,0,1-.784.364,1.524,1.524,0,0,1,.771-1.137,4.769,4.769,0,0,1,2.174-.376,14.678,14.678,0,0,1,1.491.08c.536.053,1.1.134,1.676.238.023.038.633,1.058.725,1.211C974.516,114.312,968.682,113.926,968.682,113.926Zm-7.452-.814c.574-.1,1.138-.184,1.672-.238a14.74,14.74,0,0,1,1.493-.08,4.757,4.757,0,0,1,2.173.376,1.513,1.513,0,0,1,.769,1.137,1.548,1.548,0,0,1-.781-.364l-.02-.018s-5.831.386-6.035.4C960.594,114.17,961.2,113.15,961.23,113.112Zm13.077-.284v-7.143c.152.241.68,1.071.694,1.093v7.205C974.847,113.729,974.321,112.847,974.307,112.828Zm-14.088-6.05c.017-.022.543-.854.695-1.093v7.142c-.013.021-.541.9-.695,1.156Zm7.6-.674a2.391,2.391,0,0,1,.669-.707l.032-.023.075-.057a2.819,2.819,0,0,1,.956-.373l.525-.077.687-.031a13.951,13.951,0,0,1,1.541.089c.507.056,1.04.14,1.58.255v7.485c-.623-.093-1.184-.164-1.664-.212l-.952-.066a10.361,10.361,0,0,0-1.282.042l-.033.005a.2.2,0,0,0-.031,0,4.264,4.264,0,0,0-1.738.545,1.69,1.69,0,0,0-.364.356Zm2.822,4.05a3.8,3.8,0,0,0,1.067,1.686c.086-.2.95-1.908.95-1.908a2.53,2.53,0,0,1-.8-.665c-.612-.726-.876-.789-.876-.789A3.454,3.454,0,0,0,973,106.528a.79.79,0,0,1,.312-.406l-.016-.047a.545.545,0,0,0-.326.3.758.758,0,0,0-.1-.3l-.031.041a.657.657,0,0,1,.02.432,2.088,2.088,0,0,1-.869,1.063,1.3,1.3,0,0,0,.009-.5h-.075c-.033.609-.318.784-.318.784a7.012,7.012,0,0,1-.952.466,3.49,3.49,0,0,0,.778-1.163,2.37,2.37,0,0,0,.154-.839.849.849,0,0,1,.112-.52l-.043-.026a1,1,0,0,0-.183.475,1.407,1.407,0,0,0-.064-.237l-.048.077a2.188,2.188,0,0,1,.048.314,1.876,1.876,0,0,1-.1.646c-.128.388-.337.393-.337.393-.231.013-.309-.452-.309-.452l-.065.035c.079.492.274.612.274.612-.036.328-.5.615-.5.615-.238-.01-.38-.431-.38-.431a.239.239,0,0,0-.069.015,1.1,1.1,0,0,0,.163.365c-.5-.154-.5-.41-.5-.41l-.057,0c-.006.215.235.379.235.379a2.146,2.146,0,0,0,.549.229c-.063.162-.051.121-.051.121a10.056,10.056,0,0,1-1.359,1.076.184.184,0,0,0-.057.147.225.225,0,0,0,.094.164c.042.039.066.033.066.033l.1.106a.249.249,0,0,0,.277,0c.281-.023.967-.1.967-.1A.3.3,0,0,1,970.645,110.154Zm-3.612,2.832a4.232,4.232,0,0,0-1.732-.548.321.321,0,0,0-.036,0l-.039,0a10.39,10.39,0,0,0-1.276-.043l-.955.066c-.48.048-1.039.119-1.663.212v-7.485c.54-.114,1.072-.2,1.582-.255a13.9,13.9,0,0,1,1.54-.088l.684.03.528.079a2.756,2.756,0,0,1,.953.372l.077.058.029.022a2.4,2.4,0,0,1,.672.707v7.236A1.618,1.618,0,0,0,967.033,112.986Zm-4.354-4.76s.822,2.068.414,3.21h2.674c-.408-1.142.412-3.21.412-3.21-.57-.643-1.3-1.595-1.6-2v2.527a.421.421,0,1,1-.312,0v-2.508C963.95,106.664,963.239,107.6,962.679,108.226Z" fill="#fff"/>
  </g>
</svg>