<svg id="벡터_고급_개체" data-name="벡터 고급 개체" xmlns="http://www.w3.org/2000/svg" width="35" height="27" viewBox="0 0 35 27">
	<defs>
		<clipPath id="clip-path">
			<rect id="사각형_23" data-name="사각형 23" width="35" height="27" transform="translate(0 0)" fill="none"/>
		</clipPath>
	</defs>
	<g id="그룹_38" data-name="그룹 38">
		<g id="그룹_37" data-name="그룹 37" clip-path="url(#clip-path)">
			<path id="패스_91" data-name="패스 91" d="M6.385,27H1.559A1.547,1.547,0,0,1,0,25.47V15.583a1.547,1.547,0,0,1,1.559-1.531H6.385a1.546,1.546,0,0,1,1.558,1.531V25.47A1.546,1.546,0,0,1,6.385,27M2.119,24.919H5.825V16.133H2.119Z" fill="#999"/>
			<path id="패스_92" data-name="패스 92" d="M16.474,27H11.8a1.622,1.622,0,0,1-1.635-1.606V7.618A1.622,1.622,0,0,1,11.8,6.012h4.672a1.623,1.623,0,0,1,1.635,1.606V25.394A1.623,1.623,0,0,1,16.474,27m-4.189-2.081h3.706V8.093H12.285Z" fill="#999"/>
			<path id="패스_93" data-name="패스 93" d="M26.622,27H21.983a1.639,1.639,0,0,1-1.651-1.623V1.622A1.639,1.639,0,0,1,21.983,0h4.639a1.639,1.639,0,0,1,1.652,1.622v8.45H26.156V2.081H22.45V24.919h3.705V20.255h2.119v5.122A1.639,1.639,0,0,1,26.622,27" fill="#999"/>
			<path id="패스_94" data-name="패스 94" d="M34.74,21.175,32.761,19.01a6.017,6.017,0,0,0,1.4-3.858,6.225,6.225,0,1,0-6.223,6.111,6.261,6.261,0,0,0,3.3-.933l1.99,2.177a1.029,1.029,0,0,0,1.435.077.986.986,0,0,0,.078-1.41M24.015,15.152a3.924,3.924,0,0,1,7.846,0A3.951,3.951,0,0,1,27.94,19a3.893,3.893,0,0,1-3.924-3.852" fill="#5686c5"/>
		</g>
	</g>
</svg>