<svg id="그룹_42" data-name="그룹 42" xmlns="http://www.w3.org/2000/svg" width="30" height="27" viewBox="0 0 30 27">
	<defs>
		<clipPath id="clip-path">
			<rect id="사각형_25" data-name="사각형 25" width="30" height="27" fill="none"/>
		</clipPath>
	</defs>
	<g id="그룹_41" data-name="그룹 41" clip-path="url(#clip-path)">
		<path id="패스_98" data-name="패스 98" d="M18.195,4.774,16.8,6.161V7.222h1.4L19.592,6s.9,3.579-3.206,3.911c0,0-2.133,2.291-3.37,3.519s-3.735-.839-2.219-2.343S14.249,7.7,14.249,7.7,14,3.957,18.195,4.774" fill="#5686c5"/>
		<path id="패스_99" data-name="패스 99" d="M26.537,0H3.463A3.455,3.455,0,0,0,0,3.438V19.371A3.455,3.455,0,0,0,3.463,22.81H13.941V24.9H4.453a1.051,1.051,0,1,0,0,2.1H25.547a1.051,1.051,0,1,0,0-2.1H16.059V22.81H26.537A3.455,3.455,0,0,0,30,19.371V3.438A3.455,3.455,0,0,0,26.537,0M3.463,2.1H26.537a1.343,1.343,0,0,1,1.346,1.336V15.787H2.117V3.438A1.343,1.343,0,0,1,3.463,2.1M26.537,20.707H3.463a1.343,1.343,0,0,1-1.346-1.336V17.889H27.883v1.482a1.343,1.343,0,0,1-1.346,1.336" fill="#999"/>
		<path id="패스_100" data-name="패스 100" d="M16.162,19.247A1.162,1.162,0,1,1,15,18.093a1.158,1.158,0,0,1,1.162,1.154" fill="#5686c5"/>
	</g>
</svg>