<svg xmlns="http://www.w3.org/2000/svg" width="32" height="22" viewBox="0 0 32 22">
	<defs>
		<clipPath id="clip-path">
			<rect id="사각형_20" data-name="사각형 20" width="32" height="22" transform="translate(0 0)" fill="none"/>
		</clipPath>
	</defs>
	<g id="벡터_고급_개체" data-name="벡터 고급 개체" transform="translate(0 0)">
		<g id="그룹_32" data-name="그룹 32">
			<g id="그룹_31" data-name="그룹 31" clip-path="url(#clip-path)">
				<path id="패스_82" data-name="패스 82" d="M29.007,18.075H2.993a1.03,1.03,0,0,1-1.029-1.031V1.673A1.673,1.673,0,0,1,3.635,0H28.365a1.673,1.673,0,0,1,1.67,1.673V17.045a1.03,1.03,0,0,1-1.029,1.031M4.022,16.014H27.978V2.062H4.022Z" fill="#999"/>
				<path id="패스_83" data-name="패스 83" d="M30.365,22H1.635A1.639,1.639,0,0,1,0,20.362v-2.71a1.638,1.638,0,0,1,1.635-1.638h28.73A1.638,1.638,0,0,1,32,17.652v2.71A1.639,1.639,0,0,1,30.365,22M2.058,19.938H29.942V18.075H2.058Z" fill="#999"/>
				<path id="패스_84" data-name="패스 84" d="M19.834,5.746a1.1,1.1,0,0,0-1.531.3l-2.826,4.2L14.139,8.78a1.1,1.1,0,1,0-1.627,1.492L14.735,12.7a2.469,2.469,0,0,0,.257.233,1.1,1.1,0,0,0,1.531-.3l3.608-5.36a1.106,1.106,0,0,0-.3-1.534" fill="#5686c5"/>
				<rect id="사각형_19" data-name="사각형 19" width="6.272" height="2.062" transform="translate(5.737 14.096)" fill="#999"/>
			</g>
		</g>
	</g>
</svg>