<?xml version="1.0" encoding="UTF-8"?>
<svg id="_레이어_1" data-name="레이어_1" xmlns="http://www.w3.org/2000/svg" version="1.1" viewBox="0 0 30 30">
  <!-- Generator: Adobe Illustrator 29.6.1, SVG Export Plug-In . SVG Version: 2.1.1 Build 9)  -->
  <defs>
    <style>
      .st0 {
        fill: #e3e3e3;
      }

      .st1 {
        fill: #5686c5;
      }

      .st2 {
        fill: #999;
      }
    </style>
  </defs>
  <polygon class="st0" points="20.3 11.1 20.3 11 20.3 11.1 20.3 5.8 20.3 11.1"/>
  <path class="st2" d="M27.5,1.1c-.4-.3-.9-.3-1.3-.1l-7,2.7L9.3.3,1.2,3c-.3.1-.6.3-.7.6-.2.3-.2.5-.2.9v21.5c0,.5.2.9.6,1.2.4.3.9.4,1.3.2l8.3-3.2V3.3l7.4,2.6v5.6c.4-.1.8-.2,1.2-.3.4,0,.8,0,1.3-.1v-5.2l5.3-2v8.6c.5.3.9.6,1.3,1s.8.8,1.1,1.2V2.3c0-.5-.2-.9-.6-1.2ZM8,22.4l-5.3,2V5.1l5.3-1.8v19.2Z"/>
  <path class="st1" d="M25.6,23.9c.3-.5.6-1,.7-1.5.2-.6.2-1.1.2-1.8,0-1.7-.6-3.1-1.8-4.2-1.2-1.2-2.6-1.8-4.2-1.8s-3.1.6-4.2,1.8c-1.2,1.2-1.8,2.6-1.8,4.2s.6,3,1.8,4.2c1.2,1.2,2.6,1.8,4.2,1.8s1.2,0,1.8-.2c.5-.2,1-.4,1.5-.8l4.1,4.1,1.7-1.7-4.1-4.1ZM23.1,23.2c-.7.6-1.5.9-2.5.9s-1.8-.3-2.5-1c-.7-.7-1-1.5-1-2.5s.3-1.8,1-2.5c.7-.7,1.5-1,2.5-1s1.8.3,2.5,1c.7.7,1,1.5,1,2.5,0,1.1-.4,2-1,2.6Z"/>
  <path class="st0" d="M8,3.3v19.2V3.3Z"/>
</svg>