<svg id="벡터_고급_개체" data-name="벡터 고급 개체" xmlns="http://www.w3.org/2000/svg" width="29.5" height="29.5" viewBox="0 0 29.5 29.5">
	<defs>
		<clipPath id="clip-path">
			<rect id="사각형_13" data-name="사각형 13" width="29.5" height="29.5" transform="translate(0 0)" fill="none"/>
		</clipPath>
	</defs>
	<g id="그룹_20" data-name="그룹 20">
		<g id="그룹_19" data-name="그룹 19" clip-path="url(#clip-path)">
			<path id="패스_36" data-name="패스 36" d="M29.5,12.437A12.437,12.437,0,0,0,17.063,0V12.437Z" fill="#5686c5"/>
			<path id="패스_37" data-name="패스 37" d="M0,15.2A14.313,14.313,0,0,1,14.3.906,1.023,1.023,0,0,1,15.32,1.929V15.2a1.023,1.023,0,0,1-.531.9L3.148,22.481a1.023,1.023,0,0,1-1.388-.4A14.313,14.313,0,0,1,0,15.2M13.274,2.994A12.255,12.255,0,0,0,3.1,20.174L13.274,14.6Z" fill="#999"/>
			<path id="패스_38" data-name="패스 38" d="M1.633,21.584a1.024,1.024,0,0,1,.531-.9l11.642-6.381a1.024,1.024,0,0,1,.492-.126H27.571A1.023,1.023,0,0,1,28.594,15.2,14.3,14.3,0,0,1,1.759,22.076a1.024,1.024,0,0,1-.126-.493m12.926-5.358L4.083,21.968a12.252,12.252,0,0,0,22.423-5.742Z" fill="#999"/>
		</g>
	</g>
</svg>