<svg id="벡터_고급_개체" data-name="벡터 고급 개체" xmlns="http://www.w3.org/2000/svg" width="29.816" height="33.882" viewBox="0 0 29.816 33.882">
	<defs>
		<clipPath id="clip-path">
			<rect id="사각형_16" data-name="사각형 16" width="29.816" height="33.882" transform="translate(0 0)" fill="none"/>
		</clipPath>
	</defs>
	<g id="그룹_26" data-name="그룹 26">
		<g id="그룹_25" data-name="그룹 25" clip-path="url(#clip-path)">
			<path id="패스_51" data-name="패스 51" d="M18.074,11.461a1.091,1.091,0,0,1-.949-1.629L22.409.552a1.092,1.092,0,0,1,1.9,1.077l-5.285,9.281a1.094,1.094,0,0,1-.951.552" fill="#5686c5"/>
			<path id="패스_52" data-name="패스 52" d="M20.718,13.863a1.09,1.09,0,0,1-.726-1.905L28,4.876a1.091,1.091,0,1,1,1.451,1.63l-8.006,7.082a1.089,1.089,0,0,1-.725.275" fill="#5686c5"/>
			<path id="패스_53" data-name="패스 53" d="M21.183,33.882H9.954A1.09,1.09,0,0,1,8.92,32.441l.81-2.372A14.49,14.49,0,0,1,.009,17.82a1.091,1.091,0,0,1,1.084-1.23H28.15a1.092,1.092,0,0,1,1.092,1.041c0,.095.317,9.146-7.62,12.4l.622,2.5a1.091,1.091,0,0,1-1.061,1.353m-9.7-2.18h8.3l-.522-2.091a1.089,1.089,0,0,1,.723-1.3c5.821-1.889,6.864-7.255,7.041-9.543H2.385a12.069,12.069,0,0,0,8.958,9.51,1.092,1.092,0,0,1,.822,1.421Z" fill="#999"/>
			<path id="패스_54" data-name="패스 54" d="M4.15,18.8,2.217,17.783c.257-.487,2.6-4.789,5.666-5.717A3.875,3.875,0,0,1,9.981,12a7.249,7.249,0,0,1,4.837-2.673c1.936-.113,3.817.8,5.593,2.709a4.5,4.5,0,0,1,2.6.14c1.688.6,3.057,2.167,4.067,4.645l-2.025.821c-.746-1.831-1.7-3.007-2.744-3.4a2.285,2.285,0,0,0-1.725.032l-.787.424-.558-.692c-1.451-1.735-2.888-2.574-4.281-2.5-2.151.117-3.681,2.381-3.7,2.4l-.553.83-.881-.472A1.609,1.609,0,0,0,8.52,14.15C6.657,14.713,4.734,17.7,4.15,18.8" fill="#999"/>
		</g>
	</g>
</svg>