<svg id="버스" xmlns="http://www.w3.org/2000/svg" width="29.278" height="28.999" viewBox="0 0 29.278 28.999">
	<defs>
		<clipPath id="clip-path">
			<rect id="사각형_21" data-name="사각형 21" width="29.278" height="28.999" fill="none"/>
		</clipPath>
	</defs>
	<g id="그룹_32" data-name="그룹 32">
		<g id="그룹_31" data-name="그룹 31" clip-path="url(#clip-path)">
			<path id="패스_61" data-name="패스 61" d="M23.679,25.715H5.52a2.028,2.028,0,0,1-2.03-2.026V3.613A3.616,3.616,0,0,1,7.11,0H22.088a3.616,3.616,0,0,1,3.62,3.613V23.689a2.028,2.028,0,0,1-2.03,2.026" fill="#999"/>
			<path id="패스_62" data-name="패스 62" d="M2.641,11.61H1.114A1.113,1.113,0,0,1,0,10.5V6.751A1.113,1.113,0,0,1,1.114,5.639H2.641Z" fill="#999"/>
			<path id="패스_63" data-name="패스 63" d="M26.636,11.589h1.527a1.113,1.113,0,0,0,1.114-1.112V6.731a1.113,1.113,0,0,0-1.114-1.112H26.636Z" fill="#999"/>
			<path id="패스_64" data-name="패스 64" d="M21.829,14.97H7.139a1.4,1.4,0,0,1-1.4-1.4V4.486a2.205,2.205,0,0,1,2.208-2.2H21.024a2.205,2.205,0,0,1,2.208,2.2V13.57a1.4,1.4,0,0,1-1.4,1.4" fill="#fff"/>
			<path id="패스_65" data-name="패스 65" d="M8.814,22.748H5.958a.52.52,0,0,1-.52-.519v-1.6a.52.52,0,0,1,.52-.519H8.814a.52.52,0,0,1,.52.519v1.6a.52.52,0,0,1-.52.519" fill="#fff"/>
			<path id="패스_66" data-name="패스 66" d="M23.441,22.748H20.585a.52.52,0,0,1-.52-.519v-1.6a.52.52,0,0,1,.52-.519h2.856a.52.52,0,0,1,.52.519v1.6a.52.52,0,0,1-.52.519" fill="#fff"/>
			<path id="패스_67" data-name="패스 67" d="M5.22,27.494A1.507,1.507,0,0,0,6.729,29H8.614a1.507,1.507,0,0,0,1.508-1.505v-.941H5.22Z" fill="#5686c5"/>
			<path id="패스_68" data-name="패스 68" d="M19.562,26.553v.941A1.507,1.507,0,0,0,21.07,29h1.885a1.507,1.507,0,0,0,1.508-1.505v-.941Z" fill="#5686c5"/>
			<rect id="사각형_20" data-name="사각형 20" width="8.273" height="0.865" transform="translate(10.563 21.692)" fill="#fff"/>
		</g>
	</g>
</svg>