<svg xmlns="http://www.w3.org/2000/svg" width="35.276" height="25.554" viewBox="0 0 35.276 25.554">
	<defs>
		<clipPath id="clip-path">
			<rect id="사각형_27" data-name="사각형 27" width="35.276" height="25.554" transform="translate(0 0)" fill="none"/>
		</clipPath>
	</defs>
	<g id="벡터_고급_개체" data-name="벡터 고급 개체" transform="translate(0 0)">
		<g id="그룹_36" data-name="그룹 36">
			<g id="그룹_35" data-name="그룹 35" clip-path="url(#clip-path)">
				<path id="패스_72" data-name="패스 72" d="M17.638,25.554a1.106,1.106,0,0,1-.617-.188C14.157,23.443,9.642,23.04,6.358,23.04a40.477,40.477,0,0,0-5.089.312,1.107,1.107,0,0,1-.886-.264A1.125,1.125,0,0,1,0,22.241V2.115A1.119,1.119,0,0,1,.963,1,40.888,40.888,0,0,1,6.5.611c7.684,0,11.576,2.433,11.738,2.537a1.124,1.124,0,0,1,.517.947V24.432a1.123,1.123,0,0,1-.588.989,1.106,1.106,0,0,1-.526.133M6.358,20.8a26.046,26.046,0,0,1,10.166,1.752V4.769A23.371,23.371,0,0,0,6.5,2.854a37.8,37.8,0,0,0-4.27.251V20.988C3.2,20.9,4.66,20.8,6.358,20.8" fill="#999"/>
				<path id="패스_73" data-name="패스 73" d="M17.638,25.554a1.106,1.106,0,0,1-.526-.133,1.123,1.123,0,0,1-.588-.989V4.095a1.124,1.124,0,0,1,.516-.947C17.2,3.044,21.094.611,28.779.611A40.843,40.843,0,0,1,34.313,1a1.119,1.119,0,0,1,.963,1.111V22.241a1.125,1.125,0,0,1-.384.847,1.106,1.106,0,0,1-.886.264,40.394,40.394,0,0,0-5.089-.312c-3.283,0-7.8.4-10.661,2.326a1.108,1.108,0,0,1-.618.188M18.751,4.769V22.548A26.044,26.044,0,0,1,28.917,20.8c1.7,0,3.159.1,4.132.192V3.105a37.861,37.861,0,0,0-4.27-.251A23.373,23.373,0,0,0,18.751,4.769" fill="#999"/>
				<path id="패스_74" data-name="패스 74" d="M7.6,10.73A1.118,1.118,0,0,1,6.49,9.608V1.122a1.113,1.113,0,1,1,2.227,0V9.608A1.118,1.118,0,0,1,7.6,10.73" fill="#5686c5"/>
			</g>
		</g>
	</g>
</svg>