<svg id="벡터_고급_개체" data-name="벡터 고급 개체" xmlns="http://www.w3.org/2000/svg" width="29" height="29" viewBox="0 0 29 29">
	<defs>
		<clipPath id="clip-path">
			<rect id="사각형_16" data-name="사각형 16" width="29" height="29" transform="translate(0 0)" fill="none"/>
		</clipPath>
	</defs>
	<g id="그룹_26" data-name="그룹 26">
		<g id="그룹_25" data-name="그룹 25" clip-path="url(#clip-path)">
			<path id="패스_66" data-name="패스 66" d="M24.013,24.013a13.453,13.453,0,1,1,0-19.025A13.453,13.453,0,0,1,24.013,24.013Z" fill="none" stroke="#999" stroke-miterlimit="10" stroke-width="2.094"/>
			<path id="패스_67" data-name="패스 67" d="M14.385,9.164a3.763,3.763,0,0,1,5.315,0l.135.135a3.762,3.762,0,0,1,0,5.315L17.83,16.619,19.311,18.1,21.316,16.1a5.859,5.859,0,0,0,0-8.277l-.135-.135a5.86,5.86,0,0,0-8.277,0L10.9,9.688l1.481,1.481Z" fill="#5686c5"/>
			<path id="패스_68" data-name="패스 68" d="M14.345,20.105a3.762,3.762,0,0,1-5.315,0l-.135-.135a3.762,3.762,0,0,1,0-5.315L10.9,12.65,9.419,11.169,7.414,13.174a5.859,5.859,0,0,0,0,8.277l.135.135a5.859,5.859,0,0,0,8.277,0l2.005-2.005L16.35,18.1Z" fill="#5686c5"/>
			<path id="패스_69" data-name="패스 69" d="M11.346,17.654a1.047,1.047,0,0,1,0-1.481l4.828-4.828a1.047,1.047,0,0,1,1.481,1.481l-4.828,4.828a1.047,1.047,0,0,1-1.481,0" fill="#999"/>
		</g>
	</g>
</svg>