<svg xmlns="http://www.w3.org/2000/svg" width="30" height="26" viewBox="0 0 30 26">
	<defs>
		<clipPath id="clip-path">
			<rect id="사각형_26" data-name="사각형 26" width="30" height="26" transform="translate(0 0)" fill="none"/>
		</clipPath>
	</defs>
	<g id="벡터_고급_개체" data-name="벡터 고급 개체" transform="translate(0 0)">
		<g id="그룹_44" data-name="그룹 44">
			<g id="그룹_43" data-name="그룹 43" clip-path="url(#clip-path)">
				<path id="패스_101" data-name="패스 101" d="M20.017,6.493A1.059,1.059,0,0,1,18.96,5.431V2.124H11.04V5.431a1.057,1.057,0,1,1-2.113,0V1.062A1.059,1.059,0,0,1,9.983,0H20.017a1.059,1.059,0,0,1,1.057,1.062V5.431a1.059,1.059,0,0,1-1.057,1.062" fill="#999"/>
				<path id="패스_102" data-name="패스 102" d="M28.943,26H1.057A1.059,1.059,0,0,1,0,24.938V5.431A1.059,1.059,0,0,1,1.057,4.369H28.943A1.059,1.059,0,0,1,30,5.431V24.938A1.059,1.059,0,0,1,28.943,26M2.113,23.876H27.887V6.493H2.113Z" fill="#999"/>
				<path id="패스_103" data-name="패스 103" d="M26.29,17.1H17.315a.929.929,0,0,1,0-1.859h8.253l2.194-8.881H2.239l2.194,8.881h8.253a.929.929,0,0,1,0,1.859H3.71a.925.925,0,0,1-.9-.705L.159,5.655a.934.934,0,0,1,.169-.8A.923.923,0,0,1,1.057,4.5H28.943a.923.923,0,0,1,.728.357.933.933,0,0,1,.169.8L27.188,16.4a.925.925,0,0,1-.9.705" fill="#999"/>
				<path id="패스_104" data-name="패스 104" d="M15,20.061a1.168,1.168,0,0,0,1.113-.834H13.887A1.167,1.167,0,0,0,15,20.061" fill="#5686c5"/>
				<path id="패스_105" data-name="패스 105" d="M18.433,17.522a.34.34,0,0,1-.314-.34V15.326a3.12,3.12,0,1,0-6.24,0v1.856a.34.34,0,0,1-.314.34.207.207,0,0,0-.19.206v.609a.207.207,0,0,0,.206.207h6.835a.207.207,0,0,0,.206-.207v-.609a.207.207,0,0,0-.19-.206" fill="#5686c5"/>
			</g>
		</g>
	</g>
</svg>