<svg id="벡터_고급_개체" data-name="벡터 고급 개체" xmlns="http://www.w3.org/2000/svg" width="22" height="28" viewBox="0 0 22 28">
	<defs>
		<clipPath id="clip-path">
			<rect id="사각형_17" data-name="사각형 17" width="22" height="28" transform="translate(0 0)" fill="none"/>
		</clipPath>
	</defs>
	<g id="그룹_28" data-name="그룹 28">
		<g id="그룹_27" data-name="그룹 27" clip-path="url(#clip-path)">
			<path id="패스_70" data-name="패스 70" d="M8.292,14a1.468,1.468,0,1,1-1.468-1.464A1.466,1.466,0,0,1,8.292,14" fill="#5686c5"/>
			<path id="패스_71" data-name="패스 71" d="M12.468,14A1.468,1.468,0,1,1,11,12.537,1.466,1.466,0,0,1,12.468,14" fill="#5686c5"/>
			<path id="패스_72" data-name="패스 72" d="M16.644,14a1.468,1.468,0,1,1-1.468-1.464A1.466,1.466,0,0,1,16.644,14" fill="#5686c5"/>
			<path id="패스_73" data-name="패스 73" d="M19.054,0H2.946A2.945,2.945,0,0,0,0,2.938V25.062A2.945,2.945,0,0,0,2.946,28H19.054A2.945,2.945,0,0,0,22,25.062V2.938A2.945,2.945,0,0,0,19.054,0M1.873,5.286H20.127V21.313H1.873ZM2.946,1.868H19.054a1.072,1.072,0,0,1,1.072,1.07v.481H1.873V2.938a1.072,1.072,0,0,1,1.072-1.07M19.054,26.132H2.946a1.072,1.072,0,0,1-1.072-1.07V23.181H20.127v1.882a1.072,1.072,0,0,1-1.072,1.07" fill="#999"/>
			<path id="패스_74" data-name="패스 74" d="M11,23.79a.832.832,0,1,0,.834.832A.833.833,0,0,0,11,23.79" fill="#999"/>
		</g>
	</g>
</svg>