<svg id="벡터_고급_개체" data-name="벡터 고급 개체" xmlns="http://www.w3.org/2000/svg" width="28" height="28" viewBox="0 0 28 28">
	<defs>
		<clipPath id="clip-path">
			<rect id="사각형_8" data-name="사각형 8" width="28" height="28" transform="translate(0 0)" fill="none"/>
		</clipPath>
	</defs>
	<g id="그룹_14" data-name="그룹 14">
		<g id="그룹_13" data-name="그룹 13" clip-path="url(#clip-path)">
			<path id="패스_32" data-name="패스 32" d="M25.473,15.7a3.727,3.727,0,0,0,0-7.057" fill="#5686c5"/>
			<path id="패스_33" data-name="패스 33" d="M10.8,28H7.2a.976.976,0,0,1-.974-.978V18.593a.976.976,0,0,1,.974-.978h3.6a.976.976,0,0,1,.974.978v8.429A.976.976,0,0,1,10.8,28M8.174,26.045H9.828V19.571H8.174Z" fill="#999"/>
			<path id="패스_34" data-name="패스 34" d="M21.859,23.52a.971.971,0,0,1-.488-.132L14.8,19.571H7.372a7.4,7.4,0,0,1,0-14.793H14.8L21.371.961a.974.974,0,0,1,1.463.846V22.542a.976.976,0,0,1-.974.978M7.372,6.733a5.441,5.441,0,0,0,0,10.882h7.687a.971.971,0,0,1,.488.132l5.338,3.1V3.5L15.547,6.6a.973.973,0,0,1-.488.132Z" fill="#999"/>
			<path id="패스_35" data-name="패스 35" d="M23.718,24.349a2.761,2.761,0,0,1-1.376-.4l-.972-.565.977-1.692.971.565a.688.688,0,0,0,.431.136.738.738,0,0,0,.093-.439V2.4a.694.694,0,0,0-.1-.443.724.724,0,0,0-.425.139l-.971.564L21.371.966,22.342.4A2.339,2.339,0,0,1,24.72.263,2.356,2.356,0,0,1,25.791,2.4V21.952a2.355,2.355,0,0,1-1.071,2.134,1.981,1.981,0,0,1-1,.263" fill="#999"/>
		</g>
	</g>
</svg>