<svg xmlns="http://www.w3.org/2000/svg" width="29.379" height="26.035" viewBox="0 0 29.379 26.035">
	<defs>
		<clipPath id="clip-path">
			<rect id="사각형_14" data-name="사각형 14" width="29.379" height="26.035" transform="translate(0 0)" fill="none"/>
		</clipPath>
	</defs>
	<g id="그룹_22" data-name="그룹 22" transform="translate(0 0)">
		<g id="그룹_21" data-name="그룹 21" clip-path="url(#clip-path)">
			<path id="패스_39" data-name="패스 39" d="M28.421,10.562H.958a.964.964,0,0,1,0-1.927H28.421a.964.964,0,0,1,0,1.927" fill="#5686c5"/>
			<path id="패스_40" data-name="패스 40" d="M7.755,15.9h-1.8a.725.725,0,0,1-.723-.728V13.363a.725.725,0,0,1,.723-.728h1.8a.725.725,0,0,1,.723.728v1.806a.725.725,0,0,1-.723.728" fill="#999"/>
			<path id="패스_41" data-name="패스 41" d="M15.588,15.9h-1.8a.725.725,0,0,1-.723-.728V13.363a.725.725,0,0,1,.723-.728h1.8a.725.725,0,0,1,.723.728v1.806a.725.725,0,0,1-.723.728" fill="#999"/>
			<path id="패스_42" data-name="패스 42" d="M23.42,15.9h-1.8a.725.725,0,0,1-.723-.728V13.363a.725.725,0,0,1,.723-.728h1.8a.725.725,0,0,1,.723.728v1.806a.725.725,0,0,1-.723.728" fill="#999"/>
			<path id="패스_43" data-name="패스 43" d="M7.755,21.032h-1.8a.725.725,0,0,1-.723-.728V18.5a.725.725,0,0,1,.723-.728h1.8a.725.725,0,0,1,.723.728V20.3a.725.725,0,0,1-.723.728" fill="#999"/>
			<path id="패스_44" data-name="패스 44" d="M15.588,21.032h-1.8a.725.725,0,0,1-.723-.728V18.5a.725.725,0,0,1,.723-.728h1.8a.725.725,0,0,1,.723.728V20.3a.725.725,0,0,1-.723.728" fill="#999"/>
			<path id="패스_45" data-name="패스 45" d="M23.42,21.032h-1.8A.725.725,0,0,1,20.9,20.3V18.5a.725.725,0,0,1,.723-.728h1.8a.725.725,0,0,1,.723.728V20.3a.725.725,0,0,1-.723.728" fill="#999"/>
			<path id="패스_46" data-name="패스 46" d="M26.758,3.311H24V.964a.958.958,0,1,0-1.916,0V3.311H7.295V.964a.958.958,0,1,0-1.916,0V3.311H2.622A2.632,2.632,0,0,0,0,5.948V23.4a2.632,2.632,0,0,0,2.622,2.637H26.758A2.632,2.632,0,0,0,29.379,23.4V5.948a2.632,2.632,0,0,0-2.622-2.637M27.463,23.4a.708.708,0,0,1-.705.71H2.622a.708.708,0,0,1-.705-.71V5.948a.708.708,0,0,1,.705-.709H5.378V6.865a.958.958,0,1,0,1.916,0V5.238h14.79V6.865a.958.958,0,1,0,1.916,0V5.238h2.757a.708.708,0,0,1,.705.709Z" fill="#999"/>
		</g>
	</g>
</svg>