<svg xmlns="http://www.w3.org/2000/svg" width="27" height="24" viewBox="0 0 27 24">
	<defs>
		<clipPath id="clip-path">
			<rect id="사각형_15" data-name="사각형 15" width="27" height="24" transform="translate(0 0)" fill="none"/>
		</clipPath>
	</defs>
	<g id="벡터_고급_개체" data-name="벡터 고급 개체" transform="matrix(-1, 0, 0, -1, 27, 24)">
		<g id="그룹_24" data-name="그룹 24">
			<g id="그룹_23" data-name="그룹 23" clip-path="url(#clip-path)">
				<path id="패스_54" data-name="패스 54" d="M10.006,5.219a3.42,3.42,0,0,1,6.835,0,3.271,3.271,0,0,1-1.9,2.933l1.011,1.682a5.2,5.2,0,0,0,2.9-4.615A5.337,5.337,0,0,0,13.423,0,5.337,5.337,0,0,0,7.986,5.219a5.191,5.191,0,0,0,2.779,4.548L11.774,8.09a3.265,3.265,0,0,1-1.768-2.871" fill="#999"/>
				<path id="패스_55" data-name="패스 55" d="M13.971,10.411l-.63-1.048-.617,1.026a5.7,5.7,0,0,0,.7.048c.185,0,.367-.009.548-.027" fill="#999"/>
				<path id="패스_56" data-name="패스 56" d="M17.932,17l-.766-1.274A5.131,5.131,0,0,0,16.46,17Z" fill="#999"/>
				<path id="패스_57" data-name="패스 57" d="M21.563,13.562a5.565,5.565,0,0,0-2.883.8l1.009,1.677a3.5,3.5,0,0,1,1.874-.541,3.283,3.283,0,1,1-3.409,3.436h-2.02A5.442,5.442,0,0,0,27,18.781a5.337,5.337,0,0,0-5.437-5.219" fill="#999"/>
				<path id="패스_58" data-name="패스 58" d="M5.437,22.061a3.283,3.283,0,1,1,0-6.561,3.509,3.509,0,0,1,1.638.4l1.009-1.677a5.577,5.577,0,0,0-2.646-.664A5.337,5.337,0,0,0,0,18.781,5.337,5.337,0,0,0,5.437,24a5.342,5.342,0,0,0,5.429-5.063H8.846a3.36,3.36,0,0,1-3.409,3.125" fill="#999"/>
				<path id="패스_59" data-name="패스 59" d="M8.748,17H10.54a5.165,5.165,0,0,0-.887-1.506Z" fill="#999"/>
				<path id="패스_60" data-name="패스 60" d="M17.166,15.724a5.389,5.389,0,0,1,1.514-1.36l-2.725-4.53a5.558,5.558,0,0,1-1.985.578Z" fill="#5686c5"/>
				<path id="패스_61" data-name="패스 61" d="M16.46,17H10.541a5,5,0,0,1,.333,1.783c0,.053-.007.1-.008.156h5.268c0-.052-.008-.1-.008-.156A5,5,0,0,1,16.46,17" fill="#5686c5"/>
				<path id="패스_62" data-name="패스 62" d="M9.654,15.492l3.069-5.1a5.55,5.55,0,0,1-1.957-.623L8.083,14.226a5.426,5.426,0,0,1,1.57,1.266" fill="#5686c5"/>
				<path id="패스_63" data-name="패스 63" d="M13.34,9.363l.63,1.048a5.558,5.558,0,0,0,1.985-.578L14.944,8.153a3.518,3.518,0,0,1-3.17-.062L10.765,9.767a5.546,5.546,0,0,0,1.958.622Z" fill="#999"/>
				<path id="패스_64" data-name="패스 64" d="M18.146,18.781a3.247,3.247,0,0,1,1.543-2.74L18.68,14.364a5.389,5.389,0,0,0-1.514,1.36L17.932,17H16.46a5,5,0,0,0-.334,1.783c0,.053.007.1.008.156h2.02c0-.052-.008-.1-.008-.156" fill="#999"/>
				<path id="패스_65" data-name="패스 65" d="M10.54,17H8.748l.906-1.506a5.422,5.422,0,0,0-1.57-1.266L7.075,15.9a3.266,3.266,0,0,1,1.78,2.878c0,.053-.006.1-.008.156h2.02c0-.052.008-.1.008-.156A5,5,0,0,0,10.54,17" fill="#999"/>
			</g>
		</g>
	</g>
</svg>