<svg xmlns="http://www.w3.org/2000/svg" width="26.412" height="28.77" viewBox="0 0 26.412 28.77">
	<defs>
		<clipPath id="clip-path">
			<rect id="사각형_29" data-name="사각형 29" width="26.412" height="28.77" transform="translate(0 0)" fill="none"/>
		</clipPath>
	</defs>
	<g id="그룹_40" data-name="그룹 40" transform="translate(0 0)">
		<g id="그룹_39" data-name="그룹 39" clip-path="url(#clip-path)">
			<path id="패스_81" data-name="패스 81" d="M19.265,7.068a.939.939,0,0,1-.613-.226L13.206,2.189,7.76,6.841A.945.945,0,1,1,6.533,5.4L12.593.226a.944.944,0,0,1,1.226,0L19.879,5.4a.946.946,0,0,1-.614,1.665" fill="#999"/>
			<path id="패스_82" data-name="패스 82" d="M.945,12.366A.946.946,0,0,1,.331,10.7L4.139,7.448A.945.945,0,0,1,5.366,8.887L1.558,12.14a.939.939,0,0,1-.613.226" fill="#999"/>
			<path id="패스_83" data-name="패스 83" d="M25.466,12.366a.939.939,0,0,1-.613-.226L21.045,8.886a.945.945,0,0,1,1.227-1.438L26.08,10.7a.946.946,0,0,1-.614,1.665" fill="#999"/>
			<path id="패스_84" data-name="패스 84" d="M21.658,15.62a.945.945,0,0,1-.945-.946V7.067H5.7v7.607a.945.945,0,1,1-1.889,0V6.122a.945.945,0,0,1,.945-.946H21.658a.945.945,0,0,1,.945.946v8.553a.945.945,0,0,1-.945.946" fill="#5686c5"/>
			<path id="패스_85" data-name="패스 85"
			      d="M26.406,11.371a.946.946,0,0,0-.01-.1c0-.03-.011-.058-.018-.087s-.017-.06-.028-.089-.023-.058-.037-.087-.027-.052-.042-.078a.96.96,0,0,0-.058-.083c-.01-.013-.017-.028-.028-.041s-.018-.016-.026-.025a1,1,0,0,0-.072-.069c-.022-.02-.044-.039-.068-.056a.836.836,0,0,0-.243-.126c-.03-.01-.059-.02-.089-.027s-.057-.011-.086-.015a.946.946,0,0,0-.1-.01c-.012,0-.023,0-.035,0s-.033,0-.05,0a.9.9,0,0,0-.1.01c-.029,0-.058.011-.086.018a.941.941,0,0,0-.09.028c-.029.011-.057.023-.085.037s-.053.027-.078.043a.986.986,0,0,0-.082.057c-.013.01-.028.017-.041.029L13.206,20.653,1.558,10.7c-.013-.011-.028-.018-.042-.029a.907.907,0,0,0-.082-.057c-.026-.016-.051-.029-.078-.042s-.057-.026-.086-.037-.058-.02-.088-.027-.058-.014-.088-.019a.976.976,0,0,0-.1-.01c-.017,0-.034,0-.051,0s-.024,0-.036,0a.894.894,0,0,0-.1.01c-.03,0-.06.009-.089.016s-.058.017-.086.027-.058.02-.086.033-.053.028-.079.043-.054.031-.079.05-.046.036-.068.056a.984.984,0,0,0-.072.069c-.008.009-.018.016-.026.025s-.019.028-.029.042a.987.987,0,0,0-.057.082c-.016.026-.03.052-.043.079s-.026.056-.037.085a.884.884,0,0,0-.028.09.855.855,0,0,0-.018.086.963.963,0,0,0-.01.1c0,.017,0,.033,0,.05v16.4a.945.945,0,0,0,.945.946H25.467a.945.945,0,0,0,.945-.946v-16.4c0-.017,0-.033-.005-.05M24.522,23.395l-5.893-4.889,5.893-5.035ZM1.889,13.471l5.893,5.035L1.889,23.395Zm0,13.408V25.851l7.352-6.1,3.351,2.863a.945.945,0,0,0,1.227,0l3.351-2.863,7.352,6.1v1.028Z"
			      fill="#999"/>
		</g>
	</g>
</svg>