<svg id="벡터_고급_개체" data-name="벡터 고급 개체" xmlns="http://www.w3.org/2000/svg" width="22" height="28" viewBox="0 0 22 28">
	<defs>
		<clipPath id="clip-path">
			<rect id="사각형_33" data-name="사각형 33" width="22" height="28" fill="none"/>
		</clipPath>
	</defs>
	<g id="그룹_50" data-name="그룹 50">
		<g id="그룹_49" data-name="그룹 49" clip-path="url(#clip-path)">
			<path id="패스_111" data-name="패스 111" d="M2,28a2,2,0,0,1-2-2V3.508a2,2,0,0,1,1.99-2H6.252a.934.934,0,0,1,0,1.868H2a.133.133,0,0,0-.128.133V26A.133.133,0,0,0,2,26.132H20A.132.132,0,0,0,20.133,26V3.509A.133.133,0,0,0,20,3.376H16.3a.934.934,0,0,1,0-1.868H20a2,2,0,0,1,2,2V26a2,2,0,0,1-1.991,2Z" fill="#999"/>
			<rect id="사각형_29" data-name="사각형 29" width="1.967" height="1.967" transform="translate(5.48 16.689)" fill="#999"/>
			<rect id="사각형_30" data-name="사각형 30" width="1.967" height="1.967" transform="translate(5.48 20.656)" fill="#999"/>
			<rect id="사각형_31" data-name="사각형 31" width="7.088" height="1.868" transform="translate(9.305 16.739)" fill="#999"/>
			<rect id="사각형_32" data-name="사각형 32" width="7.088" height="1.868" transform="translate(9.305 20.706)" fill="#999"/>
			<path id="패스_112" data-name="패스 112" d="M15.784,5.254H6.773A1.456,1.456,0,0,1,5.319,3.8V1.454A1.456,1.456,0,0,1,6.773,0h9.011a1.456,1.456,0,0,1,1.454,1.454V3.8a1.456,1.456,0,0,1-1.454,1.454m-8.6-1.868h8.185V1.868H7.186Z" fill="#999"/>
			<path id="패스_113" data-name="패스 113" d="M11,8.061a.192.192,0,0,0-.062.008L6.614,10.083l4.317,1.894a.217.217,0,0,0,.069.009.21.21,0,0,0,.069-.009l3.117-1.368,1.2-.526L11.061,8.069A.186.186,0,0,0,11,8.061" fill="#5686c5"/>
			<path id="패스_114" data-name="패스 114" d="M11,12.578a.779.779,0,0,1-.307-.059l-2.7-1.186v2.183A4.959,4.959,0,0,0,11,14.244a4.959,4.959,0,0,0,3.009-.728V11.333l-2.7,1.186a.777.777,0,0,1-.307.059" fill="#5686c5"/>
		</g>
	</g>
</svg>