<svg xmlns="http://www.w3.org/2000/svg" width="27.829" height="26" viewBox="0 0 27.829 26">
	<defs>
		<clipPath id="clip-path">
			<rect id="사각형_95" data-name="사각형 95" width="27.829" height="26" fill="none"/>
		</clipPath>
	</defs>
	<g id="벡터_고급_개체" data-name="벡터 고급 개체" transform="translate(-2.495 1)">
		<g id="그룹_54" data-name="그룹 54" transform="translate(2.495 -1)">
			<g id="그룹_53" data-name="그룹 53" transform="translate(0 0)" clip-path="url(#clip-path)">
				<path id="패스_173" data-name="패스 173" d="M60.817,41.292l.318-1.025a5.382,5.382,0,0,1-2.6,0l.318,1.025h.1l-1.027,6.654,1.905,2.189,1.9-2.189-1.026-6.654Z" transform="translate(-41.055 -28.537)" fill="#5686c5"/>
				<path id="패스_174" data-name="패스 174" d="M23.145,11.411A6.532,6.532,0,1,0,13.915,2.2a6.532,6.532,0,1,0-9.23,9.214A9.091,9.091,0,0,0,0,19.324v5.511a1.165,1.165,0,1,0,2.33,0V19.324a6.735,6.735,0,0,1,5.282-6.551,1.165,1.165,0,0,0,.116-2.247,4.2,4.2,0,1,1,4.9-6.154,6.545,6.545,0,0,0,1.815,7.038q-.272.151-.532.32a9.124,9.124,0,0,0-4.153,7.594v5.511a1.165,1.165,0,1,0,2.33,0V19.324a6.761,6.761,0,0,1,3.689-5.983,6.572,6.572,0,0,1,1.594-.567,1.165,1.165,0,0,0,.116-2.247,4.2,4.2,0,1,1,2.61,0,1.165,1.165,0,0,0,.116,2.247A6.734,6.734,0,0,1,25.5,19.324v5.511a1.165,1.165,0,1,0,2.33,0V19.324a9.091,9.091,0,0,0-4.684-7.913" transform="translate(0 0)" fill="#999"/>
			</g>
		</g>
	</g>
</svg>